<?xml version="1.0" encoding="utf-8"?>
<COLLADA xmlns="http://www.collada.org/2005/11/COLLADASchema" version="1.4.1" xmlns:xsi="http://www.w3.org/2001/XMLSchema-instance">
  <asset>
    <contributor>
      <author>Blender User</author>
      <authoring_tool>traducao_ptbr_wcusa r19_mesh.py (R-19 40 km/h) from Blender 4.0.2 commit date:2023-12-05, commit time:07:41, hash:9be62e85b727</authoring_tool>
    </contributor>
    <created>2026-07-21T15:15:29</created>
    <modified>2026-07-21T15:15:29</modified>
    <unit name="meter" meter="1"/>
    <up_axis>Z_UP</up_axis>
  </asset>
  <library_effects>
    <effect id="roadsigns-effect">
      <profile_COMMON>
        <technique sid="common">
          <lambert>
            <emission>
              <color sid="emission">0 0 0 1</color>
            </emission>
            <diffuse>
              <color sid="diffuse">0 0 0 1</color>
            </diffuse>
            <index_of_refraction>
              <float sid="ior">1.45</float>
            </index_of_refraction>
          </lambert>
        </technique>
      </profile_COMMON>
    </effect>
    <effect id="metal_galvanized-effect">
      <profile_COMMON>
        <technique sid="common">
          <lambert>
            <emission>
              <color sid="emission">0 0 0 1</color>
            </emission>
            <diffuse>
              <color sid="diffuse">0 0 0 1</color>
            </diffuse>
            <index_of_refraction>
              <float sid="ior">1.45</float>
            </index_of_refraction>
          </lambert>
        </technique>
      </profile_COMMON>
    </effect>
  </library_effects>
  <library_images/>
  <library_materials>
    <material id="roadsigns_ptbr_r19_40-material" name="roadsigns_ptbr_r19_40">
      <instance_effect url="#roadsigns-effect"/>
    </material>
    <material id="roadsigns_ptbr_r19_back-material" name="roadsigns_ptbr_r19_back">
      <instance_effect url="#metal_galvanized-effect"/>
    </material>
  </library_materials>
  <library_geometries>
    <geometry id="Plane_061-mesh" name="Plane.061">
      <mesh>
        <source id="Plane_061-mesh-positions">
          <float_array id="Plane_061-mesh-positions-array" count="60">-0.3658399 0.007514715 -0.5 0.3658399 0.007514715 -0.5 -0.3658399 0.007514715 0.5 0.3658399 0.007514715 0.5 -0.2989815 -0.002485275 0.01599454 0.2989815 -0.002485275 0.01599454 -0.2989815 -0.002485275 0.4350568 0.2989815 -0.002485275 0.4350568 -0.07222366 -0.002485275 -0.4592841 0.3632782 -0.002485275 -0.4592841 -0.07222366 -0.002485275 0.04018014 0.3632782 -0.002485275 0.04018014 -0.3658399 0.01135432 -0.5 0.3658399 0.01135432 -0.5 -0.3658399 0.01135432 0.5 0.3658399 0.01135432 0.5 -0.3969812 -0.002485275 -0.4592841 0.03852057 -0.002485275 -0.4592841 -0.3969812 -0.002485275 0.04018014 0.03852057 -0.002485275 0.04018014</float_array>
          <technique_common>
            <accessor source="#Plane_061-mesh-positions-array" count="20" stride="3">
              <param name="X" type="float"/>
              <param name="Y" type="float"/>
              <param name="Z" type="float"/>
            </accessor>
          </technique_common>
        </source>
        <source id="Plane_061-mesh-normals">
          <float_array id="Plane_061-mesh-normals-array" count="6">0 -1 0 0 1 0</float_array>
          <technique_common>
            <accessor source="#Plane_061-mesh-normals-array" count="2" stride="3">
              <param name="X" type="float"/>
              <param name="Y" type="float"/>
              <param name="Z" type="float"/>
            </accessor>
          </technique_common>
        </source>
        <source id="Plane_061-mesh-map-0">
          <float_array id="Plane_061-mesh-map-0-array" count="60">1 0 0 1 0 0 0.01 0.99 0.01 0.99 0.01 0.99 0.01 0.99 0.01 0.99 0.01 0.99 0.01 0.99 0.01 0.99 0.01 0.99 0 1 1 0 0 0 1 0 1 1 0 1 0.01 0.99 0.01 0.99 0.01 0.99 0.01 0.99 0.01 0.99 0.01 0.99 0.01 0.99 0.01 0.99 0.01 0.99 0 1 1 1 1 0</float_array>
          <technique_common>
            <accessor source="#Plane_061-mesh-map-0-array" count="30" stride="2">
              <param name="S" type="float"/>
              <param name="T" type="float"/>
            </accessor>
          </technique_common>
        </source>
        <source id="Plane_061-mesh-colors-Col" name="Col">
          <float_array id="Plane_061-mesh-colors-Col-array" count="120">1 1 1 1 1 1 1 1 1 1 1 1 1 1 1 1 1 1 1 1 1 1 1 1 0 0 0 1 0 0 0 1 0 0 0 1 0 0 0 1 0 0 0 1 0 0 0 1 1 1 1 1 1 1 1 1 1 1 1 1 1 1 1 1 1 1 1 1 1 1 1 1 1 1 1 1 1 1 1 1 1 1 1 1 0 0 0 1 0 0 0 1 0 0 0 1 0 0 0 1 0 0 0 1 0 0 0 1 1 1 1 1 1 1 1 1 1 1 1 1</float_array>
          <technique_common>
            <accessor source="#Plane_061-mesh-colors-Col-array" count="30" stride="4">
              <param name="R" type="float"/>
              <param name="G" type="float"/>
              <param name="B" type="float"/>
              <param name="A" type="float"/>
            </accessor>
          </technique_common>
        </source>
        <vertices id="Plane_061-mesh-vertices">
          <input semantic="POSITION" source="#Plane_061-mesh-positions"/>
        </vertices>
        <triangles material="roadsigns_ptbr_r19_40-material" count="8">
          <input semantic="VERTEX" source="#Plane_061-mesh-vertices" offset="0"/>
          <input semantic="NORMAL" source="#Plane_061-mesh-normals" offset="1"/>
          <input semantic="TEXCOORD" source="#Plane_061-mesh-map-0" offset="2" set="0"/>
          <input semantic="COLOR" source="#Plane_061-mesh-colors-Col" offset="3" set="0"/>
          <p>1 0 0 0 2 0 1 1 0 0 2 2 5 0 3 3 6 0 4 4 4 0 5 5 9 0 6 6 10 0 7 7 8 0 8 8 17 0 9 9 18 0 10 10 16 0 11 11 1 0 15 15 3 0 16 16 2 0 17 17 5 0 18 18 7 0 19 19 6 0 20 20 9 0 21 21 11 0 22 22 10 0 23 23 17 0 24 24 19 0 25 25 18 0 26 26</p>
        </triangles>
        <triangles material="roadsigns_ptbr_r19_back-material" count="2">
          <input semantic="VERTEX" source="#Plane_061-mesh-vertices" offset="0"/>
          <input semantic="NORMAL" source="#Plane_061-mesh-normals" offset="1"/>
          <input semantic="TEXCOORD" source="#Plane_061-mesh-map-0" offset="2" set="0"/>
          <input semantic="COLOR" source="#Plane_061-mesh-colors-Col" offset="3" set="0"/>
          <p>14 1 12 12 13 1 13 13 12 1 14 14 14 1 27 27 15 1 28 28 13 1 29 29</p>
        </triangles>
      </mesh>
    </geometry>
  </library_geometries>
  <library_visual_scenes>
    <visual_scene id="Scene" name="Scene">
      <node id="base00" name="base00" type="NODE">
        <matrix sid="transform">1 0 0 9.54475e-5 0 1 0 2.05673e-4 0 0 1 6.57132e-5 0 0 0 1</matrix>
        <node id="start01" name="start01" type="NODE">
          <matrix sid="transform">1 0 0 0 0 1 0 0 0 0 1 0 0 0 0 1</matrix>
          <node id="sign_speed25_a015" name="sign_speed25_a015" type="NODE">
            <matrix sid="transform">1 0 0 -9.54475e-5 0 1 0 -2.05673e-4 0 0 1 -6.57132e-5 0 0 0 1</matrix>
            <instance_geometry url="#Plane_061-mesh" name="sign_speed25_a015">
              <bind_material>
                <technique_common>
                  <instance_material symbol="roadsigns_ptbr_r19_40-material" target="#roadsigns_ptbr_r19_40-material">
                    <bind_vertex_input semantic="Plane_061-mesh-map-0" input_semantic="TEXCOORD" input_set="0"/>
                  </instance_material>
                  <instance_material symbol="roadsigns_ptbr_r19_back-material" target="#roadsigns_ptbr_r19_back-material">
                    <bind_vertex_input semantic="Plane_061-mesh-map-0" input_semantic="TEXCOORD" input_set="0"/>
                  </instance_material>
                </technique_common>
              </bind_material>
            </instance_geometry>
          </node>
          <node id="nulldetail10" name="nulldetail10" type="NODE">
            <matrix sid="transform">1 0 0 -9.54475e-5 0 1 0 -2.05673e-4 0 0 1 -6.57132e-5 0 0 0 1</matrix>
          </node>
        </node>
      </node>
    </visual_scene>
  </library_visual_scenes>
  <scene>
    <instance_visual_scene url="#Scene"/>
  </scene>
</COLLADA>