<?xml version="1.0" encoding="utf-8"?>
<COLLADA xmlns="http://www.collada.org/2005/11/COLLADASchema" version="1.4.1" xmlns:xsi="http://www.w3.org/2001/XMLSchema-instance">
  <asset>
    <contributor>
      <author>Blender User</author>
      <authoring_tool>Blender 4.5.5 LTS commit date:2025-11-17, commit time:16:03, hash:836beaaf597a</authoring_tool>
    </contributor>
    <created>2026-05-13T15:48:47</created>
    <modified>2026-05-13T15:48:47</modified>
    <unit name="meter" meter="1"/>
    <up_axis>Z_UP</up_axis>
  </asset>
  <library_effects>
    <effect id="architraves-effect">
      <profile_COMMON>
        <technique sid="common">
          <lambert>
            <emission>
              <color sid="emission">0 0 0 1</color>
            </emission>
            <diffuse>
              <color sid="diffuse">0.8 0.8 0.8 1</color>
            </diffuse>
            <index_of_refraction>
              <float sid="ior">1.45</float>
            </index_of_refraction>
          </lambert>
        </technique>
      </profile_COMMON>
    </effect>
    <effect id="industrial-effect">
      <profile_COMMON>
        <technique sid="common">
          <lambert>
            <emission>
              <color sid="emission">0 0 0 1</color>
            </emission>
            <diffuse>
              <color sid="diffuse">0 0 0 1</color>
            </diffuse>
            <reflectivity>
              <float sid="specular">1</float>
            </reflectivity>
            <index_of_refraction>
              <float sid="ior">1.45</float>
            </index_of_refraction>
          </lambert>
        </technique>
      </profile_COMMON>
    </effect>
    <effect id="windows_doors_reflective-effect">
      <profile_COMMON>
        <technique sid="common">
          <lambert>
            <emission>
              <color sid="emission">0 0 0 1</color>
            </emission>
            <diffuse>
              <color sid="diffuse">0.8 0.8 0.8 1</color>
            </diffuse>
            <index_of_refraction>
              <float sid="ior">1.45</float>
            </index_of_refraction>
          </lambert>
        </technique>
      </profile_COMMON>
    </effect>
    <effect id="corrugation-effect">
      <profile_COMMON>
        <technique sid="common">
          <lambert>
            <emission>
              <color sid="emission">0 0 0 1</color>
            </emission>
            <diffuse>
              <color sid="diffuse">0.8 0.8 0.8 1</color>
            </diffuse>
            <index_of_refraction>
              <float sid="ior">1.45</float>
            </index_of_refraction>
          </lambert>
        </technique>
      </profile_COMMON>
    </effect>
    <effect id="slabs_large-effect">
      <profile_COMMON>
        <technique sid="common">
          <lambert>
            <emission>
              <color sid="emission">0 0 0 1</color>
            </emission>
            <diffuse>
              <color sid="diffuse">0.8 0.8 0.8 1</color>
            </diffuse>
            <index_of_refraction>
              <float sid="ior">1.45</float>
            </index_of_refraction>
          </lambert>
        </technique>
      </profile_COMMON>
    </effect>
    <effect id="metal_plates-effect">
      <profile_COMMON>
        <technique sid="common">
          <lambert>
            <emission>
              <color sid="emission">0 0 0 1</color>
            </emission>
            <diffuse>
              <color sid="diffuse">0.8 0.8 0.8 1</color>
            </diffuse>
            <index_of_refraction>
              <float sid="ior">1.45</float>
            </index_of_refraction>
          </lambert>
        </technique>
      </profile_COMMON>
    </effect>
    <effect id="balustrades-effect">
      <profile_COMMON>
        <technique sid="common">
          <lambert>
            <emission>
              <color sid="emission">0 0 0 1</color>
            </emission>
            <diffuse>
              <color sid="diffuse">0 0 0 1</color>
            </diffuse>
            <index_of_refraction>
              <float sid="ior">1.45</float>
            </index_of_refraction>
          </lambert>
        </technique>
      </profile_COMMON>
    </effect>
    <effect id="brick_painted-effect">
      <profile_COMMON>
        <technique sid="common">
          <lambert>
            <emission>
              <color sid="emission">0 0 0 1</color>
            </emission>
            <diffuse>
              <color sid="diffuse">0.8 0.8 0.8 1</color>
            </diffuse>
            <index_of_refraction>
              <float sid="ior">1.45</float>
            </index_of_refraction>
          </lambert>
        </technique>
      </profile_COMMON>
    </effect>
    <effect id="stucco1_white-effect">
      <profile_COMMON>
        <technique sid="common">
          <lambert>
            <emission>
              <color sid="emission">0 0 0 1</color>
            </emission>
            <diffuse>
              <color sid="diffuse">0.8 0.8 0.8 1</color>
            </diffuse>
            <index_of_refraction>
              <float sid="ior">1.45</float>
            </index_of_refraction>
          </lambert>
        </technique>
      </profile_COMMON>
    </effect>
    <effect id="columns-effect">
      <profile_COMMON>
        <technique sid="common">
          <lambert>
            <emission>
              <color sid="emission">0 0 0 1</color>
            </emission>
            <diffuse>
              <color sid="diffuse">0 0 0 1</color>
            </diffuse>
            <index_of_refraction>
              <float sid="ior">1.45</float>
            </index_of_refraction>
          </lambert>
        </technique>
      </profile_COMMON>
    </effect>
    <effect id="construction-effect">
      <profile_COMMON>
        <technique sid="common">
          <lambert>
            <emission>
              <color sid="emission">0 0 0 1</color>
            </emission>
            <diffuse>
              <color sid="diffuse">0.8 0.8 0.8 1</color>
            </diffuse>
            <index_of_refraction>
              <float sid="ior">1.45</float>
            </index_of_refraction>
          </lambert>
        </technique>
      </profile_COMMON>
    </effect>
    <effect id="clutter_commercial-effect">
      <profile_COMMON>
        <technique sid="common">
          <lambert>
            <emission>
              <color sid="emission">0 0 0 1</color>
            </emission>
            <diffuse>
              <color sid="diffuse">0.8 0.8 0.8 1</color>
            </diffuse>
            <reflectivity>
              <float sid="specular">0.5</float>
            </reflectivity>
          </lambert>
        </technique>
      </profile_COMMON>
    </effect>
    <effect id="brick_plain-effect">
      <profile_COMMON>
        <technique sid="common">
          <lambert>
            <emission>
              <color sid="emission">0 0 0 1</color>
            </emission>
            <diffuse>
              <color sid="diffuse">0 0 0 1</color>
            </diffuse>
            <index_of_refraction>
              <float sid="ior">1.45</float>
            </index_of_refraction>
          </lambert>
        </technique>
      </profile_COMMON>
    </effect>
    <effect id="stone_brick_regular-effect">
      <profile_COMMON>
        <technique sid="common">
          <lambert>
            <emission>
              <color sid="emission">0 0 0 1</color>
            </emission>
            <diffuse>
              <color sid="diffuse">0 0 0 1</color>
            </diffuse>
            <index_of_refraction>
              <float sid="ior">1.45</float>
            </index_of_refraction>
          </lambert>
        </technique>
      </profile_COMMON>
    </effect>
    <effect id="curbs-effect">
      <profile_COMMON>
        <technique sid="common">
          <lambert>
            <emission>
              <color sid="emission">0 0 0 1</color>
            </emission>
            <diffuse>
              <color sid="diffuse">0 0 0 1</color>
            </diffuse>
            <index_of_refraction>
              <float sid="ior">1.45</float>
            </index_of_refraction>
          </lambert>
        </technique>
      </profile_COMMON>
    </effect>
    <effect id="wirefence-effect">
      <profile_COMMON>
        <technique sid="common">
          <lambert>
            <emission>
              <color sid="emission">0 0 0 1</color>
            </emission>
            <diffuse>
              <color sid="diffuse">0.8 0.8 0.8 1</color>
            </diffuse>
            <index_of_refraction>
              <float sid="ior">1.45</float>
            </index_of_refraction>
          </lambert>
        </technique>
      </profile_COMMON>
    </effect>
    <effect id="groundmesh_grass2-effect">
      <profile_COMMON>
        <newparam sid="groundmesh_grass_b_color_png-surface">
          <surface type="2D">
            <init_from>groundmesh_grass_b_color_png</init_from>
          </surface>
        </newparam>
        <newparam sid="groundmesh_grass_b_color_png-sampler">
          <sampler2D>
            <source>groundmesh_grass_b_color_png-surface</source>
          </sampler2D>
        </newparam>
        <technique sid="common">
          <lambert>
            <emission>
              <color sid="emission">0 0 0 1</color>
            </emission>
            <diffuse>
              <texture texture="groundmesh_grass_b_color_png-sampler" texcoord="UVMap"/>
            </diffuse>
            <index_of_refraction>
              <float sid="ior">1.45</float>
            </index_of_refraction>
          </lambert>
        </technique>
      </profile_COMMON>
    </effect>
    <effect id="billboards-effect">
      <profile_COMMON>
        <technique sid="common">
          <lambert>
            <emission>
              <color sid="emission">0 0 0 1</color>
            </emission>
            <diffuse>
              <color sid="diffuse">0.8 0.8 0.8 1</color>
            </diffuse>
            <reflectivity>
              <float sid="specular">0.5</float>
            </reflectivity>
          </lambert>
        </technique>
      </profile_COMMON>
    </effect>
    <effect id="road_asphalt-effect">
      <profile_COMMON>
        <technique sid="common">
          <lambert>
            <emission>
              <color sid="emission">0 0 0 1</color>
            </emission>
            <diffuse>
              <color sid="diffuse">0 0 0 1</color>
            </diffuse>
            <index_of_refraction>
              <float sid="ior">1.45</float>
            </index_of_refraction>
          </lambert>
        </technique>
      </profile_COMMON>
    </effect>
  </library_effects>
  <library_images>
    <image id="groundmesh_grass_b_color_png" name="groundmesh_grass_b_color_png">
      <init_from>groundmesh_grass_b.color.png</init_from>
    </image>
  </library_images>
  <library_materials>
    <material id="architraves-material" name="architraves">
      <instance_effect url="#architraves-effect"/>
    </material>
    <material id="industrial-material" name="industrial">
      <instance_effect url="#industrial-effect"/>
    </material>
    <material id="windows_doors_reflective-material" name="windows_doors_reflective">
      <instance_effect url="#windows_doors_reflective-effect"/>
    </material>
    <material id="corrugation-material" name="corrugation">
      <instance_effect url="#corrugation-effect"/>
    </material>
    <material id="slabs_large-material" name="slabs_large">
      <instance_effect url="#slabs_large-effect"/>
    </material>
    <material id="metal_plates-material" name="metal_plates">
      <instance_effect url="#metal_plates-effect"/>
    </material>
    <material id="balustrades-material" name="balustrades">
      <instance_effect url="#balustrades-effect"/>
    </material>
    <material id="brick_painted-material" name="brick_painted">
      <instance_effect url="#brick_painted-effect"/>
    </material>
    <material id="stucco1_white-material" name="stucco1_white">
      <instance_effect url="#stucco1_white-effect"/>
    </material>
    <material id="columns-material" name="columns">
      <instance_effect url="#columns-effect"/>
    </material>
    <material id="construction-material" name="construction">
      <instance_effect url="#construction-effect"/>
    </material>
    <material id="clutter_commercial-material" name="clutter_commercial">
      <instance_effect url="#clutter_commercial-effect"/>
    </material>
    <material id="brick_plain-material" name="brick_plain">
      <instance_effect url="#brick_plain-effect"/>
    </material>
    <material id="stone_brick_regular-material" name="stone_brick_regular">
      <instance_effect url="#stone_brick_regular-effect"/>
    </material>
    <material id="curbs-material" name="curbs">
      <instance_effect url="#curbs-effect"/>
    </material>
    <material id="wirefence-material" name="wirefence">
      <instance_effect url="#wirefence-effect"/>
    </material>
    <material id="groundmesh_grass2-material" name="groundmesh_grass2">
      <instance_effect url="#groundmesh_grass2-effect"/>
    </material>
    <material id="billboards-material" name="billboards">
      <instance_effect url="#billboards-effect"/>
    </material>
    <material id="road_asphalt-material" name="road_asphalt">
      <instance_effect url="#road_asphalt-effect"/>
    </material>
  </library_materials>
  <library_geometries>
    <geometry id="Plane_014-mesh" name="Plane.014">
      <mesh>
        <source id="Plane_014-mesh-positions">
          <float_array id="Plane_014-mesh-positions-array" count="780">1.099023 0.1199532 0.1300354 0.7870145 0.1199263 0.1300354 1.099023 0.1199532 0.6497345 0.7870145 0.1199263 0.6497345 0.7862053 0.1199586 0.1300354 0.4791065 0.1200288 0.1300354 0.7862053 0.1199586 0.6497345 0.4791065 0.1200288 0.6497345 0.4771644 0.120072 0.1300354 0.1651833 0.1199317 0.1300354 0.4771644 0.120072 0.6497345 0.1651833 0.1199317 0.6497345 -0.7105649 0.1199964 0.1300354 -1.022611 0.1199209 0.1300354 -0.7105649 0.1199964 0.6497345 -1.022611 0.1199209 0.6497345 0.1697095 0.1200665 0.1300354 -0.1423363 0.1199911 0.1300354 0.1697095 0.1200665 0.6497345 -0.1423363 0.1199911 0.6497345 -0.4188143 0.1199964 0.1300354 -0.7308601 0.1199209 0.1300354 -0.4188143 0.1199964 0.6497345 -0.7308601 0.1199209 0.6497345 -0.115864 0.120018 0.1300354 -0.4277966 0.1199156 0.1300354 -0.115864 0.120018 0.6497345 -0.4277966 0.1199156 0.6497345 0.8687997 0.1199694 -0.3495712 0.6542162 0.1200557 -0.3495712 0.8687997 0.1199694 0.000930786 0.6542162 0.1200557 0.000930786 0.6512437 0.1199209 -0.3495712 0.4251208 0.1200665 -0.3495712 0.6512437 0.1199209 0.000930786 0.4251208 0.1200665 0.000930786 -0.1807311 0.1200612 -0.001670837 0.02517747 0.1199317 -0.001670837 -0.1807311 0.1200612 -0.3522644 0.02517747 0.1199317 -0.3522644 0.8732827 0.1200611 0.000930786 1.079936 0.119964 0.000930786 0.8732827 0.1200611 -0.3495712 1.079936 0.119964 -0.3495712 0.2423936 0.1200612 -0.3501587 0.01605486 0.119991 -0.3501587 0.2423936 0.1200612 0.000434875 0.01605486 0.119991 0.000434875 -0.17409 0.1200666 -0.3495712 -0.388803 0.1200234 -0.3495712 -0.17409 0.1200666 0.000930786 -0.388803 0.1200234 0.000930786 -0.3800581 0.1199964 -0.3495712 -0.6062025 0.1199911 -0.3495712 -0.3800581 0.1199964 0.000930786 -0.6062025 0.1199911 0.000930786 -0.6012501 0.1201313 -0.3495712 -0.8160979 0.1199641 -0.3495712 -0.6012501 0.1201313 0.000930786 -0.8160979 0.1199641 0.000930786 -0.8096349 0.1200612 -0.3495712 -1.049784 0.1199048 -0.3495712 -0.8096349 0.1200612 0.000930786 -1.049784 0.1199048 0.000930786 0.8688644 0.1139488 -0.3495712 0.6541839 0.1139596 -0.3495712 0.8688644 0.1139488 0.000930786 0.6541839 0.1139596 0.000930786 0.6513246 0.1140567 -0.3495712 0.42511 0.1141215 -0.3495712 0.6513246 0.1140567 0.000930786 0.42511 0.1141215 0.000930786 -0.1808713 0.1139866 -0.001670837 0.02517211 0.1139813 -0.001670837 -0.1808713 0.1139866 -0.3522644 0.02517211 0.1139813 -0.3522644 0.8731425 0.1139866 0.000930786 1.079968 0.1140621 0.000930786 0.8731425 0.1139866 -0.3495712 1.079968 0.1140621 -0.3495712 0.2422587 0.1139813 -0.3501587 0.01620596 0.1140568 -0.3501587 0.2422587 0.1139813 0.000434875 0.01620596 0.1140568 0.000434875 -0.1742249 0.1139866 -0.3495712 -0.3886951 0.114046 -0.3495712 -0.1742249 0.1139866 0.000930786 -0.3886951 0.114046 0.000930786 -0.3799987 0.1139813 -0.3495712 -0.6061216 0.1141269 -0.3495712 -0.3799987 0.1139813 0.000930786 -0.6061216 0.1141269 0.000930786 -0.6013203 0.1139867 -0.3495712 -0.8160763 0.1139004 -0.3495712 -0.6013203 0.1139867 0.000930786 -0.8160763 0.1139004 0.000930786 -0.8096565 0.1139543 -0.3495712 -1.049833 0.1139111 -0.3495712 -0.8096565 0.1139543 0.000930786 -1.049833 0.1139111 0.000930786 -1.198929 0.1085002 -0.4411621 1.183203 0.1085378 -0.4411621 -1.198929 0.1085002 0.7171326 1.183203 0.1085378 0.7171326 -1.265997 0 0.7843323 -1.265997 0 -0.5083695 1.250309 0 -0.5083695 1.250309 0 0.7843323 -1.265927 0.108689 0.7843323 -1.265927 0.108689 -0.5083695 1.250411 0.1085702 -0.5083695 1.250411 0.1085702 0.7843323 1.099023 0.120085 0.5929595 1.099023 0.120085 0.1867364 0.9354992 0.1200709 0.1867415 0.9354992 0.1200709 0.5929646 0.9391948 0.1200712 0.5929645 0.9391948 0.1200712 0.1867414 0.7450819 0.1200545 0.1867475 0.7450819 0.1200545 0.5929706 0.7487774 0.1200548 0.5929704 0.7487774 0.1200548 0.1867474 0.5608268 0.1200386 0.1867532 0.5608268 0.1200386 0.5929763 0.5645224 0.1200389 0.5929762 0.5645224 0.1200389 0.1867531 0.3517001 0.1200206 0.1867598 0.3517001 0.1200206 0.5929828 0.3553956 0.1200209 0.5929827 0.3553956 0.1200209 0.1867597 0.1672226 0.1200047 0.1867655 0.1672226 0.1200047 0.5929886 0.1709182 0.120005 0.5929885 0.1709182 0.120005 0.1867654 -0.04190411 0.1199866 0.1867721 -0.04190411 0.1199866 0.5929951 -0.03820855 0.1199869 0.592995 -0.03820855 0.1199869 0.186772 -0.2939446 0.1199649 0.1867799 -0.2939446 0.1199649 0.593003 -0.2902491 0.1199652 0.5930029 -0.2902491 0.1199652 0.1867798 -0.4537728 0.1199511 0.1867849 -0.4537728 0.1199511 0.593008 -0.4500773 0.1199514 0.5930079 -0.4500773 0.1199514 0.1867848 -0.6444126 0.1199347 0.1867909 -0.6444126 0.1199347 0.593014 -0.640717 0.119935 0.5930139 -0.640717 0.119935 0.1867908 -0.8258089 0.119919 0.1867966 -0.8258089 0.119919 0.5930196 -0.8221133 0.1199194 0.5930195 -0.8221133 0.1199194 0.1867964 -1.022611 0.1199021 0.1868027 -1.022611 0.1199021 0.5930258 1.079966 0.1204191 -0.001241255 1.079966 0.1204191 -0.3475226 0.956352 0.120374 -0.3475192 0.956352 0.120374 -0.001237785 1.079968 0.1144066 -0.001241255 1.079968 0.1144066 -0.3475226 0.9563542 0.1143615 -0.3475192 0.9563542 0.1143615 -0.001237785 0.960232 0.1203754 -0.001237894 0.960232 0.1203754 -0.3475193 0.7866003 0.120312 -0.3475144 0.7866003 0.120312 -0.00123302 0.9602342 0.1143629 -0.001237894 0.9602342 0.1143629 -0.3475193 0.7866025 0.1142995 -0.3475144 0.7866025 0.1142995 -0.00123302 0.7904803 0.1203134 -0.001233129 0.7904803 0.1203134 -0.3475145 0.5826257 0.1202375 -0.3475087 0.5826257 0.1202375 -0.001227294 0.7904825 0.1143009 -0.001233129 0.7904825 0.1143009 -0.3475145 0.5826279 0.1142251 -0.3475087 0.5826279 0.1142251 -0.001227294 0.4488573 0.1201887 -0.001223538 0.4488573 0.1201887 -0.3475049 0.267328 0.1201224 -0.3474998 0.267328 0.1201224 -0.001218442 0.4488595 0.1141762 -0.001223538 0.4488595 0.1141762 -0.3475049 0.2673302 0.11411 -0.3474998 0.2673302 0.11411 -0.001218442 0.271208 0.1201238 -0.001218551 0.271208 0.1201238 -0.3474999 0.1239016 0.1200701 -0.3474958 0.1239016 0.1200701 -0.001214416 0.2712102 0.1141114 -0.001218551 0.2712102 0.1141114 -0.3474999 0.1239038 0.1140576 -0.3474958 0.1239038 0.1140576 -0.001214416 0.1277816 0.1200715 -0.001214525 0.1277816 0.1200715 -0.3474959 0.006800446 0.1200273 -0.3474925 0.006800446 0.1200273 -0.001211129 0.1277838 0.114059 -0.001214525 0.1277838 0.114059 -0.3474959 0.00680264 0.1140149 -0.3474925 0.00680264 0.1140149 -0.001211129 0.01068046 0.1200287 -0.001211238 0.01068046 0.1200287 -0.3474926 -0.1629513 0.1199654 -0.3474878 -0.1629513 0.1199654 -0.001206363 0.01068266 0.1140163 -0.001211238 0.01068266 0.1140163 -0.3474926 -0.1629491 0.1139529 -0.3474878 -0.1629491 0.1139529 -0.001206363 -0.1590712 0.1199668 -0.001206472 -0.1590712 0.1199668 -0.3474879 -0.3669258 0.1198909 -0.347482 -0.3669258 0.1198909 -0.001200637 -0.159069 0.1139543 -0.001206472 -0.159069 0.1139543 -0.3474879 -0.3669236 0.1138784 -0.347482 -0.3669236 0.1138784 -0.001200637 -0.3630458 0.1198923 -0.001200746 -0.3630458 0.1198923 -0.3474821 -0.5366775 0.1198289 -0.3474773 -0.5366775 0.1198289 -0.001195872 -0.3630436 0.1138798 -0.001200746 -0.3630436 0.1138798 -0.3474821 -0.5366753 0.1138165 -0.3474773 -0.5366753 0.1138165 -0.001195872 -0.5327975 0.1198303 -0.001195981 -0.5327975 0.1198303 -0.3474774 -0.6537787 0.1197862 -0.347474 -0.6537787 0.1197862 -0.001192585 -0.5327953 0.1138179 -0.001195981 -0.5327953 0.1138179 -0.3474774 -0.6537765 0.1137737 -0.347474 -0.6537765 0.1137737 -0.001192585 -0.6498987 0.1197876 -0.001192694 -0.6498987 0.1197876 -0.3474741 -0.7129642 0.1197646 -0.3474723 -0.7129642 0.1197646 -0.001190923 -0.6498965 0.1137751 -0.001192694 -0.6498965 0.1137751 -0.3474741 -0.712962 0.1137521 -0.3474723 -0.712962 0.1137521 -0.001190923 -0.7090842 0.119766 -0.001191032 -0.7090842 0.119766 -0.3474724 -0.8800834 0.1197036 -0.3474676 -0.8800834 0.1197036 -0.001186232 -0.709082 0.1137535 -0.001191032 -0.709082 0.1137535 -0.3474724 -0.8800812 0.1136911 -0.3474676 -0.8800812 0.1136911 -0.001186232 -0.8762034 0.119705 -0.001186341 -0.8762034 0.119705 -0.3474677 -1.049835 0.1196416 -0.3474629 -1.049835 0.1196416 -0.001181467 -0.8762012 0.1136925 -0.001186341 -0.8762012 0.1136925 -0.3474677 -1.049833 0.1136291 -0.3474629 -1.049833 0.1136291 -0.001181467</float_array>
          <technique_common>
            <accessor source="#Plane_014-mesh-positions-array" count="260" stride="3">
              <param name="X" type="float"/>
              <param name="Y" type="float"/>
              <param name="Z" type="float"/>
            </accessor>
          </technique_common>
        </source>
        <source id="Plane_014-mesh-normals">
          <float_array id="Plane_014-mesh-normals-array" count="300">2.42013e-4 -1 0 0 0 1 4.61556e-4 0.9999988 0.001476526 -9.6918e-4 0.9999996 -5.80572e-5 -0.00101751 0.9999995 0 -6.13049e-4 0.9999982 0.001841127 8.42917e-5 0.9999996 9.57595e-4 -1.57886e-5 0.999996 0.002824485 0.001196146 0.9999994 -1.80184e-5 0.001190245 0.9999994 1.41503e-4 0.001196265 0.9999994 0 -5.10199e-6 1 1.40364e-4 -2.31078e-4 1 3.38544e-4 -3.27225e-5 1 3.78584e-4 2.76843e-4 1 -1.84489e-5 2.76776e-4 1 1.8101e-7 2.95341e-4 1 3.06588e-4 5.14084e-5 1 4.9306e-5 4.75046e-5 1 -3.82158e-4 -1.43401e-4 1 -3.6199e-4 -4.81567e-4 0.9999999 0 -9.22519e-4 0.9999985 -0.001528501 -1.17213e-4 0.9999999 -5.26026e-4 -1.01936e-4 0.9999999 -5.25403e-4 2.01018e-4 -1 0 -8.64436e-5 1 0 -3.28565e-4 1 0 2.3853e-5 -1 0 6.51396e-4 -0.9999998 0 2.618e-5 1 0 6.44224e-4 0.9999998 0 9.0411e-4 0.9999995 4.02825e-4 0.001123607 0.9999994 0 -0.9999999 6.44822e-4 0 -1 -1.98511e-4 -4.56096e-4 -1 -3.13945e-4 0 1 2.61341e-6 -1.48982e-4 0.9999996 -9.44507e-4 0 -4.49498e-4 1 0 -7.78322e-4 0.9999997 0 2.86213e-4 1 0 -5.20679e-5 1 -2.83989e-4 -8.00534e-4 0.9999994 -8.03242e-4 -5.28747e-4 0.9999999 0 2.61793e-4 1 -1.86854e-4 -1.79675e-4 1 0 -2.76804e-4 -1 0 0 0 -1 -4.01886e-4 1 0 0.001214802 -0.9999991 5.19724e-4 -2.28443e-4 -1 0 6.34447e-4 -0.9999998 0 2.41965e-4 -1 0 -5.02535e-5 -1 0 0 -1 0 6.44223e-4 0.9999998 0 -4.69994e-4 -0.9999999 0 -3.6499e-4 1 0 -1.21371e-4 1 4.12866e-4 1.14394e-4 1 0 2.41965e-4 -1 0 -3.09823e-4 1 0 -2.3405e-4 1 0 6.2884e-4 0.9999998 0 -1.57886e-5 1 0 -4.0221e-4 -1 0 2.42013e-4 -1 0 0 0 1 2.01018e-4 -1 0 -8.64436e-5 1 0 -3.28565e-4 1 0 2.3853e-5 -1 0 6.51396e-4 -0.9999998 0 2.618e-5 1 0 6.44224e-4 0.9999998 0 0.001123607 0.9999995 0 -1 -3.12451e-4 5.35083e-5 0.9999998 -2.52514e-4 -6.67135e-4 0.9999996 -9.4111e-4 0 -4.49498e-4 1 0 -7.78323e-4 0.9999997 0 2.86213e-4 1 0 2.34727e-4 0.9999999 -4.68962e-4 -1.45241e-4 1 0 -0.001046121 0.9999995 1.65853e-4 2.74848e-4 1 1.52371e-4 2.99708e-4 1 0 -1.79675e-4 1 0 -2.76804e-4 -1 0 0 0 -1 7.74972e-5 1 2.29773e-7 0.001209437 -0.9999992 -5.34467e-4 -2.28443e-4 -1 0 2.41965e-4 -1 0 -5.02535e-5 -1 0 1.14394e-4 1 0 1.91844e-4 0.9999997 -7.44053e-4 -2.3405e-4 1 0 6.2884e-4 0.9999999 0 -4.02209e-4 -1 0</float_array>
          <technique_common>
            <accessor source="#Plane_014-mesh-normals-array" count="100" stride="3">
              <param name="X" type="float"/>
              <param name="Y" type="float"/>
              <param name="Z" type="float"/>
            </accessor>
          </technique_common>
        </source>
        <source id="Plane_014-mesh-map-0">
          <float_array id="Plane_014-mesh-map-0-array" count="716">0.7897773 0.8376652 0.8039338 0.8083374 0.7897773 0.8083385 0.7577195 0.5559636 0.512609 0.570361 0.512609 0.5559637 0.5817049 0.5683712 0.7533061 0.5582684 0.7389194 0.5683713 0.7700832 0.5583247 0.4116259 0.5678141 0.425138 0.5583253 0.5817049 0.5582684 0.7533061 0.5683713 0.5673182 0.5683713 0.7700842 0.5678135 0.4116259 0.5583247 0.7835962 0.5583247 0.5817049 0.5683712 0.5673182 0.5582684 0.7533061 0.5582684 0.7700832 0.5583247 0.7835962 0.5678141 0.4116259 0.5678141 0.5817049 0.5582684 0.7389194 0.5582684 0.7533061 0.5683713 0.7700842 0.5678135 0.4251389 0.5678141 0.4116259 0.5583247 0.5685198 0.9256852 0.5808625 0.8894639 0.5685198 0.8894652 0.5687744 0.8376652 0.5823012 0.8083374 0.5823012 0.8376652 0.8036805 0.8376652 0.8200857 0.8083374 0.8200857 0.8376652 0.7527999 0.9256852 0.7674735 0.8894639 0.7527999 0.8894652 0.7042874 0.9256852 0.720664 0.8894639 0.7042874 0.8894652 0.7802351 0.8818556 0.7927641 0.8456344 0.7927641 0.8818556 0.7527999 0.8818556 0.7674735 0.8456344 0.7674735 0.8818556 0.7577195 0.5559636 0.8728342 0.570361 0.7577195 0.5703608 0.3974943 0.5559638 0.512609 0.570361 0.3974943 0.5703608 0.6116425 0.8376652 0.6280477 0.8083374 0.6280477 0.8376652 0.5685198 0.9256852 0.5808625 0.8894639 0.5808625 0.9256852 0.7527999 0.8818556 0.7674735 0.8456344 0.7674735 0.8818556 0.7675888 0.8818556 0.7799304 0.8456344 0.7799304 0.8818556 0.7042874 0.8818556 0.720664 0.8456344 0.720664 0.8818556 0.5685198 0.8818556 0.5808625 0.8456344 0.5685198 0.8456356 0.3974943 0.5703608 0.1523837 0.5559636 0.3974943 0.5559638 0.5685198 0.8818556 0.5808625 0.8456344 0.5808625 0.8818556 0.8604002 0.8376652 0.8767067 0.8083374 0.8604002 0.8083385 0.5072132 0.8376652 0.5236183 0.8083374 0.5072132 0.8083385 0.507352 0.8818556 0.5248621 0.8456344 0.507352 0.8456356 0.6198486 0.6982062 0.7391045 0.6421987 0.7391045 0.6982063 0.7527999 0.9256852 0.7674735 0.8894639 0.7674735 0.9256852 0.5399298 0.9256852 0.5531946 0.8894639 0.5399298 0.8894652 0.5399298 0.8818556 0.5531946 0.8456344 0.5531946 0.8818556 0.7737187 0.8376652 0.7901238 0.8083374 0.7737187 0.8083385 0.7675888 0.9256852 0.7799304 0.8894639 0.7799304 0.9256852 0.7802351 0.9256852 0.7927641 0.8894639 0.7927641 0.9256852 0.7347722 0.694041 0.6241809 0.6466982 0.7347721 0.6466982 0.507352 0.9256852 0.5248621 0.8894639 0.507352 0.8894652 0.7897773 0.8376652 0.8039338 0.8376652 0.8039338 0.8083374 0.7577195 0.5559636 0.7577195 0.5703608 0.512609 0.570361 0.5685198 0.9256852 0.5808625 0.9256852 0.5808625 0.8894639 0.5687744 0.8376652 0.5687744 0.8083385 0.5823012 0.8083374 0.8036805 0.8376652 0.8036805 0.8083385 0.8200857 0.8083374 0.7527999 0.9256852 0.7674735 0.9256852 0.7674735 0.8894639 0.7042874 0.9256852 0.720664 0.9256852 0.720664 0.8894639 0.7802351 0.8818556 0.7802351 0.8456356 0.7927641 0.8456344 0.7527999 0.8818556 0.7527999 0.8456356 0.7674735 0.8456344 0.7577195 0.5559636 0.8728342 0.5559637 0.8728342 0.570361 0.3974943 0.5559638 0.512609 0.5559637 0.512609 0.570361 0.6116425 0.8376652 0.6116425 0.8083385 0.6280477 0.8083374 0.5685198 0.9256852 0.5685198 0.8894652 0.5808625 0.8894639 0.7527999 0.8818556 0.7527999 0.8456356 0.7674735 0.8456344 0.7675888 0.8818556 0.7675888 0.8456356 0.7799304 0.8456344 0.7042874 0.8818556 0.7042874 0.8456356 0.720664 0.8456344 0.5685198 0.8818556 0.5808625 0.8818556 0.5808625 0.8456344 0.3974943 0.5703608 0.1523837 0.570361 0.1523837 0.5559636 0.5685198 0.8818556 0.5685198 0.8456356 0.5808625 0.8456344 0.8604002 0.8376652 0.8767067 0.8376652 0.8767067 0.8083374 0.5072132 0.8376652 0.5236183 0.8376652 0.5236183 0.8083374 0.507352 0.8818556 0.5248621 0.8818556 0.5248621 0.8456344 0.6198486 0.6982062 0.6198486 0.6421987 0.7391045 0.6421987 0.7527999 0.9256852 0.7527999 0.8894652 0.7674735 0.8894639 0.5399298 0.9256852 0.5531946 0.9256852 0.5531946 0.8894639 0.5399298 0.8818556 0.5399298 0.8456356 0.5531946 0.8456344 0.7737187 0.8376652 0.7901238 0.8376652 0.7901238 0.8083374 0.7675888 0.9256852 0.7675888 0.8894652 0.7799304 0.8894639 0.7802351 0.9256852 0.7802351 0.8894652 0.7927641 0.8894639 0.7347722 0.694041 0.6241809 0.6940411 0.6241809 0.6466982 0.507352 0.9256852 0.5248621 0.9256852 0.5248621 0.8894639 0.5690742 0.8376652 0.5690742 0.8083374 0.5820312 0.8083374 0.5820312 0.8376652 0.7741699 0.8376652 0.7741699 0.8083374 0.7895508 0.8083374 0.7895508 0.8376652 0.5383301 0.8376652 0.5383301 0.8083374 0.5532227 0.8083374 0.5532227 0.8376652 0.5065742 0.8376652 0.5065742 0.8083374 0.5234375 0.8083374 0.5234375 0.8376652 0.7263007 0.8376652 0.7263007 0.8083374 0.7412109 0.8083374 0.7412109 0.8376652 0.5065742 0.8376652 0.5065742 0.8083374 0.5234375 0.8083374 0.5234375 0.8376652 0.6740723 0.8376652 0.6740723 0.8083374 0.6943359 0.8083374 0.6943359 0.8376652 0.5690742 0.8376652 0.5690742 0.8083374 0.5820312 0.8083374 0.5820312 0.8376652 0.6945625 0.8376652 0.6945625 0.8083374 0.7099609 0.8083374 0.7099609 0.8376652 0.7897773 0.8376652 0.7897773 0.8083374 0.8044434 0.8083374 0.8044434 0.8376652 0.7101875 0.8376652 0.7101875 0.8083374 0.7260742 0.8083374 0.7260742 0.8376652 0.7675888 0.9262892 0.7675888 0.890068 0.7790527 0.890068 0.7790527 0.9262892 0.7675888 0.8818556 0.7675888 0.8456344 0.7790527 0.8456344 0.7790527 0.8818556 0.7041122 0.9262892 0.7041122 0.890068 0.7202148 0.890068 0.7202148 0.9262892 0.7041122 0.8818556 0.7041122 0.8456344 0.7202148 0.8456344 0.7202148 0.8818556 0.6674911 0.9262892 0.6674911 0.890068 0.6867676 0.890068 0.6867676 0.9262892 0.6674911 0.8818556 0.6674911 0.8456344 0.6867676 0.8456344 0.6867676 0.8818556 0.5068466 0.9262892 0.5068466 0.890068 0.5236816 0.890068 0.5236816 0.9262892 0.5068466 0.8818556 0.5068466 0.8456344 0.5236816 0.8456344 0.5236816 0.8818556 0.7924911 0.9262892 0.7924911 0.890068 0.8061523 0.890068 0.8061523 0.9262892 0.7924911 0.8818556 0.7924911 0.8456344 0.8061523 0.8456344 0.8061523 0.8818556 0.7802841 0.9262892 0.7802841 0.890068 0.7915039 0.890068 0.7915039 0.9262892 0.7802841 0.8818556 0.7802841 0.8456344 0.7915039 0.8456344 0.7915039 0.8818556 0.7041122 0.9262892 0.7041122 0.890068 0.7202148 0.890068 0.7202148 0.9262892 0.7041122 0.8818556 0.7041122 0.8456344 0.7202148 0.8456344 0.7202148 0.8818556 0.6674911 0.9262892 0.6674911 0.890068 0.6867676 0.890068 0.6867676 0.9262892 0.6674911 0.8818556 0.6674911 0.8456344 0.6867676 0.8456344 0.6867676 0.8818556 0.7041122 0.9262892 0.7041122 0.890068 0.7202148 0.890068 0.7202148 0.9262892 0.7041122 0.8818556 0.7041122 0.8456344 0.7202148 0.8456344 0.7202148 0.8818556 0.7802841 0.9262892 0.7802841 0.890068 0.7915039 0.890068 0.7915039 0.9262892 0.7802841 0.8818556 0.7802841 0.8456344 0.7915039 0.8456344 0.7915039 0.8818556 0.625499 0.9262892 0.625499 0.890068 0.6313477 0.890068 0.6313477 0.9262892 0.625499 0.8818556 0.625499 0.8456344 0.6313477 0.8456344 0.6313477 0.8818556 0.8071396 0.9262892 0.8071396 0.890068 0.822998 0.890068 0.822998 0.9262892 0.8071396 0.8818556 0.8071396 0.8456344 0.822998 0.8456344 0.822998 0.8818556 0.7041122 0.9262892 0.7041122 0.890068 0.7202148 0.890068 0.7202148 0.9262892 0.7041122 0.8818556 0.7041122 0.8456344 0.7202148 0.8456344 0.7202148 0.8818556</float_array>
          <technique_common>
            <accessor source="#Plane_014-mesh-map-0-array" count="358" stride="2">
              <param name="S" type="float"/>
              <param name="T" type="float"/>
            </accessor>
          </technique_common>
        </source>
        <source id="Plane_014-mesh-colors-Col" name="Col">
          <float_array id="Plane_014-mesh-colors-Col-array" count="840">1 1 1 1 1 1 1 1 1 1 1 1 0.3490196 0.3490196 0.3490196 1 0.3490196 0.3490196 0.3490196 1 0.3490196 0.3490196 0.3490196 1 1 0.2392157 0.2509804 1 1 0.2392157 0.2509804 1 1 0.2392157 0.2509804 1 1 0.2392157 0.2509804 1 1 0.2392157 0.2509804 1 1 0.2392157 0.2509804 1 1 0.2392157 0.2509804 1 1 0.2392157 0.2509804 1 1 0.2392157 0.2509804 1 1 0.2392157 0.2509804 1 1 0.2392157 0.2509804 1 1 0.2392157 0.2509804 1 1 0.2392157 0.2509804 1 1 0.2392157 0.2509804 1 1 0.2392157 0.2509804 1 1 0.2392157 0.2509804 1 1 0.2392157 0.2509804 1 1 0.2392157 0.2509804 1 1 0.2392157 0.2509804 1 1 0.2392157 0.2509804 1 1 0.2392157 0.2509804 1 1 0.2392157 0.2509804 1 1 0.2392157 0.2509804 1 1 0.2392157 0.2509804 1 0 0 0 1 0 0 0 1 0 0 0 1 1 1 1 1 1 1 1 1 1 1 1 1 1 1 1 1 1 1 1 1 1 1 1 1 0 0 0 1 0 0 0 1 0 0 0 1 0 0 0 1 0 0 0 1 0 0 0 1 1 0.854902 0 1 1 0.854902 0 1 1 0.854902 0 1 1 0.854902 0 1 1 0.854902 0 1 1 0.854902 0 1 0.3490196 0.3490196 0.3490196 1 0.3490196 0.3490196 0.3490196 1 0.3490196 0.3490196 0.3490196 1 0.3490196 0.3490196 0.3490196 1 0.3490196 0.3490196 0.3490196 1 0.3490196 0.3490196 0.3490196 1 1 1 1 1 1 1 1 1 1 1 1 1 0 0 0 1 0 0 0 1 0 0 0 1 1 0.854902 0 1 1 0.854902 0 1 1 0.854902 0 1 1 0.854902 0 1 1 0.854902 0 1 1 0.854902 0 1 1 0.854902 0 1 1 0.854902 0 1 1 0.854902 0 1 1 0.854902 0 1 1 0.854902 0 1 1 0.854902 0 1 0.3490196 0.3490196 0.3490196 1 0.3490196 0.3490196 0.3490196 1 0.3490196 0.3490196 0.3490196 1 1 0.854902 0 1 1 0.854902 0 1 1 0.854902 0 1 1 1 1 1 1 1 1 1 1 1 1 1 1 1 1 1 1 1 1 1 1 1 1 1 1 0.854902 0 1 1 0.854902 0 1 1 0.854902 0 1 1 0.2392157 0.2509804 1 1 0.2431373 0.254902 1 1 0.2392157 0.2509804 1 0 0 0 1 0 0 0 1 0 0 0 1 0 0 0 1 0 0 0 1 0 0 0 1 1 0.854902 0 1 1 0.854902 0 1 1 0.854902 0 1 1 1 1 1 1 1 1 1 1 1 1 1 0 0 0 1 0 0 0 1 0 0 0 1 0 0 0 1 0 0 0 1 0 0 0 1 1 0.9098039 0.509804 1 1 0.9098039 0.509804 1 1 0.9098039 0.509804 1 0 0 0 1 0 0 0 1 0 0 0 1 1 1 1 1 1 1 1 1 1 1 1 1 0.3490196 0.3490196 0.3490196 1 0.3490196 0.3490196 0.3490196 1 0.3490196 0.3490196 0.3490196 1 0 0 0 1 0 0 0 1 0 0 0 1 1 1 1 1 1 1 1 1 1 1 1 1 1 1 1 1 1 1 1 1 1 1 1 1 0 0 0 1 0 0 0 1 0 0 0 1 0 0 0 1 0 0 0 1 0 0 0 1 1 0.854902 0 1 1 0.854902 0 1 1 0.854902 0 1 1 0.854902 0 1 1 0.854902 0 1 1 0.854902 0 1 0.3490196 0.3490196 0.3490196 1 0.3490196 0.3490196 0.3490196 1 0.3490196 0.3490196 0.3490196 1 0.3490196 0.3490196 0.3490196 1 0.3490196 0.3490196 0.3490196 1 0.3490196 0.3490196 0.3490196 1 1 1 1 1 1 1 1 1 1 1 1 1 0 0 0 1 0 0 0 1 0 0 0 1 1 0.854902 0 1 1 0.854902 0 1 1 0.854902 0 1 1 0.854902 0 1 1 0.854902 0 1 1 0.854902 0 1 1 0.854902 0 1 1 0.854902 0 1 1 0.854902 0 1 1 0.854902 0 1 1 0.854902 0 1 1 0.854902 0 1 0.3490196 0.3490196 0.3490196 1 0.3490196 0.3490196 0.3490196 1 0.3490196 0.3490196 0.3490196 1 1 0.854902 0 1 1 0.854902 0 1 1 0.854902 0 1 1 1 1 1 1 1 1 1 1 1 1 1 1 1 1 1 1 1 1 1 1 1 1 1 1 0.854902 0 1 1 0.854902 0 1 1 0.854902 0 1 1 0.2392157 0.2509804 1 1 0.2392157 0.2509804 1 1 0.2431373 0.254902 1 0 0 0 1 0 0 0 1 0 0 0 1 0 0 0 1 0 0 0 1 0 0 0 1 1 0.854902 0 1 1 0.854902 0 1 1 0.854902 0 1 1 1 1 1 1 1 1 1 1 1 1 1 0 0 0 1 0 0 0 1 0 0 0 1 0 0 0 1 0 0 0 1 0 0 0 1 1 0.9098039 0.509804 1 1 0.9098039 0.509804 1 1 0.9098039 0.509804 1 0 0 0 1 0 0 0 1 0 0 0 1</float_array>
          <technique_common>
            <accessor source="#Plane_014-mesh-colors-Col-array" count="210" stride="4">
              <param name="R" type="float"/>
              <param name="G" type="float"/>
              <param name="B" type="float"/>
              <param name="A" type="float"/>
            </accessor>
          </technique_common>
        </source>
        <vertices id="Plane_014-mesh-vertices">
          <input semantic="POSITION" source="#Plane_014-mesh-positions"/>
        </vertices>
        <triangles material="architraves-material" count="16">
          <input semantic="VERTEX" source="#Plane_014-mesh-vertices" offset="0"/>
          <input semantic="NORMAL" source="#Plane_014-mesh-normals" offset="1"/>
          <input semantic="TEXCOORD" source="#Plane_014-mesh-map-0" offset="2" set="0"/>
          <input semantic="COLOR" source="#Plane_014-mesh-colors-Col" offset="3" set="0"/>
          <p>108 1 3 3 107 1 4 4 111 1 5 5 100 2 6 6 108 3 7 7 102 4 8 8 101 5 9 9 109 6 10 10 100 7 11 11 101 8 12 12 111 9 13 13 110 10 14 14 103 11 15 15 108 12 16 16 111 13 17 17 100 14 18 18 109 15 19 19 108 16 20 20 101 17 21 21 110 18 22 22 109 19 23 23 101 20 24 24 103 20 25 25 111 20 26 26 103 21 27 27 102 22 28 28 108 23 29 29 108 33 51 51 105 34 52 52 104 35 53 53 110 36 54 54 107 37 55 55 106 37 56 56 106 47 75 75 109 47 76 76 110 47 77 77 108 67 120 120 104 67 121 121 107 67 122 122 108 33 144 144 109 33 145 145 105 76 146 146 110 77 147 147 111 78 148 148 107 78 149 149 106 89 168 168 105 89 169 169 109 89 170 170</p>
        </triangles>
        <triangles material="clutter_commercial-material" count="78">
          <input semantic="VERTEX" source="#Plane_014-mesh-vertices" offset="0"/>
          <input semantic="NORMAL" source="#Plane_014-mesh-normals" offset="1"/>
          <input semantic="TEXCOORD" source="#Plane_014-mesh-map-0" offset="2" set="0"/>
          <input semantic="COLOR" source="#Plane_014-mesh-colors-Col" offset="3" set="0"/>
          <p>104 54 90 90 106 54 91 91 107 54 92 92 101 64 111 111 102 64 112 112 103 64 113 113 104 54 183 183 105 54 184 184 106 54 185 185 101 64 204 204 100 64 205 205 102 64 206 206 112 25 210 33 113 25 211 33 114 25 212 33 112 25 210 33 114 25 212 33 115 25 213 33 116 25 214 33 117 25 215 33 118 25 216 33 116 25 214 33 118 25 216 33 119 25 217 33 120 25 218 33 121 25 219 33 122 25 220 33 120 25 218 33 122 25 220 33 123 25 221 33 124 25 222 33 125 25 223 33 126 25 224 33 124 25 222 33 126 25 224 33 127 25 225 33 128 25 226 33 129 25 227 33 130 25 228 33 128 25 226 33 130 25 228 33 131 25 229 33 132 25 230 33 133 25 231 33 134 25 232 33 132 25 230 33 134 25 232 33 135 25 233 33 136 25 234 33 137 25 235 33 138 25 236 33 136 25 234 33 138 25 236 33 139 25 237 33 140 25 238 33 141 25 239 33 142 25 240 33 140 25 238 33 142 25 240 33 143 25 241 33 144 25 242 33 145 25 243 33 146 25 244 33 144 25 242 33 146 25 244 33 147 25 245 33 148 25 246 33 149 25 247 33 150 25 248 33 148 25 246 33 150 25 248 33 151 25 249 33 152 25 250 33 153 25 251 33 154 25 252 33 152 25 250 33 154 25 252 33 155 25 253 33 156 56 254 96 158 56 256 96 157 56 255 96 156 56 254 96 159 56 257 96 158 56 256 96 160 57 258 99 161 57 259 99 162 57 260 99 160 57 258 99 162 57 260 99 163 57 261 99 164 56 262 96 166 56 264 96 165 56 263 96 164 56 262 96 167 56 265 96 166 56 264 96 168 57 266 99 169 57 267 99 170 57 268 99 168 57 266 99 170 57 268 99 171 57 269 99 172 56 270 96 174 56 272 96 173 56 271 96 172 56 270 96 175 56 273 96 174 56 272 96 176 57 274 99 177 57 275 99 178 57 276 99 176 57 274 99 178 57 276 99 179 57 277 99 180 56 278 96 182 56 280 96 181 56 279 96 180 56 278 96 183 56 281 96 182 56 280 96 184 57 282 99 185 57 283 99 186 57 284 99 184 57 282 99 186 57 284 99 187 57 285 99 188 56 286 96 190 56 288 96 189 56 287 96 188 56 286 96 191 56 289 96 190 56 288 96 192 57 290 99 193 57 291 99 194 57 292 99 192 57 290 99 194 57 292 99 195 57 293 99 196 56 294 96 198 56 296 96 197 56 295 96 196 56 294 96 199 56 297 96 198 56 296 96 200 57 298 99 201 57 299 99 202 57 300 99 200 57 298 99 202 57 300 99 203 57 301 99 204 56 302 96 206 56 304 96 205 56 303 96 204 56 302 96 207 56 305 96 206 56 304 96 208 57 306 99 209 57 307 99 210 57 308 99 208 57 306 99 210 57 308 99 211 57 309 99 212 56 310 96 214 56 312 96 213 56 311 96 212 56 310 96 215 56 313 96 214 56 312 96 216 57 314 99 217 57 315 99 218 57 316 99 216 57 314 99 218 57 316 99 219 57 317 99 220 56 318 96 222 56 320 96 221 56 319 96 220 56 318 96 223 56 321 96 222 56 320 96 224 57 322 99 225 57 323 99 226 57 324 99 224 57 322 99 226 57 324 99 227 57 325 99 228 56 326 96 230 56 328 96 229 56 327 96 228 56 326 96 231 56 329 96 230 56 328 96 232 57 330 99 233 57 331 99 234 57 332 99 232 57 330 99 234 57 332 99 235 57 333 99 236 56 334 96 238 56 336 96 237 56 335 96 236 56 334 96 239 56 337 96 238 56 336 96 240 57 338 99 241 57 339 99 242 57 340 99 240 57 338 99 242 57 340 99 243 57 341 99 244 56 342 96 246 56 344 96 245 56 343 96 244 56 342 96 247 56 345 96 246 56 344 96 248 57 346 99 249 57 347 99 250 57 348 99 248 57 346 99 250 57 348 99 251 57 349 99 252 56 350 96 254 56 352 96 253 56 351 96 252 56 350 96 255 56 353 96 254 56 352 96 256 57 354 99 257 57 355 99 258 57 356 99 256 57 354 99 258 57 356 99 259 57 357 99</p>
        </triangles>
      </mesh>
    </geometry>
    <geometry id="Plane_034-mesh" name="Plane.034">
      <mesh>
        <source id="Plane_034-mesh-positions">
          <float_array id="Plane_034-mesh-positions-array" count="24">-1.258164 0.2500705 0.774913 -1.258164 -0.2498761 0.774913 1.258185 -0.250092 0.774913 1.258174 0.2499516 0.774913 1.258174 0.2499516 -0.5177887 -1.258164 0.2500705 -0.5177887 -1.258164 -0.2498761 -0.5177887 1.258185 -0.250092 -0.5177887</float_array>
          <technique_common>
            <accessor source="#Plane_034-mesh-positions-array" count="8" stride="3">
              <param name="X" type="float"/>
              <param name="Y" type="float"/>
              <param name="Z" type="float"/>
            </accessor>
          </technique_common>
        </source>
        <source id="Plane_034-mesh-normals">
          <float_array id="Plane_034-mesh-normals-array" count="27">0 0 1 -1 0 0 -8.57942e-5 -1 0 4.72083e-5 1 0 0 0 -1 1 2.13925e-5 0 0 0 1 0 0 -1 1 2.21302e-5 0</float_array>
          <technique_common>
            <accessor source="#Plane_034-mesh-normals-array" count="9" stride="3">
              <param name="X" type="float"/>
              <param name="Y" type="float"/>
              <param name="Z" type="float"/>
            </accessor>
          </technique_common>
        </source>
        <source id="Plane_034-mesh-map-0">
          <float_array id="Plane_034-mesh-map-0-array" count="72">0.5812909 0.9822868 0.5927723 0.9245093 0.5927723 0.982287 0.9519752 0.9990206 0.9405016 0.9693361 0.9519752 0.96934 0.5945148 0.9387119 0.6241941 0.8809403 0.6241941 0.9387012 0.3295192 0.8789889 0.2998401 0.9367411 0.2998401 0.8789788 0.1497102 0.9240523 0.1611894 0.9818282 0.1497102 0.9818293 0.6839963 0.9981462 0.6725177 0.9684647 0.6839963 0.968464 0.5812909 0.9822868 0.5812929 0.9245083 0.5927723 0.9245093 0.9519752 0.9990206 0.9405016 0.9990168 0.9405016 0.9693361 0.5945148 0.9387119 0.5945148 0.8809509 0.6241941 0.8809403 0.3295192 0.8789889 0.3295192 0.9367512 0.2998401 0.9367411 0.1497102 0.9240523 0.161193 0.9240519 0.1611894 0.9818282 0.6839963 0.9981462 0.6725177 0.998147 0.6725177 0.9684647</float_array>
          <technique_common>
            <accessor source="#Plane_034-mesh-map-0-array" count="36" stride="2">
              <param name="S" type="float"/>
              <param name="T" type="float"/>
            </accessor>
          </technique_common>
        </source>
        <source id="Plane_034-mesh-colors-Attribute" name="Attribute">
          <float_array id="Plane_034-mesh-colors-Attribute-array" count="144">1 1 1 1 1 1 1 1 1 1 1 1 1 1 1 1 1 1 1 1 1 1 1 1 1 1 1 1 1 1 1 1 1 1 1 1 1 1 1 1 1 1 1 1 1 1 1 1 1 1 1 1 1 1 1 1 1 1 1 1 1 1 1 1 1 1 1 1 1 1 1 1 1 1 1 1 1 1 1 1 1 1 1 1 1 1 1 1 1 1 1 1 1 1 1 1 1 1 1 1 1 1 1 1 1 1 1 1 1 1 1 1 1 1 1 1 1 1 1 1 1 1 1 1 1 1 1 1 1 1 1 1 1 1 1 1 1 1 1 1 1 1 1 1</float_array>
          <technique_common>
            <accessor source="#Plane_034-mesh-colors-Attribute-array" count="36" stride="4">
              <param name="R" type="float"/>
              <param name="G" type="float"/>
              <param name="B" type="float"/>
              <param name="A" type="float"/>
            </accessor>
          </technique_common>
        </source>
        <vertices id="Plane_034-mesh-vertices">
          <input semantic="POSITION" source="#Plane_034-mesh-positions"/>
        </vertices>
        <triangles material="industrial-material" count="12">
          <input semantic="VERTEX" source="#Plane_034-mesh-vertices" offset="0"/>
          <input semantic="NORMAL" source="#Plane_034-mesh-normals" offset="1"/>
          <input semantic="TEXCOORD" source="#Plane_034-mesh-map-0" offset="2" set="0"/>
          <input semantic="COLOR" source="#Plane_034-mesh-colors-Attribute" offset="3" set="0"/>
          <p>3 0 0 0 1 0 1 1 2 0 2 2 5 1 3 3 1 1 4 4 0 1 5 5 6 2 6 6 2 2 7 7 1 2 8 8 4 3 9 9 0 3 10 10 3 3 11 11 4 4 12 12 6 4 13 13 5 4 14 14 7 5 15 15 3 5 16 16 2 5 17 17 3 6 18 18 0 6 19 19 1 6 20 20 5 1 21 21 6 1 22 22 1 1 23 23 6 2 24 24 7 2 25 25 2 2 26 26 4 3 27 27 5 3 28 28 0 3 29 29 4 7 30 30 7 7 31 31 6 7 32 32 7 8 33 33 4 8 34 34 3 8 35 35</p>
        </triangles>
      </mesh>
    </geometry>
  </library_geometries>
  <library_visual_scenes>
    <visual_scene id="Scene" name="Scene">
      <node id="base00" name="base00" type="NODE">
        <matrix sid="transform">1 0 0 0 0 1 0 0 0 0 1 0 0 0 0 1</matrix>
        <node id="start01" name="start01" type="NODE">
          <matrix sid="transform">1 0 0 0 0 1 0 0 0 0 1 0 0 0 0 1</matrix>
          <node id="Colmesh_s_exhaust_sign_002-1" name="Colmesh_s_exhaust_sign_002-1" type="NODE">
            <matrix sid="transform">1 0 0 0 0 1 0 0 0 0 1 0 0 0 0 1</matrix>
            <instance_geometry url="#Plane_034-mesh" name="Colmesh_s_exhaust_sign_002-1">
              <bind_material>
                <technique_common>
                  <instance_material symbol="industrial-material" target="#industrial-material">
                    <bind_vertex_input semantic="UVMap" input_semantic="TEXCOORD" input_set="0"/>
                  </instance_material>
                </technique_common>
              </bind_material>
            </instance_geometry>
          </node>
          <node id="s_exhaust_sign_002_L25" name="s_exhaust_sign_002_L25" type="NODE">
            <matrix sid="transform">1 0 0 0 0 1 0 0 0 0 1 0 0 0 0 1</matrix>
            <instance_geometry url="#Plane_014-mesh" name="s_exhaust_sign_002_L25">
              <bind_material>
                <technique_common>
                  <instance_material symbol="architraves-material" target="#architraves-material">
                    <bind_vertex_input semantic="UVMap" input_semantic="TEXCOORD" input_set="0"/>
                  </instance_material>
                  <instance_material symbol="industrial-material" target="#industrial-material">
                    <bind_vertex_input semantic="UVMap" input_semantic="TEXCOORD" input_set="0"/>
                  </instance_material>
                  <instance_material symbol="windows_doors_reflective-material" target="#windows_doors_reflective-material">
                    <bind_vertex_input semantic="UVMap" input_semantic="TEXCOORD" input_set="0"/>
                  </instance_material>
                  <instance_material symbol="corrugation-material" target="#corrugation-material">
                    <bind_vertex_input semantic="UVMap" input_semantic="TEXCOORD" input_set="0"/>
                  </instance_material>
                  <instance_material symbol="slabs_large-material" target="#slabs_large-material">
                    <bind_vertex_input semantic="UVMap" input_semantic="TEXCOORD" input_set="0"/>
                  </instance_material>
                  <instance_material symbol="metal_plates-material" target="#metal_plates-material">
                    <bind_vertex_input semantic="UVMap" input_semantic="TEXCOORD" input_set="0"/>
                  </instance_material>
                  <instance_material symbol="balustrades-material" target="#balustrades-material">
                    <bind_vertex_input semantic="UVMap" input_semantic="TEXCOORD" input_set="0"/>
                  </instance_material>
                  <instance_material symbol="brick_painted-material" target="#brick_painted-material">
                    <bind_vertex_input semantic="UVMap" input_semantic="TEXCOORD" input_set="0"/>
                  </instance_material>
                  <instance_material symbol="stucco1_white-material" target="#stucco1_white-material">
                    <bind_vertex_input semantic="UVMap" input_semantic="TEXCOORD" input_set="0"/>
                  </instance_material>
                  <instance_material symbol="columns-material" target="#columns-material">
                    <bind_vertex_input semantic="UVMap" input_semantic="TEXCOORD" input_set="0"/>
                  </instance_material>
                  <instance_material symbol="construction-material" target="#construction-material">
                    <bind_vertex_input semantic="UVMap" input_semantic="TEXCOORD" input_set="0"/>
                  </instance_material>
                  <instance_material symbol="clutter_commercial-material" target="#clutter_commercial-material">
                    <bind_vertex_input semantic="UVMap" input_semantic="TEXCOORD" input_set="0"/>
                  </instance_material>
                  <instance_material symbol="brick_plain-material" target="#brick_plain-material">
                    <bind_vertex_input semantic="UVMap" input_semantic="TEXCOORD" input_set="0"/>
                  </instance_material>
                  <instance_material symbol="stone_brick_regular-material" target="#stone_brick_regular-material">
                    <bind_vertex_input semantic="UVMap" input_semantic="TEXCOORD" input_set="0"/>
                  </instance_material>
                  <instance_material symbol="curbs-material" target="#curbs-material">
                    <bind_vertex_input semantic="UVMap" input_semantic="TEXCOORD" input_set="0"/>
                  </instance_material>
                  <instance_material symbol="wirefence-material" target="#wirefence-material">
                    <bind_vertex_input semantic="UVMap" input_semantic="TEXCOORD" input_set="0"/>
                  </instance_material>
                  <instance_material symbol="groundmesh_grass2-material" target="#groundmesh_grass2-material">
                    <bind_vertex_input semantic="UVMap" input_semantic="TEXCOORD" input_set="0"/>
                  </instance_material>
                  <instance_material symbol="billboards-material" target="#billboards-material">
                    <bind_vertex_input semantic="UVMap" input_semantic="TEXCOORD" input_set="0"/>
                  </instance_material>
                  <instance_material symbol="road_asphalt-material" target="#road_asphalt-material">
                    <bind_vertex_input semantic="UVMap" input_semantic="TEXCOORD" input_set="0"/>
                  </instance_material>
                </technique_common>
              </bind_material>
            </instance_geometry>
          </node>
          <node id="nulldetail10" name="nulldetail10" type="NODE">
            <matrix sid="transform">1 0 0 0 0 1 0 0 0 0 1 0 0 0 0 1</matrix>
          </node>
        </node>
      </node>
    </visual_scene>
  </library_visual_scenes>
  <scene>
    <instance_visual_scene url="#Scene"/>
  </scene>
</COLLADA>