<?xml version="1.0" encoding="utf-8"?>
<COLLADA xmlns="http://www.collada.org/2005/11/COLLADASchema" version="1.4.1" xmlns:xsi="http://www.w3.org/2001/XMLSchema-instance">
  <asset>
    <contributor>
      <author>Blender User</author>
      <authoring_tool>Blender 4.5.5 LTS commit date:2025-11-17, commit time:16:03, hash:836beaaf597a</authoring_tool>
    </contributor>
    <created>2026-05-13T15:48:47</created>
    <modified>2026-05-13T15:48:47</modified>
    <unit name="meter" meter="1"/>
    <up_axis>Z_UP</up_axis>
  </asset>
  <library_effects>
    <effect id="architraves-effect">
      <profile_COMMON>
        <technique sid="common">
          <lambert>
            <emission>
              <color sid="emission">0 0 0 1</color>
            </emission>
            <diffuse>
              <color sid="diffuse">0.8 0.8 0.8 1</color>
            </diffuse>
            <index_of_refraction>
              <float sid="ior">1.45</float>
            </index_of_refraction>
          </lambert>
        </technique>
      </profile_COMMON>
    </effect>
    <effect id="industrial-effect">
      <profile_COMMON>
        <technique sid="common">
          <lambert>
            <emission>
              <color sid="emission">0 0 0 1</color>
            </emission>
            <diffuse>
              <color sid="diffuse">0 0 0 1</color>
            </diffuse>
            <reflectivity>
              <float sid="specular">1</float>
            </reflectivity>
            <index_of_refraction>
              <float sid="ior">1.45</float>
            </index_of_refraction>
          </lambert>
        </technique>
      </profile_COMMON>
    </effect>
    <effect id="windows_doors_reflective-effect">
      <profile_COMMON>
        <technique sid="common">
          <lambert>
            <emission>
              <color sid="emission">0 0 0 1</color>
            </emission>
            <diffuse>
              <color sid="diffuse">0.8 0.8 0.8 1</color>
            </diffuse>
            <index_of_refraction>
              <float sid="ior">1.45</float>
            </index_of_refraction>
          </lambert>
        </technique>
      </profile_COMMON>
    </effect>
    <effect id="corrugation-effect">
      <profile_COMMON>
        <technique sid="common">
          <lambert>
            <emission>
              <color sid="emission">0 0 0 1</color>
            </emission>
            <diffuse>
              <color sid="diffuse">0.8 0.8 0.8 1</color>
            </diffuse>
            <index_of_refraction>
              <float sid="ior">1.45</float>
            </index_of_refraction>
          </lambert>
        </technique>
      </profile_COMMON>
    </effect>
    <effect id="slabs_large-effect">
      <profile_COMMON>
        <technique sid="common">
          <lambert>
            <emission>
              <color sid="emission">0 0 0 1</color>
            </emission>
            <diffuse>
              <color sid="diffuse">0.8 0.8 0.8 1</color>
            </diffuse>
            <index_of_refraction>
              <float sid="ior">1.45</float>
            </index_of_refraction>
          </lambert>
        </technique>
      </profile_COMMON>
    </effect>
    <effect id="metal_plates-effect">
      <profile_COMMON>
        <technique sid="common">
          <lambert>
            <emission>
              <color sid="emission">0 0 0 1</color>
            </emission>
            <diffuse>
              <color sid="diffuse">0.8 0.8 0.8 1</color>
            </diffuse>
            <index_of_refraction>
              <float sid="ior">1.45</float>
            </index_of_refraction>
          </lambert>
        </technique>
      </profile_COMMON>
    </effect>
    <effect id="balustrades-effect">
      <profile_COMMON>
        <technique sid="common">
          <lambert>
            <emission>
              <color sid="emission">0 0 0 1</color>
            </emission>
            <diffuse>
              <color sid="diffuse">0 0 0 1</color>
            </diffuse>
            <index_of_refraction>
              <float sid="ior">1.45</float>
            </index_of_refraction>
          </lambert>
        </technique>
      </profile_COMMON>
    </effect>
    <effect id="brick_painted-effect">
      <profile_COMMON>
        <technique sid="common">
          <lambert>
            <emission>
              <color sid="emission">0 0 0 1</color>
            </emission>
            <diffuse>
              <color sid="diffuse">0.8 0.8 0.8 1</color>
            </diffuse>
            <index_of_refraction>
              <float sid="ior">1.45</float>
            </index_of_refraction>
          </lambert>
        </technique>
      </profile_COMMON>
    </effect>
    <effect id="stucco1_white-effect">
      <profile_COMMON>
        <technique sid="common">
          <lambert>
            <emission>
              <color sid="emission">0 0 0 1</color>
            </emission>
            <diffuse>
              <color sid="diffuse">0.8 0.8 0.8 1</color>
            </diffuse>
            <index_of_refraction>
              <float sid="ior">1.45</float>
            </index_of_refraction>
          </lambert>
        </technique>
      </profile_COMMON>
    </effect>
    <effect id="columns-effect">
      <profile_COMMON>
        <technique sid="common">
          <lambert>
            <emission>
              <color sid="emission">0 0 0 1</color>
            </emission>
            <diffuse>
              <color sid="diffuse">0 0 0 1</color>
            </diffuse>
            <index_of_refraction>
              <float sid="ior">1.45</float>
            </index_of_refraction>
          </lambert>
        </technique>
      </profile_COMMON>
    </effect>
    <effect id="construction-effect">
      <profile_COMMON>
        <technique sid="common">
          <lambert>
            <emission>
              <color sid="emission">0 0 0 1</color>
            </emission>
            <diffuse>
              <color sid="diffuse">0.8 0.8 0.8 1</color>
            </diffuse>
            <index_of_refraction>
              <float sid="ior">1.45</float>
            </index_of_refraction>
          </lambert>
        </technique>
      </profile_COMMON>
    </effect>
    <effect id="clutter_commercial-effect">
      <profile_COMMON>
        <technique sid="common">
          <lambert>
            <emission>
              <color sid="emission">0 0 0 1</color>
            </emission>
            <diffuse>
              <color sid="diffuse">0.8 0.8 0.8 1</color>
            </diffuse>
            <reflectivity>
              <float sid="specular">0.5</float>
            </reflectivity>
          </lambert>
        </technique>
      </profile_COMMON>
    </effect>
    <effect id="brick_plain-effect">
      <profile_COMMON>
        <technique sid="common">
          <lambert>
            <emission>
              <color sid="emission">0 0 0 1</color>
            </emission>
            <diffuse>
              <color sid="diffuse">0 0 0 1</color>
            </diffuse>
            <index_of_refraction>
              <float sid="ior">1.45</float>
            </index_of_refraction>
          </lambert>
        </technique>
      </profile_COMMON>
    </effect>
    <effect id="stone_brick_regular-effect">
      <profile_COMMON>
        <technique sid="common">
          <lambert>
            <emission>
              <color sid="emission">0 0 0 1</color>
            </emission>
            <diffuse>
              <color sid="diffuse">0 0 0 1</color>
            </diffuse>
            <index_of_refraction>
              <float sid="ior">1.45</float>
            </index_of_refraction>
          </lambert>
        </technique>
      </profile_COMMON>
    </effect>
    <effect id="curbs-effect">
      <profile_COMMON>
        <technique sid="common">
          <lambert>
            <emission>
              <color sid="emission">0 0 0 1</color>
            </emission>
            <diffuse>
              <color sid="diffuse">0 0 0 1</color>
            </diffuse>
            <index_of_refraction>
              <float sid="ior">1.45</float>
            </index_of_refraction>
          </lambert>
        </technique>
      </profile_COMMON>
    </effect>
    <effect id="wirefence-effect">
      <profile_COMMON>
        <technique sid="common">
          <lambert>
            <emission>
              <color sid="emission">0 0 0 1</color>
            </emission>
            <diffuse>
              <color sid="diffuse">0.8 0.8 0.8 1</color>
            </diffuse>
            <index_of_refraction>
              <float sid="ior">1.45</float>
            </index_of_refraction>
          </lambert>
        </technique>
      </profile_COMMON>
    </effect>
    <effect id="groundmesh_grass2-effect">
      <profile_COMMON>
        <newparam sid="groundmesh_grass_b_color_png-surface">
          <surface type="2D">
            <init_from>groundmesh_grass_b_color_png</init_from>
          </surface>
        </newparam>
        <newparam sid="groundmesh_grass_b_color_png-sampler">
          <sampler2D>
            <source>groundmesh_grass_b_color_png-surface</source>
          </sampler2D>
        </newparam>
        <technique sid="common">
          <lambert>
            <emission>
              <color sid="emission">0 0 0 1</color>
            </emission>
            <diffuse>
              <texture texture="groundmesh_grass_b_color_png-sampler" texcoord="UVMap"/>
            </diffuse>
            <index_of_refraction>
              <float sid="ior">1.45</float>
            </index_of_refraction>
          </lambert>
        </technique>
      </profile_COMMON>
    </effect>
    <effect id="billboards-effect">
      <profile_COMMON>
        <technique sid="common">
          <lambert>
            <emission>
              <color sid="emission">0 0 0 1</color>
            </emission>
            <diffuse>
              <color sid="diffuse">0.8 0.8 0.8 1</color>
            </diffuse>
            <reflectivity>
              <float sid="specular">0.5</float>
            </reflectivity>
          </lambert>
        </technique>
      </profile_COMMON>
    </effect>
    <effect id="road_asphalt-effect">
      <profile_COMMON>
        <technique sid="common">
          <lambert>
            <emission>
              <color sid="emission">0 0 0 1</color>
            </emission>
            <diffuse>
              <color sid="diffuse">0 0 0 1</color>
            </diffuse>
            <index_of_refraction>
              <float sid="ior">1.45</float>
            </index_of_refraction>
          </lambert>
        </technique>
      </profile_COMMON>
    </effect>
  </library_effects>
  <library_images>
    <image id="groundmesh_grass_b_color_png" name="groundmesh_grass_b_color_png">
      <init_from>groundmesh_grass_b.color.png</init_from>
    </image>
  </library_images>
  <library_materials>
    <material id="architraves-material" name="architraves">
      <instance_effect url="#architraves-effect"/>
    </material>
    <material id="industrial-material" name="industrial">
      <instance_effect url="#industrial-effect"/>
    </material>
    <material id="windows_doors_reflective-material" name="windows_doors_reflective">
      <instance_effect url="#windows_doors_reflective-effect"/>
    </material>
    <material id="corrugation-material" name="corrugation">
      <instance_effect url="#corrugation-effect"/>
    </material>
    <material id="slabs_large-material" name="slabs_large">
      <instance_effect url="#slabs_large-effect"/>
    </material>
    <material id="metal_plates-material" name="metal_plates">
      <instance_effect url="#metal_plates-effect"/>
    </material>
    <material id="balustrades-material" name="balustrades">
      <instance_effect url="#balustrades-effect"/>
    </material>
    <material id="brick_painted-material" name="brick_painted">
      <instance_effect url="#brick_painted-effect"/>
    </material>
    <material id="stucco1_white-material" name="stucco1_white">
      <instance_effect url="#stucco1_white-effect"/>
    </material>
    <material id="columns-material" name="columns">
      <instance_effect url="#columns-effect"/>
    </material>
    <material id="construction-material" name="construction">
      <instance_effect url="#construction-effect"/>
    </material>
    <material id="clutter_commercial-material" name="clutter_commercial">
      <instance_effect url="#clutter_commercial-effect"/>
    </material>
    <material id="brick_plain-material" name="brick_plain">
      <instance_effect url="#brick_plain-effect"/>
    </material>
    <material id="stone_brick_regular-material" name="stone_brick_regular">
      <instance_effect url="#stone_brick_regular-effect"/>
    </material>
    <material id="curbs-material" name="curbs">
      <instance_effect url="#curbs-effect"/>
    </material>
    <material id="wirefence-material" name="wirefence">
      <instance_effect url="#wirefence-effect"/>
    </material>
    <material id="groundmesh_grass2-material" name="groundmesh_grass2">
      <instance_effect url="#groundmesh_grass2-effect"/>
    </material>
    <material id="billboards-material" name="billboards">
      <instance_effect url="#billboards-effect"/>
    </material>
    <material id="road_asphalt-material" name="road_asphalt">
      <instance_effect url="#road_asphalt-effect"/>
    </material>
  </library_materials>
  <library_geometries>
    <geometry id="Plane_018-mesh" name="Plane.018">
      <mesh>
        <source id="Plane_018-mesh-positions">
          <float_array id="Plane_018-mesh-positions-array" count="1176">0.8505113 0.09803146 0.5038605 0.4953665 0.09798294 0.5038605 0.8505113 0.09803146 1.013954 0.4954203 0.09818792 1.013954 0.4925719 0.0980153 0.5038605 0.2190179 0.09811782 0.5038605 0.4925719 0.0980153 1.013954 0.2190179 0.09811782 1.013954 0.2391459 0.09801536 0.5038605 -0.06022208 0.09803694 0.5038605 0.2391459 0.09801536 1.013954 -0.06022208 0.09803694 1.013954 -0.06243395 0.0996446 0.5038605 -0.3594121 0.09641307 0.5038605 -0.06242853 0.09808546 1.013954 -0.3594014 0.097956 1.013954 -0.3669703 0.09974169 0.5038605 -0.6640239 0.09641313 0.5038605 -0.3670997 0.09805852 1.013954 -0.6640887 0.09803152 1.013954 0.8500851 0.09802609 1.055069 0.4588544 0.09798294 1.055069 0.8500851 0.09802609 1.176155 0.4588544 0.09798294 1.176155 0.4756215 0.09804767 1.055069 0.08428829 0.09802073 1.055069 0.4756215 0.09804767 1.176155 0.08428829 0.09802073 1.176155 0.08969926 0.09804773 1.055069 -0.301553 0.09811246 1.055069 0.08969926 0.09804773 1.176155 -0.301553 0.09811246 1.176155 -0.2660444 0.09799379 1.055069 -0.6571672 0.09818798 1.055069 -0.2660444 0.09799379 1.176155 -0.6571672 0.09818798 1.176155 -0.9311258 -0.1095871 0.2112579 -0.5445238 -0.10949 0.2112579 -0.9311258 -0.1095871 0.6322556 -0.5445238 -0.10949 0.6322556 -0.5690485 -0.1095656 0.2112579 -0.2973234 -0.1094793 0.2112579 -0.5690485 -0.1095656 0.6322556 -0.2973234 -0.1094793 0.6322556 -0.1930312 -0.1095871 0.2112579 0.0786615 -0.1095548 0.2112579 -0.1930312 -0.1095871 0.6322556 0.0786615 -0.1095548 0.6322556 0.080841 -0.10949 0.2112579 0.241293 -0.1095656 0.2112579 0.080841 -0.10949 0.6322556 0.241293 -0.1095656 0.6322556 0.2333627 -0.1095764 0.2112579 0.5051742 -0.1095764 0.2112579 0.2333627 -0.1095764 0.6322556 0.5051742 -0.1095764 0.6322556 -0.9087697 -0.1095871 -0.1831436 -0.6860833 -0.10949 -0.1831436 -0.9087697 -0.1095871 0.119255 -0.6860833 -0.10949 0.119255 -0.6899028 -0.1096411 -0.1831436 -0.4883316 -0.1095764 -0.1831436 -0.6899028 -0.1096411 0.119255 -0.4883316 -0.1095764 0.119255 -0.4919785 -0.1095548 -0.1831436 -0.2903749 -0.1096087 -0.1831436 -0.4919785 -0.1095548 0.119255 -0.2903749 -0.1096087 0.119255 -0.3125152 -0.1095656 -0.1831436 -0.1506605 -0.10949 -0.1831436 -0.3125152 -0.1095656 0.119255 -0.1506605 -0.10949 0.119255 -0.16179 -0.1095818 -0.1831436 0.03994846 -0.1095116 -0.1831436 -0.16179 -0.1095818 0.119255 0.03994846 -0.1095116 0.119255 0.01876306 -0.1096465 -0.1831436 0.2203397 -0.1095872 -0.1831436 0.01876306 -0.1096465 0.119255 0.2203397 -0.1095872 0.119255 0.1980645 -0.1096681 -0.1831436 0.3997275 -0.1095225 -0.1831436 0.1980645 -0.1096681 0.119255 0.3997275 -0.1095225 0.119255 0.4117578 -0.1096411 -0.1831436 0.6342932 -0.1095656 -0.1831436 0.4117578 -0.1096411 0.119255 0.6342932 -0.1095656 0.119255 0.6193712 -0.1094901 -0.1831436 0.8419821 -0.1094901 -0.1831436 0.6193712 -0.1094901 0.119255 0.8419821 -0.1094901 0.119255 0.4655656 -0.1095872 -0.4960404 0.6316174 -0.1095656 -0.4960404 0.4655656 -0.1095872 -0.1936416 0.6316174 -0.1095656 -0.1936416 -0.5397872 -0.1095656 -0.1936416 -0.7231023 -0.1095871 -0.1936416 -0.5397872 -0.1095656 -0.4960404 -0.7231023 -0.1095871 -0.4960404 -0.9050042 -0.1096411 -0.4960404 -0.7218076 -0.1095871 -0.4960404 -0.9050042 -0.1096411 -0.1936416 -0.7218076 -0.1095871 -0.1936416 -0.5433261 -0.1095656 -0.4960404 -0.3600541 -0.1095871 -0.4960404 -0.5433261 -0.1095656 -0.1936416 -0.3600541 -0.1095871 -0.1936416 -0.3669703 -0.1095764 -0.4960404 -0.183709 -0.1095872 -0.4960404 -0.3669703 -0.1095764 -0.1936416 -0.183709 -0.1095872 -0.1936416 -0.195993 -0.1095602 -0.4960404 -0.01263999 -0.10949 -0.4960404 -0.195993 -0.1095602 -0.1936416 -0.01263999 -0.10949 -0.1936416 -0.01625448 -0.1095872 -0.4960404 0.1670498 -0.1095548 -0.4960404 -0.01625448 -0.1095872 -0.1936416 0.1670498 -0.1095548 -0.1936416 0.1619572 -0.1095548 -0.4960404 0.3451537 -0.1095009 -0.4960404 0.1619572 -0.1095548 -0.1936416 0.3451537 -0.1095009 -0.1936416 0.3421812 -0.1096357 -0.4991455 0.475314 -0.1095818 -0.4991455 0.3421812 -0.1096357 -0.1967391 0.475314 -0.1095818 -0.1967391 0.6419107 -0.1095872 -0.4960404 0.8252205 -0.1095603 -0.4960404 0.6419107 -0.1095872 -0.1936416 0.8252205 -0.1095603 -0.1936416 -0.9016162 -0.10949 -0.7960434 -0.7555467 -0.1095116 -0.7960434 -0.9016162 -0.10949 -0.4936447 -0.7555467 -0.1095116 -0.4936447 -0.7585785 -0.1095871 -0.8010407 -0.5972418 -0.1095979 -0.8010407 -0.7585785 -0.1095871 -0.498642 -0.5972418 -0.1095979 -0.498642 -0.5957204 -0.1094793 -0.7994385 -0.4495538 -0.1094253 -0.7994385 -0.5957204 -0.1094793 -0.4970398 -0.4495538 -0.1094253 -0.4970398 -0.4496833 -0.1095548 -0.8008423 -0.3169065 -0.1095764 -0.8008423 -0.4496833 -0.1095548 -0.4984436 -0.3169065 -0.1095764 -0.4984436 -0.3206074 -0.1095871 -0.8008423 -0.1877875 -0.1095656 -0.8008423 -0.3206074 -0.1095871 -0.4984436 -0.1877875 -0.1095656 -0.4984436 0.4152969 -0.1096411 -0.807045 0.5355576 -0.1095764 -0.807045 0.4152969 -0.1096411 -0.5047455 0.5355576 -0.1095764 -0.5047455 0.1951891 -0.1095548 -0.807045 0.3280522 -0.1094901 -0.807045 0.1951891 -0.1095548 -0.5047455 0.3280522 -0.1094901 -0.5047455 0.3258727 -0.1095548 -0.8102417 0.422364 -0.1096304 -0.8102417 0.3258727 -0.1095548 -0.507843 0.422364 -0.1096304 -0.507843 0.5432291 -0.1095656 -0.807045 0.6760813 -0.1094901 -0.807045 0.5432291 -0.1095656 -0.5047455 0.6760813 -0.1094901 -0.5047455 0.6757954 -0.1096358 -0.807045 0.8086639 -0.1095764 -0.807045 0.6757954 -0.1096358 -0.5047455 0.8086639 -0.1095764 -0.5047455 -0.1928802 -0.1095656 -0.8008423 -0.02041387 -0.1094847 -0.8008423 -0.1928802 -0.1095656 -0.4984436 -0.02041387 -0.1094847 -0.4984436 -0.02189743 -0.1095548 -0.8102417 0.07470172 -0.1095656 -0.8102417 -0.02189743 -0.1095548 -0.507843 0.07470172 -0.1095656 -0.507843 0.05953156 -0.1095872 -0.807045 0.1923514 -0.1095656 -0.807045 0.05953156 -0.1095872 -0.5047455 0.1923514 -0.1095656 -0.5047455 0.577896 -0.1095333 0.2220687 0.8356702 -0.1095656 0.2220687 0.577896 -0.1095333 0.6215592 0.8356702 -0.1095656 0.6215592 0.9081547 -0.1085082 -0.8687439 -0.9811624 -0.1085783 -0.8687439 0.9081547 -0.1085082 0.73246 -0.9811624 -0.1085783 0.73246 0.975266 3.50177e-05 0.7995606 0.975266 3.50177e-05 -0.9358444 -1.048274 -3.49879e-05 -0.9358444 -1.048274 -3.49879e-05 0.7995606 0.9752768 -0.1085622 0.7995606 0.9752768 -0.1085622 -0.9358444 -1.048285 -0.1085244 -0.9358444 -1.048285 -0.1085244 0.7995606 -0.8513583 0.09661275 0.3897553 0.9961763 0.0966019 0.3897553 -0.8513583 0.09661275 1.257355 0.9961763 0.0966019 1.257355 -0.8513259 -0.01183342 1.257355 -0.8513259 -0.01183342 0.3897553 0.9961978 -0.01183348 0.3897553 0.9961978 -0.01183348 1.257355 -0.9311257 -0.1097905 0.5959757 -0.9311257 -0.1097905 0.2475012 -0.7837925 -0.1097534 0.2475039 -0.7837925 -0.1097534 0.5959783 -0.7825297 -0.1097531 0.5959783 -0.7825297 -0.1097531 0.2475039 -0.6384726 -0.1097169 0.2475065 -0.6384726 -0.1097169 0.5959809 -0.6372097 -0.1097166 0.5959809 -0.6372097 -0.1097166 0.2475065 -0.4693821 -0.1096745 0.2475095 -0.4693821 -0.1096745 0.5959839 -0.4681193 -0.1096742 0.5959839 -0.4681193 -0.1096742 0.2475095 -0.3386771 -0.1096417 0.2475118 -0.3386771 -0.1096417 0.5959863 -0.3374143 -0.1096413 0.5959863 -0.3374143 -0.1096413 0.2475118 -0.2171275 -0.1096111 0.247514 -0.2171275 -0.1096111 0.5959884 -0.2158647 -0.1096108 0.5959885 -0.2158647 -0.1096108 0.247514 -0.07576932 -0.1095756 0.2475165 -0.07576932 -0.1095756 0.595991 -0.07450649 -0.1095753 0.595991 -0.07450649 -0.1095753 0.2475165 0.06688411 -0.1095398 0.2475191 0.06688411 -0.1095398 0.5959935 0.06814693 -0.1095395 0.5959935 0.06814693 -0.1095395 0.2475191 0.2161658 -0.1095023 0.2475217 0.2161658 -0.1095023 0.5959962 0.2174286 -0.109502 0.5959962 0.2174286 -0.109502 0.2475218 0.4090267 -0.1094539 0.2475252 0.4090267 -0.1094539 0.5959996 0.4102895 -0.1094535 0.5959997 0.4102895 -0.1094535 0.2475252 0.5543467 -0.1094174 0.2475278 0.5543467 -0.1094174 0.5960022 0.5556095 -0.109417 0.5960023 0.5556095 -0.109417 0.2475278 0.6850517 -0.1093845 0.2475301 0.6850517 -0.1093845 0.5960046 0.6863146 -0.1095546 0.5871394 0.6863146 -0.1095546 0.2564688 0.8356702 -0.1095171 0.2564715 0.8356702 -0.1095171 0.5871421 -0.9087696 -0.1099164 0.119239 -0.9087696 -0.1099164 -0.1831639 -0.7200622 -0.1098341 -0.1831602 -0.7200622 -0.1098341 0.1192427 -0.7311676 -0.109839 0.1192425 -0.7311676 -0.109839 -0.1831604 -0.5166527 -0.1097454 -0.1831563 -0.5166527 -0.1097454 0.1192467 -0.5277581 -0.1097503 0.1192464 -0.5277581 -0.1097503 -0.1831565 -0.3304482 -0.1096642 -0.1831527 -0.3304482 -0.1096642 0.1192503 -0.3415537 -0.1096691 0.1192501 -0.3415537 -0.1096691 -0.1831529 -0.2474741 -0.109628 -0.183151 -0.2474741 -0.109628 0.1192519 -0.2585795 -0.1096329 0.1192517 -0.2585795 -0.1096329 -0.1831513 -0.04406455 -0.1095394 -0.1831471 -0.04406455 -0.1095394 0.1192558 -0.05516995 -0.1095442 0.1192556 -0.05516995 -0.1095442 -0.1831473 0.1421399 -0.1094582 -0.1831435 0.1421399 -0.1094582 0.1192595 0.1310345 -0.109463 0.1192592 0.1310345 -0.109463 -0.1831437 0.3455494 -0.1093695 -0.1831395 0.3455494 -0.1093695 0.1192634 0.334444 -0.1093743 0.1192632 0.334444 -0.1093743 -0.1831397 0.5231514 -0.109292 -0.1831361 0.5231514 -0.109292 0.1192669 0.5120459 -0.1092969 0.1192667 0.5120459 -0.1092969 -0.1831363 0.6749457 -0.1092258 -0.1831331 0.6749457 -0.1092258 0.1192698 0.6638403 -0.1092307 0.1192696 0.6638403 -0.1092307 -0.1831333 0.841982 -0.109153 -0.1831299 0.841982 -0.109153 0.1192731 -0.8586891 -0.1098 -0.1936608 -0.8586891 -0.1098 -0.496064 -0.6802228 -0.1097474 -0.4960597 -0.6802228 -0.1097474 -0.1936566 -0.6838373 -0.1097485 -0.1936567 -0.6838373 -0.1097485 -0.4960598 -0.5012206 -0.1096947 -0.4960555 -0.5012206 -0.1096947 -0.1936524 -0.5048351 -0.1096957 -0.1936525 -0.5048351 -0.1096957 -0.4960556 -0.3263688 -0.1096431 -0.4960514 -0.3263688 -0.1096431 -0.1936482 -0.3299833 -0.1096442 -0.1936483 -0.3299833 -0.1096442 -0.4960515 -0.1637033 -0.1095952 -0.4960475 -0.1637033 -0.1095952 -0.1936444 -0.1673179 -0.1095963 -0.1936445 -0.1673179 -0.1095963 -0.4960476 -0.0007430677 -0.1095472 -0.4960437 -0.0007430677 -0.1095472 -0.1936406 -0.004357586 -0.1095482 -0.1936406 -0.004357586 -0.1095482 -0.4960438 0.1788187 -0.1094942 -0.4960394 0.1788187 -0.1094942 -0.1936363 0.1752042 -0.1094953 -0.1936364 0.1752042 -0.1094953 -0.4960395 0.3536705 -0.1094427 -0.4960353 0.3536705 -0.1094427 -0.1936322 0.350056 -0.1094437 -0.1936323 0.350056 -0.1094437 -0.4960354 0.5661405 -0.1093801 -0.4960303 0.5661405 -0.1093801 -0.1936272 0.3916922 -0.1094315 -0.1520121 0.3916922 -0.1094315 -0.2154236 0.5245043 -0.1093923 -0.2154204 0.5245043 -0.1093923 -0.152009 0.562526 -0.1093811 -0.1936272 0.562526 -0.1093811 -0.4960304 0.7789054 -0.1093173 -0.4960253 0.7789054 -0.1093173 -0.1936221 -0.5129627 -0.1094651 -0.5047639 -0.5129627 -0.1094651 -0.8071669 -0.3688878 -0.1094864 -0.8071627 -0.3688878 -0.1094864 -0.5047596 -0.3707193 -0.1094861 -0.5047597 -0.3707193 -0.1094861 -0.8071627 -0.2142841 -0.1095092 -0.8071581 -0.2142841 -0.1095092 -0.5047551 -0.3388527 -0.1094908 -0.4631396 -0.3388527 -0.1094908 -0.526551 -0.2461507 -0.1095045 -0.5265483 -0.2461507 -0.1095045 -0.4631369 -0.2161156 -0.109509 -0.5047551 -0.2161156 -0.109509 -0.8071581 -0.05968044 -0.1095321 -0.8071535 -0.05968044 -0.1095321 -0.5047505 -0.06151196 -0.1095318 -0.5047505 -0.06151196 -0.1095318 -0.8071536 0.07020272 -0.1095513 -0.8071497 0.07020272 -0.1095513 -0.5047466 0.0683712 -0.109551 -0.5047467 0.0683712 -0.109551 -0.8071497 0.1382846 -0.1095614 -0.8071476 0.1382846 -0.1095614 -0.5047446 0.1364531 -0.1095611 -0.5047447 0.1364531 -0.1095611 -0.8071477 0.2928883 -0.1095842 -0.8071431 0.2928883 -0.1095842 -0.50474 0.2910567 -0.109584 -0.5047401 0.2910567 -0.109584 -0.8071431 0.4200104 -0.109603 -0.8071393 0.4200104 -0.109603 -0.5047363 0.8505292 0.09796173 1.013954 0.8505023 0.09785924 0.5038605 0.5605869 0.0979033 0.5038605 0.5606138 0.09800579 1.013954 0.5586083 0.0980061 1.013954 0.5585814 0.09790361 0.5038605 0.3927726 0.09792881 0.5038605 0.3927995 0.0980313 1.013954 0.390794 0.0980316 1.013954 0.3907671 0.09792911 0.5038605 0.129894 0.09796876 0.5038605 0.1299209 0.09807125 1.013954 0.1279154 0.09807155 1.013954 0.1278885 0.09796906 0.5038605 -0.1435472 0.09801032 0.5038605 -0.1435203 0.09811281 1.013954 -0.1455259 0.09811311 1.013954 -0.1455528 0.09801062 0.5038605 -0.4249055 0.09805308 0.5038605 -0.4248786 0.09815557 1.013954 -0.4268841 0.09815587 1.013954 -0.426911 0.09805338 0.5038605 -0.664013 0.09808941 0.5038605 -0.6639861 0.0981919 1.013954</float_array>
          <technique_common>
            <accessor source="#Plane_018-mesh-positions-array" count="392" stride="3">
              <param name="X" type="float"/>
              <param name="Y" type="float"/>
              <param name="Z" type="float"/>
            </accessor>
          </technique_common>
        </source>
        <source id="Plane_018-mesh-normals">
          <float_array id="Plane_018-mesh-normals-array" count="534">-8.03643e-4 -0.9999998 0 -1.86747e-5 -0.9999997 7.84884e-4 -0.002001643 -0.9999981 1.27508e-7 -0.001905739 -0.9999982 0 -0.001905739 -0.9999983 0 4.32035e-4 -0.9999991 0.001258492 3.7085e-5 -0.9999997 8.40263e-4 8.18741e-4 -0.9999997 0 3.39358e-4 -1 0 3.7085e-5 -1 0 -5.90318e-5 -1 0 3.94817e-4 -1 0 3.9481e-4 -1 4.1321e-6 3.94817e-4 -1 0 1.33088e-4 -0.9999988 -0.001601219 1.33134e-4 -0.9999988 -0.001601219 1.3303e-4 -0.9999988 -0.001601219 -8.03201e-4 -0.9999997 0 -1.86747e-5 -0.9999997 -7.84884e-4 1.3003e-4 -1 0 -1.25557e-4 -1 0 -4.70804e-4 -0.9999999 0 -2.97031e-5 -1 -1.8772e-4 8.5799e-6 -1 0 1.76525e-4 -1 0 -7.19751e-5 -1 4.09947e-4 -3.02858e-4 -1 0 0 0 1 1.26371e-5 -1 -1.54211e-4 4.6654e-4 -0.9999999 0 -3.45956e-5 1 0 -4.4658e-4 1 0 1 1.98939e-4 0 1.62396e-4 -1 0 0.006051003 -0.9999559 0.00718683 0.01194351 -0.9999245 -0.002921581 0.007825016 -0.9999356 0.008234739 -1 9.87749e-5 0 -2.9445e-4 1 0 0 1 0 0 0 -1 -1.62452e-4 1 0 -5.28929e-4 0.9999995 8.33849e-4 0.9999995 0.001057386 0 0.9999995 9.38825e-4 -4.61935e-4 0.9999995 0.001057386 0 -6.8883e-5 1 0 -6.70538e-5 -1 0 -2.94325e-4 1 0 0 0 1 1.13954e-4 1 7.65795e-5 4.40667e-4 1 0 -1.19097e-4 1 0 -4.83017e-4 0.9999998 5.63904e-4 3.74771e-4 1 0 6.06493e-5 1 -1.18042e-4 3.92022e-5 1 0 1.47717e-4 1 0 -2.6764e-4 -1 0 -1.27174e-4 -1 -1.78773e-4 5.76586e-5 -1 4.02771e-4 -1.61756e-4 -1 0 -4.87086e-4 0.9999999 0 -1.17541e-4 1 0 3.82418e-4 -1 0 7.20997e-5 1 0 -3.69046e-4 1 0 7.22289e-4 -0.9999998 0 -2.9445e-4 1 0 1.46971e-4 -1 0 0 1 0 4.35887e-4 -1 0 1.51616e-4 -1 3.86004e-4 -4.34964e-5 -1 0 0 -1 0 -4.69154e-4 1 0 2.51229e-4 -1 0 5.87163e-6 1 0 -5.68445e-4 0.9999999 0 3.21131e-4 -1 0 7.75026e-4 -0.9999998 -1.54232e-4 8.00514e-4 -0.9999997 0 -1 -2.99012e-4 0 -0.9999997 -1.92013e-4 8.56231e-4 -0.9999999 5.63879e-4 0 -1.62617e-4 -1 0 -0.003799736 -0.999958 0.008344173 4.61689e-4 -0.9999946 -0.003240227 0.0033257 -0.9999917 -0.002376973 -4.96556e-4 -1 0 -4.05176e-4 1 0 -7.82728e-4 -0.9999997 0 -1.10341e-4 1 0 -1.1176e-4 -1 0 2.02851e-4 -1 3.42391e-4 4.28516e-4 -0.9999993 0.001097083 -5.64206e-4 -0.9999998 0 1.65502e-4 1 0 0 0 -1 -1.17813e-4 -1 0 3.47603e-4 -1 0 6.2357e-4 -0.9999998 -3.86047e-4 8.18741e-4 -0.9999997 0 3.39358e-4 -1 0 3.7085e-5 -1 0 -5.90318e-5 -1 0 1.3003e-4 -1 0 -1.25557e-4 -1 0 -4.70804e-4 -0.9999999 0 -5.46206e-6 -1 1.15177e-4 1.76525e-4 -1 0 -3.02858e-4 -1 0 1.48761e-7 0 1 1.78702e-5 -1 1.68833e-4 -1.2844e-5 -1 2.29773e-7 4.6654e-4 -1 0 -4.4658e-4 1 0 1 1.98939e-4 0 1.62396e-4 -1 0 -6.29123e-4 -0.9999946 0.003229677 0.003499984 -0.9999566 -0.008647561 0.005081534 -0.9999632 -0.006916642 -2.9445e-4 1 0 0 1 0 0 0 -1 -1.62452e-4 1 0 -1.62452e-4 0.9999998 -6.71137e-4 -1.625e-4 0.9999997 9.10829e-4 0.9999997 1.59805e-4 -9.56896e-4 0.9999995 0.001058697 0 0.9999995 0.001057863 3.99949e-5 -6.8883e-5 1 0 -6.70538e-5 -1 0 -2.94325e-4 1 0 0 0 1 -3.96129e-4 0.9999998 -6.14579e-4 -1.36615e-4 1 -4.01838e-4 -1.19097e-4 1 0 -1.19097e-4 0.9999998 -6.71137e-4 -1.19087e-4 0.9999998 6.71137e-4 3.74771e-4 1 0 5.71144e-5 1 1.0817e-4 1.47716e-4 1 0 -2.6764e-4 -1 0 -1.35502e-4 -1 1.56467e-4 -1.61755e-4 -1 2.98692e-7 -1.61755e-4 -1 0 -4.87086e-4 0.9999999 0 -1.17541e-4 1 0 3.82418e-4 -1 0 7.20996e-5 1 0 -3.69046e-4 1 0 7.22289e-4 -0.9999998 0 -2.9445e-4 1 0 1.46971e-4 -1 0 -4.34964e-5 -1 0 -4.69154e-4 0.9999999 0 2.51229e-4 -1 0 -5.68444e-4 1 0 3.2113e-4 -1 0 7.64149e-4 -0.9999998 1.83149e-4 -1 -2.99012e-4 0 -0.9999999 5.63879e-4 0 -1.62617e-4 -1 0 0.01081752 -0.9999366 0.003163397 0.007968127 -0.9999658 0.002252101 0.0150547 -0.9998512 -0.00843805 -4.96556e-4 -1 0 -4.05176e-4 1 0 -4.05176e-4 0.9999997 -8.62891e-4 -7.82729e-4 -0.9999998 0 -1.10341e-4 1 0 -1.1176e-4 -1 0 5.58499e-4 -0.9999998 4.78961e-4 5.38376e-4 -1 0 -1.65915e-4 -0.9999997 8.48328e-4 -1.17813e-4 -1 0 3.47603e-4 -1 0</float_array>
          <technique_common>
            <accessor source="#Plane_018-mesh-normals-array" count="178" stride="3">
              <param name="X" type="float"/>
              <param name="Y" type="float"/>
              <param name="Z" type="float"/>
            </accessor>
          </technique_common>
        </source>
        <source id="Plane_018-mesh-map-0">
          <float_array id="Plane_018-mesh-map-0-array" count="1124">0.7389194 0.5683713 0.5673182 0.5582684 0.7533061 0.5582684 0.425138 0.5583253 0.7835962 0.5678141 0.4116259 0.5678141 0.7389194 0.5582684 0.5673182 0.5683713 0.5817049 0.5582684 0.4251389 0.5678141 0.7835962 0.5583247 0.7700842 0.5678135 0.6958781 0.9966123 0.7066544 0.9826409 0.7066544 0.9966123 0.7347722 0.694041 0.6241809 0.6466982 0.7347721 0.6466982 0.671727 0.9966123 0.6818949 0.9826409 0.6818949 0.9966123 0.7389194 0.5683713 0.5817049 0.5683712 0.5673182 0.5582684 0.425138 0.5583253 0.7700832 0.5583247 0.7835962 0.5678141 0.7389194 0.5582684 0.7533061 0.5683713 0.5673182 0.5683713 0.4251389 0.5678141 0.4116259 0.5583247 0.7835962 0.5583247 0.6591299 0.9966123 0.6706705 0.9826409 0.6706705 0.9966123 0.8957461 0.8755462 0.9133082 0.8512046 0.9133082 0.8755462 0.6520151 0.8055043 0.6617663 0.7811627 0.6617663 0.8055043 0.6473421 0.9966123 0.6575101 0.9826409 0.6575101 0.9966123 0.7577195 0.5703608 0.512609 0.5559637 0.7577195 0.5559636 0.5971196 0.9966123 0.6031452 0.9826409 0.6031452 0.9966123 0.6198486 0.6982062 0.7391045 0.6421987 0.7391045 0.6982063 0.706727 0.9966123 0.7175033 0.9826409 0.706727 0.9826413 0.3974943 0.5559638 0.512609 0.570361 0.3974943 0.5703608 0.706727 0.9966123 0.7175033 0.9826409 0.7175033 0.9966123 0.7300063 0.9644187 0.7410891 0.979184 0.7410891 0.9644187 0.3974943 0.5559638 0.512609 0.570361 0.3974943 0.5703608 0.706727 0.9966123 0.7175033 0.9826409 0.706727 0.9826413 0.937278 0.8055043 0.9568794 0.7811627 0.937278 0.7811635 0.3974943 0.5559638 0.1523837 0.570361 0.1523837 0.5559636 0.706727 0.9966123 0.7175033 0.9826409 0.706727 0.9826413 0.7577195 0.5559636 0.8728342 0.570361 0.7577195 0.5703608 0.7528823 0.979184 0.7658722 0.9644184 0.7658722 0.979184 0.6958781 0.9966123 0.7066544 0.9826409 0.7066544 0.9966123 0.7174277 0.9966123 0.7289684 0.9826409 0.7174277 0.9826413 0.512609 0.570361 0.7577195 0.5559636 0.7577195 0.5703608 0.5771594 0.9644187 0.5901436 0.979184 0.5771594 0.979184 0.5959041 0.8055043 0.6125006 0.7811627 0.5959041 0.7811635 0.6361273 0.979184 0.6466081 0.9644187 0.6466081 0.979184 0.7174277 0.9966123 0.7289684 0.9826409 0.7174277 0.9826413 0.5387796 0.9966123 0.5503203 0.9826409 0.5503203 0.9966123 0.5806069 0.8055043 0.5972035 0.7811627 0.5972035 0.8055043 0.706727 0.9966123 0.7175033 0.9826409 0.706727 0.9826413 0.7287502 0.9966123 0.7395265 0.9826409 0.7287502 0.9826413 0.5510038 0.9966123 0.5611717 0.9826409 0.5611717 0.9966123 0.5030226 0.979184 0.5163472 0.9644187 0.5163472 0.979184 0.5036476 0.9966123 0.5151883 0.9826409 0.5036476 0.9826413 0.6591299 0.9966123 0.6706705 0.9826409 0.6706705 0.9966123 0.706727 0.9966123 0.7175033 0.9826409 0.706727 0.9826413 0.6473421 0.9966123 0.6575101 0.9826409 0.6575101 0.9966123 0.706727 0.9966123 0.7175033 0.9826409 0.706727 0.9826413 0.6958781 0.9966123 0.7066544 0.9826409 0.7066544 0.9966123 0.6198486 0.6982062 0.7391045 0.6421987 0.7391045 0.6982063 0.632878 0.9966123 0.6456577 0.9826409 0.632878 0.9826413 0.9102922 0.8055043 0.9378999 0.7811627 0.9378999 0.8055043 0.7391045 0.6983734 0.6198486 0.6423658 0.7391045 0.6423658 0.6473421 0.9966123 0.6575101 0.9826409 0.6473421 0.9826413 0.5036476 0.9966123 0.5151883 0.9826409 0.5151883 0.9966123 0.7577195 0.5559636 0.8728342 0.570361 0.7577195 0.5703608 0.6473421 0.9966123 0.6575101 0.9826409 0.6575101 0.9966123 0.7410891 0.9644187 0.7300063 0.979184 0.7410891 0.979184 0.6763209 0.979184 0.6894966 0.9644184 0.6763209 0.9644189 0.5971196 0.9966123 0.6031452 0.9826409 0.5971196 0.9826413 0.5971196 0.9966123 0.6031452 0.9826409 0.6031452 0.9966123 0.5026299 0.979184 0.5168851 0.9644184 0.5168851 0.979184 0.5971196 0.9966123 0.6031452 0.9826409 0.6031452 0.9966123 0.6591299 0.9966123 0.6706705 0.9826409 0.6706705 0.9966123 0.7414548 0.979184 0.7529982 0.9644184 0.7529982 0.979184 0.3974943 0.5703608 0.1523837 0.5559636 0.3974943 0.5559638 0.706727 0.9966123 0.7175033 0.9826409 0.7175033 0.9966123 0.5036476 0.9966123 0.5151883 0.9826409 0.5151883 0.9966123 0.6958781 0.9966123 0.6958781 0.9826413 0.7066544 0.9826409 0.7347722 0.694041 0.6241809 0.6940411 0.6241809 0.6466982 0.671727 0.9966123 0.671727 0.9826413 0.6818949 0.9826409 0.6591299 0.9966123 0.6591299 0.9826413 0.6706705 0.9826409 0.8957461 0.8755462 0.8957461 0.8512055 0.9133082 0.8512046 0.6520151 0.8055043 0.6520151 0.7811635 0.6617663 0.7811627 0.6473421 0.9966123 0.6473421 0.9826413 0.6575101 0.9826409 0.7577195 0.5703608 0.512609 0.570361 0.512609 0.5559637 0.5971196 0.9966123 0.5971196 0.9826413 0.6031452 0.9826409 0.6198486 0.6982062 0.6198486 0.6421987 0.7391045 0.6421987 0.706727 0.9966123 0.7175033 0.9966123 0.7175033 0.9826409 0.3974943 0.5559638 0.512609 0.5559637 0.512609 0.570361 0.706727 0.9966123 0.706727 0.9826413 0.7175033 0.9826409 0.7300063 0.9644187 0.7300063 0.979184 0.7410891 0.979184 0.3974943 0.5559638 0.512609 0.5559637 0.512609 0.570361 0.706727 0.9966123 0.7175033 0.9966123 0.7175033 0.9826409 0.937278 0.8055043 0.9568794 0.8055043 0.9568794 0.7811627 0.3974943 0.5559638 0.3974943 0.5703608 0.1523837 0.570361 0.706727 0.9966123 0.7175033 0.9966123 0.7175033 0.9826409 0.7577195 0.5559636 0.8728342 0.5559637 0.8728342 0.570361 0.7528823 0.979184 0.7528823 0.9644189 0.7658722 0.9644184 0.6958781 0.9966123 0.6958781 0.9826413 0.7066544 0.9826409 0.7174277 0.9966123 0.7289684 0.9966123 0.7289684 0.9826409 0.512609 0.570361 0.512609 0.5559637 0.7577195 0.5559636 0.5771594 0.9644187 0.5901436 0.9644187 0.5901436 0.979184 0.5959041 0.8055043 0.6125006 0.8055043 0.6125006 0.7811627 0.6361273 0.979184 0.6361273 0.9644187 0.6466081 0.9644187 0.7174277 0.9966123 0.7289684 0.9966123 0.7289684 0.9826409 0.5387796 0.9966123 0.5387796 0.9826413 0.5503203 0.9826409 0.5806069 0.8055043 0.5806069 0.7811635 0.5972035 0.7811627 0.706727 0.9966123 0.7175033 0.9966123 0.7175033 0.9826409 0.7287502 0.9966123 0.7395265 0.9966123 0.7395265 0.9826409 0.5510038 0.9966123 0.5510038 0.9826413 0.5611717 0.9826409 0.5030226 0.979184 0.5030226 0.9644187 0.5163472 0.9644187 0.5036476 0.9966123 0.5151883 0.9966123 0.5151883 0.9826409 0.6591299 0.9966123 0.6591299 0.9826413 0.6706705 0.9826409 0.706727 0.9966123 0.7175033 0.9966123 0.7175033 0.9826409 0.6473421 0.9966123 0.6473421 0.9826413 0.6575101 0.9826409 0.706727 0.9966123 0.7175033 0.9966123 0.7175033 0.9826409 0.6958781 0.9966123 0.6958781 0.9826413 0.7066544 0.9826409 0.6198486 0.6982062 0.6198486 0.6421987 0.7391045 0.6421987 0.632878 0.9966123 0.6456577 0.9966123 0.6456577 0.9826409 0.9102922 0.8055043 0.9102922 0.7811635 0.9378999 0.7811627 0.7391045 0.6983734 0.6198486 0.6983734 0.6198486 0.6423658 0.6473421 0.9966123 0.6575101 0.9966123 0.6575101 0.9826409 0.5036476 0.9966123 0.5036476 0.9826413 0.5151883 0.9826409 0.7577195 0.5559636 0.8728342 0.5559637 0.8728342 0.570361 0.6473421 0.9966123 0.6473421 0.9826413 0.6575101 0.9826409 0.7410891 0.9644187 0.7300063 0.9644187 0.7300063 0.979184 0.6763209 0.979184 0.6894966 0.979184 0.6894966 0.9644184 0.5971196 0.9966123 0.6031452 0.9966123 0.6031452 0.9826409 0.5971196 0.9966123 0.5971196 0.9826413 0.6031452 0.9826409 0.5026299 0.979184 0.5026299 0.9644189 0.5168851 0.9644184 0.5971196 0.9966123 0.5971196 0.9826413 0.6031452 0.9826409 0.6591299 0.9966123 0.6591299 0.9826413 0.6706705 0.9826409 0.7414548 0.979184 0.7414548 0.9644189 0.7529982 0.9644184 0.3974943 0.5703608 0.1523837 0.570361 0.1523837 0.5559636 0.706727 0.9966123 0.706727 0.9826413 0.7175033 0.9826409 0.5036476 0.9966123 0.5036476 0.9826413 0.5151883 0.9826409 0.5437012 0.8055043 0.5437012 0.7811627 0.5618599 0.7811627 0.5618599 0.8055043 0.7652963 0.8055043 0.7652963 0.7811627 0.7830513 0.7811627 0.7830513 0.8055043 0.7433237 0.8055043 0.7433237 0.7811627 0.7640083 0.7811627 0.7640083 0.8055043 0.8404917 0.8055043 0.8404917 0.7811627 0.8564453 0.7811627 0.8564453 0.8055043 0.5812143 0.8055043 0.5812143 0.7811627 0.5960396 0.7811627 0.5960396 0.8055043 0.8224253 0.8055043 0.8224253 0.7811627 0.8396919 0.7811627 0.8396919 0.8055043 0.8564453 0.8055043 0.8564453 0.7811627 0.8738716 0.7811627 0.8738716 0.8055043 0.5065073 0.8055043 0.5065073 0.7811627 0.5247505 0.7811627 0.5247505 0.8055043 0.7169565 0.8055043 0.7169565 0.7811627 0.7405708 0.7811627 0.7405708 0.8055043 0.7652963 0.8055043 0.7652963 0.7811627 0.7830513 0.7811627 0.7830513 0.8055043 0.8404917 0.8055043 0.8404917 0.7811627 0.8564453 0.7811627 0.8564453 0.8055043 0.8957461 0.8755462 0.8957461 0.8512046 0.9133082 0.8512046 0.9133082 0.8755462 0.6959433 0.9966123 0.6959433 0.9826409 0.7066544 0.9826409 0.7066544 0.9966123 0.5030722 0.9966123 0.5030722 0.9826409 0.5152482 0.9826409 0.5152482 0.9966123 0.5387168 0.9966123 0.5387168 0.9826409 0.5499161 0.9826409 0.5499161 0.9966123 0.5973105 0.9966123 0.5973105 0.9826409 0.6026505 0.9826409 0.6026505 0.9966123 0.5030722 0.9966123 0.5030722 0.9826409 0.5152482 0.9826409 0.5152482 0.9966123 0.5387168 0.9966123 0.5387168 0.9826409 0.5499161 0.9826409 0.5499161 0.9966123 0.658834 0.9966123 0.658834 0.9826409 0.6710099 0.9826409 0.6710099 0.9966123 0.6959433 0.9966123 0.6959433 0.9826409 0.7066544 0.9826409 0.7066544 0.9966123 0.5514121 0.9966123 0.5514121 0.9826409 0.5606583 0.9826409 0.5606583 0.9966123 0.7071738 0.9966123 0.7071738 0.9826409 0.7172852 0.9826409 0.7172852 0.9966123 0.7067871 0.9966123 0.7067871 0.9826409 0.7172852 0.9826409 0.7172852 0.9966123 0.7287598 0.9966123 0.7287598 0.9826409 0.739502 0.9826409 0.739502 0.9966123 0.7067871 0.9966123 0.7067871 0.9826409 0.7172852 0.9826409 0.7172852 0.9966123 0.6721036 0.9966123 0.6721036 0.9826409 0.6818848 0.9826409 0.6818848 0.9966123 0.5510098 0.9966123 0.5510098 0.9826409 0.5608084 0.9826409 0.5608084 0.9966123 0.6467129 0.9966123 0.6467129 0.9826409 0.657488 0.9826409 0.657488 0.9966123 0.7067871 0.9966123 0.7067871 0.9826409 0.7172852 0.9826409 0.7172852 0.9966123 0.50267 0.9966123 0.50267 0.9826409 0.5153809 0.9826409 0.5153809 0.9966123 0.894043 0.9155273 0.894043 0.9125977 0.9018555 0.9125977 0.9018555 0.9155273 0.6584317 0.9966123 0.6584317 0.9826409 0.6711599 0.9826409 0.6711599 0.9966123 0.5264327 0.9966123 0.5264327 0.9826409 0.5378158 0.9826409 0.5378158 0.9966123 0.5029952 0.9966123 0.5029952 0.9826409 0.5153549 0.9826409 0.5153549 0.9966123 0.8364258 0.965332 0.8364258 0.9624023 0.84375 0.9624023 0.84375 0.965332 0.632878 0.9966123 0.632878 0.9826409 0.6452377 0.9826409 0.6452377 0.9966123 0.5156905 0.9966123 0.5156905 0.9826409 0.526097 0.9826409 0.526097 0.9966123 0.5972335 0.9966123 0.5972335 0.9826409 0.6027572 0.9826409 0.6027572 0.9966123 0.6587569 0.9966123 0.6587569 0.9826409 0.6711166 0.9826409 0.6711166 0.9966123 0.7070968 0.9966123 0.7070968 0.9826409 0.7172852 0.9826409 0.7172852 0.9966123 0.7656508 0.979184 0.7656508 0.9644187 0.7790527 0.9644187 0.7790527 0.979184 0.604518 0.979184 0.604518 0.9644187 0.6121828 0.9644187 0.6121828 0.979184 0.542018 0.979184 0.542018 0.9644187 0.5540774 0.9644187 0.5540774 0.979184 0.717311 0.979184 0.717311 0.9644187 0.7298586 0.9644187 0.7298586 0.979184 0.6762954 0.979184 0.6762954 0.9644187 0.689209 0.9644187 0.689209 0.979184 0.7300063 0.979184 0.7300063 0.9644187 0.7409668 0.9644187 0.7409668 0.979184</float_array>
          <technique_common>
            <accessor source="#Plane_018-mesh-map-0-array" count="562" stride="2">
              <param name="S" type="float"/>
              <param name="T" type="float"/>
            </accessor>
          </technique_common>
        </source>
        <source id="Plane_018-mesh-colors-Col" name="Col">
          <float_array id="Plane_018-mesh-colors-Col-array" count="1512">0.4392157 0.5843138 0.6980392 1 0.3137255 0.4901961 0.6509804 1 0.4392157 0.5803922 0.6980392 1 0.3137255 0.4980392 0.6509804 1 0.3568627 0.5294118 0.6745098 1 0.3137255 0.4901961 0.6509804 1 0.5019608 0.6235294 0.7215687 1 0.3568627 0.5294118 0.6745098 1 0.3568627 0.5294118 0.6705883 1 0.4392157 0.5843138 0.6980392 1 0.5137255 0.627451 0.7215687 1 0.5019608 0.6235294 0.7215687 1 0.9568628 0.9568628 0.9568628 1 0.9764706 0.9764706 0.9764706 1 0.9607843 0.9607843 0.9607843 1 0.4862745 0.4862745 0.4862745 1 0.5450981 0.5450981 0.5450981 1 0.5882353 0.5882353 0.5882353 1 0.9647059 0.9647059 0.9647059 1 0.9764706 0.9764706 0.9764706 1 0.9647059 0.9647059 0.9647059 1 0.4392157 0.5843138 0.6980392 1 0.3137255 0.4980392 0.6509804 1 0.3137255 0.4901961 0.6509804 1 0.3137255 0.4980392 0.6509804 1 0.3568627 0.5294118 0.6705883 1 0.3568627 0.5294118 0.6745098 1 0.5019608 0.6235294 0.7215687 1 0.5137255 0.627451 0.7215687 1 0.3568627 0.5294118 0.6745098 1 0.4392157 0.5843138 0.6980392 1 0.4392157 0.5803922 0.6980392 1 0.5137255 0.627451 0.7215687 1 0.972549 0.972549 0.972549 1 0.9843137 0.9843137 0.9843137 1 0.9764706 0.9764706 0.9764706 1 0.9529412 0.9529412 0.9529412 1 0.9647059 0.9647059 0.9647059 1 0.9568628 0.9568628 0.9568628 1 0.9450981 0.9450981 0.9450981 1 0.9568628 0.9568628 0.9568628 1 0.9490196 0.9490196 0.9490196 1 0.9686275 0.9686275 0.9686275 1 0.9843137 0.9843137 0.9843137 1 0.972549 0.972549 0.972549 1 0.5568628 0.5568628 0.5568628 1 0.4784314 0.4784314 0.4784314 1 0.5647059 0.5647059 0.5647059 1 0.9529412 0.9529412 0.9529412 1 0.9647059 0.9647059 0.9647059 1 0.9529412 0.9529412 0.9529412 1 0.2980392 0.4901961 0.6509804 1 0.3607843 0.5294118 0.6745098 1 0.3372549 0.5058824 0.6666667 1 0.9843137 0.9843137 0.9843137 1 1 1 1 1 0.9960784 0.9960784 0.9960784 1 0.4509804 0.4509804 0.4509804 1 0.4784314 0.4784314 0.4784314 1 0.4509804 0.4509804 0.4509804 1 0.972549 0.972549 0.972549 1 0.9882353 0.9882353 0.9882353 1 0.9764706 0.9764706 0.9764706 1 1 0.8784314 0.4823529 1 1 0.8784314 0.4862745 1 1 0.8784314 0.4862745 1 0.3490196 0.3490196 0.3490196 1 0.3490196 0.3490196 0.3490196 1 0.3490196 0.3490196 0.3490196 1 0.972549 0.972549 0.972549 1 0.9803922 0.9803922 0.9803922 1 0.9843137 0.9843137 0.9843137 1 0.9490196 0.9490196 0.9490196 1 0.9568628 0.9568628 0.9568628 1 0.9568628 0.9568628 0.9568628 1 0.3490196 0.3490196 0.3490196 1 0.3490196 0.3490196 0.3490196 1 0.3490196 0.3490196 0.3490196 1 0.9843137 0.9843137 0.9843137 1 0.9921569 0.9921569 0.9921569 1 0.9882353 0.9882353 0.9882353 1 0.4784314 0.4784314 0.4784314 1 0.3843137 0.3843137 0.3843137 1 0.4745098 0.4745098 0.4745098 1 1 1 1 1 1 1 1 1 1 1 1 1 0.9764706 0.9764706 0.9764706 1 0.9843137 0.9843137 0.9843137 1 0.972549 0.972549 0.972549 1 0.9529412 0.9529412 0.9529412 1 0.9686275 0.9686275 0.9686275 1 0.972549 0.972549 0.972549 1 0.5568628 0.5568628 0.5568628 1 0.4784314 0.4784314 0.4784314 1 0.4745098 0.4745098 0.4745098 1 1 0.8784314 0.4823529 1 1 0.8784314 0.4823529 1 1 0.8784314 0.4823529 1 0.9450981 0.9450981 0.9450981 1 0.9490196 0.9490196 0.9490196 1 0.9529412 0.9529412 0.9529412 1 1 0.8784314 0.4823529 1 1 0.8784314 0.4823529 1 1 0.8784314 0.4823529 1 0.9647059 0.9647059 0.9647059 1 0.9803922 0.9803922 0.9803922 1 0.9803922 0.9803922 0.9803922 1 0.9490196 0.9490196 0.9490196 1 0.9647059 0.9647059 0.9647059 1 0.9529412 0.9529412 0.9529412 1 0.9372549 0.9372549 0.9372549 1 0.9529412 0.9529412 0.9529412 1 0.9411765 0.9411765 0.9411765 1 0.9843137 0.9843137 0.9843137 1 0.9921569 0.9921569 0.9921569 1 0.9921569 0.9921569 0.9921569 1 0.9529412 0.9529412 0.9529412 1 0.972549 0.972549 0.972549 1 0.9764706 0.9764706 0.9764706 1 0.9647059 0.9647059 0.9647059 1 0.9803922 0.9803922 0.9803922 1 0.972549 0.972549 0.972549 1 1 0.8784314 0.4823529 1 1 0.8784314 0.4823529 1 1 0.8784314 0.4823529 1 0.972549 0.972549 0.972549 1 0.9843137 0.9843137 0.9843137 1 0.9843137 0.9843137 0.9843137 1 0.9607843 0.9607843 0.9607843 1 0.972549 0.972549 0.972549 1 0.9568628 0.9568628 0.9568628 1 0.9529412 0.9529412 0.9529412 1 0.9764706 0.9764706 0.9764706 1 0.9647059 0.9647059 0.9647059 1 0.9764706 0.9764706 0.9764706 1 0.9882353 0.9882353 0.9882353 1 0.9803922 0.9803922 0.9803922 1 0.9607843 0.9607843 0.9607843 1 0.9803922 0.9803922 0.9803922 1 0.9764706 0.9764706 0.9764706 1 0.9490196 0.9490196 0.9490196 1 0.9568628 0.9568628 0.9568628 1 0.9490196 0.9490196 0.9490196 1 0.5176471 0.6352941 0.7254902 1 0.4078431 0.5607843 0.6862745 1 0.4431372 0.5843138 0.7019608 1 0.9764706 0.9764706 0.9764706 1 0.9882353 0.9882353 0.9882353 1 0.9882353 0.9882353 0.9882353 1 0.9372549 0.9372549 0.9372549 1 0.9490196 0.9490196 0.9490196 1 0.9411765 0.9411765 0.9411765 1 0.3019608 0.4901961 0.6509804 1 0.3333333 0.5058824 0.654902 1 0.2980392 0.4901961 0.6509804 1 0.9843137 0.9843137 0.9843137 1 0.9960784 0.9960784 0.9960784 1 0.9960784 0.9960784 0.9960784 1 0.9490196 0.9490196 0.9490196 1 0.9647059 0.9647059 0.9647059 1 0.9490196 0.9490196 0.9490196 1 0.3490196 0.3490196 0.3490196 1 0.3490196 0.3490196 0.3490196 1 0.3490196 0.3490196 0.3490196 1 0.972549 0.972549 0.972549 1 0.9882353 0.9882353 0.9882353 1 0.972549 0.972549 0.972549 1 0.9960784 0.8784314 0.4901961 1 1 0.8784314 0.4862745 1 0.9960784 0.8784314 0.4901961 1 1 1 1 1 0.9960784 0.9960784 0.9960784 1 1 1 1 1 0.9686275 0.9686275 0.9686275 1 0.9843137 0.9843137 0.9843137 1 0.9803922 0.9803922 0.9803922 1 0.9803922 0.9803922 0.9803922 1 0.9921569 0.9921569 0.9921569 1 0.9843137 0.9843137 0.9843137 1 1 1 1 1 1 1 1 1 1 1 1 1 0.9803922 0.9803922 0.9803922 1 0.9882353 0.9882353 0.9882353 1 0.9843137 0.9843137 0.9843137 1 0.9843137 0.9843137 0.9843137 1 0.9960784 0.9960784 0.9960784 1 0.9843137 0.9843137 0.9843137 1 1 1 1 1 1 1 1 1 1 1 1 1 0.3490196 0.3490196 0.3490196 1 0.3490196 0.3490196 0.3490196 1 0.3490196 0.3490196 0.3490196 1 0.9647059 0.9647059 0.9647059 1 0.972549 0.972549 0.972549 1 0.9647059 0.9647059 0.9647059 1 0.9529412 0.9529412 0.9529412 1 0.972549 0.972549 0.972549 1 0.9529412 0.9529412 0.9529412 1 0.9568628 0.9568628 0.9568628 1 0.972549 0.972549 0.972549 1 0.9764706 0.9764706 0.9764706 1 0.4862745 0.4862745 0.4862745 1 0.4470588 0.4470588 0.4470588 1 0.5450981 0.5450981 0.5450981 1 0.9647059 0.9647059 0.9647059 1 0.972549 0.972549 0.972549 1 0.9764706 0.9764706 0.9764706 1 0.972549 0.972549 0.972549 1 0.9843137 0.9843137 0.9843137 1 0.9843137 0.9843137 0.9843137 1 0.9529412 0.9529412 0.9529412 1 0.9568628 0.9568628 0.9568628 1 0.9647059 0.9647059 0.9647059 1 0.9450981 0.9450981 0.9450981 1 0.9490196 0.9490196 0.9490196 1 0.9568628 0.9568628 0.9568628 1 0.9686275 0.9686275 0.9686275 1 0.9803922 0.9803922 0.9803922 1 0.9843137 0.9843137 0.9843137 1 0.5568628 0.5568628 0.5568628 1 0.4784314 0.4784314 0.4784314 1 0.4784314 0.4784314 0.4784314 1 0.9529412 0.9529412 0.9529412 1 0.9647059 0.9647059 0.9647059 1 0.9647059 0.9647059 0.9647059 1 0.2980392 0.4901961 0.6509804 1 0.3490196 0.5254902 0.6666667 1 0.3607843 0.5294118 0.6745098 1 0.9843137 0.9843137 0.9843137 1 0.9882353 0.9882353 0.9882353 1 1 1 1 1 0.4509804 0.4509804 0.4509804 1 0.4784314 0.4784314 0.4784314 1 0.4784314 0.4784314 0.4784314 1 0.972549 0.972549 0.972549 1 0.9882353 0.9882353 0.9882353 1 0.9882353 0.9882353 0.9882353 1 1 0.8784314 0.4823529 1 1 0.8784314 0.4823529 1 1 0.8784314 0.4862745 1 0.3490196 0.3490196 0.3490196 1 0.3490196 0.3490196 0.3490196 1 0.3490196 0.3490196 0.3490196 1 0.972549 0.972549 0.972549 1 0.9686275 0.9686275 0.9686275 1 0.9803922 0.9803922 0.9803922 1 0.9490196 0.9490196 0.9490196 1 0.9529412 0.9529412 0.9529412 1 0.9568628 0.9568628 0.9568628 1 0.3490196 0.3490196 0.3490196 1 0.3490196 0.3490196 0.3490196 1 0.3490196 0.3490196 0.3490196 1 0.9843137 0.9843137 0.9843137 1 0.9843137 0.9843137 0.9843137 1 0.9921569 0.9921569 0.9921569 1 0.4784314 0.4784314 0.4784314 1 0.3843137 0.3843137 0.3843137 1 0.3843137 0.3843137 0.3843137 1 1 1 1 1 1 1 1 1 1 1 1 1 0.9764706 0.9764706 0.9764706 1 0.9803922 0.9803922 0.9803922 1 0.9843137 0.9843137 0.9843137 1 0.9529412 0.9529412 0.9529412 1 0.9607843 0.9607843 0.9607843 1 0.9686275 0.9686275 0.9686275 1 0.5568628 0.5568628 0.5568628 1 0.5607843 0.5607843 0.5607843 1 0.4784314 0.4784314 0.4784314 1 1 0.8784314 0.4823529 1 1 0.8784314 0.4823529 1 1 0.8784314 0.4823529 1 0.9450981 0.9450981 0.9450981 1 0.9450981 0.9450981 0.9450981 1 0.9490196 0.9490196 0.9490196 1 1 0.8784314 0.4823529 1 1 0.8784314 0.4823529 1 1 0.8784314 0.4823529 1 0.9647059 0.9647059 0.9647059 1 0.9764706 0.9764706 0.9764706 1 0.9803922 0.9803922 0.9803922 1 0.9490196 0.9490196 0.9490196 1 0.9647059 0.9647059 0.9647059 1 0.9647059 0.9647059 0.9647059 1 0.9372549 0.9372549 0.9372549 1 0.9450981 0.9450981 0.9450981 1 0.9529412 0.9529412 0.9529412 1 0.9843137 0.9843137 0.9843137 1 0.9803922 0.9803922 0.9803922 1 0.9921569 0.9921569 0.9921569 1 0.9529412 0.9529412 0.9529412 1 0.9647059 0.9647059 0.9647059 1 0.972549 0.972549 0.972549 1 0.9647059 0.9647059 0.9647059 1 0.9764706 0.9764706 0.9764706 1 0.9803922 0.9803922 0.9803922 1 1 0.8784314 0.4823529 1 1 0.8784314 0.4823529 1 1 0.8784314 0.4823529 1 0.972549 0.972549 0.972549 1 0.972549 0.972549 0.972549 1 0.9843137 0.9843137 0.9843137 1 0.9607843 0.9607843 0.9607843 1 0.9686275 0.9686275 0.9686275 1 0.972549 0.972549 0.972549 1 0.9529412 0.9529412 0.9529412 1 0.9529412 0.9529412 0.9529412 1 0.9764706 0.9764706 0.9764706 1 0.9764706 0.9764706 0.9764706 1 0.9843137 0.9843137 0.9843137 1 0.9882353 0.9882353 0.9882353 1 0.9607843 0.9607843 0.9607843 1 0.972549 0.972549 0.972549 1 0.9803922 0.9803922 0.9803922 1 0.9490196 0.9490196 0.9490196 1 0.9529412 0.9529412 0.9529412 1 0.9568628 0.9568628 0.9568628 1 0.5176471 0.6352941 0.7254902 1 0.4862745 0.6078432 0.7176471 1 0.4078431 0.5607843 0.6862745 1 0.9764706 0.9764706 0.9764706 1 0.9803922 0.9803922 0.9803922 1 0.9882353 0.9882353 0.9882353 1 0.9372549 0.9372549 0.9372549 1 0.9490196 0.9490196 0.9490196 1 0.9490196 0.9490196 0.9490196 1 0.3019608 0.4901961 0.6509804 1 0.3215686 0.5058824 0.654902 1 0.3333333 0.5058824 0.654902 1 0.9843137 0.9843137 0.9843137 1 0.9843137 0.9843137 0.9843137 1 0.9960784 0.9960784 0.9960784 1 0.9490196 0.9490196 0.9490196 1 0.9568628 0.9568628 0.9568628 1 0.9647059 0.9647059 0.9647059 1 0.3490196 0.3490196 0.3490196 1 0.3490196 0.3490196 0.3490196 1 0.3490196 0.3490196 0.3490196 1 0.972549 0.972549 0.972549 1 0.9843137 0.9843137 0.9843137 1 0.9882353 0.9882353 0.9882353 1 0.9960784 0.8784314 0.4901961 1 1 0.8784314 0.4862745 1 1 0.8784314 0.4862745 1 1 1 1 1 0.9960784 0.9960784 0.9960784 1 0.9960784 0.9960784 0.9960784 1 0.9686275 0.9686275 0.9686275 1 0.972549 0.972549 0.972549 1 0.9843137 0.9843137 0.9843137 1 0.9803922 0.9803922 0.9803922 1 0.9921569 0.9921569 0.9921569 1 0.9921569 0.9921569 0.9921569 1 1 1 1 1 1 1 1 1 1 1 1 1 0.9803922 0.9803922 0.9803922 1 0.9882353 0.9882353 0.9882353 1 0.9882353 0.9882353 0.9882353 1 0.9843137 0.9843137 0.9843137 1 0.9921569 0.9921569 0.9921569 1 0.9960784 0.9960784 0.9960784 1 1 1 1 1 1 1 1 1 1 1 1 1 0.3490196 0.3490196 0.3490196 1 0.3490196 0.3490196 0.3490196 1 0.3490196 0.3490196 0.3490196 1 0.9647059 0.9647059 0.9647059 1 0.972549 0.972549 0.972549 1 0.972549 0.972549 0.972549 1 0.9529412 0.9529412 0.9529412 1 0.9647059 0.9647059 0.9647059 1 0.972549 0.972549 0.972549 1</float_array>
          <technique_common>
            <accessor source="#Plane_018-mesh-colors-Col-array" count="378" stride="4">
              <param name="R" type="float"/>
              <param name="G" type="float"/>
              <param name="B" type="float"/>
              <param name="A" type="float"/>
            </accessor>
          </technique_common>
        </source>
        <vertices id="Plane_018-mesh-vertices">
          <input semantic="POSITION" source="#Plane_018-mesh-positions"/>
        </vertices>
        <triangles material="architraves-material" count="24">
          <input semantic="VERTEX" source="#Plane_018-mesh-vertices" offset="0"/>
          <input semantic="NORMAL" source="#Plane_018-mesh-normals" offset="1"/>
          <input semantic="TEXCOORD" source="#Plane_018-mesh-map-0" offset="2" set="0"/>
          <input semantic="COLOR" source="#Plane_018-mesh-colors-Col" offset="3" set="0"/>
          <p>190 0 0 0 197 0 1 1 196 0 2 2 188 1 3 3 198 1 4 4 197 1 5 5 191 2 6 6 198 3 7 7 189 4 8 8 190 5 9 9 199 6 10 10 191 6 11 11 190 11 21 21 188 12 22 22 197 13 23 23 188 14 24 24 189 15 25 25 198 16 26 26 191 17 27 27 199 17 28 28 198 17 29 29 190 18 30 30 196 18 31 31 199 18 32 32 204 27 45 45 203 27 46 46 202 27 47 47 201 32 57 57 207 32 58 58 206 32 59 59 198 37 66 66 195 37 67 67 194 37 68 68 201 40 75 75 205 40 76 76 200 40 77 77 196 43 81 81 193 44 82 82 192 45 83 83 195 49 93 93 196 49 94 94 192 49 95 95 202 82 162 162 205 83 163 163 204 84 164 164 194 98 192 192 197 98 193 193 198 98 194 194 204 112 222 222 207 112 223 223 203 112 224 224 201 117 234 234 203 117 235 235 207 117 236 236 198 37 243 243 199 37 244 244 195 37 245 245 201 124 252 252 206 124 253 253 205 124 254 254 196 128 258 258 197 129 259 259 193 130 260 260 195 134 270 270 199 134 271 271 196 134 272 272 202 161 339 339 200 161 340 340 205 162 341 341 194 40 369 369 193 40 370 370 197 40 371 371</p>
        </triangles>
        <triangles material="clutter_commercial-material" count="108">
          <input semantic="VERTEX" source="#Plane_018-mesh-vertices" offset="0"/>
          <input semantic="NORMAL" source="#Plane_018-mesh-normals" offset="1"/>
          <input semantic="TEXCOORD" source="#Plane_018-mesh-map-0" offset="2" set="0"/>
          <input semantic="COLOR" source="#Plane_018-mesh-colors-Col" offset="3" set="0"/>
          <p>189 9 15 15 190 9 16 16 191 9 17 17 192 30 51 51 194 30 52 52 195 30 53 53 26 46 84 84 25 46 85 85 27 46 86 86 204 74 144 144 206 74 145 145 207 74 146 146 201 77 153 153 202 77 154 154 203 77 155 155 34 89 171 171 33 89 172 172 32 89 173 173 22 92 180 180 21 92 181 181 23 92 182 182 30 97 189 189 29 97 190 190 31 97 191 191 189 104 204 204 188 104 205 205 190 104 206 206 192 30 228 228 193 30 229 229 194 30 230 230 26 131 261 261 24 131 262 262 25 131 263 263 204 74 321 321 205 74 322 322 206 74 323 323 201 77 330 330 200 77 331 331 202 77 332 332 34 167 348 348 35 167 349 349 33 167 350 350 22 171 357 357 20 171 358 358 21 171 359 359 30 97 366 366 28 97 367 367 29 97 368 368 208 76 378 150 209 76 379 150 210 76 380 150 208 76 378 150 210 76 380 150 211 76 381 150 212 76 382 150 213 76 383 150 214 76 384 150 212 76 382 150 214 76 384 150 215 76 385 150 216 76 386 150 217 76 387 150 218 76 388 150 216 76 386 150 218 76 388 150 219 76 389 150 220 76 390 150 221 76 391 150 222 76 392 150 220 76 390 150 222 76 392 150 223 76 393 150 224 76 394 150 225 76 395 150 226 76 396 150 224 76 394 150 226 76 396 150 227 76 397 150 228 76 398 150 229 76 399 150 230 76 400 150 228 76 398 150 230 76 400 150 231 76 401 150 232 76 402 150 233 76 403 150 234 76 404 150 232 76 402 150 234 76 404 150 235 76 405 150 236 76 406 150 237 76 407 150 238 76 408 150 236 76 406 150 238 76 408 150 239 76 409 150 240 76 410 150 241 76 411 150 242 76 412 150 240 76 410 150 242 76 412 150 243 76 413 150 244 76 414 150 245 76 415 150 246 76 416 150 244 76 414 150 246 76 416 150 247 76 417 150 248 76 418 150 249 76 419 150 250 76 420 150 248 76 418 150 250 76 420 150 251 76 421 150 252 20 422 36 253 20 423 36 254 20 424 36 252 20 422 36 254 20 424 36 255 20 425 36 256 71 426 141 257 71 427 141 258 71 428 141 256 71 426 141 258 71 428 141 259 71 429 141 260 71 430 141 261 71 431 141 262 71 432 141 260 71 430 141 262 71 432 141 263 71 433 141 264 71 434 141 265 71 435 141 266 71 436 141 264 71 434 141 266 71 436 141 267 71 437 141 268 71 438 141 269 71 439 141 270 71 440 141 268 71 438 141 270 71 440 141 271 71 441 141 272 71 442 141 273 71 443 141 274 71 444 141 272 71 442 141 274 71 444 141 275 71 445 141 276 71 446 141 277 71 447 141 278 71 448 141 276 71 446 141 278 71 448 141 279 71 449 141 280 71 450 141 281 71 451 141 282 71 452 141 280 71 450 141 282 71 452 141 283 71 453 141 284 71 454 141 285 71 455 141 286 71 456 141 284 71 454 141 286 71 456 141 287 71 457 141 288 71 458 141 289 71 459 141 290 71 460 141 288 71 458 141 290 71 460 141 291 71 461 141 292 71 462 141 293 71 463 141 294 71 464 141 292 71 462 141 294 71 464 141 295 71 465 141 296 68 466 132 298 68 468 132 297 68 467 132 296 68 466 132 299 68 469 132 298 68 468 132 300 68 470 132 302 68 472 132 301 68 471 132 300 68 470 132 303 68 473 132 302 68 472 132 304 68 474 132 306 68 476 132 305 68 475 132 304 68 474 132 307 68 477 132 306 68 476 132 308 68 478 132 310 68 480 132 309 68 479 132 308 68 478 132 311 68 481 132 310 68 480 132 312 68 482 132 314 68 484 132 313 68 483 132 312 68 482 132 315 68 485 132 314 68 484 132 316 68 486 132 318 68 488 132 317 68 487 132 316 68 486 132 319 68 489 132 318 68 488 132 320 68 490 132 322 68 492 132 321 68 491 132 320 68 490 132 323 68 493 132 322 68 492 132 324 68 494 132 326 68 496 132 325 68 495 132 324 68 494 132 327 68 497 132 326 68 496 132 328 68 498 132 330 68 500 132 329 68 499 132 328 68 498 132 331 68 501 132 330 68 500 132 332 68 502 132 334 68 504 132 333 68 503 132 332 68 502 132 335 68 505 132 334 68 504 132 336 57 506 105 338 57 508 105 337 57 507 105 336 57 506 105 339 57 509 105 338 57 508 105 340 57 510 105 342 57 512 105 341 57 511 105 340 57 510 105 343 57 513 105 342 57 512 105 344 57 514 105 346 57 516 105 345 57 515 105 344 57 514 105 347 57 517 105 346 57 516 105 348 57 518 105 350 57 520 105 349 57 519 105 348 57 518 105 351 57 521 105 350 57 520 105 352 57 522 105 354 57 524 105 353 57 523 105 352 57 522 105 355 57 525 105 354 57 524 105 356 57 526 105 358 57 528 105 357 57 527 105 356 57 526 105 359 57 529 105 358 57 528 105 360 57 530 105 362 57 532 105 361 57 531 105 360 57 530 105 363 57 533 105 362 57 532 105 364 57 534 105 366 57 536 105 365 57 535 105 364 57 534 105 367 57 537 105 366 57 536 105 368 50 538 96 369 50 539 96 370 50 540 96 368 50 538 96 370 50 540 96 371 50 541 96 372 50 542 96 373 50 543 96 374 50 544 96 372 50 542 96 374 50 544 96 375 50 545 96 376 50 546 96 377 50 547 96 378 50 548 96 376 50 546 96 378 50 548 96 379 50 549 96 380 50 550 96 381 50 551 96 382 50 552 96 380 50 550 96 382 50 552 96 383 50 553 96 384 50 554 96 385 50 555 96 386 50 556 96 384 50 554 96 386 50 556 96 387 50 557 96 388 50 558 96 389 50 559 96 390 50 560 96 388 50 558 96 390 50 560 96 391 50 561 96</p>
        </triangles>
      </mesh>
    </geometry>
    <geometry id="Plane_028-mesh" name="Plane.028">
      <mesh>
        <source id="Plane_028-mesh-positions">
          <float_array id="Plane_028-mesh-positions-array" count="24">-1.011735 0.2500758 1.30731 -1.011746 -0.2498599 1.30731 1.01181 -0.250065 1.30731 1.0118 0.2499786 1.30731 1.0118 0.2499786 -0.8858894 -1.011735 0.2500758 -0.8858894 -1.011746 -0.2498599 -0.8858894 1.01181 -0.250065 -0.8858894</float_array>
          <technique_common>
            <accessor source="#Plane_028-mesh-positions-array" count="8" stride="3">
              <param name="X" type="float"/>
              <param name="Y" type="float"/>
              <param name="Z" type="float"/>
            </accessor>
          </technique_common>
        </source>
        <source id="Plane_028-mesh-normals">
          <float_array id="Plane_028-mesh-normals-array" count="30">0 0 1 -1 2.21793e-5 0 -1.01356e-4 -1 0 4.80423e-5 1 0 0 0 -1 1 2.13049e-5 0 0 0 1 -1 2.13095e-5 0 -1.01356e-4 -1 0 0 0 -1</float_array>
          <technique_common>
            <accessor source="#Plane_028-mesh-normals-array" count="10" stride="3">
              <param name="X" type="float"/>
              <param name="Y" type="float"/>
              <param name="Z" type="float"/>
            </accessor>
          </technique_common>
        </source>
        <source id="Plane_028-mesh-map-0">
          <float_array id="Plane_028-mesh-map-0-array" count="72">0.9861205 0.6378559 0.9976019 0.591394 0.9976019 0.6378571 0.9928206 0.8699065 0.9813476 0.8195461 0.9928206 0.81955 0.2599948 0.8013157 0.2135457 0.7509449 0.2599948 0.7509618 0.6005629 0.7957314 0.5541124 0.7453933 0.6005629 0.7453776 0.9869248 0.6390736 0.9984048 0.6855346 0.9869248 0.6855346 0.9888462 0.1966791 0.9773676 0.146321 0.9888462 0.1463204 0.9861205 0.6378559 0.9861233 0.5913928 0.9976019 0.591394 0.9928206 0.8699065 0.9813476 0.8699026 0.9813476 0.8195461 0.2599948 0.8013157 0.2135457 0.8012987 0.2135457 0.7509449 0.6005629 0.7957314 0.5541124 0.7957471 0.5541124 0.7453933 0.9869248 0.6390736 0.9984062 0.6390729 0.9984048 0.6855346 0.9888462 0.1966791 0.9773676 0.1966798 0.9773676 0.146321</float_array>
          <technique_common>
            <accessor source="#Plane_028-mesh-map-0-array" count="36" stride="2">
              <param name="S" type="float"/>
              <param name="T" type="float"/>
            </accessor>
          </technique_common>
        </source>
        <source id="Plane_028-mesh-colors-Attribute" name="Attribute">
          <float_array id="Plane_028-mesh-colors-Attribute-array" count="144">1 1 1 1 1 1 1 1 1 1 1 1 1 1 1 1 1 1 1 1 1 1 1 1 1 1 1 1 1 1 1 1 1 1 1 1 1 1 1 1 1 1 1 1 1 1 1 1 1 1 1 1 1 1 1 1 1 1 1 1 1 1 1 1 1 1 1 1 1 1 1 1 1 1 1 1 1 1 1 1 1 1 1 1 1 1 1 1 1 1 1 1 1 1 1 1 1 1 1 1 1 1 1 1 1 1 1 1 1 1 1 1 1 1 1 1 1 1 1 1 1 1 1 1 1 1 1 1 1 1 1 1 1 1 1 1 1 1 1 1 1 1 1 1</float_array>
          <technique_common>
            <accessor source="#Plane_028-mesh-colors-Attribute-array" count="36" stride="4">
              <param name="R" type="float"/>
              <param name="G" type="float"/>
              <param name="B" type="float"/>
              <param name="A" type="float"/>
            </accessor>
          </technique_common>
        </source>
        <vertices id="Plane_028-mesh-vertices">
          <input semantic="POSITION" source="#Plane_028-mesh-positions"/>
        </vertices>
        <triangles material="industrial-material" count="12">
          <input semantic="VERTEX" source="#Plane_028-mesh-vertices" offset="0"/>
          <input semantic="NORMAL" source="#Plane_028-mesh-normals" offset="1"/>
          <input semantic="TEXCOORD" source="#Plane_028-mesh-map-0" offset="2" set="0"/>
          <input semantic="COLOR" source="#Plane_028-mesh-colors-Attribute" offset="3" set="0"/>
          <p>3 0 0 0 1 0 1 1 2 0 2 2 5 1 3 3 1 1 4 4 0 1 5 5 6 2 6 6 2 2 7 7 1 2 8 8 4 3 9 9 0 3 10 10 3 3 11 11 4 4 12 12 6 4 13 13 5 4 14 14 7 5 15 15 3 5 16 16 2 5 17 17 3 6 18 18 0 6 19 19 1 6 20 20 5 7 21 21 6 7 22 22 1 7 23 23 6 8 24 24 7 8 25 25 2 8 26 26 4 3 27 27 5 3 28 28 0 3 29 29 4 9 30 30 7 9 31 31 6 9 32 32 7 5 33 33 4 5 34 34 3 5 35 35</p>
        </triangles>
      </mesh>
    </geometry>
  </library_geometries>
  <library_visual_scenes>
    <visual_scene id="Scene" name="Scene">
      <node id="base00" name="base00" type="NODE">
        <matrix sid="transform">1 0 0 0 0 1 0 0 0 0 1 0 0 0 0 1</matrix>
        <node id="start01" name="start01" type="NODE">
          <matrix sid="transform">1 0 0 0 0 1 0 0 0 0 1 0 0 0 0 1</matrix>
          <node id="Colmesh_s_fix_sign_001-1" name="Colmesh_s_fix_sign_001-1" type="NODE">
            <matrix sid="transform">1 0 0 0 0 1 0 0 0 0 1 0 0 0 0 1</matrix>
            <instance_geometry url="#Plane_028-mesh" name="Colmesh_s_fix_sign_001-1">
              <bind_material>
                <technique_common>
                  <instance_material symbol="industrial-material" target="#industrial-material">
                    <bind_vertex_input semantic="UVMap" input_semantic="TEXCOORD" input_set="0"/>
                  </instance_material>
                </technique_common>
              </bind_material>
            </instance_geometry>
          </node>
          <node id="s_fix_sign_001_L25" name="s_fix_sign_001_L25" type="NODE">
            <matrix sid="transform">1 0 0 0 0 1 0 0 0 0 1 0 0 0 0 1</matrix>
            <instance_geometry url="#Plane_018-mesh" name="s_fix_sign_001_L25">
              <bind_material>
                <technique_common>
                  <instance_material symbol="architraves-material" target="#architraves-material">
                    <bind_vertex_input semantic="UVMap" input_semantic="TEXCOORD" input_set="0"/>
                  </instance_material>
                  <instance_material symbol="industrial-material" target="#industrial-material">
                    <bind_vertex_input semantic="UVMap" input_semantic="TEXCOORD" input_set="0"/>
                  </instance_material>
                  <instance_material symbol="windows_doors_reflective-material" target="#windows_doors_reflective-material">
                    <bind_vertex_input semantic="UVMap" input_semantic="TEXCOORD" input_set="0"/>
                  </instance_material>
                  <instance_material symbol="corrugation-material" target="#corrugation-material">
                    <bind_vertex_input semantic="UVMap" input_semantic="TEXCOORD" input_set="0"/>
                  </instance_material>
                  <instance_material symbol="slabs_large-material" target="#slabs_large-material">
                    <bind_vertex_input semantic="UVMap" input_semantic="TEXCOORD" input_set="0"/>
                  </instance_material>
                  <instance_material symbol="metal_plates-material" target="#metal_plates-material">
                    <bind_vertex_input semantic="UVMap" input_semantic="TEXCOORD" input_set="0"/>
                  </instance_material>
                  <instance_material symbol="balustrades-material" target="#balustrades-material">
                    <bind_vertex_input semantic="UVMap" input_semantic="TEXCOORD" input_set="0"/>
                  </instance_material>
                  <instance_material symbol="brick_painted-material" target="#brick_painted-material">
                    <bind_vertex_input semantic="UVMap" input_semantic="TEXCOORD" input_set="0"/>
                  </instance_material>
                  <instance_material symbol="stucco1_white-material" target="#stucco1_white-material">
                    <bind_vertex_input semantic="UVMap" input_semantic="TEXCOORD" input_set="0"/>
                  </instance_material>
                  <instance_material symbol="columns-material" target="#columns-material">
                    <bind_vertex_input semantic="UVMap" input_semantic="TEXCOORD" input_set="0"/>
                  </instance_material>
                  <instance_material symbol="construction-material" target="#construction-material">
                    <bind_vertex_input semantic="UVMap" input_semantic="TEXCOORD" input_set="0"/>
                  </instance_material>
                  <instance_material symbol="clutter_commercial-material" target="#clutter_commercial-material">
                    <bind_vertex_input semantic="UVMap" input_semantic="TEXCOORD" input_set="0"/>
                  </instance_material>
                  <instance_material symbol="brick_plain-material" target="#brick_plain-material">
                    <bind_vertex_input semantic="UVMap" input_semantic="TEXCOORD" input_set="0"/>
                  </instance_material>
                  <instance_material symbol="stone_brick_regular-material" target="#stone_brick_regular-material">
                    <bind_vertex_input semantic="UVMap" input_semantic="TEXCOORD" input_set="0"/>
                  </instance_material>
                  <instance_material symbol="curbs-material" target="#curbs-material">
                    <bind_vertex_input semantic="UVMap" input_semantic="TEXCOORD" input_set="0"/>
                  </instance_material>
                  <instance_material symbol="wirefence-material" target="#wirefence-material">
                    <bind_vertex_input semantic="UVMap" input_semantic="TEXCOORD" input_set="0"/>
                  </instance_material>
                  <instance_material symbol="groundmesh_grass2-material" target="#groundmesh_grass2-material">
                    <bind_vertex_input semantic="UVMap" input_semantic="TEXCOORD" input_set="0"/>
                  </instance_material>
                  <instance_material symbol="billboards-material" target="#billboards-material">
                    <bind_vertex_input semantic="UVMap" input_semantic="TEXCOORD" input_set="0"/>
                  </instance_material>
                  <instance_material symbol="road_asphalt-material" target="#road_asphalt-material">
                    <bind_vertex_input semantic="UVMap" input_semantic="TEXCOORD" input_set="0"/>
                  </instance_material>
                </technique_common>
              </bind_material>
            </instance_geometry>
          </node>
          <node id="nulldetail10" name="nulldetail10" type="NODE">
            <matrix sid="transform">1 0 0 0 0 1 0 0 0 0 1 0 0 0 0 1</matrix>
          </node>
        </node>
      </node>
    </visual_scene>
  </library_visual_scenes>
  <scene>
    <instance_visual_scene url="#Scene"/>
  </scene>
</COLLADA>