<?xml version="1.0" encoding="utf-8"?>
<COLLADA xmlns="http://www.collada.org/2005/11/COLLADASchema" version="1.4.1" xmlns:xsi="http://www.w3.org/2001/XMLSchema-instance">
  <asset>
    <contributor>
      <author>Blender User</author>
      <authoring_tool>Blender 4.5.5 LTS commit date:2025-11-17, commit time:16:03, hash:836beaaf597a</authoring_tool>
    </contributor>
    <created>2026-05-13T15:48:47</created>
    <modified>2026-05-13T15:48:47</modified>
    <unit name="meter" meter="1"/>
    <up_axis>Z_UP</up_axis>
  </asset>
  <library_effects>
    <effect id="architraves-effect">
      <profile_COMMON>
        <technique sid="common">
          <lambert>
            <emission>
              <color sid="emission">0 0 0 1</color>
            </emission>
            <diffuse>
              <color sid="diffuse">0.8 0.8 0.8 1</color>
            </diffuse>
            <index_of_refraction>
              <float sid="ior">1.45</float>
            </index_of_refraction>
          </lambert>
        </technique>
      </profile_COMMON>
    </effect>
    <effect id="industrial-effect">
      <profile_COMMON>
        <technique sid="common">
          <lambert>
            <emission>
              <color sid="emission">0 0 0 1</color>
            </emission>
            <diffuse>
              <color sid="diffuse">0 0 0 1</color>
            </diffuse>
            <reflectivity>
              <float sid="specular">1</float>
            </reflectivity>
            <index_of_refraction>
              <float sid="ior">1.45</float>
            </index_of_refraction>
          </lambert>
        </technique>
      </profile_COMMON>
    </effect>
    <effect id="windows_doors_reflective-effect">
      <profile_COMMON>
        <technique sid="common">
          <lambert>
            <emission>
              <color sid="emission">0 0 0 1</color>
            </emission>
            <diffuse>
              <color sid="diffuse">0.8 0.8 0.8 1</color>
            </diffuse>
            <index_of_refraction>
              <float sid="ior">1.45</float>
            </index_of_refraction>
          </lambert>
        </technique>
      </profile_COMMON>
    </effect>
    <effect id="corrugation-effect">
      <profile_COMMON>
        <technique sid="common">
          <lambert>
            <emission>
              <color sid="emission">0 0 0 1</color>
            </emission>
            <diffuse>
              <color sid="diffuse">0.8 0.8 0.8 1</color>
            </diffuse>
            <index_of_refraction>
              <float sid="ior">1.45</float>
            </index_of_refraction>
          </lambert>
        </technique>
      </profile_COMMON>
    </effect>
    <effect id="slabs_large-effect">
      <profile_COMMON>
        <technique sid="common">
          <lambert>
            <emission>
              <color sid="emission">0 0 0 1</color>
            </emission>
            <diffuse>
              <color sid="diffuse">0.8 0.8 0.8 1</color>
            </diffuse>
            <index_of_refraction>
              <float sid="ior">1.45</float>
            </index_of_refraction>
          </lambert>
        </technique>
      </profile_COMMON>
    </effect>
    <effect id="metal_plates-effect">
      <profile_COMMON>
        <technique sid="common">
          <lambert>
            <emission>
              <color sid="emission">0 0 0 1</color>
            </emission>
            <diffuse>
              <color sid="diffuse">0.8 0.8 0.8 1</color>
            </diffuse>
            <index_of_refraction>
              <float sid="ior">1.45</float>
            </index_of_refraction>
          </lambert>
        </technique>
      </profile_COMMON>
    </effect>
    <effect id="balustrades-effect">
      <profile_COMMON>
        <technique sid="common">
          <lambert>
            <emission>
              <color sid="emission">0 0 0 1</color>
            </emission>
            <diffuse>
              <color sid="diffuse">0 0 0 1</color>
            </diffuse>
            <index_of_refraction>
              <float sid="ior">1.45</float>
            </index_of_refraction>
          </lambert>
        </technique>
      </profile_COMMON>
    </effect>
    <effect id="brick_painted-effect">
      <profile_COMMON>
        <technique sid="common">
          <lambert>
            <emission>
              <color sid="emission">0 0 0 1</color>
            </emission>
            <diffuse>
              <color sid="diffuse">0.8 0.8 0.8 1</color>
            </diffuse>
            <index_of_refraction>
              <float sid="ior">1.45</float>
            </index_of_refraction>
          </lambert>
        </technique>
      </profile_COMMON>
    </effect>
    <effect id="stucco1_white-effect">
      <profile_COMMON>
        <technique sid="common">
          <lambert>
            <emission>
              <color sid="emission">0 0 0 1</color>
            </emission>
            <diffuse>
              <color sid="diffuse">0.8 0.8 0.8 1</color>
            </diffuse>
            <index_of_refraction>
              <float sid="ior">1.45</float>
            </index_of_refraction>
          </lambert>
        </technique>
      </profile_COMMON>
    </effect>
    <effect id="columns-effect">
      <profile_COMMON>
        <technique sid="common">
          <lambert>
            <emission>
              <color sid="emission">0 0 0 1</color>
            </emission>
            <diffuse>
              <color sid="diffuse">0 0 0 1</color>
            </diffuse>
            <index_of_refraction>
              <float sid="ior">1.45</float>
            </index_of_refraction>
          </lambert>
        </technique>
      </profile_COMMON>
    </effect>
    <effect id="construction-effect">
      <profile_COMMON>
        <technique sid="common">
          <lambert>
            <emission>
              <color sid="emission">0 0 0 1</color>
            </emission>
            <diffuse>
              <color sid="diffuse">0.8 0.8 0.8 1</color>
            </diffuse>
            <index_of_refraction>
              <float sid="ior">1.45</float>
            </index_of_refraction>
          </lambert>
        </technique>
      </profile_COMMON>
    </effect>
    <effect id="clutter_commercial-effect">
      <profile_COMMON>
        <technique sid="common">
          <lambert>
            <emission>
              <color sid="emission">0 0 0 1</color>
            </emission>
            <diffuse>
              <color sid="diffuse">0.8 0.8 0.8 1</color>
            </diffuse>
            <reflectivity>
              <float sid="specular">0.5</float>
            </reflectivity>
          </lambert>
        </technique>
      </profile_COMMON>
    </effect>
    <effect id="brick_plain-effect">
      <profile_COMMON>
        <technique sid="common">
          <lambert>
            <emission>
              <color sid="emission">0 0 0 1</color>
            </emission>
            <diffuse>
              <color sid="diffuse">0 0 0 1</color>
            </diffuse>
            <index_of_refraction>
              <float sid="ior">1.45</float>
            </index_of_refraction>
          </lambert>
        </technique>
      </profile_COMMON>
    </effect>
    <effect id="stone_brick_regular-effect">
      <profile_COMMON>
        <technique sid="common">
          <lambert>
            <emission>
              <color sid="emission">0 0 0 1</color>
            </emission>
            <diffuse>
              <color sid="diffuse">0 0 0 1</color>
            </diffuse>
            <index_of_refraction>
              <float sid="ior">1.45</float>
            </index_of_refraction>
          </lambert>
        </technique>
      </profile_COMMON>
    </effect>
    <effect id="curbs-effect">
      <profile_COMMON>
        <technique sid="common">
          <lambert>
            <emission>
              <color sid="emission">0 0 0 1</color>
            </emission>
            <diffuse>
              <color sid="diffuse">0 0 0 1</color>
            </diffuse>
            <index_of_refraction>
              <float sid="ior">1.45</float>
            </index_of_refraction>
          </lambert>
        </technique>
      </profile_COMMON>
    </effect>
    <effect id="wirefence-effect">
      <profile_COMMON>
        <technique sid="common">
          <lambert>
            <emission>
              <color sid="emission">0 0 0 1</color>
            </emission>
            <diffuse>
              <color sid="diffuse">0.8 0.8 0.8 1</color>
            </diffuse>
            <index_of_refraction>
              <float sid="ior">1.45</float>
            </index_of_refraction>
          </lambert>
        </technique>
      </profile_COMMON>
    </effect>
    <effect id="groundmesh_grass2-effect">
      <profile_COMMON>
        <newparam sid="groundmesh_grass_b_color_png-surface">
          <surface type="2D">
            <init_from>groundmesh_grass_b_color_png</init_from>
          </surface>
        </newparam>
        <newparam sid="groundmesh_grass_b_color_png-sampler">
          <sampler2D>
            <source>groundmesh_grass_b_color_png-surface</source>
          </sampler2D>
        </newparam>
        <technique sid="common">
          <lambert>
            <emission>
              <color sid="emission">0 0 0 1</color>
            </emission>
            <diffuse>
              <texture texture="groundmesh_grass_b_color_png-sampler" texcoord="UVMap"/>
            </diffuse>
            <index_of_refraction>
              <float sid="ior">1.45</float>
            </index_of_refraction>
          </lambert>
        </technique>
      </profile_COMMON>
    </effect>
    <effect id="billboards-effect">
      <profile_COMMON>
        <technique sid="common">
          <lambert>
            <emission>
              <color sid="emission">0 0 0 1</color>
            </emission>
            <diffuse>
              <color sid="diffuse">0 0 0 1</color>
            </diffuse>
            <index_of_refraction>
              <float sid="ior">1.45</float>
            </index_of_refraction>
          </lambert>
        </technique>
      </profile_COMMON>
    </effect>
    <effect id="road_asphalt-effect">
      <profile_COMMON>
        <technique sid="common">
          <lambert>
            <emission>
              <color sid="emission">0 0 0 1</color>
            </emission>
            <diffuse>
              <color sid="diffuse">0 0 0 1</color>
            </diffuse>
            <index_of_refraction>
              <float sid="ior">1.45</float>
            </index_of_refraction>
          </lambert>
        </technique>
      </profile_COMMON>
    </effect>
  </library_effects>
  <library_images>
    <image id="groundmesh_grass_b_color_png" name="groundmesh_grass_b_color_png">
      <init_from>groundmesh_grass_b.color.png</init_from>
    </image>
  </library_images>
  <library_materials>
    <material id="architraves-material" name="architraves">
      <instance_effect url="#architraves-effect"/>
    </material>
    <material id="industrial-material" name="industrial">
      <instance_effect url="#industrial-effect"/>
    </material>
    <material id="windows_doors_reflective-material" name="windows_doors_reflective">
      <instance_effect url="#windows_doors_reflective-effect"/>
    </material>
    <material id="corrugation-material" name="corrugation">
      <instance_effect url="#corrugation-effect"/>
    </material>
    <material id="slabs_large-material" name="slabs_large">
      <instance_effect url="#slabs_large-effect"/>
    </material>
    <material id="metal_plates-material" name="metal_plates">
      <instance_effect url="#metal_plates-effect"/>
    </material>
    <material id="balustrades-material" name="balustrades">
      <instance_effect url="#balustrades-effect"/>
    </material>
    <material id="brick_painted-material" name="brick_painted">
      <instance_effect url="#brick_painted-effect"/>
    </material>
    <material id="stucco1_white-material" name="stucco1_white">
      <instance_effect url="#stucco1_white-effect"/>
    </material>
    <material id="columns-material" name="columns">
      <instance_effect url="#columns-effect"/>
    </material>
    <material id="construction-material" name="construction">
      <instance_effect url="#construction-effect"/>
    </material>
    <material id="clutter_commercial-material" name="clutter_commercial">
      <instance_effect url="#clutter_commercial-effect"/>
    </material>
    <material id="brick_plain-material" name="brick_plain">
      <instance_effect url="#brick_plain-effect"/>
    </material>
    <material id="stone_brick_regular-material" name="stone_brick_regular">
      <instance_effect url="#stone_brick_regular-effect"/>
    </material>
    <material id="curbs-material" name="curbs">
      <instance_effect url="#curbs-effect"/>
    </material>
    <material id="wirefence-material" name="wirefence">
      <instance_effect url="#wirefence-effect"/>
    </material>
    <material id="groundmesh_grass2-material" name="groundmesh_grass2">
      <instance_effect url="#groundmesh_grass2-effect"/>
    </material>
    <material id="billboards-material" name="billboards">
      <instance_effect url="#billboards-effect"/>
    </material>
    <material id="road_asphalt-material" name="road_asphalt">
      <instance_effect url="#road_asphalt-effect"/>
    </material>
  </library_materials>
  <library_geometries>
    <geometry id="Plane_132-mesh" name="Plane.132">
      <mesh>
        <source id="Plane_132-mesh-positions">
          <float_array id="Plane_132-mesh-positions-array" count="1680">0.6712422 0.3260157 7.5784 0.284848 0.3260561 8.238801 -0.0420767 0.326013 8.238801 -0.3683944 0.3260535 7.5784 0.001925945 0.3261182 8.238801 -0.3683944 0.3260535 8.238801 -0.7175269 0.3260346 7.5784 -0.3472064 0.3260993 8.238801 -0.8971979 0.3260804 7.5784 -0.8971979 0.3260804 8.238801 -1.798946 0.3259915 7.5784 -1.798946 0.3259915 8.238801 -2.631625 0.326059 7.5784 -2.631625 0.326059 8.238801 2.643129 0.3261207 7.5784 1.923633 0.325994 8.238801 1.957944 0.3260372 7.5784 1.637302 0.3260129 7.5784 1.957944 0.3260372 8.238801 1.657756 0.3261019 7.5784 1.4498 0.3261208 7.5784 1.4498 0.3261208 8.238801 0.7789196 0.3260614 7.556999 0.7789196 0.3260614 8.255303 1.316875 0.3261181 6.881897 1.316875 0.3261181 7.283897 1.316034 0.3260965 6.881897 1.316034 0.3260965 7.283897 0.7324678 0.3261613 7.283897 0.4380629 0.3261397 7.283897 0.2338995 0.3260777 6.881897 -0.06048375 0.3260346 6.881897 -0.06048375 0.3260346 7.283897 -0.3625034 0.3261182 6.881897 -0.06818479 0.3260535 7.283897 -0.3633746 0.3261263 6.881897 -0.6578631 0.3260157 6.881897 -0.6578631 0.3260157 7.283897 -0.932434 0.3260993 7.283897 -1.353981 0.326075 6.881897 -1.497639 0.3261884 6.881897 -1.792195 0.3259726 6.881897 -2.078162 0.326059 6.881897 -1.783779 0.3261021 7.283897 -2.081334 0.3260374 6.881897 -2.36171 0.3260563 7.283897 2.359579 0.3261207 7.283897 2.065153 0.3260345 7.283897 2.067049 0.3260372 6.881897 1.772773 0.3261451 6.881897 2.643841 0.3260992 7.283897 -2.946918 0.3169742 8.325997 2.942282 0.3169928 8.325997 -3.045425 -0.2625376 8.424508 -2.835764 -0.262535 6.5271 2.831208 -0.2624679 6.5271 3.040812 -0.2624948 8.424508 -3.045382 0.3170362 8.424508 -2.835764 0.3169956 6.5271 2.831208 0.3170629 6.5271 3.040812 0.3170359 8.424508 0.284848 0.3260561 7.5784 0.6712422 0.3260157 8.238801 0.3282437 0.3260776 7.5784 -0.0420767 0.326013 7.5784 0.3282437 0.3260776 8.238801 0.001925945 0.3261182 7.5784 -0.3472064 0.3260993 7.5784 -0.7175269 0.3260346 8.238801 -1.366761 0.3259941 7.5784 -1.366761 0.3259941 8.238801 -1.329383 0.3260778 7.5784 -1.329383 0.3260778 8.238801 -1.745797 0.326013 7.5784 -2.215336 0.3259888 7.5784 -1.745797 0.326013 8.238801 -2.215336 0.3259888 8.238801 -2.16217 0.3259941 7.5784 -2.16217 0.3259941 8.238801 2.272809 0.3260561 7.5784 2.643129 0.3261207 8.238801 2.272809 0.3260561 8.238801 2.293911 0.3260155 7.5784 1.923633 0.325994 7.5784 2.293911 0.3260155 8.238801 1.637302 0.3260129 8.238801 1.657756 0.3261019 8.238801 1.347105 0.3260129 7.556999 1.347105 0.3260129 8.255303 1.61128 0.3261397 6.881897 1.61128 0.3261397 7.283897 1.021599 0.3261047 6.881897 1.021599 0.3261047 7.283897 1.020758 0.3260831 6.881897 0.726404 0.3260102 6.881897 1.020758 0.3260831 7.283897 0.726404 0.3260102 7.283897 0.7324678 0.3261613 6.881897 0.4380629 0.3261397 6.881897 0.2338995 0.3260777 7.283897 -0.06818479 0.3260535 6.881897 -0.3625034 0.3261182 7.283897 -0.3633746 0.3261263 7.283897 -0.6379239 0.3261883 6.881897 -0.932434 0.3260993 6.881897 -0.6379239 0.3261883 7.283897 -1.059684 0.3260319 6.881897 -1.059684 0.3260319 7.283897 -1.353981 0.326075 7.283897 -1.497639 0.3261884 7.283897 -1.792195 0.3259726 7.283897 -1.783779 0.3261021 6.881897 -2.078162 0.326059 7.283897 -2.375739 0.3260158 6.881897 -2.081334 0.3260374 7.283897 -2.375739 0.3260158 7.283897 -2.36171 0.3260563 6.881897 -2.655964 0.3261426 6.881897 -2.655964 0.3261426 7.283897 2.359579 0.3261207 6.881897 2.065153 0.3260345 6.881897 2.067049 0.3260372 7.283897 1.772773 0.3261451 7.283897 2.643841 0.3260992 6.881897 2.349415 0.3260129 6.881897 2.349415 0.3260129 7.283897 -2.737228 0.3170335 6.625603 2.732573 0.3169524 6.625603 2.942301 -0.2621253 8.325997 3.040788 -0.2621253 8.424508 2.831192 -0.2621063 6.5271 -2.83574 -0.2621276 6.5271 -3.045452 -0.2621654 8.424508 -0.6760301 -0.2712557 7.5784 -0.2893796 -0.2711209 7.5784 -0.6760301 -0.2712557 8.238801 -0.2893796 -0.2711209 8.238801 -0.3327754 -0.2711424 7.5784 0.03735351 -0.2712315 7.5784 -0.3327754 -0.2711424 8.238801 0.03735351 -0.2712315 8.238801 -0.006514191 -0.2712126 7.5784 0.3638062 -0.2711479 7.5784 -0.006514191 -0.2712126 8.238801 0.3638062 -0.2711479 8.238801 0.3426532 -0.2711425 7.5784 0.712801 -0.2712504 7.5784 0.3426532 -0.2711425 8.238801 0.712801 -0.2712504 8.238801 0.892553 -0.2712046 7.5784 1.362051 -0.2712262 7.5784 0.892553 -0.2712046 8.238801 1.362051 -0.2712262 8.238801 1.324746 -0.27121 7.5784 1.794331 -0.2711452 7.5784 1.324746 -0.27121 8.238801 1.794331 -0.2711452 8.238801 1.741227 -0.2711264 7.5784 2.210618 -0.2712128 7.5784 1.741227 -0.2711264 8.238801 2.210618 -0.2712128 8.238801 2.157468 -0.2712343 7.5784 2.627007 -0.2712101 7.5784 2.157468 -0.2712343 8.238801 2.627007 -0.2712101 8.238801 -2.64768 -0.2711667 7.5784 -2.277338 -0.2711235 7.5784 -2.64768 -0.2711667 8.238801 -2.277338 -0.2711235 8.238801 -2.298655 -0.2712989 7.5784 -1.928338 -0.2712315 7.5784 -2.298655 -0.2712989 8.238801 -1.928338 -0.2712315 8.238801 -1.962517 -0.2711478 7.5784 -1.642025 -0.2712315 7.5784 -1.962517 -0.2711478 8.238801 -1.642025 -0.2712315 8.238801 -1.662393 -0.2712342 7.5784 -1.454375 -0.2712288 7.5784 -1.662393 -0.2712342 8.238801 -1.454375 -0.2712288 8.238801 -1.351852 -0.2712935 7.556999 -0.7836023 -0.2712342 7.556999 -1.351852 -0.2712935 8.255303 -0.7836023 -0.2712342 8.255303 -1.615868 -0.2712341 6.881897 -1.321485 -0.271191 6.881897 -1.615868 -0.2712341 7.283897 -1.321485 -0.271191 7.283897 -1.320622 -0.271191 6.881897 -1.026174 -0.2711263 6.881897 -1.320622 -0.271191 7.283897 -1.026174 -0.2711263 7.283897 -1.025354 -0.2711694 6.881897 -0.7311002 -0.2712557 6.881897 -1.025354 -0.2711694 7.283897 -0.7311002 -0.2712557 7.283897 -0.7369913 -0.2712342 6.881897 -0.4426296 -0.2711694 6.881897 -0.7369913 -0.2712342 7.283897 -0.4426296 -0.2711694 7.283897 -0.2384446 -0.271129 6.881897 0.05576598 -0.2712585 6.881897 -0.2384446 -0.271129 7.283897 0.05576598 -0.2712585 7.283897 0.06353181 -0.2712558 6.881897 0.3579582 -0.2711695 6.881897 0.06353181 -0.2712558 7.283897 0.3579582 -0.2711695 7.283897 0.3587998 -0.2712342 6.881897 0.6532263 -0.2711479 6.881897 0.3587998 -0.2712342 7.283897 0.6532263 -0.2711479 7.283897 0.6333923 -0.2712531 6.881897 0.9277756 -0.27121 6.881897 0.6333923 -0.2712531 7.283897 0.9277756 -0.27121 7.283897 1.054966 -0.2712558 6.881897 1.349344 -0.2712073 6.881897 1.054966 -0.2712558 7.283897 1.349344 -0.2712073 7.283897 1.493193 -0.2710805 6.881897 1.78749 -0.27121 6.881897 1.493193 -0.2710805 7.283897 1.78749 -0.27121 7.283897 1.779226 -0.2711454 6.881897 2.07363 -0.2711237 6.881897 1.779226 -0.2711454 7.283897 2.07363 -0.2711237 7.283897 2.07674 -0.2711263 6.881897 2.371164 -0.2711238 6.881897 2.07674 -0.2711263 7.283897 2.371164 -0.2711238 7.283897 2.357159 -0.2711022 6.881897 2.651435 -0.2712101 6.881897 2.357159 -0.2711022 7.283897 2.651435 -0.2712101 7.283897 -2.364151 -0.2711451 6.881897 -2.069897 -0.2712314 6.881897 -2.364151 -0.2711451 7.283897 -2.069897 -0.2712314 7.283897 -2.071774 -0.271253 6.881897 -1.777413 -0.2712746 6.881897 -2.071774 -0.271253 7.283897 -1.777413 -0.2712746 7.283897 -2.648392 -0.2711451 6.881897 -2.354162 -0.2712934 6.881897 -2.648392 -0.2711451 7.283897 -2.354162 -0.2712934 7.283897 2.732683 -0.2620849 6.625603 -2.737252 -0.2621276 6.625603 -2.946935 -0.2621951 8.325997 -0.06192684 0.133006 -0.2601395 -0.09749746 0 -0.2601395 0 -0.09749746 -0.2601395 0.1330141 -0.06193494 -0.2601395 0.1687924 0.0712949 -0.2601395 0.07131648 0.1687708 -0.2601395 -0.06192684 0.133006 6.685509 -0.09749746 0 6.685509 0 -0.09749746 6.685509 0.1330141 -0.06193494 6.685509 0.1687924 0.0712949 6.685509 0.07131648 0.1687708 6.685509 -0.2879958 0.359075 0.5792008 -0.2879095 -0.2879554 0.5792008 0.03558403 -0.4219837 0.5792008 0.3591181 -0.288039 0.5792008 0.4931276 0.03551661 0.5792008 0.3592072 0.3591613 0.5792008 0.03556519 0.493079 0.5792008 -0.4876896 0.5587688 0 -0.7043852 0.03555709 0 -0.487668 -0.4876707 0 0.03558671 -0.7044149 0 0.5588362 -0.4876708 0 0.7755803 0.0355786 0 0.558901 0.5588551 0 0.03562992 0.775529 0 -0.4219567 0.03555709 0.5792008 -2.64768 -0.2714943 8.238725 -2.64768 -0.2714943 7.578313 -2.368082 -0.2714616 7.578321 -2.368082 -0.2714616 8.238733 -2.399537 -0.2714653 8.238732 -2.399537 -0.2714653 7.57832 -2.04925 -0.2714244 7.57833 -2.04925 -0.2714244 8.238742 -2.080705 -0.2714281 8.238741 -2.080705 -0.2714281 7.57833 -1.681109 -0.2713815 7.578341 -1.681109 -0.2713815 8.238753 -1.712565 -0.2713852 8.238752 -1.712565 -0.2713852 7.57834 -1.362278 -0.2713443 7.578351 -1.362278 -0.2713443 8.238762 -1.393733 -0.271348 8.238762 -1.393733 -0.271348 7.57835 -1.067982 -0.27131 7.578359 -1.067982 -0.27131 8.238771 -1.099437 -0.2713137 8.23877 -1.099437 -0.2713137 7.578358 -0.8106082 -0.27128 7.578367 -0.8106082 -0.27128 8.238779 -0.8420634 -0.2712836 8.238778 -0.8420634 -0.2712836 7.578366 -0.5471605 -0.2712492 7.578374 -0.5471605 -0.2712492 8.238786 -0.3502784 -0.2711802 8.255328 -0.3502784 -0.2711802 7.557007 0.1726855 -0.2711192 7.557023 0.1726855 -0.2711192 8.255343 0.3695676 -0.2711423 8.238813 0.3695676 -0.2711423 7.578401 0.8245471 -0.2710892 7.578415 0.8245471 -0.2710892 8.238827 0.793092 -0.2710929 8.238826 0.793092 -0.2710929 7.578414 1.081921 -0.2710592 7.578422 1.081921 -0.2710592 8.238834 1.050466 -0.2710629 8.238833 1.050466 -0.2710629 7.578421 1.382291 -0.2710242 7.578431 1.382291 -0.2710242 8.238843 1.350836 -0.2710278 8.238842 1.350836 -0.2710278 7.57843 1.701122 -0.270987 7.57844 1.701122 -0.270987 8.238852 1.669667 -0.2709906 8.238851 1.669667 -0.2709906 7.578439 2.019953 -0.2709498 7.57845 2.019953 -0.2709498 8.238862 1.988498 -0.2709534 8.238861 1.988498 -0.2709534 7.578449 2.31425 -0.2709154 7.578458 2.31425 -0.2709154 8.23887 2.282794 -0.2709191 8.238869 2.282794 -0.2709191 7.578457 2.627007 -0.270879 7.578467 2.627007 -0.270879 8.238879 2.643129 0.3265302 8.238725 2.643129 0.3265302 7.578313 2.363453 0.3264814 7.578321 2.363453 0.3264814 8.238733 2.39504 0.3264869 8.238732 2.39504 0.3264869 7.57832 2.044657 0.3264258 7.57833 2.044657 0.3264258 8.238742 2.076244 0.3264313 8.238741 2.076244 0.3264313 7.57833 1.676538 0.3263615 7.578341 1.676538 0.3263615 8.238753 1.708125 0.326367 8.238752 1.708125 0.326367 7.57834 1.357742 0.3263059 7.578351 1.357742 0.3263059 8.238762 1.389329 0.3263114 8.238762 1.389329 0.3263114 7.57835 1.063488 0.3262546 7.578359 1.063488 0.3262546 8.238771 1.095075 0.3262601 8.23877 1.095075 0.3262601 7.578358 0.8061662 0.3262097 7.578367 0.8061662 0.3262097 8.238779 0.8377535 0.3262152 8.238778 0.8377535 0.3262152 7.578366 0.5427691 0.3261638 7.578374 0.5427691 0.3261638 8.238786 0.3457739 0.325912 8.255328 0.3457739 0.325912 7.557007 -0.1773065 0.3258208 7.557023 -0.1773065 0.3258208 8.255343 -0.3743018 0.3260038 8.238813 -0.3743018 0.3260038 7.578401 -0.8294071 0.3259244 7.578415 -0.8294071 0.3259244 8.238827 -0.7978198 0.3259299 8.238826 -0.7978198 0.3259299 7.578414 -1.086729 0.3258795 7.578422 -1.086729 0.3258795 8.238834 -1.055141 0.325885 8.238833 -1.055141 0.325885 7.578421 -1.387058 0.3258271 7.578431 -1.387058 0.3258271 8.238843 -1.355471 0.3258326 8.238842 -1.355471 0.3258326 7.57843 -1.705854 0.3257715 7.57844 -1.705854 0.3257715 8.238852 -1.674267 0.325777 8.238851 -1.674267 0.325777 7.578439 -2.02465 0.3257159 7.57845 -2.02465 0.3257159 8.238862 -1.993063 0.3257214 8.238861 -1.993063 0.3257214 7.578449 -2.318904 0.3256646 7.578458 -2.318904 0.3256646 8.23887 -2.287317 0.3256701 8.238869 -2.287317 0.3256701 7.578457 -2.631625 0.32561 7.578467 -2.631625 0.32561 8.238879 -2.648391 -0.2699049 7.244457 -2.648391 -0.2699049 6.921232 -2.366543 -0.270047 6.921238 -2.366543 -0.270047 7.244463 -2.36607 -0.2700472 7.244463 -2.36607 -0.2700472 6.921238 -2.12904 -0.2701667 6.921242 -2.12904 -0.2701667 7.244467 -2.128566 -0.2701669 7.244467 -2.128566 -0.2701669 6.921242 -1.864262 -0.2703001 6.921248 -1.864262 -0.2703001 7.244472 -1.863788 -0.2703004 7.244472 -1.863788 -0.2703004 6.921248 -1.570244 -0.2704483 6.921253 -1.570244 -0.2704483 7.244478 -1.569771 -0.2704486 7.244478 -1.569771 -0.2704486 6.921253 -1.332741 -0.270568 6.921258 -1.332741 -0.270568 7.244483 -1.332267 -0.2705683 7.244483 -1.332267 -0.2705683 6.921258 -1.165413 -0.2706524 6.921261 -1.165413 -0.2706524 7.244486 -1.16494 -0.2706526 7.244486 -1.16494 -0.2706526 6.921261 -0.8655477 -0.2708035 6.921267 -0.8655477 -0.2708035 7.244492 -0.7555558 -0.2702448 7.244473 -0.7555558 -0.2702448 6.921249 -0.5898737 -0.2703283 6.921252 -0.5898737 -0.2703283 7.244477 -0.4798825 -0.2709979 7.244499 -0.4798825 -0.2709979 6.921275 -0.2155784 -0.2711311 6.92128 -0.2155784 -0.2711311 7.244505 -0.2151047 -0.2711314 7.244505 -0.2151047 -0.2711314 6.92128 0.02192505 -0.2712508 6.921285 0.02192505 -0.2712508 7.244509 0.02239874 -0.2712511 7.244509 0.02239874 -0.2712511 6.921285 0.245767 -0.2713637 6.921289 0.245767 -0.2713637 7.244514 0.2462407 -0.2713639 7.244514 0.2462407 -0.2713639 6.921289 0.5105448 -0.2714971 6.921294 0.5105448 -0.2714971 7.244519 0.5110185 -0.2714974 7.244519 0.5110185 -0.2714974 6.921294 0.6525151 -0.2715687 6.921297 0.6525151 -0.2715687 7.244522 0.7625066 -0.2716241 7.244524 0.7625066 -0.2716241 6.921299 1.056871 -0.2717725 6.921305 1.056871 -0.2717725 7.24453 1.057345 -0.2717727 7.24453 1.057345 -0.2717727 6.921305 1.294374 -0.2718922 6.921309 1.294374 -0.2718922 7.244534 1.294848 -0.2718924 7.244534 1.294848 -0.2718924 6.921309 1.512368 -0.2720021 6.921314 1.512368 -0.2720021 7.244538 1.512842 -0.2720023 7.244538 1.512842 -0.2720023 6.921314 1.812234 -0.2721532 6.92132 1.812234 -0.2721532 7.244544 1.812708 -0.2721534 7.244544 1.812708 -0.2721534 6.92132 2.096521 -0.2722965 6.921325 2.096521 -0.2722965 7.24455 2.096995 -0.2722967 7.24455 2.096995 -0.2722967 6.921325 2.4042 -0.2724516 6.921331 2.4042 -0.2724516 7.244556 2.404674 -0.2724518 7.244556 2.404674 -0.2724518 6.921331 2.651434 -0.2725762 6.921336 2.651434 -0.2725762 7.244561 2.643841 0.3268057 7.244354 2.643841 0.3268057 6.921336 2.361985 0.3267231 6.921341 2.361985 0.3267231 7.244359 2.361512 0.3267229 7.244359 2.361512 0.3267229 6.921341 2.124476 0.3266534 6.921346 2.124476 0.3266534 7.244364 2.124003 0.3266533 7.244364 2.124003 0.3266533 6.921346 1.859692 0.3265758 6.921351 1.859692 0.3265758 7.244369 1.859219 0.3265757 7.244369 1.859219 0.3265757 6.921351 1.565667 0.3264897 6.921357 1.565667 0.3264897 7.244375 1.565194 0.3264895 7.244375 1.565194 0.3264895 6.921357 1.328158 0.32642 6.921361 1.328158 0.32642 7.24438 1.327684 0.3264199 7.24438 1.327684 0.3264199 6.921361 1.160826 0.326371 6.921365 1.160826 0.326371 7.244383 1.160353 0.3263708 7.244383 1.160353 0.3263708 6.921365 0.8609529 0.3262831 6.92137 0.8609529 0.3262831 7.244389 0.7509576 0.3266273 7.24437 0.7509576 0.3266273 6.921352 0.5854268 0.3265788 6.921355 0.5854268 0.3265788 7.244373 0.4754317 0.3261701 7.244396 0.4754317 0.3261701 6.921378 0.2111205 0.3260926 6.921383 0.2111205 0.3260926 7.244401 0.2106475 0.3260925 7.244401 0.2106475 0.3260925 6.921383 -0.02638869 0.326023 6.921388 -0.02638869 0.326023 7.244406 -0.02686172 0.3260229 7.244406 -0.02686172 0.3260229 6.921388 -0.250236 0.3259574 6.921392 -0.250236 0.3259574 7.24441 -0.2507091 0.3259572 7.24441 -0.2507091 0.3259572 6.921392 -0.5150203 0.3258798 6.921397 -0.5150203 0.3258798 7.244416 -0.5154934 0.3258796 7.244416 -0.5154934 0.3258796 6.921397 -0.6569938 0.3258382 6.9214 -0.6569938 0.3258382 7.244418 -0.7669889 0.3258059 7.244421 -0.7669889 0.3258059 6.921402 -1.061361 0.3257196 6.921408 -1.061361 0.3257196 7.244426 -1.061834 0.3257195 7.244426 -1.061834 0.3257195 6.921408 -1.29887 0.32565 6.921413 -1.29887 0.32565 7.244431 -1.299344 0.3256499 7.244431 -1.299344 0.3256499 6.921413 -1.51687 0.3255861 6.921417 -1.51687 0.3255861 7.244435 -1.517343 0.325586 7.244435 -1.517343 0.325586 6.921417 -1.816743 0.3254982 6.921423 -1.816743 0.3254982 7.244441 -1.817216 0.3254981 7.244441 -1.817216 0.3254981 6.921423 -2.101037 0.3254149 6.921428 -2.101037 0.3254149 7.244447 -2.10151 0.3254148 7.244447 -2.10151 0.3254148 6.921428 -2.408724 0.3253247 6.921434 -2.408724 0.3253247 7.244453 -2.409197 0.3253246 7.244453 -2.409197 0.3253246 6.921434 -2.655964 0.3252522 6.921439 -2.655964 0.3252522 7.244457</float_array>
          <technique_common>
            <accessor source="#Plane_132-mesh-positions-array" count="560" stride="3">
              <param name="X" type="float"/>
              <param name="Y" type="float"/>
              <param name="Z" type="float"/>
            </accessor>
          </technique_common>
        </source>
        <source id="Plane_132-mesh-normals">
          <float_array id="Plane_132-mesh-normals-array" count="576">-1.83998e-4 -1 0 6.83769e-4 0.9999998 5.42513e-5 1.48418e-5 1 -4.00142e-4 -0.001018583 0.9999995 1.01806e-4 0 1 -4.3822e-4 -9.4751e-4 -0.9999997 -1.80245e-5 -6.4989e-4 -0.9999997 6.83165e-4 -9.47021e-4 -0.9999997 2.01637e-5 3.76549e-6 -1 2.21671e-4 -7.31458e-4 -0.9999998 -1.66982e-5 -8.27305e-4 -0.9999997 -1.42999e-5 -7.31457e-4 -0.9999998 -1.6657e-5 2.90105e-5 -1 -2.67038e-4 2.91204e-5 -1 -2.67034e-4 2.91032e-5 -1 -2.67034e-4 2.40591e-4 0.9999999 -4.79384e-4 2.4059e-4 1 0 2.4059e-4 0.9999999 4.79384e-4 -0.6355913 0.6355583 0.43828 -0.8988408 -2.1929e-5 0.4382755 -0.8988212 -9.3463e-5 0.4383155 7.36947e-5 -1 0 7.82388e-6 -1 -2.47107e-5 -2.93309e-4 -1 0 -0.001044571 0.9999995 -2.39385e-5 -0.001763701 0.9999985 -2.31142e-5 -0.001667857 0.9999987 -9.54296e-6 -1.39051e-4 0.9999998 6.47853e-4 -1.39103e-4 0.9999999 6.47867e-4 -1.18641e-5 0.9999995 0.001110017 -0.001610875 0.9999988 6.43095e-5 -0.001610875 0.9999988 6.43006e-5 -0.001706719 0.9999986 6.36667e-5 -3.15765e-6 0.9999998 -6.32423e-4 -0.001550078 -0.9999987 6.5552e-4 -0.001509368 -0.9999989 -6.65901e-6 -0.001988768 -0.9999981 1.19206e-6 7.82381e-6 -1 -8.19306e-6 -3.61129e-4 -1 -5.98228e-5 1.18618e-5 -1 -1.1693e-5 0 0 1 2.93137e-4 -1 0 -1.4659e-4 1 0 3.02162e-4 -1 0 1.46388e-4 -1 0 4.51966e-4 -0.9999999 3.88567e-4 0.001015961 -0.9999995 3.8674e-4 7.327e-4 -0.9999997 -4.79384e-4 -1.37974e-4 1 0 -1.16524e-4 1 0 3.92522e-5 -1 0 -4.40131e-4 -0.9999999 0 -1.46489e-4 1 0 7.33007e-5 1 0 -7.32897e-5 1 0 3.66611e-4 1 0 0.8988395 -6.57068e-5 0.4382779 0.6355426 0.6355459 0.4383686 0.8988243 -2.12081e-4 0.4383092 -2.04694e-4 0.8988259 0.438306 -0.6355858 0.6355702 0.4382708 -5.83249e-5 0.8988411 0.4382747 -3.05588e-5 -0.8988418 0.4382732 -0.6355208 -0.6355984 0.438324 -0.6355616 -0.6355611 0.4383192 0.6355354 -0.635621 0.4382702 -1.35244e-4 -0.8988333 0.438291 0.9939537 0 -0.1098007 0.9659969 0.2585537 0 0.2586115 0.9659815 0 0.2586057 0.965983 0 3.43616e-7 0 1 2.37465e-4 2.37272e-4 1 2.37473e-4 2.37264e-4 1 2.37451e-4 2.37287e-4 1 -3.15775e-6 1 -2.33801e-5 8.54438e-5 1 0 1.74636e-4 -1 0 4.59573e-5 1 0 2.61123e-4 0.9999999 -4.79384e-4 3.3302e-4 0.9999999 -4.7396e-4 2.61114e-4 0.9999999 4.79384e-4 -2.19837e-4 1 0 -4.399e-4 -1 0 1.46633e-4 1 0 3.6661e-4 1 0 -0.9939504 0 -0.1098302 -0.7074323 0.7067812 0 -0.9658646 -0.2590476 0 -0.9658631 -0.2590533 0 -2.93137e-4 1 0 5.82722e-5 -1 0 1.64917e-4 -1 0 -1.74716e-4 1 0 -2.93512e-4 -1 0 -2.47447e-4 1 0 0 0 -1 5.16658e-5 -1 0 -7.3391e-5 1 0 -2.91543e-4 -1 0 7.30873e-5 -1 0 0.7067174 -0.707496 0 0.9659986 0.2585475 0 -1.46388e-4 1 0 2.20035e-4 1 0 -1.74796e-4 1 0 -0.259082 -0.9658554 0 0.7073466 -0.7068669 0 3.75554e-4 -1 0 2.74303e-5 1 0 1.83677e-4 -1 0 1.38138e-4 1 0 9.08592e-5 1 0 -3.4646e-4 1 -1.96369e-4 -3.88524e-4 1 0 7.58436e-5 -1 0 -2.19902e-4 1 0 2.93137e-4 -1 0 1.04419e-4 -1 0 0.6356039 -0.6355752 0.4382374 1.74877e-4 -1 0 -2.57883e-5 1 0 -2.27569e-4 0.9999998 6.40086e-4 5.04015e-4 1 0 5.15388e-5 -1 0 8.70513e-6 -1 0 -0.259088 -0.9658538 0 -2.93311e-4 -1 0 -1.8374e-4 1 0 -2.92936e-4 1 0 -1.8204e-4 1 0 -0.7074285 0.706785 0 1.04665e-4 1 0 3.48779e-4 -1 0 -1.83998e-4 -1 0 4.74975e-4 0.9999999 -4.18178e-4 2.4059e-4 1 0 1.18617e-5 -1 -3.82208e-5 0 0 1 2.93138e-4 -1 0 -1.46591e-4 1 0 3.02161e-4 -1 0 8.32997e-4 -0.9999996 4.68779e-4 7.32725e-4 -0.9999997 -4.79384e-4 7.32629e-4 -0.9999997 4.79384e-4 -1.37973e-4 1 0 -1.57006e-4 -1 -3.86845e-4 3.92532e-5 -1 0 -4.4013e-4 -1 0 -1.46489e-4 1 0 7.33005e-5 1 0 -7.32899e-5 1 0 0.6355789 0.6355817 0.4382642 0.9939537 0 -0.1098006 1.48418e-5 1 3.67578e-5 8.5444e-5 1 0 1.74635e-4 -1 0 4.59573e-5 1 0 4.7043e-4 0.9999998 -4.31272e-4 2.61092e-4 0.9999999 4.79384e-4 -6.426e-5 1 -3.52051e-4 -2.19837e-4 1 0 -4.399e-4 -1 0 1.46634e-4 1 0 -0.9939529 7.41302e-5 -0.1098077 -2.93138e-4 1 0 1.64917e-4 -1 0 -2.47448e-4 1 0 -1.45192e-7 0 -1 5.16657e-5 -1 0 -2.91544e-4 -1 0 7.30875e-5 -1 0 -1.46388e-4 1 0 -1.74796e-4 1 0 3.75555e-4 -1 0 2.74303e-5 1 0 9.0859e-5 1 0 -3.78656e-4 1 9.67708e-5 -2.19902e-4 1 0 2.93138e-4 -1 0 1.0442e-4 -1 0 1.74876e-4 -1 0 -2.57883e-5 1 0 -2.57883e-5 0.9999999 -4.79384e-4 -2.58488e-5 0.9999998 6.71137e-4 5.04014e-4 1 0 5.15388e-5 -1 0 -1.8374e-4 1 0 -2.92936e-4 1 0 -1.82041e-4 1 0 1.04664e-4 1 0 3.48779e-4 -1 0</float_array>
          <technique_common>
            <accessor source="#Plane_132-mesh-normals-array" count="192" stride="3">
              <param name="X" type="float"/>
              <param name="Y" type="float"/>
              <param name="Z" type="float"/>
            </accessor>
          </technique_common>
        </source>
        <source id="Plane_132-mesh-map-0">
          <float_array id="Plane_132-mesh-map-0-array" count="1628">0.8226913 0.8055043 0.8404126 0.7811627 0.8404126 0.8055043 0.7389194 0.5683713 0.5673182 0.5582684 0.7533061 0.5582684 0.7700832 0.5583247 0.4116259 0.5678141 0.425138 0.5583253 0.7389194 0.5582684 0.5673182 0.5683713 0.5817049 0.5582684 0.7700842 0.5678135 0.4116259 0.5583247 0.7835962 0.5583247 0.7389194 0.5683713 0.5673182 0.5582684 0.7533061 0.5582684 0.425138 0.5583253 0.7835962 0.5678141 0.4116259 0.5678141 0.7389194 0.5582684 0.5673182 0.5683713 0.5817049 0.5582684 0.7700842 0.5678135 0.4116259 0.5583247 0.7835962 0.5583247 0.7660579 0.8055043 0.7840871 0.7811627 0.7660579 0.7811635 0.3376093 0.4009126 0.3527469 0.3467159 0.3527469 0.4009126 0.6588819 0.9969948 0.6708815 0.9822583 0.6708815 0.9969948 0.6241809 0.6466982 0.7309105 0.694041 0.6280425 0.6940411 0.526332 0.9966123 0.5382209 0.9826409 0.5382209 0.9966123 0.7389194 0.5683713 0.5817049 0.5683712 0.5673182 0.5582684 0.7700832 0.5583247 0.7835962 0.5678141 0.4116259 0.5678141 0.7389194 0.5582684 0.7533061 0.5683713 0.5673182 0.5683713 0.7700842 0.5678135 0.4251389 0.5678141 0.4116259 0.5583247 0.7389194 0.5683713 0.5817049 0.5683712 0.5673182 0.5582684 0.425138 0.5583253 0.7700832 0.5583247 0.7835962 0.5678141 0.7389194 0.5582684 0.7533061 0.5683713 0.5673182 0.5683713 0.7700842 0.5678135 0.4251389 0.5678141 0.4116259 0.5583247 0.512609 0.570361 0.7577195 0.5559636 0.7577195 0.5703608 0.5509322 0.9966123 0.5617133 0.9826409 0.5617133 0.9966123 0.5157818 0.9966123 0.5265628 0.9826409 0.5265628 0.9966123 0.6956566 0.9966123 0.7064377 0.9826409 0.6956566 0.9826413 0.6588819 0.9969948 0.6708815 0.9822583 0.6588819 0.9822588 0.707167 0.9969948 0.7177308 0.9822583 0.707167 0.9822588 0.5060834 0.8055043 0.5260224 0.7811627 0.5060834 0.7811635 0.5620985 0.8055043 0.5801277 0.7811627 0.5620985 0.7811635 0.5157818 0.9966123 0.5265628 0.9826409 0.5265628 0.9966123 0.6956566 0.9966123 0.7064377 0.9826409 0.6956566 0.9826413 0.5509322 0.9966123 0.5617133 0.9826409 0.5509322 0.9826413 0.5380427 0.9966123 0.5499315 0.9826409 0.5499315 0.9966123 0.5509322 0.9966123 0.5617133 0.9826409 0.5617133 0.9966123 0.3527469 0.3467159 0.3376093 0.4009126 0.3527469 0.4009126 0.3564077 0.4009126 0.3319274 0.3467159 0.3412702 0.4009126 0.3715453 0.4009126 0.3564074 0.3467159 0.3564077 0.4009126 0.3564074 0.3467159 0.3412702 0.4009126 0.3319274 0.3467159 0.3564074 0.3467159 0.3715453 0.4009126 0.3564077 0.4009126 0.3527469 0.4009126 0.377228 0.3467159 0.3678844 0.4009126 0.512609 0.5559637 0.3974943 0.5703608 0.3974943 0.5559638 1.166937 0.9380353 0.5345916 0.9269977 1.166944 0.9269976 0.3376093 0.1982792 0.3527469 0.1857388 0.3313384 0.2285543 0.3678844 0.1982792 0.3741554 0.2285543 0.3527469 0.2713692 0.3741554 0.2285543 0.3678844 0.2588295 0.3527469 0.2713692 0.3527469 0.2713692 0.3376093 0.2588295 0.3313384 0.2285543 0.7309105 0.694041 0.6241809 0.6466982 0.7347721 0.6466982 0.8195508 0.956074 0.8558193 0.9285128 0.8558193 0.956074 0.5620985 0.8055043 0.5801277 0.7811627 0.5620985 0.7811635 0.7176432 0.8055043 0.741222 0.7811627 0.7176432 0.7811635 0.7017731 0.8055043 0.716562 0.7811627 0.7017731 0.7811635 0.6586436 0.9966123 0.6711214 0.9826409 0.6586436 0.9826413 0.707167 0.9969948 0.7177308 0.9822583 0.7177308 0.9969948 0.822526 0.9601504 0.8538287 0.9279717 0.8538287 0.9601504 0.503468 0.9969948 0.5154677 0.9822583 0.503468 0.9822588 0.7577195 0.5703608 0.8728342 0.5559637 0.8728342 0.570361 1.166952 0.91596 0.5346059 0.9049224 1.166959 0.9049224 0.596196 0.9966123 0.6031094 0.9826409 0.6031094 0.9966123 0.5801412 0.8055043 0.5981704 0.7811627 0.5801412 0.7811635 0.822526 0.9601504 0.8538287 0.9279717 0.8538287 0.9601504 0.7660579 0.8055043 0.7840871 0.7811627 0.7840871 0.8055043 0.6227092 0.9966123 0.6327597 0.9826409 0.6327597 0.9966123 0.6227092 0.9966123 0.6327597 0.9826409 0.6327597 0.9966123 0.3974943 0.5703608 0.1523837 0.5559636 0.3974943 0.5559638 0.8561012 0.8055043 0.8738225 0.7811627 0.8738225 0.8055043 0.526332 0.9966123 0.5382209 0.9826409 0.5382209 0.9966123 0.3678844 0.1982792 0.3313384 0.2285543 0.3527469 0.1857388 0.5620985 0.8055043 0.5801277 0.7811627 0.5801277 0.8055043 0.5385968 0.9969948 0.5505964 0.9822583 0.5385968 0.9822588 1.16693 0.9490729 0.5345846 0.9380353 1.166937 0.9380353 0.526332 0.9966123 0.5382209 0.9826409 0.526332 0.9826413 0.5509322 0.9966123 0.5617133 0.9826409 0.5617133 0.9966123 0.7660579 0.8055043 0.7840871 0.7811627 0.7840871 0.8055043 1.166923 0.9601106 0.5345774 0.949073 1.16693 0.9490729 0.5509322 0.9966123 0.5617133 0.9826409 0.5509322 0.9826413 0.6586436 0.9966123 0.6711214 0.9826409 0.6711214 0.9966123 0.5060834 0.8055043 0.5260224 0.7811627 0.5060834 0.7811635 0.8561012 0.8055043 0.8738225 0.7811627 0.8738225 0.8055043 0.652119 0.8055043 0.6617867 0.7811627 0.6617867 0.8055043 0.7017731 0.8055043 0.716562 0.7811627 0.7017731 0.7811635 0.5380427 0.9966123 0.5499315 0.9826409 0.5380427 0.9826413 0.5509322 0.9966123 0.5617133 0.9826409 0.5617133 0.9966123 0.8195508 0.956074 0.8558193 0.9285128 0.8558193 0.956074 0.377228 0.3467159 0.3527469 0.4009126 0.3678844 0.4009126 0.7660579 0.8055043 0.7840871 0.7811627 0.7840871 0.8055043 0.5620985 0.8055043 0.5801277 0.7811627 0.5801277 0.8055043 0.652119 0.8055043 0.6617867 0.7811627 0.652119 0.7811635 0.596196 0.9966123 0.6031094 0.9826409 0.596196 0.9826413 0.8226913 0.8055043 0.8404126 0.7811627 0.8226913 0.7811635 0.5385968 0.9969948 0.5505964 0.9822583 0.5505964 0.9969948 1.166959 0.9049224 0.5346131 0.8938848 1.166966 0.8938848 0.503468 0.9969948 0.5154677 0.9822583 0.503468 0.9822588 0.7176432 0.8055043 0.741222 0.7811627 0.741222 0.8055043 0.526332 0.9966123 0.5382209 0.9826409 0.5382209 0.9966123 0.5801412 0.8055043 0.5981704 0.7811627 0.5801412 0.7811635 1.166944 0.9269976 0.5345988 0.91596 1.166952 0.91596 0.5979509 0.8055043 0.6123254 0.7811627 0.6123254 0.8055043 0.5979509 0.8055043 0.6123254 0.7811627 0.6123254 0.8055043 0.8226913 0.8055043 0.8226913 0.7811635 0.8404126 0.7811627 0.7660579 0.8055043 0.7840871 0.8055043 0.7840871 0.7811627 0.3376093 0.4009126 0.3282657 0.3467159 0.3527469 0.3467159 0.6588819 0.9969948 0.6588819 0.9822588 0.6708815 0.9822583 0.6241809 0.6466982 0.7347721 0.6466982 0.7309105 0.694041 0.526332 0.9966123 0.526332 0.9826413 0.5382209 0.9826409 0.512609 0.570361 0.512609 0.5559637 0.7577195 0.5559636 0.5509322 0.9966123 0.5509322 0.9826413 0.5617133 0.9826409 0.5157818 0.9966123 0.5157818 0.9826413 0.5265628 0.9826409 0.6956566 0.9966123 0.7064377 0.9966123 0.7064377 0.9826409 0.6588819 0.9969948 0.6708815 0.9969948 0.6708815 0.9822583 0.707167 0.9969948 0.7177308 0.9969948 0.7177308 0.9822583 0.5060834 0.8055043 0.5260224 0.8055043 0.5260224 0.7811627 0.5620985 0.8055043 0.5801277 0.8055043 0.5801277 0.7811627 0.5157818 0.9966123 0.5157818 0.9826413 0.5265628 0.9826409 0.6956566 0.9966123 0.7064377 0.9966123 0.7064377 0.9826409 0.5509322 0.9966123 0.5617133 0.9966123 0.5617133 0.9826409 0.5380427 0.9966123 0.5380427 0.9826413 0.5499315 0.9826409 0.5509322 0.9966123 0.5509322 0.9826413 0.5617133 0.9826409 0.3527469 0.3467159 0.3282657 0.3467159 0.3376093 0.4009126 0.3564077 0.4009126 0.3564074 0.3467159 0.3319274 0.3467159 0.3715453 0.4009126 0.3808874 0.3467159 0.3564074 0.3467159 0.3564074 0.3467159 0.3564077 0.4009126 0.3412702 0.4009126 0.3564074 0.3467159 0.3808874 0.3467159 0.3715453 0.4009126 0.3527469 0.4009126 0.3527469 0.3467159 0.377228 0.3467159 0.512609 0.5559637 0.512609 0.570361 0.3974943 0.5703608 1.166937 0.9380353 0.5345846 0.9380353 0.5345916 0.9269977 0.7309105 0.694041 0.6280425 0.6940411 0.6241809 0.6466982 0.8195508 0.956074 0.8195508 0.9285138 0.8558193 0.9285128 0.5620985 0.8055043 0.5801277 0.8055043 0.5801277 0.7811627 0.7176432 0.8055043 0.741222 0.8055043 0.741222 0.7811627 0.7017731 0.8055043 0.716562 0.8055043 0.716562 0.7811627 0.6586436 0.9966123 0.6711214 0.9966123 0.6711214 0.9826409 0.707167 0.9969948 0.707167 0.9822588 0.7177308 0.9822583 0.822526 0.9601504 0.822526 0.9279728 0.8538287 0.9279717 0.503468 0.9969948 0.5154677 0.9969948 0.5154677 0.9822583 0.7577195 0.5703608 0.7577195 0.5559636 0.8728342 0.5559637 1.166952 0.91596 0.5345988 0.91596 0.5346059 0.9049224 0.596196 0.9966123 0.596196 0.9826413 0.6031094 0.9826409 0.5801412 0.8055043 0.5981704 0.8055043 0.5981704 0.7811627 0.822526 0.9601504 0.822526 0.9279728 0.8538287 0.9279717 0.7660579 0.8055043 0.7660579 0.7811635 0.7840871 0.7811627 0.6227092 0.9966123 0.6227092 0.9826413 0.6327597 0.9826409 0.6227092 0.9966123 0.6227092 0.9826413 0.6327597 0.9826409 0.3974943 0.5703608 0.1523837 0.570361 0.1523837 0.5559636 0.8561012 0.8055043 0.8561012 0.7811635 0.8738225 0.7811627 0.526332 0.9966123 0.526332 0.9826413 0.5382209 0.9826409 0.3678844 0.1982792 0.3527469 0.2713692 0.3313384 0.2285543 0.5620985 0.8055043 0.5620985 0.7811635 0.5801277 0.7811627 0.5385968 0.9969948 0.5505964 0.9969948 0.5505964 0.9822583 1.16693 0.9490729 0.5345774 0.949073 0.5345846 0.9380353 0.526332 0.9966123 0.5382209 0.9966123 0.5382209 0.9826409 0.5509322 0.9966123 0.5509322 0.9826413 0.5617133 0.9826409 0.7660579 0.8055043 0.7660579 0.7811635 0.7840871 0.7811627 1.166923 0.9601106 0.5345702 0.9601106 0.5345774 0.949073 0.5509322 0.9966123 0.5617133 0.9966123 0.5617133 0.9826409 0.6586436 0.9966123 0.6586436 0.9826413 0.6711214 0.9826409 0.5060834 0.8055043 0.5260224 0.8055043 0.5260224 0.7811627 0.8561012 0.8055043 0.8561012 0.7811635 0.8738225 0.7811627 0.652119 0.8055043 0.652119 0.7811635 0.6617867 0.7811627 0.7017731 0.8055043 0.716562 0.8055043 0.716562 0.7811627 0.5380427 0.9966123 0.5499315 0.9966123 0.5499315 0.9826409 0.5509322 0.9966123 0.5509322 0.9826413 0.5617133 0.9826409 0.8195508 0.956074 0.8195508 0.9285138 0.8558193 0.9285128 0.377228 0.3467159 0.3527469 0.3467159 0.3527469 0.4009126 0.7660579 0.8055043 0.7660579 0.7811635 0.7840871 0.7811627 0.5620985 0.8055043 0.5620985 0.7811635 0.5801277 0.7811627 0.652119 0.8055043 0.6617867 0.8055043 0.6617867 0.7811627 0.596196 0.9966123 0.6031094 0.9966123 0.6031094 0.9826409 0.8226913 0.8055043 0.8404126 0.8055043 0.8404126 0.7811627 0.5385968 0.9969948 0.5385968 0.9822588 0.5505964 0.9822583 1.166959 0.9049224 0.5346059 0.9049224 0.5346131 0.8938848 0.503468 0.9969948 0.5154677 0.9969948 0.5154677 0.9822583 0.7176432 0.8055043 0.7176432 0.7811635 0.741222 0.7811627 0.526332 0.9966123 0.526332 0.9826413 0.5382209 0.9826409 0.5801412 0.8055043 0.5981704 0.8055043 0.5981704 0.7811627 1.166944 0.9269976 0.5345916 0.9269977 0.5345988 0.91596 0.5979509 0.8055043 0.5979509 0.7811635 0.6123254 0.7811627 0.5979509 0.8055043 0.5979509 0.7811635 0.6123254 0.7811627 0.7016853 0.8055043 0.7016853 0.7811627 0.7164756 0.7811627 0.7164756 0.8055043 0.5068611 0.8055043 0.5068611 0.7811627 0.5253906 0.7811627 0.5253906 0.8055043 0.7436775 0.8055043 0.7436775 0.7811627 0.7648154 0.7811627 0.7648154 0.8055043 0.5439705 0.8055043 0.5439705 0.7811627 0.5625 0.7811627 0.5625 0.8055043 0.6328377 0.8055043 0.6328377 0.7811627 0.6500693 0.7811627 0.6500693 0.8055043 0.5815681 0.8055043 0.5815681 0.7811627 0.5968467 0.7811627 0.5968467 0.8055043 0.8408455 0.8055043 0.8408455 0.7811627 0.8564453 0.7811627 0.8564453 0.8055043 0.8195508 0.956074 0.8195508 0.9285128 0.8558193 0.9285128 0.8558193 0.956074 0.7173103 0.8055043 0.7173103 0.7811627 0.7413779 0.7811627 0.7413779 0.8055043 0.5815681 0.8055043 0.5815681 0.7811627 0.5968467 0.7811627 0.5968467 0.8055043 0.8227791 0.8055043 0.8227791 0.7811627 0.840332 0.7811627 0.840332 0.8055043 0.5439705 0.8055043 0.5439705 0.7811627 0.5625 0.7811627 0.5625 0.8055043 0.5068611 0.8055043 0.5068611 0.7811627 0.5253906 0.7811627 0.5253906 0.8055043 0.5630135 0.8055043 0.5630135 0.7811627 0.5802451 0.7811627 0.5802451 0.8055043 0.7656502 0.8055043 0.7656502 0.7811627 0.7838584 0.7811627 0.7838584 0.8055043 0.7016853 0.8055043 0.7016853 0.7811627 0.7164756 0.7811627 0.7164756 0.8055043 0.5068611 0.8055043 0.5068611 0.7811627 0.5253906 0.7811627 0.5253906 0.8055043 0.7436775 0.8055043 0.7436775 0.7811627 0.7648154 0.7811627 0.7648154 0.8055043 0.5439705 0.8055043 0.5439705 0.7811627 0.5625 0.7811627 0.5625 0.8055043 0.6328377 0.8055043 0.6328377 0.7811627 0.6500693 0.7811627 0.6500693 0.8055043 0.5815681 0.8055043 0.5815681 0.7811627 0.5968467 0.7811627 0.5968467 0.8055043 0.8408455 0.8055043 0.8408455 0.7811627 0.8564453 0.7811627 0.8564453 0.8055043 0.8195508 0.956074 0.8195508 0.9285128 0.8558193 0.9285128 0.8558193 0.956074 0.7173103 0.8055043 0.7173103 0.7811627 0.7413779 0.7811627 0.7413779 0.8055043 0.5815681 0.8055043 0.5815681 0.7811627 0.5968467 0.7811627 0.5968467 0.8055043 0.8227791 0.8055043 0.8227791 0.7811627 0.840332 0.7811627 0.840332 0.8055043 0.5439705 0.8055043 0.5439705 0.7811627 0.5625 0.7811627 0.5625 0.8055043 0.5068611 0.8055043 0.5068611 0.7811627 0.5253906 0.7811627 0.5253906 0.8055043 0.5630135 0.8055043 0.5630135 0.7811627 0.5802451 0.7811627 0.5802451 0.8055043 0.7656502 0.8055043 0.7656502 0.7811627 0.7838584 0.7811627 0.7838584 0.8055043 0.5263194 0.9966123 0.5263194 0.9826409 0.5380859 0.9826409 0.5380859 0.9966123 0.5512217 0.9966123 0.5512217 0.9826409 0.5611172 0.9826409 0.5611172 0.9966123 0.695753 0.9966123 0.695753 0.9826409 0.7067871 0.9826409 0.7067871 0.9966123 0.7396983 0.9966123 0.7396983 0.9826409 0.7519531 0.9826409 0.7519531 0.9966123 0.5512217 0.9966123 0.5512217 0.9826409 0.5611172 0.9826409 0.5611172 0.9966123 0.6034678 0.9966123 0.6034678 0.9826409 0.6104336 0.9826409 0.6104336 0.9966123 0.5028819 0.9966123 0.5028819 0.9826409 0.5153809 0.9826409 0.5153809 0.9966123 0.822526 0.9601504 0.822526 0.9279717 0.8538287 0.9279717 0.8538287 0.9601504 0.695753 0.9966123 0.695753 0.9826409 0.7067871 0.9826409 0.7067871 0.9966123 0.5512217 0.9966123 0.5512217 0.9826409 0.5611172 0.9826409 0.5611172 0.9966123 0.5619639 0.9966123 0.5619639 0.9826409 0.5712891 0.9826409 0.5712891 0.9966123 0.695753 0.9966123 0.695753 0.9826409 0.7067871 0.9826409 0.7067871 0.9966123 0.5971202 0.9966123 0.5971202 0.9826409 0.6030273 0.9826409 0.6030273 0.9966123 0.5712891 0.9966123 0.5712891 0.9826409 0.5835782 0.9826409 0.5835782 0.9966123 0.5512217 0.9966123 0.5512217 0.9826409 0.5611172 0.9826409 0.5611172 0.9966123 0.6234873 0.9966123 0.6234873 0.9826409 0.6325684 0.9826409 0.6325684 0.9966123 0.5028819 0.9966123 0.5028819 0.9826409 0.5153809 0.9826409 0.5153809 0.9966123 0.5385264 0.9966123 0.5385264 0.9826409 0.550375 0.9826409 0.550375 0.9966123 0.6586436 0.9966123 0.6586436 0.9826409 0.6714688 0.9826409 0.6714688 0.9966123 0.7069834 0.9966123 0.7069834 0.9826409 0.7172852 0.9826409 0.7172852 0.9966123 0.5263194 0.9966123 0.5263194 0.9826409 0.5380859 0.9826409 0.5380859 0.9966123 0.5512217 0.9966123 0.5512217 0.9826409 0.5611172 0.9826409 0.5611172 0.9966123 0.695753 0.9966123 0.695753 0.9826409 0.7067871 0.9826409 0.7067871 0.9966123 0.7396983 0.9966123 0.7396983 0.9826409 0.7519531 0.9826409 0.7519531 0.9966123 0.5512217 0.9966123 0.5512217 0.9826409 0.5611172 0.9826409 0.5611172 0.9966123 0.6034678 0.9966123 0.6034678 0.9826409 0.6104336 0.9826409 0.6104336 0.9966123 0.5028819 0.9966123 0.5028819 0.9826409 0.5153809 0.9826409 0.5153809 0.9966123 0.822526 0.9601504 0.822526 0.9279717 0.8538287 0.9279717 0.8538287 0.9601504 0.695753 0.9966123 0.695753 0.9826409 0.7067871 0.9826409 0.7067871 0.9966123 0.5512217 0.9966123 0.5512217 0.9826409 0.5611172 0.9826409 0.5611172 0.9966123 0.5619639 0.9966123 0.5619639 0.9826409 0.5712891 0.9826409 0.5712891 0.9966123 0.695753 0.9966123 0.695753 0.9826409 0.7067871 0.9826409 0.7067871 0.9966123 0.5971202 0.9966123 0.5971202 0.9826409 0.6030273 0.9826409 0.6030273 0.9966123 0.5712891 0.9966123 0.5712891 0.9826409 0.5835782 0.9826409 0.5835782 0.9966123 0.5512217 0.9966123 0.5512217 0.9826409 0.5611172 0.9826409 0.5611172 0.9966123 0.6234873 0.9966123 0.6234873 0.9826409 0.6325684 0.9826409 0.6325684 0.9966123 0.5028819 0.9966123 0.5028819 0.9826409 0.5153809 0.9826409 0.5153809 0.9966123 0.5385264 0.9966123 0.5385264 0.9826409 0.550375 0.9826409 0.550375 0.9966123 0.6586436 0.9966123 0.6586436 0.9826409 0.6714688 0.9826409 0.6714688 0.9966123 0.7069834 0.9966123 0.7069834 0.9826409 0.7172852 0.9826409 0.7172852 0.9966123</float_array>
          <technique_common>
            <accessor source="#Plane_132-mesh-map-0-array" count="814" stride="2">
              <param name="S" type="float"/>
              <param name="T" type="float"/>
            </accessor>
          </technique_common>
        </source>
        <source id="Plane_132-mesh-colors-Col" name="Col">
          <float_array id="Plane_132-mesh-colors-Col-array" count="2136">1 1 1 1 1 1 1 1 1 1 1 1 0.9921569 0.2627451 0.2745098 1 1 0.2392157 0.2509804 1 0.9921569 0.2627451 0.2745098 1 0.9921569 0.2705882 0.2823529 1 0.8980392 0.6117647 0.6156863 1 0.8980392 0.6156863 0.6156863 1 1 0.2470588 0.2588235 1 0.9960784 0.2627451 0.2745098 1 0.9921569 0.2705882 0.2823529 1 1 0.2470588 0.2588235 1 0.8980392 0.6 0.6039216 1 1 0.2470588 0.2588235 1 1 0.2392157 0.2509804 1 1 0.2392157 0.2509804 1 1 0.2392157 0.2509804 1 1 0.2392157 0.2509804 1 1 0.2392157 0.2509804 1 1 0.2392157 0.2509804 1 1 0.2392157 0.2509804 1 1 0.2392157 0.2509804 1 1 0.2392157 0.2509804 1 1 0.2392157 0.2509804 1 1 0.2392157 0.2509804 1 1 0.2392157 0.2509804 1 1 1 1 1 1 1 1 1 1 1 1 1 1 1 1 1 1 1 1 1 1 1 1 1 0 0 0 1 0 0 0 1 0 0 0 1 1 0.9098039 0.509804 1 1 0.9098039 0.509804 1 1 0.9098039 0.509804 1 0 0 0 1 0 0 0 1 0 0 0 1 0.9921569 0.2627451 0.2745098 1 1 0.2392157 0.2509804 1 1 0.2392157 0.2509804 1 0.9921569 0.2705882 0.2823529 1 0.9960784 0.2627451 0.2745098 1 0.8980392 0.6117647 0.6156863 1 1 0.2470588 0.2588235 1 1 0.2470588 0.2588235 1 0.9960784 0.2627451 0.2745098 1 1 0.2470588 0.2588235 1 0.8980392 0.6039216 0.6039216 1 0.8980392 0.6 0.6039216 1 1 0.2392157 0.2509804 1 1 0.2392157 0.2509804 1 1 0.2392157 0.2509804 1 1 0.2392157 0.2509804 1 1 0.2392157 0.2509804 1 1 0.2392157 0.2509804 1 1 0.2392157 0.2509804 1 1 0.2392157 0.2509804 1 1 0.2392157 0.2509804 1 1 0.2392157 0.2509804 1 1 0.2392157 0.2509804 1 1 0.2392157 0.2509804 1 0.3490196 0.3490196 0.3490196 1 0.3607843 0.3607843 0.3607843 1 0.3607843 0.3607843 0.3607843 1 0 0 0 1 0 0 0 1 0 0 0 1 0.2941176 0.2941176 0.2941176 1 0.317647 0.317647 0.317647 1 0.3137255 0.3137255 0.3137255 1 0 0 0 1 0 0 0 1 0 0 0 1 0 0 0 1 0 0 0 1 0 0 0 1 0 0 0 1 0 0 0 1 0 0 0 1 1 1 1 1 1 1 1 1 1 1 1 1 1 1 1 1 1 1 1 1 1 1 1 1 0 0 0 1 0 0 0 1 0 0 0 1 0 0 0 1 0 0 0 1 0 0 0 1 0 0 0 1 0 0 0 1 0 0 0 1 0 0 0 1 0 0 0 1 0 0 0 1 0.09411764 0.09411764 0.09411764 1 0.1215686 0.1215686 0.1215686 1 0.1176471 0.1176471 0.1176471 1 1 1 1 1 1 1 1 1 1 1 1 1 1 1 1 1 1 1 1 1 1 1 1 1 1 1 1 1 1 1 1 1 1 1 1 1 1 1 1 1 1 1 1 1 1 1 1 1 1 1 1 1 1 1 1 1 1 1 1 1 1 1 1 1 1 1 1 1 1 1 1 1 0.3490196 0.3490196 0.3490196 1 0.3647059 0.3647059 0.3647059 1 0.3647059 0.3647059 0.3647059 1 0.5803922 0.5450981 0.5490196 1 0.5803922 0.5450981 0.5490196 1 0.5803922 0.5450981 0.5490196 1 1 1 1 1 1 1 1 1 1 1 1 1 1 1 1 1 1 1 1 1 1 1 1 1 1 1 1 1 1 1 1 1 1 1 1 1 1 1 1 1 1 1 1 1 1 1 1 1 0.9921569 0.9098039 0.5254902 1 0.8980392 0.8666667 0.7019608 1 1 0.9098039 0.5137255 1 1 1 1 1 1 1 1 1 1 1 1 1 0.9960784 0.9960784 0.9960784 1 0.9882353 0.9882353 0.9882353 1 0.9921569 0.9921569 0.9921569 1 1 1 1 1 1 1 1 1 1 1 1 1 1 1 1 1 1 1 1 1 1 1 1 1 0 0 0 1 0 0 0 1 0 0 0 1 0 0 0 1 0 0 0 1 0 0 0 1 0 0 0 1 0 0 0 1 0 0 0 1 0 0 0 1 0 0 0 1 0 0 0 1 0.3490196 0.3490196 0.3490196 1 0.3490196 0.3490196 0.3490196 1 0.3490196 0.3490196 0.3490196 1 0.5803922 0.5450981 0.5490196 1 0.5803922 0.5450981 0.5490196 1 0.5803922 0.5450981 0.5490196 1 0 0 0 1 0 0 0 1 0 0 0 1 1 1 1 1 1 1 1 1 1 1 1 1 0 0 0 1 0 0 0 1 0 0 0 1 0.9607843 0.9607843 0.9607843 1 0.9490196 0.9490196 0.9490196 1 0.9568628 0.9568628 0.9568628 1 0 0 0 1 0 0 0 1 0 0 0 1 0.2078431 0.2078431 0.2078431 1 0.2509804 0.2509804 0.2509804 1 0.2431373 0.2431373 0.2431373 1 0.3490196 0.3490196 0.3490196 1 0.3490196 0.3490196 0.3490196 1 0.3490196 0.3490196 0.3490196 1 1 1 1 1 1 1 1 1 1 1 1 1 0 0 0 1 0 0 0 1 0 0 0 1 1 1 1 1 1 1 1 1 1 1 1 1 1 1 1 1 1 1 1 1 1 1 1 1 0 0 0 1 0 0 0 1 0 0 0 1 0.5803922 0.5450981 0.5490196 1 0.5803922 0.5450981 0.5490196 1 0.5803922 0.5450981 0.5490196 1 0 0 0 1 0 0 0 1 0 0 0 1 0.2627451 0.2627451 0.2627451 1 0.2980392 0.2980392 0.2980392 1 0.2823529 0.2823529 0.2823529 1 1 1 1 1 1 1 1 1 1 1 1 1 0.5803922 0.5450981 0.5490196 1 0.5803922 0.5450981 0.5490196 1 0.5803922 0.5450981 0.5490196 1 0 0 0 1 0 0 0 1 0 0 0 1 0 0 0 1 0 0 0 1 0 0 0 1 1 1 1 1 1 1 1 1 1 1 1 1 1 1 1 1 1 1 1 1 1 1 1 1 1 1 1 1 1 1 1 1 1 1 1 1 0.9843137 0.9843137 0.9843137 1 0.9764706 0.9764706 0.9764706 1 0.9803922 0.9803922 0.9803922 1 0 0 0 1 0 0 0 1 0 0 0 1 0 0 0 1 0 0 0 1 0 0 0 1 1 1 1 1 1 1 1 1 1 1 1 1 1 1 1 1 1 1 1 1 1 1 1 1 1 1 1 1 1 1 1 1 1 1 1 1 1 1 1 1 1 1 1 1 1 1 1 1 1 1 1 1 1 1 1 1 1 1 1 1 0 0 0 1 0 0 0 1 0 0 0 1 1 1 1 1 1 1 1 1 1 1 1 1 0 0 0 1 0 0 0 1 0 0 0 1 0.5803922 0.5450981 0.5490196 1 0.5803922 0.5450981 0.5490196 1 0.5803922 0.5450981 0.5490196 1 0 0 0 1 0 0 0 1 0 0 0 1 1 1 1 1 1 1 1 1 1 1 1 1 0 0 0 1 0 0 0 1 0 0 0 1 1 1 1 1 1 1 1 1 1 1 1 1 0.5803922 0.5450981 0.5490196 1 0.5803922 0.5450981 0.5490196 1 0.5803922 0.5450981 0.5490196 1 1 1 1 1 1 1 1 1 1 1 1 1 1 1 1 1 1 1 1 1 1 1 1 1 1 1 1 1 1 1 1 1 1 1 1 1 1 1 1 1 1 1 1 1 1 1 1 1 1 1 1 1 1 1 1 1 1 1 1 1 0 0 0 1 0 0 0 1 0 0 0 1 1 0.9098039 0.509804 1 1 0.9098039 0.509804 1 1 0.9098039 0.509804 1 0 0 0 1 0 0 0 1 0 0 0 1 0.3490196 0.3490196 0.3490196 1 0.3490196 0.3490196 0.3490196 1 0.3607843 0.3607843 0.3607843 1 0 0 0 1 0 0 0 1 0 0 0 1 0.2941176 0.2941176 0.2941176 1 0.2941176 0.2941176 0.2941176 1 0.317647 0.317647 0.317647 1 0 0 0 1 0 0 0 1 0 0 0 1 0 0 0 1 0 0 0 1 0 0 0 1 0 0 0 1 0 0 0 1 0 0 0 1 1 1 1 1 1 1 1 1 1 1 1 1 1 1 1 1 1 1 1 1 1 1 1 1 0 0 0 1 0 0 0 1 0 0 0 1 0 0 0 1 0 0 0 1 0 0 0 1 0 0 0 1 0 0 0 1 0 0 0 1 0 0 0 1 0 0 0 1 0 0 0 1 0.09411764 0.09411764 0.09411764 1 0.0980392 0.0980392 0.0980392 1 0.1215686 0.1215686 0.1215686 1 1 1 1 1 1 1 1 1 1 1 1 1 1 1 1 1 1 1 1 1 1 1 1 1 1 1 1 1 1 1 1 1 1 1 1 1 1 1 1 1 1 1 1 1 1 1 1 1 1 1 1 1 1 1 1 1 1 1 1 1 1 1 1 1 1 1 1 1 1 1 1 1 0.3490196 0.3490196 0.3490196 1 0.3490196 0.3490196 0.3490196 1 0.3647059 0.3647059 0.3647059 1 0.5803922 0.5450981 0.5490196 1 0.5803922 0.5450981 0.5490196 1 0.5803922 0.5450981 0.5490196 1 0.9921569 0.9098039 0.5254902 1 0.8980392 0.8588235 0.7098039 1 0.8980392 0.8666667 0.7019608 1 1 1 1 1 1 1 1 1 1 1 1 1 0.9960784 0.9960784 0.9960784 1 0.9921569 0.9921569 0.9921569 1 0.9882353 0.9882353 0.9882353 1 1 1 1 1 1 1 1 1 1 1 1 1 1 1 1 1 1 1 1 1 1 1 1 1 0 0 0 1 0 0 0 1 0 0 0 1 0 0 0 1 0 0 0 1 0 0 0 1 0 0 0 1 0 0 0 1 0 0 0 1 0 0 0 1 0 0 0 1 0 0 0 1 0.3490196 0.3490196 0.3490196 1 0.3490196 0.3490196 0.3490196 1 0.3490196 0.3490196 0.3490196 1 0.5803922 0.5450981 0.5490196 1 0.5803922 0.5450981 0.5490196 1 0.5803922 0.5450981 0.5490196 1 0 0 0 1 0 0 0 1 0 0 0 1 1 1 1 1 1 1 1 1 1 1 1 1 0 0 0 1 0 0 0 1 0 0 0 1 0.9607843 0.9607843 0.9607843 1 0.9568628 0.9568628 0.9568628 1 0.9490196 0.9490196 0.9490196 1 0 0 0 1 0 0 0 1 0 0 0 1 0.2078431 0.2078431 0.2078431 1 0.2235294 0.2235294 0.2235294 1 0.2509804 0.2509804 0.2509804 1 0.3490196 0.3490196 0.3490196 1 0.3490196 0.3490196 0.3490196 1 0.3490196 0.3490196 0.3490196 1 1 1 1 1 1 1 1 1 1 1 1 1 0 0 0 1 0 0 0 1 0 0 0 1 1 1 1 1 1 1 1 1 1 1 1 1 1 1 1 1 1 1 1 1 1 1 1 1 0 0 0 1 0 0 0 1 0 0 0 1 0.5803922 0.5450981 0.5490196 1 0.5803922 0.5450981 0.5490196 1 0.5803922 0.5450981 0.5490196 1 0 0 0 1 0 0 0 1 0 0 0 1 0.2627451 0.2627451 0.2627451 1 0.2666667 0.2666667 0.2666667 1 0.2980392 0.2980392 0.2980392 1 1 1 1 1 1 1 1 1 1 1 1 1 0.5803922 0.5450981 0.5490196 1 0.5803922 0.5450981 0.5490196 1 0.5803922 0.5450981 0.5490196 1 0 0 0 1 0 0 0 1 0 0 0 1 0 0 0 1 0 0 0 1 0 0 0 1 1 1 1 1 1 1 1 1 1 1 1 1 1 1 1 1 1 1 1 1 1 1 1 1 1 1 1 1 1 1 1 1 1 1 1 1 0.9843137 0.9843137 0.9843137 1 0.9764706 0.9764706 0.9764706 1 0.9764706 0.9764706 0.9764706 1 0 0 0 1 0 0 0 1 0 0 0 1 0 0 0 1 0 0 0 1 0 0 0 1 1 1 1 1 1 1 1 1 1 1 1 1 1 1 1 1 1 1 1 1 1 1 1 1 1 1 1 1 1 1 1 1 1 1 1 1 1 1 1 1 1 1 1 1 1 1 1 1 1 1 1 1 1 1 1 1 1 1 1 1 0 0 0 1 0 0 0 1 0 0 0 1 1 1 1 1 1 1 1 1 1 1 1 1 0 0 0 1 0 0 0 1 0 0 0 1 0.5803922 0.5450981 0.5490196 1 0.5803922 0.5450981 0.5490196 1 0.5803922 0.5450981 0.5490196 1 0 0 0 1 0 0 0 1 0 0 0 1 1 1 1 1 1 1 1 1 1 1 1 1 0 0 0 1 0 0 0 1 0 0 0 1 1 1 1 1 1 1 1 1 1 1 1 1 0.5803922 0.5450981 0.5490196 1 0.5803922 0.5450981 0.5490196 1 0.5803922 0.5450981 0.5490196 1 1 1 1 1 1 1 1 1 1 1 1 1 1 1 1 1 1 1 1 1 1 1 1 1</float_array>
          <technique_common>
            <accessor source="#Plane_132-mesh-colors-Col-array" count="534" stride="4">
              <param name="R" type="float"/>
              <param name="G" type="float"/>
              <param name="B" type="float"/>
              <param name="A" type="float"/>
            </accessor>
          </technique_common>
        </source>
        <vertices id="Plane_132-mesh-vertices">
          <input semantic="POSITION" source="#Plane_132-mesh-positions"/>
        </vertices>
        <triangles material="architraves-material" count="24">
          <input semantic="VERTEX" source="#Plane_132-mesh-vertices" offset="0"/>
          <input semantic="NORMAL" source="#Plane_132-mesh-normals" offset="1"/>
          <input semantic="TEXCOORD" source="#Plane_132-mesh-map-0" offset="2" set="0"/>
          <input semantic="COLOR" source="#Plane_132-mesh-colors-Col" offset="3" set="0"/>
          <p>51 1 3 3 58 1 4 4 57 1 5 5 127 2 6 6 58 2 7 7 126 2 8 8 52 3 9 9 59 3 10 10 127 3 11 11 52 4 12 12 57 4 13 13 60 4 14 14 128 5 15 15 130 6 16 16 129 7 17 17 249 8 18 18 131 8 19 19 130 8 20 20 251 9 21 21 131 10 22 22 250 11 23 23 251 12 24 24 129 13 25 25 132 14 26 26 51 24 42 42 126 25 43 43 58 26 44 44 127 27 45 45 59 28 46 46 58 29 47 47 52 30 48 48 60 31 49 49 59 32 50 50 52 33 51 51 51 33 52 52 57 33 53 53 128 34 54 54 249 35 55 55 130 36 56 56 249 37 57 57 250 37 58 58 131 37 59 59 251 38 60 60 132 38 61 61 131 38 62 62 251 39 63 63 128 39 64 64 129 39 65 65 56 40 66 66 57 40 67 67 53 40 68 68 60 67 123 123 55 67 124 124 59 67 125 125 53 86 168 168 58 86 169 169 54 86 170 170 55 96 192 192 58 96 193 193 59 96 194 194 56 138 315 315 60 138 316 316 57 138 317 317 60 153 372 372 56 153 373 373 55 153 374 374 53 164 405 405 57 164 406 406 58 164 407 407 55 168 429 429 54 168 430 430 58 168 431 431</p>
        </triangles>
        <triangles material="industrial-material" count="12">
          <input semantic="VERTEX" source="#Plane_132-mesh-vertices" offset="0"/>
          <input semantic="NORMAL" source="#Plane_132-mesh-normals" offset="1"/>
          <input semantic="TEXCOORD" source="#Plane_132-mesh-map-0" offset="2" set="0"/>
          <input semantic="COLOR" source="#Plane_132-mesh-colors-Col" offset="3" set="0"/>
          <p>262 68 126 126 257 69 127 127 263 70 128 128 258 87 171 171 253 88 172 172 259 89 173 173 261 101 210 210 256 102 211 211 262 68 212 212 260 106 222 222 255 107 223 223 261 101 224 224 259 89 273 273 254 126 274 274 260 106 275 275 263 70 288 288 252 131 289 289 258 87 290 290 262 68 375 375 256 102 376 376 257 69 377 377 258 87 408 408 252 131 409 409 253 88 410 410 261 101 447 447 255 107 448 448 256 102 449 449 260 106 459 459 254 126 460 460 255 107 461 461 259 89 510 510 253 88 511 511 254 126 512 512 263 70 525 525 257 69 526 526 252 131 527 527</p>
        </triangles>
        <triangles material="slabs_large-material" count="22">
          <input semantic="VERTEX" source="#Plane_132-mesh-vertices" offset="0"/>
          <input semantic="NORMAL" source="#Plane_132-mesh-normals" offset="1"/>
          <input semantic="TEXCOORD" source="#Plane_132-mesh-map-0" offset="2" set="0"/>
          <input semantic="COLOR" source="#Plane_132-mesh-colors-Col" offset="3" set="0"/>
          <p>264 18 30 30 272 19 31 31 279 20 32 32 276 56 105 105 269 57 106 106 268 58 107 107 270 59 108 108 271 60 109 109 264 18 110 110 269 57 111 111 278 61 112 112 270 59 113 113 274 62 114 114 265 63 115 115 273 64 116 116 274 62 117 117 267 65 118 118 266 66 119 119 279 20 120 120 273 64 121 121 265 63 122 122 264 40 129 129 279 40 130 130 270 40 131 131 265 40 132 132 266 40 133 133 268 40 134 134 266 71 135 135 267 71 136 136 268 71 137 137 268 72 138 138 269 73 139 139 270 74 140 140 265 40 201 201 270 40 202 202 279 40 203 203 275 119 252 252 268 58 253 253 267 65 254 254 264 18 303 303 271 60 304 304 272 19 305 305 276 56 354 354 277 152 355 355 269 57 356 356 270 59 357 357 278 61 358 358 271 60 359 359 269 57 360 360 277 152 361 361 278 61 362 362 274 62 363 363 266 66 364 364 265 63 365 365 274 62 366 366 275 119 367 367 267 65 368 368 279 20 369 369 272 19 370 370 273 64 371 371 265 40 438 438 268 40 439 439 270 40 440 440 275 119 489 489 276 56 490 490 268 58 491 491</p>
        </triangles>
        <triangles material="clutter_commercial-material" count="144">
          <input semantic="VERTEX" source="#Plane_132-mesh-vertices" offset="0"/>
          <input semantic="NORMAL" source="#Plane_132-mesh-normals" offset="1"/>
          <input semantic="TEXCOORD" source="#Plane_132-mesh-map-0" offset="2" set="0"/>
          <input semantic="COLOR" source="#Plane_132-mesh-colors-Col" offset="3" set="0"/>
          <p>128 22 36 36 250 22 37 37 249 22 38 38 127 75 141 141 51 75 142 142 52 75 143 143 128 137 309 309 251 137 310 310 250 137 311 311 127 154 378 378 126 154 379 379 51 154 380 380 280 49 534 87 282 49 536 87 281 49 535 87 280 49 534 87 283 49 537 87 282 49 536 87 284 49 538 87 286 49 540 87 285 49 539 87 284 49 538 87 287 49 541 87 286 49 540 87 288 49 542 87 290 49 544 87 289 49 543 87 288 49 542 87 291 49 545 87 290 49 544 87 292 49 546 87 294 49 548 87 293 49 547 87 292 49 546 87 295 49 549 87 294 49 548 87 296 49 550 87 298 49 552 87 297 49 551 87 296 49 550 87 299 49 553 87 298 49 552 87 300 49 554 87 302 49 556 87 301 49 555 87 300 49 554 87 303 49 557 87 302 49 556 87 304 49 558 87 306 49 560 87 305 49 559 87 304 49 558 87 307 49 561 87 306 49 560 87 308 118 562 249 309 118 563 249 310 118 564 249 308 118 562 249 310 118 564 249 311 118 565 249 312 49 566 87 314 49 568 87 313 49 567 87 312 49 566 87 315 49 569 87 314 49 568 87 316 49 570 87 318 49 572 87 317 49 571 87 316 49 570 87 319 49 573 87 318 49 572 87 320 49 574 87 322 49 576 87 321 49 575 87 320 49 574 87 323 49 577 87 322 49 576 87 324 49 578 87 326 49 580 87 325 49 579 87 324 49 578 87 327 49 581 87 326 49 580 87 328 49 582 87 330 49 584 87 329 49 583 87 328 49 582 87 331 49 585 87 330 49 584 87 332 49 586 87 334 49 588 87 333 49 587 87 332 49 586 87 335 49 589 87 334 49 588 87 336 49 590 87 338 49 592 87 337 49 591 87 336 49 590 87 339 49 593 87 338 49 592 87 340 77 594 147 342 77 596 147 341 77 595 147 340 77 594 147 343 77 597 147 342 77 596 147 344 77 598 147 346 77 600 147 345 77 599 147 344 77 598 147 347 77 601 147 346 77 600 147 348 77 602 147 350 77 604 147 349 77 603 147 348 77 602 147 351 77 605 147 350 77 604 147 352 77 606 147 354 77 608 147 353 77 607 147 352 77 606 147 355 77 609 147 354 77 608 147 356 77 610 147 358 77 612 147 357 77 611 147 356 77 610 147 359 77 613 147 358 77 612 147 360 77 614 147 362 77 616 147 361 77 615 147 360 77 614 147 363 77 617 147 362 77 616 147 364 77 618 147 366 77 620 147 365 77 619 147 364 77 618 147 367 77 621 147 366 77 620 147 368 76 622 144 369 76 623 144 370 76 624 144 368 76 622 144 370 76 624 144 371 76 625 144 372 77 626 147 374 77 628 147 373 77 627 147 372 77 626 147 375 77 629 147 374 77 628 147 376 77 630 147 378 77 632 147 377 77 631 147 376 77 630 147 379 77 633 147 378 77 632 147 380 77 634 147 382 77 636 147 381 77 635 147 380 77 634 147 383 77 637 147 382 77 636 147 384 77 638 147 386 77 640 147 385 77 639 147 384 77 638 147 387 77 641 147 386 77 640 147 388 77 642 147 390 77 644 147 389 77 643 147 388 77 642 147 391 77 645 147 390 77 644 147 392 77 646 147 394 77 648 147 393 77 647 147 392 77 646 147 395 77 649 147 394 77 648 147 396 77 650 147 398 77 652 147 397 77 651 147 396 77 650 147 399 77 653 147 398 77 652 147 400 123 654 264 402 123 656 264 401 123 655 264 400 123 654 264 403 123 657 264 402 123 656 264 404 123 658 264 406 123 660 264 405 123 659 264 404 123 658 264 407 123 661 264 406 123 660 264 408 123 662 264 410 123 664 264 409 123 663 264 408 123 662 264 411 123 665 264 410 123 664 264 412 123 666 264 414 123 668 264 413 123 667 264 412 123 666 264 415 123 669 264 414 123 668 264 416 123 670 264 418 123 672 264 417 123 671 264 416 123 670 264 419 123 673 264 418 123 672 264 420 123 674 264 422 123 676 264 421 123 675 264 420 123 674 264 423 123 677 264 422 123 676 264 424 123 678 264 426 123 680 264 425 123 679 264 424 123 678 264 427 123 681 264 426 123 680 264 428 92 682 180 429 92 683 180 430 92 684 180 428 92 682 180 430 92 684 180 431 92 685 180 432 123 686 264 434 123 688 264 433 123 687 264 432 123 686 264 435 123 689 264 434 123 688 264 436 123 690 264 438 123 692 264 437 123 691 264 436 123 690 264 439 123 693 264 438 123 692 264 440 123 694 264 442 123 696 264 441 123 695 264 440 123 694 264 443 123 697 264 442 123 696 264 444 123 698 264 446 123 700 264 445 123 699 264 444 123 698 264 447 123 701 264 446 123 700 264 448 123 702 264 450 123 704 264 449 123 703 264 448 123 702 264 451 123 705 264 450 123 704 264 452 123 706 264 454 123 708 264 453 123 707 264 452 123 706 264 455 123 709 264 454 123 708 264 456 123 710 264 458 123 712 264 457 123 711 264 456 123 710 264 459 123 713 264 458 123 712 264 460 123 714 264 462 123 716 264 461 123 715 264 460 123 714 264 463 123 717 264 462 123 716 264 464 123 718 264 466 123 720 264 465 123 719 264 464 123 718 264 467 123 721 264 466 123 720 264 468 123 722 264 470 123 724 264 469 123 723 264 468 123 722 264 471 123 725 264 470 123 724 264 472 123 726 264 474 123 728 264 473 123 727 264 472 123 726 264 475 123 729 264 474 123 728 264 476 123 730 264 478 123 732 264 477 123 731 264 476 123 730 264 479 123 733 264 478 123 732 264 480 90 734 174 481 90 735 174 482 90 736 174 480 90 734 174 482 90 736 174 483 90 737 174 484 90 738 174 485 90 739 174 486 90 740 174 484 90 738 174 486 90 740 174 487 90 741 174 488 90 742 174 489 90 743 174 490 90 744 174 488 90 742 174 490 90 744 174 491 90 745 174 492 90 746 174 493 90 747 174 494 90 748 174 492 90 746 174 494 90 748 174 495 90 749 174 496 90 750 174 497 90 751 174 498 90 752 174 496 90 750 174 498 90 752 174 499 90 753 174 500 90 754 174 501 90 755 174 502 90 756 174 500 90 754 174 502 90 756 174 503 90 757 174 504 90 758 174 505 90 759 174 506 90 760 174 504 90 758 174 506 90 760 174 507 90 761 174 508 84 762 162 509 84 763 162 510 84 764 162 508 84 762 162 510 84 764 162 511 84 765 162 512 90 766 174 513 90 767 174 514 90 768 174 512 90 766 174 514 90 768 174 515 90 769 174 516 90 770 174 517 90 771 174 518 90 772 174 516 90 770 174 518 90 772 174 519 90 773 174 520 90 774 174 521 90 775 174 522 90 776 174 520 90 774 174 522 90 776 174 523 90 777 174 524 90 778 174 525 90 779 174 526 90 780 174 524 90 778 174 526 90 780 174 527 90 781 174 528 90 782 174 529 90 783 174 530 90 784 174 528 90 782 174 530 90 784 174 531 90 785 174 532 90 786 174 533 90 787 174 534 90 788 174 532 90 786 174 534 90 788 174 535 90 789 174 536 90 790 174 537 90 791 174 538 90 792 174 536 90 790 174 538 90 792 174 539 90 793 174 540 90 794 174 541 90 795 174 542 90 796 174 540 90 794 174 542 90 796 174 543 90 797 174 544 90 798 174 545 90 799 174 546 90 800 174 544 90 798 174 546 90 800 174 547 90 801 174 548 90 802 174 549 90 803 174 550 90 804 174 548 90 802 174 550 90 804 174 551 90 805 174 552 90 806 174 553 90 807 174 554 90 808 174 552 90 806 174 554 90 808 174 555 90 809 174 556 90 810 174 557 90 811 174 558 90 812 174 556 90 810 174 558 90 812 174 559 90 813 174</p>
        </triangles>
      </mesh>
    </geometry>
    <geometry id="Plane_025-mesh" name="Plane.025">
      <mesh>
        <source id="Plane_025-mesh-positions">
          <float_array id="Plane_025-mesh-positions-array" count="120">-0.1897566 -0.1878792 -0.2601395 -0.1897566 -0.1878792 6.625603 -0.1802455 0.2119238 -0.2601395 -0.1802455 0.2119238 6.625603 0.210041 -0.1973524 -0.2601395 0.210041 -0.1973524 6.625603 0.219552 0.2024505 -0.2601395 0.219552 0.2024505 6.625603 -3.07518 0.2817111 8.424508 -3.075255 -0.2974851 8.424508 3.011014 -0.29782 8.424508 3.011014 0.2817108 8.424508 2.801404 0.2817432 6.5271 -2.865565 0.2816733 6.5271 -2.865538 -0.2974528 6.5271 2.801394 -0.2974314 6.5271 -0.3177967 0.3237525 0.5792008 -0.4517549 2.31996e-4 0.5792008 -0.3177103 -0.3232778 0.5792008 0.0057832 -0.4573062 0.5792008 0.3293145 -0.3233587 0.5792008 0.4633267 1.94192e-4 0.5792008 0.3294063 0.3238388 0.5792008 0.005767047 0.4577539 0.5792008 -0.5174905 0.5234463 0 -0.7341833 2.32011e-4 0 -0.5174689 -0.5229932 0 0.005788564 -0.7397399 0 0.5290353 -0.5229932 0 0.7457821 2.53528e-4 0 0.5291001 0.5235326 0 0.005831778 0.7402039 0 -0.3177967 0.3237525 0.5792008 -0.4517549 2.31996e-4 0.5792008 -0.3177103 -0.3232778 0.5792008 0.0057832 -0.4573062 0.5792008 0.3293145 -0.3233587 0.5792008 0.4633267 1.94192e-4 0.5792008 0.3294063 0.3238388 0.5792008 0.005767047 0.4577539 0.5792008</float_array>
          <technique_common>
            <accessor source="#Plane_025-mesh-positions-array" count="40" stride="3">
              <param name="X" type="float"/>
              <param name="Y" type="float"/>
              <param name="Z" type="float"/>
            </accessor>
          </technique_common>
        </source>
        <source id="Plane_025-mesh-normals">
          <float_array id="Plane_025-mesh-normals-array" count="126">-0.9997172 0.02378261 0 0.02368849 0.9997195 0 0.9997172 -0.02378255 0 -0.02368855 -0.9997195 0 0 0 1 -0.9939472 1.30243e-4 -0.1098593 -5.50188e-5 -1 -2.31025e-5 0 1 -1.99065e-5 1.45293e-7 0 -1 0.9939528 0 -0.109809 -0.6355226 -0.6355963 0.4383246 -2.75087e-5 -0.8988401 0.4382767 -1.31203e-4 -0.8988316 0.4382943 -0.6355904 0.6355588 0.4382807 -0.8988411 -2.39359e-5 0.4382749 -0.8988213 -9.67265e-5 0.4383152 -2.02692e-4 0.8988263 0.4383051 -0.6355853 0.6355703 0.4382714 0.8988381 -6.83602e-5 0.4382808 0.6355407 0.6355472 0.4383695 0.8988222 -2.15006e-4 0.4383133 0.6355334 -0.6356202 0.4382743 -0.6355631 -0.6355594 0.4383193 -5.69641e-5 0.8988412 0.4382744 0.635602 -0.6355741 0.4382416 0 0 1 0.6355774 0.6355832 0.4382643 -6.87252e-7 0 1 3.43626e-7 0 1 2.3695e-4 2.37272e-4 1 2.36958e-4 2.37264e-4 1 2.36935e-4 2.37288e-4 1 -0.9997172 0.02378261 0 0.02368849 0.9997195 0 0.9997172 -0.02378255 0 -0.02368855 -0.9997194 0 0 0 1 -0.9939531 -4.57201e-5 -0.1098061 3.78649e-6 -1 -2.05239e-4 -1.2327e-5 1 1.84703e-5 0 0 -1 0.9939534 -1.8114e-5 -0.1098034</float_array>
          <technique_common>
            <accessor source="#Plane_025-mesh-normals-array" count="42" stride="3">
              <param name="X" type="float"/>
              <param name="Y" type="float"/>
              <param name="Z" type="float"/>
            </accessor>
          </technique_common>
        </source>
        <source id="Plane_025-mesh-map-0">
          <float_array id="Plane_025-mesh-map-0-array" count="252">0.9539948 0.4793928 0.9631764 0.6374918 0.9539948 0.6374911 0.9549632 5.95618e-6 0.9641358 0.1580898 0.9549632 0.1580958 0.9496811 0.7461823 0.9588634 0.9042884 0.9496811 0.9042884 0.9588634 0.7461826 0.9680345 0.9042796 0.9588634 0.9042731 0.9048434 0.7461853 0.9181432 0.8859321 0.9048364 0.885932 0.9906589 0.1028035 0.977369 0.1462672 0.9773676 0.1027504 0.1647225 0.8064953 0.2082853 0.6715888 0.2082853 0.8112921 0.1211599 0.6715888 0.1647226 0.8065018 0.12116 0.8112983 0.2420966 0.8013157 0.2553936 0.9314317 0.2420966 0.9314323 0.9889243 0.08556234 0.9756217 0.041951 0.9889243 0.04198431 0.4206997 0.8612568 0.4216075 0.8652002 0.4207029 0.865246 0.6142985 0.5603641 0.6152106 0.564376 0.6143032 0.5643756 0.6900346 0.5100722 0.6891354 0.5035665 0.6900379 0.5061035 0.5258613 0.5960164 0.5249457 0.6000309 0.5249516 0.5960171 0.4216075 0.8652002 0.4206997 0.8692792 0.4207029 0.865246 0.6143032 0.5643756 0.615203 0.5708639 0.6142985 0.5683868 0.6900379 0.5141262 0.6891301 0.5099856 0.6900346 0.5100722 0.5258519 0.5895292 0.5249516 0.5960171 0.5249457 0.5920055 0.612958 0.5664747 0.6139058 0.557888 0.6139059 0.5681369 0.4206997 0.8612568 0.4216022 0.8587478 0.4216075 0.8652002 0.6142985 0.5603641 0.615203 0.5578877 0.6152106 0.564376 0.6900346 0.5100722 0.6891301 0.5099856 0.6891354 0.5035665 0.5258613 0.5960164 0.5258519 0.6025061 0.5249457 0.6000309 0.4216075 0.8652002 0.4216022 0.8717229 0.4206997 0.8692792 0.6143032 0.5643756 0.6152106 0.564376 0.615203 0.5708639 0.6900379 0.5141262 0.6891353 0.5165397 0.6891301 0.5099856 0.5258519 0.5895292 0.5258613 0.5960164 0.5249516 0.5960171 0.612958 0.5622286 0.6133506 0.5586733 0.612958 0.5664747 0.6133506 0.5586733 0.6139058 0.557888 0.612958 0.5664747 0.6139058 0.557888 0.6142984 0.5603354 0.6139059 0.5681369 0.6142984 0.5603354 0.6142985 0.5645793 0.6139059 0.5681369 0.6139059 0.5681369 0.6133505 0.5689229 0.612958 0.5664747 0.9539948 0.4793928 0.9631764 0.4793934 0.9631764 0.6374918 0.9549632 5.95618e-6 0.9641358 -1.75182e-7 0.9641358 0.1580898 0.9496811 0.7461823 0.9588634 0.7461823 0.9588634 0.9042884 0.9588634 0.7461826 0.9680345 0.7461891 0.9680345 0.9042796 0.9048434 0.7461853 0.9181432 0.7461841 0.9181432 0.8859321 0.9906589 0.1028035 0.9906589 0.1463204 0.977369 0.1462672 0.1647225 0.8064953 0.1647223 0.6764151 0.2082853 0.6715888 0.1211599 0.6715888 0.1647226 0.6764153 0.1647226 0.8065018 0.2420966 0.8013157 0.2553957 0.8013164 0.2553936 0.9314317 0.9889243 0.08556234 0.9756295 0.08552902 0.9756217 0.041951</float_array>
          <technique_common>
            <accessor source="#Plane_025-mesh-map-0-array" count="126" stride="2">
              <param name="S" type="float"/>
              <param name="T" type="float"/>
            </accessor>
          </technique_common>
        </source>
        <source id="Plane_025-mesh-colors-Attribute" name="Attribute">
          <float_array id="Plane_025-mesh-colors-Attribute-array" count="504">1 1 1 1 1 1 1 1 1 1 1 1 1 1 1 1 1 1 1 1 1 1 1 1 1 1 1 1 1 1 1 1 1 1 1 1 1 1 1 1 1 1 1 1 1 1 1 1 1 1 1 1 1 1 1 1 1 1 1 1 1 1 1 1 1 1 1 1 1 1 1 1 1 1 1 1 1 1 1 1 1 1 1 1 1 1 1 1 1 1 1 1 1 1 1 1 1 1 1 1 1 1 1 1 1 1 1 1 1 1 1 1 1 1 1 1 1 1 1 1 1 1 1 1 1 1 1 1 1 1 1 1 1 1 1 1 1 1 1 1 1 1 1 1 1 1 1 1 1 1 1 1 1 1 1 1 1 1 1 1 1 1 1 1 1 1 1 1 1 1 1 1 1 1 1 1 1 1 1 1 1 1 1 1 1 1 1 1 1 1 1 1 1 1 1 1 1 1 1 1 1 1 1 1 1 1 1 1 1 1 1 1 1 1 1 1 1 1 1 1 1 1 1 1 1 1 1 1 1 1 1 1 1 1 1 1 1 1 1 1 1 1 1 1 1 1 1 1 1 1 1 1 1 1 1 1 1 1 1 1 1 1 1 1 1 1 1 1 1 1 1 1 1 1 1 1 1 1 1 1 1 1 1 1 1 1 1 1 1 1 1 1 1 1 1 1 1 1 1 1 1 1 1 1 1 1 1 1 1 1 1 1 1 1 1 1 1 1 1 1 1 1 1 1 1 1 1 1 1 1 1 1 1 1 1 1 1 1 1 1 1 1 1 1 1 1 1 1 1 1 1 1 1 1 1 1 1 1 1 1 1 1 1 1 1 1 1 1 1 1 1 1 1 1 1 1 1 1 1 1 1 1 1 1 1 1 1 1 1 1 1 1 1 1 1 1 1 1 1 1 1 1 1 1 1 1 1 1 1 1 1 1 1 1 1 1 1 1 1 1 1 1 1 1 1 1 1 1 1 1 1 1 1 1 1 1 1 1 1 1 1 1 1 1 1 1 1 1 1 1 1 1 1 1 1 1 1 1 1 1 1 1 1 1 1 1 1 1 1 1 1 1 1 1 1 1 1 1 1 1 1 1 1 1 1 1 1 1 1 1 1 1 1 1 1 1 1 1 1 1 1 1 1 1</float_array>
          <technique_common>
            <accessor source="#Plane_025-mesh-colors-Attribute-array" count="126" stride="4">
              <param name="R" type="float"/>
              <param name="G" type="float"/>
              <param name="B" type="float"/>
              <param name="A" type="float"/>
            </accessor>
          </technique_common>
        </source>
        <vertices id="Plane_025-mesh-vertices">
          <input semantic="POSITION" source="#Plane_025-mesh-positions"/>
        </vertices>
        <triangles material="industrial-material" count="42">
          <input semantic="VERTEX" source="#Plane_025-mesh-vertices" offset="0"/>
          <input semantic="NORMAL" source="#Plane_025-mesh-normals" offset="1"/>
          <input semantic="TEXCOORD" source="#Plane_025-mesh-map-0" offset="2" set="0"/>
          <input semantic="COLOR" source="#Plane_025-mesh-colors-Attribute" offset="3" set="0"/>
          <p>1 0 0 0 2 0 1 1 0 0 2 2 3 1 3 3 6 1 4 4 2 1 5 5 7 2 6 6 4 2 7 7 6 2 8 8 5 3 9 9 0 3 10 10 4 3 11 11 8 4 12 12 10 4 13 13 11 4 14 14 8 5 15 15 14 5 16 16 9 5 17 17 14 6 18 18 10 6 19 19 9 6 20 20 11 7 21 21 13 7 22 22 8 7 23 23 12 8 24 24 14 8 25 25 13 8 26 26 15 9 27 27 11 9 28 28 10 9 29 29 18 10 30 30 27 11 31 31 19 12 32 32 16 13 33 33 25 14 34 34 17 15 35 35 23 16 36 36 24 17 37 37 16 13 38 38 29 18 39 39 22 19 40 40 21 20 41 41 27 11 42 42 20 21 43 43 19 12 44 44 17 15 45 45 26 22 46 46 18 10 47 47 22 19 48 48 31 23 49 49 23 16 50 50 28 24 51 51 21 20 52 52 20 21 53 53 39 25 54 54 34 25 55 55 37 25 56 56 18 10 57 57 26 22 58 58 27 11 59 59 16 13 60 60 24 17 61 61 25 14 62 62 23 16 63 63 31 23 64 64 24 17 65 65 29 18 66 66 30 26 67 67 22 19 68 68 27 11 69 69 28 24 70 70 20 21 71 71 17 15 72 72 25 14 73 73 26 22 74 74 22 19 75 75 30 26 76 76 31 23 77 77 28 24 78 78 29 18 79 79 21 20 80 80 32 27 81 81 33 27 82 82 39 27 83 83 33 4 84 84 34 4 85 85 39 4 86 86 34 4 87 87 35 4 88 88 37 4 89 89 35 28 90 90 36 28 91 91 37 28 92 92 37 29 93 93 38 30 94 94 39 31 95 95 1 32 96 96 3 32 97 97 2 32 98 98 3 33 99 99 7 33 100 100 6 33 101 101 7 34 102 102 5 34 103 103 4 34 104 104 5 35 105 105 1 35 106 106 0 35 107 107 8 36 108 108 9 36 109 109 10 36 110 110 8 37 111 111 13 37 112 112 14 37 113 113 14 38 114 114 15 38 115 115 10 38 116 116 11 39 117 117 12 39 118 118 13 39 119 119 12 40 120 120 15 40 121 121 14 40 122 122 15 41 123 123 12 41 124 124 11 41 125 125</p>
        </triangles>
      </mesh>
    </geometry>
  </library_geometries>
  <library_visual_scenes>
    <visual_scene id="Scene" name="Scene">
      <node id="base00" name="base00" type="NODE">
        <matrix sid="transform">1 0 0 0 0 1 0 0 0 0 1 0 0 0 0 1</matrix>
        <node id="start01" name="start01" type="NODE">
          <matrix sid="transform">1 0 0 0 0 1 0 0 0 0 1 0 0 0 0 1</matrix>
          <node id="nulldetail10" name="nulldetail10" type="NODE">
            <matrix sid="transform">1 0 0 0 0 1 0 0 0 0 1 0 0 0 0 1</matrix>
          </node>
          <node id="Colmesh_s_food_mart_sign_001-1" name="Colmesh_s_food_mart_sign_001-1" type="NODE">
            <matrix sid="transform">1 0 0 0 0 1 0 0 0 0 1 0 0 0 0 1</matrix>
            <instance_geometry url="#Plane_025-mesh" name="Colmesh_s_food_mart_sign_001-1">
              <bind_material>
                <technique_common>
                  <instance_material symbol="industrial-material" target="#industrial-material">
                    <bind_vertex_input semantic="UVMap" input_semantic="TEXCOORD" input_set="0"/>
                  </instance_material>
                </technique_common>
              </bind_material>
            </instance_geometry>
          </node>
          <node id="s_food_mart_sign_001_L60" name="s_food_mart_sign_001_L60" type="NODE">
            <matrix sid="transform">1 0 0 0 0 1 0 0 0 0 1 0 0 0 0 1</matrix>
            <instance_geometry url="#Plane_132-mesh" name="s_food_mart_sign_001_L60">
              <bind_material>
                <technique_common>
                  <instance_material symbol="architraves-material" target="#architraves-material">
                    <bind_vertex_input semantic="UVMap" input_semantic="TEXCOORD" input_set="0"/>
                  </instance_material>
                  <instance_material symbol="industrial-material" target="#industrial-material">
                    <bind_vertex_input semantic="UVMap" input_semantic="TEXCOORD" input_set="0"/>
                  </instance_material>
                  <instance_material symbol="windows_doors_reflective-material" target="#windows_doors_reflective-material">
                    <bind_vertex_input semantic="UVMap" input_semantic="TEXCOORD" input_set="0"/>
                  </instance_material>
                  <instance_material symbol="corrugation-material" target="#corrugation-material">
                    <bind_vertex_input semantic="UVMap" input_semantic="TEXCOORD" input_set="0"/>
                  </instance_material>
                  <instance_material symbol="slabs_large-material" target="#slabs_large-material">
                    <bind_vertex_input semantic="UVMap" input_semantic="TEXCOORD" input_set="0"/>
                  </instance_material>
                  <instance_material symbol="metal_plates-material" target="#metal_plates-material">
                    <bind_vertex_input semantic="UVMap" input_semantic="TEXCOORD" input_set="0"/>
                  </instance_material>
                  <instance_material symbol="balustrades-material" target="#balustrades-material">
                    <bind_vertex_input semantic="UVMap" input_semantic="TEXCOORD" input_set="0"/>
                  </instance_material>
                  <instance_material symbol="brick_painted-material" target="#brick_painted-material">
                    <bind_vertex_input semantic="UVMap" input_semantic="TEXCOORD" input_set="0"/>
                  </instance_material>
                  <instance_material symbol="stucco1_white-material" target="#stucco1_white-material">
                    <bind_vertex_input semantic="UVMap" input_semantic="TEXCOORD" input_set="0"/>
                  </instance_material>
                  <instance_material symbol="columns-material" target="#columns-material">
                    <bind_vertex_input semantic="UVMap" input_semantic="TEXCOORD" input_set="0"/>
                  </instance_material>
                  <instance_material symbol="construction-material" target="#construction-material">
                    <bind_vertex_input semantic="UVMap" input_semantic="TEXCOORD" input_set="0"/>
                  </instance_material>
                  <instance_material symbol="clutter_commercial-material" target="#clutter_commercial-material">
                    <bind_vertex_input semantic="UVMap" input_semantic="TEXCOORD" input_set="0"/>
                  </instance_material>
                  <instance_material symbol="brick_plain-material" target="#brick_plain-material">
                    <bind_vertex_input semantic="UVMap" input_semantic="TEXCOORD" input_set="0"/>
                  </instance_material>
                  <instance_material symbol="stone_brick_regular-material" target="#stone_brick_regular-material">
                    <bind_vertex_input semantic="UVMap" input_semantic="TEXCOORD" input_set="0"/>
                  </instance_material>
                  <instance_material symbol="curbs-material" target="#curbs-material">
                    <bind_vertex_input semantic="UVMap" input_semantic="TEXCOORD" input_set="0"/>
                  </instance_material>
                  <instance_material symbol="wirefence-material" target="#wirefence-material">
                    <bind_vertex_input semantic="UVMap" input_semantic="TEXCOORD" input_set="0"/>
                  </instance_material>
                  <instance_material symbol="groundmesh_grass2-material" target="#groundmesh_grass2-material">
                    <bind_vertex_input semantic="UVMap" input_semantic="TEXCOORD" input_set="0"/>
                  </instance_material>
                  <instance_material symbol="billboards-material" target="#billboards-material">
                    <bind_vertex_input semantic="UVMap" input_semantic="TEXCOORD" input_set="0"/>
                  </instance_material>
                  <instance_material symbol="road_asphalt-material" target="#road_asphalt-material">
                    <bind_vertex_input semantic="UVMap" input_semantic="TEXCOORD" input_set="0"/>
                  </instance_material>
                </technique_common>
              </bind_material>
            </instance_geometry>
          </node>
        </node>
      </node>
    </visual_scene>
  </library_visual_scenes>
  <scene>
    <instance_visual_scene url="#Scene"/>
  </scene>
</COLLADA>