<?xml version="1.0" encoding="utf-8"?>
<COLLADA xmlns="http://www.collada.org/2005/11/COLLADASchema" version="1.4.1" xmlns:xsi="http://www.w3.org/2001/XMLSchema-instance">
  <asset>
    <contributor>
      <author>Blender User</author>
      <authoring_tool>Blender 4.5.5 LTS commit date:2025-11-17, commit time:16:03, hash:836beaaf597a</authoring_tool>
    </contributor>
    <created>2026-05-13T15:48:47</created>
    <modified>2026-05-13T15:48:47</modified>
    <unit name="meter" meter="1"/>
    <up_axis>Z_UP</up_axis>
  </asset>
  <library_effects>
    <effect id="architraves-effect">
      <profile_COMMON>
        <technique sid="common">
          <lambert>
            <emission>
              <color sid="emission">0 0 0 1</color>
            </emission>
            <diffuse>
              <color sid="diffuse">0.8 0.8 0.8 1</color>
            </diffuse>
            <index_of_refraction>
              <float sid="ior">1.45</float>
            </index_of_refraction>
          </lambert>
        </technique>
      </profile_COMMON>
    </effect>
    <effect id="industrial-effect">
      <profile_COMMON>
        <technique sid="common">
          <lambert>
            <emission>
              <color sid="emission">0 0 0 1</color>
            </emission>
            <diffuse>
              <color sid="diffuse">0 0 0 1</color>
            </diffuse>
            <reflectivity>
              <float sid="specular">1</float>
            </reflectivity>
            <index_of_refraction>
              <float sid="ior">1.45</float>
            </index_of_refraction>
          </lambert>
        </technique>
      </profile_COMMON>
    </effect>
    <effect id="windows_doors_reflective-effect">
      <profile_COMMON>
        <technique sid="common">
          <lambert>
            <emission>
              <color sid="emission">0 0 0 1</color>
            </emission>
            <diffuse>
              <color sid="diffuse">0.8 0.8 0.8 1</color>
            </diffuse>
            <index_of_refraction>
              <float sid="ior">1.45</float>
            </index_of_refraction>
          </lambert>
        </technique>
      </profile_COMMON>
    </effect>
    <effect id="corrugation-effect">
      <profile_COMMON>
        <technique sid="common">
          <lambert>
            <emission>
              <color sid="emission">0 0 0 1</color>
            </emission>
            <diffuse>
              <color sid="diffuse">0.8 0.8 0.8 1</color>
            </diffuse>
            <index_of_refraction>
              <float sid="ior">1.45</float>
            </index_of_refraction>
          </lambert>
        </technique>
      </profile_COMMON>
    </effect>
    <effect id="slabs_large-effect">
      <profile_COMMON>
        <technique sid="common">
          <lambert>
            <emission>
              <color sid="emission">0 0 0 1</color>
            </emission>
            <diffuse>
              <color sid="diffuse">0.8 0.8 0.8 1</color>
            </diffuse>
            <index_of_refraction>
              <float sid="ior">1.45</float>
            </index_of_refraction>
          </lambert>
        </technique>
      </profile_COMMON>
    </effect>
    <effect id="metal_plates-effect">
      <profile_COMMON>
        <technique sid="common">
          <lambert>
            <emission>
              <color sid="emission">0 0 0 1</color>
            </emission>
            <diffuse>
              <color sid="diffuse">0.8 0.8 0.8 1</color>
            </diffuse>
            <index_of_refraction>
              <float sid="ior">1.45</float>
            </index_of_refraction>
          </lambert>
        </technique>
      </profile_COMMON>
    </effect>
    <effect id="balustrades-effect">
      <profile_COMMON>
        <technique sid="common">
          <lambert>
            <emission>
              <color sid="emission">0 0 0 1</color>
            </emission>
            <diffuse>
              <color sid="diffuse">0 0 0 1</color>
            </diffuse>
            <index_of_refraction>
              <float sid="ior">1.45</float>
            </index_of_refraction>
          </lambert>
        </technique>
      </profile_COMMON>
    </effect>
    <effect id="brick_painted-effect">
      <profile_COMMON>
        <technique sid="common">
          <lambert>
            <emission>
              <color sid="emission">0 0 0 1</color>
            </emission>
            <diffuse>
              <color sid="diffuse">0.8 0.8 0.8 1</color>
            </diffuse>
            <index_of_refraction>
              <float sid="ior">1.45</float>
            </index_of_refraction>
          </lambert>
        </technique>
      </profile_COMMON>
    </effect>
    <effect id="stucco1_white-effect">
      <profile_COMMON>
        <technique sid="common">
          <lambert>
            <emission>
              <color sid="emission">0 0 0 1</color>
            </emission>
            <diffuse>
              <color sid="diffuse">0.8 0.8 0.8 1</color>
            </diffuse>
            <index_of_refraction>
              <float sid="ior">1.45</float>
            </index_of_refraction>
          </lambert>
        </technique>
      </profile_COMMON>
    </effect>
    <effect id="columns-effect">
      <profile_COMMON>
        <technique sid="common">
          <lambert>
            <emission>
              <color sid="emission">0 0 0 1</color>
            </emission>
            <diffuse>
              <color sid="diffuse">0 0 0 1</color>
            </diffuse>
            <index_of_refraction>
              <float sid="ior">1.45</float>
            </index_of_refraction>
          </lambert>
        </technique>
      </profile_COMMON>
    </effect>
    <effect id="construction-effect">
      <profile_COMMON>
        <technique sid="common">
          <lambert>
            <emission>
              <color sid="emission">0 0 0 1</color>
            </emission>
            <diffuse>
              <color sid="diffuse">0.8 0.8 0.8 1</color>
            </diffuse>
            <index_of_refraction>
              <float sid="ior">1.45</float>
            </index_of_refraction>
          </lambert>
        </technique>
      </profile_COMMON>
    </effect>
    <effect id="clutter_commercial-effect">
      <profile_COMMON>
        <technique sid="common">
          <lambert>
            <emission>
              <color sid="emission">0 0 0 1</color>
            </emission>
            <diffuse>
              <color sid="diffuse">0.8 0.8 0.8 1</color>
            </diffuse>
            <reflectivity>
              <float sid="specular">0.5</float>
            </reflectivity>
          </lambert>
        </technique>
      </profile_COMMON>
    </effect>
    <effect id="brick_plain-effect">
      <profile_COMMON>
        <technique sid="common">
          <lambert>
            <emission>
              <color sid="emission">0 0 0 1</color>
            </emission>
            <diffuse>
              <color sid="diffuse">0 0 0 1</color>
            </diffuse>
            <index_of_refraction>
              <float sid="ior">1.45</float>
            </index_of_refraction>
          </lambert>
        </technique>
      </profile_COMMON>
    </effect>
    <effect id="stone_brick_regular-effect">
      <profile_COMMON>
        <technique sid="common">
          <lambert>
            <emission>
              <color sid="emission">0 0 0 1</color>
            </emission>
            <diffuse>
              <color sid="diffuse">0 0 0 1</color>
            </diffuse>
            <index_of_refraction>
              <float sid="ior">1.45</float>
            </index_of_refraction>
          </lambert>
        </technique>
      </profile_COMMON>
    </effect>
    <effect id="curbs-effect">
      <profile_COMMON>
        <technique sid="common">
          <lambert>
            <emission>
              <color sid="emission">0 0 0 1</color>
            </emission>
            <diffuse>
              <color sid="diffuse">0 0 0 1</color>
            </diffuse>
            <index_of_refraction>
              <float sid="ior">1.45</float>
            </index_of_refraction>
          </lambert>
        </technique>
      </profile_COMMON>
    </effect>
    <effect id="wirefence-effect">
      <profile_COMMON>
        <technique sid="common">
          <lambert>
            <emission>
              <color sid="emission">0 0 0 1</color>
            </emission>
            <diffuse>
              <color sid="diffuse">0.8 0.8 0.8 1</color>
            </diffuse>
            <index_of_refraction>
              <float sid="ior">1.45</float>
            </index_of_refraction>
          </lambert>
        </technique>
      </profile_COMMON>
    </effect>
    <effect id="groundmesh_grass2-effect">
      <profile_COMMON>
        <newparam sid="groundmesh_grass_b_color_png-surface">
          <surface type="2D">
            <init_from>groundmesh_grass_b_color_png</init_from>
          </surface>
        </newparam>
        <newparam sid="groundmesh_grass_b_color_png-sampler">
          <sampler2D>
            <source>groundmesh_grass_b_color_png-surface</source>
          </sampler2D>
        </newparam>
        <technique sid="common">
          <lambert>
            <emission>
              <color sid="emission">0 0 0 1</color>
            </emission>
            <diffuse>
              <texture texture="groundmesh_grass_b_color_png-sampler" texcoord="UVMap"/>
            </diffuse>
            <index_of_refraction>
              <float sid="ior">1.45</float>
            </index_of_refraction>
          </lambert>
        </technique>
      </profile_COMMON>
    </effect>
    <effect id="billboards-effect">
      <profile_COMMON>
        <technique sid="common">
          <lambert>
            <emission>
              <color sid="emission">0 0 0 1</color>
            </emission>
            <diffuse>
              <color sid="diffuse">0 0 0 1</color>
            </diffuse>
            <index_of_refraction>
              <float sid="ior">1.45</float>
            </index_of_refraction>
          </lambert>
        </technique>
      </profile_COMMON>
    </effect>
    <effect id="road_asphalt-effect">
      <profile_COMMON>
        <technique sid="common">
          <lambert>
            <emission>
              <color sid="emission">0 0 0 1</color>
            </emission>
            <diffuse>
              <color sid="diffuse">0 0 0 1</color>
            </diffuse>
            <index_of_refraction>
              <float sid="ior">1.45</float>
            </index_of_refraction>
          </lambert>
        </technique>
      </profile_COMMON>
    </effect>
  </library_effects>
  <library_images>
    <image id="groundmesh_grass_b_color_png" name="groundmesh_grass_b_color_png">
      <init_from>groundmesh_grass_b.color.png</init_from>
    </image>
  </library_images>
  <library_materials>
    <material id="architraves-material" name="architraves">
      <instance_effect url="#architraves-effect"/>
    </material>
    <material id="industrial-material" name="industrial">
      <instance_effect url="#industrial-effect"/>
    </material>
    <material id="windows_doors_reflective-material" name="windows_doors_reflective">
      <instance_effect url="#windows_doors_reflective-effect"/>
    </material>
    <material id="corrugation-material" name="corrugation">
      <instance_effect url="#corrugation-effect"/>
    </material>
    <material id="slabs_large-material" name="slabs_large">
      <instance_effect url="#slabs_large-effect"/>
    </material>
    <material id="metal_plates-material" name="metal_plates">
      <instance_effect url="#metal_plates-effect"/>
    </material>
    <material id="balustrades-material" name="balustrades">
      <instance_effect url="#balustrades-effect"/>
    </material>
    <material id="brick_painted-material" name="brick_painted">
      <instance_effect url="#brick_painted-effect"/>
    </material>
    <material id="stucco1_white-material" name="stucco1_white">
      <instance_effect url="#stucco1_white-effect"/>
    </material>
    <material id="columns-material" name="columns">
      <instance_effect url="#columns-effect"/>
    </material>
    <material id="construction-material" name="construction">
      <instance_effect url="#construction-effect"/>
    </material>
    <material id="clutter_commercial-material" name="clutter_commercial">
      <instance_effect url="#clutter_commercial-effect"/>
    </material>
    <material id="brick_plain-material" name="brick_plain">
      <instance_effect url="#brick_plain-effect"/>
    </material>
    <material id="stone_brick_regular-material" name="stone_brick_regular">
      <instance_effect url="#stone_brick_regular-effect"/>
    </material>
    <material id="curbs-material" name="curbs">
      <instance_effect url="#curbs-effect"/>
    </material>
    <material id="wirefence-material" name="wirefence">
      <instance_effect url="#wirefence-effect"/>
    </material>
    <material id="groundmesh_grass2-material" name="groundmesh_grass2">
      <instance_effect url="#groundmesh_grass2-effect"/>
    </material>
    <material id="billboards-material" name="billboards">
      <instance_effect url="#billboards-effect"/>
    </material>
    <material id="road_asphalt-material" name="road_asphalt">
      <instance_effect url="#road_asphalt-effect"/>
    </material>
  </library_materials>
  <library_geometries>
    <geometry id="Plane_133-mesh" name="Plane.133">
      <mesh>
        <source id="Plane_133-mesh-positions">
          <float_array id="Plane_133-mesh-positions-array" count="1242">-0.4931006 -0.03121966 0 -0.4931006 -0.03121966 5.338089 0.4354464 -0.03610193 0 0.4354464 -0.03610193 5.338089 -0.493106 0.01176065 0 -0.493106 0.01176065 5.338089 0.4353601 0.006970047 0 0.4353601 0.006970047 5.338089 -1.110659 -0.1281157 6.289787 -0.915497 -0.1281157 6.289787 -1.110659 -0.1281157 6.592087 -0.915497 -0.1281157 6.592087 -0.9164465 -0.1280293 6.289787 -0.721198 -0.1281156 6.289787 -0.9164465 -0.1280293 6.592087 -0.721198 -0.1281156 6.592087 -0.717918 -0.1281156 6.289787 -0.5227558 -0.1281156 6.289787 -0.717918 -0.1281156 6.592087 -0.5227558 -0.1281156 6.592087 -0.5424792 -0.1280725 6.289787 -0.347317 -0.1280725 6.289787 -0.5424792 -0.1280725 6.592087 -0.347317 -0.1280725 6.592087 -0.1722235 -0.1280293 6.289787 0.02289551 -0.1280725 6.289787 -0.1722235 -0.1280293 6.592087 0.02289551 -0.1280725 6.592087 0.01866596 -0.1279861 6.289787 0.2137418 -0.1280725 6.289787 0.01866596 -0.1279861 6.592087 0.2137418 -0.1280725 6.592087 0.1869405 -0.1280293 6.289787 0.3821027 -0.1280293 6.289787 0.1869405 -0.1280293 6.592087 0.3821027 -0.1280293 6.592087 0.3762331 -0.1281156 6.289787 0.5713575 -0.1281533 6.289787 0.3762331 -0.1281156 6.592087 0.5713575 -0.1281533 6.592087 0.5609079 -0.1281588 6.289787 0.7110127 -0.1280724 6.289787 0.5609079 -0.1281588 6.592087 0.7110127 -0.1280724 6.592087 0.7002285 -0.1279807 6.289787 0.8954716 -0.1279861 6.289787 0.7002285 -0.1279807 6.592087 0.8954716 -0.1279861 6.592087 0.8968526 -0.1280724 6.289787 1.092015 -0.1280724 6.289787 0.8968526 -0.1280724 6.592087 1.092015 -0.1280724 6.592087 -0.1628096 -0.1280239 5.666985 0.03235256 -0.1280239 5.666985 -0.1628096 -0.1280239 5.969391 0.03235256 -0.1280239 5.969391 0.03031873 -0.1280725 5.666985 0.2254809 -0.1280725 5.666985 0.03031873 -0.1280725 5.969391 0.2254809 -0.1280725 5.969391 0.209863 -0.1279807 5.666985 0.4050252 -0.1279807 5.666985 0.209863 -0.1279807 5.969391 0.4050252 -0.1279807 5.969391 0.4042915 -0.1280239 5.666985 0.5994536 -0.1280239 5.666985 0.4042915 -0.1280239 5.969391 0.5994536 -0.1280239 5.969391 -0.5584478 -0.1279861 5.870789 -0.4952639 -0.1279861 5.870789 -0.5584478 -0.1279861 6.004585 -0.4952639 -0.1279861 6.004585 -0.4989755 -0.1280725 5.869789 -0.4152051 -0.1280293 5.869789 -0.4989755 -0.1280725 5.973885 -0.4152051 -0.1280293 5.973885 -0.4240958 -0.1280293 5.868889 -0.3304852 -0.1281588 5.868889 -0.4240958 -0.1280293 5.973885 -0.3304852 -0.1281588 5.973885 -0.3281547 -0.1280725 5.868889 -0.1918983 -0.1280239 5.868889 -0.3281547 -0.1280725 5.973885 -0.1918983 -0.1280239 5.973885 -0.7814039 -0.1273819 5.36309 0.8010842 -0.1272524 5.36309 -0.7814039 -0.1273819 6.301392 0.8010842 -0.1272524 6.301392 1.111873 0.1208704 6.289787 0.9167109 0.1208704 6.289787 1.111873 0.1208704 6.592087 0.9167109 0.1208704 6.592087 0.9176549 0.120865 6.289787 0.7224928 0.120865 6.289787 0.9176549 0.120865 6.592087 0.7224928 0.120865 6.592087 0.7191318 0.1208704 6.289787 0.5239264 0.1209136 6.289787 0.7191318 0.1208704 6.592087 0.5239264 0.1209136 6.592087 0.5438603 0.1208218 6.289787 0.3484823 0.120865 6.289787 0.5438603 0.1208218 6.592087 0.3484823 0.120865 6.592087 0.1735613 0.1208218 6.289787 -0.02160072 0.1208218 6.289787 0.1735613 0.1208218 6.592087 -0.02160072 0.1208218 6.592087 -0.01732808 0.1207787 6.289787 -0.2125766 0.120865 6.289787 -0.01732808 0.1207787 6.592087 -0.2125766 0.120865 6.592087 -0.1856835 0.1209136 6.289787 -0.3808457 0.1209135 6.289787 -0.1856835 0.1209136 6.592087 -0.3808457 0.1209135 6.592087 -0.3748466 0.1207841 6.289787 -0.5700089 0.1207841 6.289787 -0.3748466 0.1207841 6.592087 -0.5700089 0.1207841 6.592087 -0.5595268 0.1208218 6.289787 -0.7097179 0.1208218 6.289787 -0.5595268 0.1208218 6.592087 -0.7097179 0.1208218 6.592087 -0.6989715 0.1207786 6.289787 -0.8941336 0.1207786 6.289787 -0.6989715 0.1207786 6.592087 -0.8941336 0.1207786 6.592087 -0.8953852 0.1208218 6.289787 -1.090763 0.120865 6.289787 -0.8953852 0.1208218 6.592087 -1.090763 0.120865 6.592087 0.1640233 0.120865 5.666985 -0.03113871 0.120865 5.666985 0.1640233 0.120865 5.969391 -0.03113871 0.120865 5.969391 -0.02911031 0.1208218 5.666985 -0.2242725 0.1208218 5.666985 -0.02911031 0.1208218 5.969391 -0.2242725 0.1208218 5.969391 -0.2086491 0.1209082 5.666985 -0.4038113 0.1209082 5.666985 -0.2086491 0.1209082 5.969391 -0.4038113 0.1209082 5.969391 -0.4030777 0.120865 5.666985 -0.5982398 0.1208649 5.666985 -0.4030777 0.120865 5.969391 -0.5982398 0.1208649 5.969391 0.5597479 0.1209136 5.870789 0.4965587 0.1209082 5.870789 0.5597479 0.1209136 6.004585 0.4965587 0.1209082 6.004585 0.5004429 0.1208218 5.869789 0.4164567 0.1209082 5.869789 0.5004429 0.1208218 5.973885 0.4164567 0.1209082 5.973885 0.4254336 0.1208218 5.868889 0.3318663 0.1208218 5.868889 0.4254336 0.1208218 5.973885 0.3318663 0.1208218 5.973885 0.3294494 0.1208218 5.868889 0.1931121 0.1207787 5.868889 0.3294494 0.1208218 5.973885 0.1931121 0.1207787 5.973885 0.7828282 0.1200882 5.36309 -0.7998757 0.1200018 5.36309 0.7828282 0.1200882 6.301392 -0.7998757 0.1200018 6.301392 0.6544374 -0.1212912 5.363693 -0.6454982 -0.1212966 5.363693 1.303108 -0.1212911 6.148888 -1.294298 -0.1212534 6.148888 1.303108 -0.1212911 6.748489 -1.294298 -0.1212534 6.748489 1.376736 0.1193599 6.122391 0.6890882 0.1193113 5.290085 -0.6802353 0.1193166 5.290085 -1.36784 0.1193112 6.122391 -1.36784 0.1193112 6.82209 1.376736 0.1193599 6.82209 1.376644 -0.1212965 6.122391 0.689045 -0.1212965 5.290085 -0.6802407 -0.1212534 5.290085 -1.367835 -0.1212481 6.122391 -1.367835 -0.1212481 6.82209 1.376644 -0.1212965 6.82209 0.654432 0.1182324 5.363693 -0.6456277 0.1181892 5.363693 1.303145 0.1182755 6.148888 -1.294212 0.1182754 6.148888 1.303145 0.1182755 6.748489 -1.294212 0.1182754 6.748489 1.376687 0.1182755 6.122391 0.6890936 0.1182809 5.290085 -0.6801598 0.11827 5.290085 -1.367835 0.1181945 6.122391 -1.367835 0.1181945 6.82209 1.376687 0.1182755 6.82209 -1.110659 -0.1280725 6.579915 -1.110659 -0.1280724 6.301893 -0.9795426 -0.1280724 6.301897 -0.9795426 -0.1280725 6.579919 -0.9833213 -0.1280725 6.579919 -0.9833213 -0.1280724 6.301897 -0.8565526 -0.1280724 6.3019 -0.8565526 -0.1280725 6.579922 -0.8603313 -0.1280725 6.579922 -0.8603313 -0.1280724 6.3019 -0.7131092 -0.1280724 6.301904 -0.7131092 -0.1280725 6.579925 -0.7168879 -0.1280725 6.579925 -0.7168879 -0.1280724 6.301903 -0.5675781 -0.1280724 6.301907 -0.5675781 -0.1280725 6.579929 -0.5713567 -0.1280725 6.579929 -0.5713567 -0.1280724 6.301907 -0.5018576 -0.1280724 6.301909 -0.5018576 -0.1280725 6.579931 -0.5056363 -0.1280725 6.579931 -0.5056363 -0.1280724 6.301909 -0.3502328 -0.1280724 6.301913 -0.3502328 -0.1280725 6.579935 -0.46066 -0.1280724 6.314061 -0.46066 -0.1280724 6.191367 -0.3952091 -0.1280724 6.191369 -0.3952091 -0.1280724 6.314063 -0.3540115 -0.1280725 6.579935 -0.3540115 -0.1280724 6.301913 -0.2026987 -0.1280725 6.301917 -0.2026987 -0.1280725 6.579938 -0.08619981 -0.1280725 6.579941 -0.08619981 -0.1280725 6.301919 0.06920364 -0.1280725 6.301923 0.06920364 -0.1280725 6.579945 0.06542496 -0.1280725 6.579945 0.06542496 -0.1280725 6.301923 0.2167377 -0.1280725 6.301927 0.2167377 -0.1280725 6.579949 0.2129591 -0.1280725 6.579949 0.2129591 -0.1280725 6.301927 0.41336 -0.1280725 6.301932 0.41336 -0.1280725 6.579954 0.4095813 -0.1280725 6.579954 0.4095813 -0.1280725 6.301932 0.5570604 -0.1280725 6.301936 0.5570604 -0.1280725 6.579958 0.5532817 -0.1280725 6.579958 0.5532817 -0.1280725 6.301936 0.6759597 -0.1280725 6.301939 0.6759597 -0.1280725 6.579961 0.672181 -0.1280725 6.579961 0.672181 -0.1280725 6.301939 0.7989497 -0.1280725 6.301942 0.7989497 -0.1280725 6.579964 0.7951711 -0.1280725 6.579964 0.7951711 -0.1280725 6.301942 0.9444809 -0.1280725 6.301946 0.9444809 -0.1280725 6.579968 0.9407022 -0.1280725 6.579968 0.9407022 -0.1280725 6.301946 1.092015 -0.1280725 6.301949 1.092015 -0.1280725 6.579971 1.111873 0.1208434 6.579983 1.111873 0.1208434 6.301826 0.9806927 0.1208434 6.301829 0.9806927 0.1208434 6.579986 0.9845566 0.1208434 6.579986 0.9845566 0.1208434 6.301829 0.8577261 0.1208434 6.301832 0.8577261 0.1208434 6.57999 0.8615901 0.1208434 6.579989 0.8615901 0.1208434 6.301832 0.7142962 0.1208434 6.301836 0.7142962 0.1208434 6.579993 0.7181601 0.1208434 6.579993 0.7181601 0.1208434 6.301836 0.5687775 0.1208434 6.30184 0.5687775 0.1208434 6.579997 0.5726414 0.1208434 6.579997 0.5726414 0.1208434 6.301839 0.5031083 0.1208434 6.301841 0.5031083 0.1208434 6.579999 0.5069723 0.1208434 6.579998 0.5069723 0.1208434 6.301841 0.351493 0.1208434 6.301845 0.351493 0.1208434 6.580002 0.4619741 0.1208434 6.313999 0.4619741 0.1208434 6.191246 0.3964913 0.1208434 6.191247 0.3964913 0.1208434 6.314001 0.355357 0.1208434 6.580002 0.355357 0.1208434 6.301845 0.2039704 0.1208434 6.301849 0.2039704 0.1208434 6.580006 0.08744247 0.1208434 6.580009 0.08744247 0.1208434 6.301852 -0.06803676 0.1208434 6.301856 -0.06803676 0.1208434 6.580013 -0.06417283 0.1208434 6.580013 -0.06417283 0.1208434 6.301856 -0.2155594 0.1208434 6.301859 -0.2155594 0.1208434 6.580017 -0.2116955 0.1208434 6.580017 -0.2116955 0.1208434 6.301859 -0.4121941 0.1208434 6.301865 -0.4121941 0.1208434 6.580022 -0.4083302 0.1208434 6.580022 -0.4083302 0.1208434 6.301864 -0.5558812 0.1208434 6.301868 -0.5558812 0.1208434 6.580025 -0.5520172 0.1208434 6.580025 -0.5520172 0.1208434 6.301868 -0.6747551 0.1208434 6.301871 -0.6747551 0.1208434 6.580029 -0.6708911 0.1208434 6.580028 -0.6708911 0.1208434 6.301871 -0.7977217 0.1208434 6.301874 -0.7977217 0.1208434 6.580032 -0.7938577 0.1208434 6.580032 -0.7938577 0.1208434 6.301874 -0.9432404 0.1208434 6.301878 -0.9432404 0.1208434 6.580035 -0.9393764 0.1208434 6.580035 -0.9393764 0.1208434 6.301878 -1.090763 0.1208434 6.301882 -1.090763 0.1208434 6.580039 0.1601201 0.120865 5.899835 0.1601201 0.120865 5.71234 0.08205526 0.120865 5.712342 0.08205526 0.120865 5.899837 0.08986174 0.120865 5.969391 0.08986174 0.120865 5.66698 -0.03113871 0.120865 5.666983 -0.03113871 0.120865 5.969395 -0.1589064 -0.1280239 5.899835 -0.1589064 -0.1280239 5.71234 -0.08084149 -0.1280239 5.712342 -0.08084149 -0.1280239 5.899837 -0.08864798 -0.1280239 5.969391 -0.08864798 -0.1280239 5.66698 0.03235256 -0.1280239 5.666983 0.03235256 -0.1280239 5.969395 -0.5584478 -0.1280496 5.96371 -0.5584478 -0.1280495 5.878078 -0.5163948 -0.1280495 5.878079 -0.5163948 -0.1280496 5.963711 -0.4921627 -0.1280496 5.963712 -0.4921627 -0.1280495 5.87808 -0.4477507 -0.1280495 5.878081 -0.4477507 -0.1280496 5.963713 -0.4496375 -0.1280496 5.963713 -0.4496375 -0.1280495 5.878081 -0.4075846 -0.1280495 5.878083 -0.4075846 -0.1280496 5.963715 -0.4094713 -0.1280496 5.963715 -0.4094713 -0.1280495 5.878083 -0.376235 -0.1280495 5.878084 -0.376235 -0.1280496 5.963716 -0.3781217 -0.1280496 5.963716 -0.3781217 -0.1280495 5.878084 -0.3457156 -0.1280495 5.878085 -0.3457156 -0.1280496 5.963717 -0.3476023 -0.1280496 5.963716 -0.3476023 -0.1280495 5.878085 -0.3338569 -0.1280495 5.878085 -0.3338569 -0.1280496 5.963717 -0.3357437 -0.1280496 5.963717 -0.3357437 -0.1280495 5.878085 -0.3025073 -0.1280495 5.878086 -0.3025073 -0.1280496 5.963718 -0.2782751 -0.1280496 5.963719 -0.2782751 -0.1280495 5.878087 -0.2338632 -0.1280495 5.878088 -0.2338632 -0.1280496 5.96372 -0.23575 -0.1280496 5.96372 -0.23575 -0.1280495 5.878088 -0.1918983 -0.1280495 5.878089 -0.1918983 -0.1280496 5.963721 0.5597479 0.1208555 5.96374 0.5597479 0.1208555 5.878013 0.5176448 0.1208519 5.878014 0.5176448 0.1208519 5.963741 0.4932961 0.1208498 5.963742 0.4932961 0.1208498 5.878015 0.4488312 0.120846 5.878016 0.4488312 0.120846 5.963743 0.4508079 0.1208462 5.963743 0.4508079 0.1208462 5.878016 0.4087048 0.1208426 5.878018 0.4087048 0.1208426 5.963745 0.4106815 0.1208427 5.963744 0.4106815 0.1208427 5.878018 0.3774055 0.1208399 5.878019 0.3774055 0.1208399 5.963746 0.3793822 0.1208401 5.963745 0.3793822 0.1208401 5.878019 0.3469374 0.1208373 5.87802 0.3469374 0.1208373 5.963746 0.3489141 0.1208374 5.963746 0.3489141 0.1208374 5.87802 0.3351523 0.1208363 5.87802 0.3351523 0.1208363 5.963747 0.337129 0.1208364 5.963747 0.337129 0.1208364 5.87802 0.303853 0.1208336 5.878021 0.303853 0.1208336 5.963748 0.2795042 0.1208315 5.963749 0.2795042 0.1208315 5.878022 0.2350394 0.1208277 5.878023 0.2350394 0.1208277 5.96375 0.2370161 0.1208279 5.96375 0.2370161 0.1208279 5.878023 0.1931121 0.1208241 5.878024 0.1931121 0.1208241 5.963751</float_array>
          <technique_common>
            <accessor source="#Plane_133-mesh-positions-array" count="414" stride="3">
              <param name="X" type="float"/>
              <param name="Y" type="float"/>
              <param name="Z" type="float"/>
            </accessor>
          </technique_common>
        </source>
        <source id="Plane_133-mesh-normals">
          <float_array id="Plane_133-mesh-normals-array" count="522">2.82189e-4 0.9999998 -6.98358e-4 -0.001577019 0.9999976 -0.001583516 -0.00168544 0.9999973 -0.001610636 -1.58737e-5 1 -4.15614e-5 -6.47077e-5 -0.9999997 -8.50994e-4 -1.1505e-4 -0.9999985 -0.001760423 -4.09669e-5 -1 -4.20202e-4 -7.29489e-5 -1 0 8.3788e-4 -0.9999997 0 0.001298725 -0.999998 0.001602351 0.002180039 -0.9999977 -1.71814e-5 0.002228081 -0.9999976 -1.45482e-7 0 1 -5.06663e-7 -8.10484e-7 1 0 -2.3657e-4 1 -7.6763e-6 -6.10457e-4 0.9999997 7.10978e-4 -0.001099407 0.9999995 0 0 1 0 4.19546e-6 -1 7.53244e-5 6.79e-5 -0.9999994 0.001128017 -1.0067e-4 -0.9999995 9.80097e-4 5.15144e-4 -0.9999999 0 0 1 0 -2.58549e-4 1 0 2.20835e-4 1 0 -1.4503e-5 -1 0 0.7709426 -1.38136e-4 -0.6369047 -1.7635e-5 -1 -5.51797e-5 -7.44086e-4 -0.9999998 0 -4.08518e-4 -1 0 -7.44086e-4 -0.9999998 0 0.001887977 -0.9999982 -1.32767e-4 0.002132177 -0.9999977 0 9.61621e-4 -0.9999982 0.001614451 -2.95362e-5 0.9999995 0.001069903 -8.10486e-7 1 0 -0.001241028 0.9999991 6.5602e-4 -0.001099407 0.9999994 0 0 1 -5.49159e-5 4.19546e-6 -1 -3.44535e-6 -4.42038e-4 -1 0 0 1 0 -5.06201e-4 1 0 -4.38934e-4 0.9999999 -4.49281e-4 -5.06201e-4 1 0 0.001744329 0.9999972 0.001659512 4.42429e-4 1 0 4.42529e-4 0.9999977 -0.002109229 -1 -2.26634e-5 0 0 1 0 -5.62047e-5 -1 4.66107e-5 -1.52705e-7 1 0 -3.16578e-4 1 0 0 -1 0 -5.45694e-5 1 0 2.2565e-7 0 -1 4.89223e-4 0.9999998 3.77194e-4 3.20776e-4 0.9999998 -6.58931e-4 1.93385e-4 0.9999999 -4.79384e-4 0 0 1 8.18652e-5 -1 0 -7.53547e-4 -0.9999997 -1.25157e-4 3.73423e-4 -1 -2.81697e-4 4.20699e-4 -1 0 -5.7518e-4 0.9999998 0 -2.21068e-4 -1 0 2.21077e-4 0.9999995 -9.58767e-4 -3.88785e-5 1 4.02771e-4 2.21091e-4 0.9999995 9.58767e-4 0 -1 0 0.001383125 0.9999991 0 0.001648187 0.999998 -0.001070201 0 1 0 -2.58205e-4 1 0 2.21178e-4 1 0 -1.52705e-7 1 0 -0.77094 1.74417e-5 -0.6369078 0 1 0 8.56022e-5 -1 0 1.95641e-4 -0.9999999 4.66583e-4 -1.24936e-4 -1 -2.51169e-5 1.90766e-4 -0.9999995 -0.001011431 1.72489e-4 -1 -1.37902e-4 1 -3.80168e-4 0 -1.75438e-4 -1 -2.19228e-4 3.56411e-4 -1 0 -0.005257844 -0.9999862 0 2.35838e-7 1 0 -5.72986e-4 0.9999991 0.001213669 -0.001134932 0.9999988 0.001071393 -3.3239e-5 0.9999995 0.001114785 -6.5287e-4 -0.9999999 1.55182e-4 -2.57394e-4 -0.9999999 -4.04371e-4 0 -1 0 0 1 0 -4.72423e-4 -0.9999999 -1.78791e-4 -2.76283e-5 -1 0 0.005159556 0.9999867 0 0.001541554 0.9999977 0.001529991 0.001577138 0.9999977 0.001494228 -2.29177e-4 1 2.86643e-4 -5.03537e-4 0.9999998 4.2225e-4 -3.14936e-5 -0.9999999 -5.71854e-4 -6.81831e-5 -1 2.23541e-6 -8.69116e-4 -0.9999997 6.89752e-5 5.15137e-4 -0.9999999 0 0 1 0 -3.93839e-5 1 -4.0261e-4 -2.58549e-4 1 0 2.20834e-4 1 0 -1.4503e-5 -1 0 0.7709205 -2.93184e-4 -0.6369315 -3.32395e-5 1 -1.37304e-4 -1.4503e-5 -1 4.29762e-5 -4.4204e-4 -1 0 6.45127e-5 0.9999994 -0.001193821 -5.06213e-4 0.9999999 0 -3.5172e-4 0.9999998 6.70914e-4 4.20643e-5 0.9999979 0.002070903 4.42431e-4 1 0 -1 -2.19552e-5 0 -5.64771e-5 -1 4.65326e-5 -1.52705e-7 1 0 -3.16578e-4 1 0 0 -1 0 -5.45693e-5 1 0 0 0 -1 1.02353e-4 0.9999999 4.70665e-4 1.93138e-4 0.9999998 6.71137e-4 -2.20842e-4 0.9999999 -5.28071e-4 2.97339e-7 0 1 8.18652e-5 -1 0 -7.59376e-4 -0.9999998 1.09549e-4 -7.77761e-4 -0.9999998 0 3.58436e-4 -1 3.21831e-4 -5.7518e-4 0.9999998 0 -2.21069e-4 -1 0 7.41029e-4 0.9999994 -8.05542e-4 2.2109e-4 0.9999999 -4.79384e-4 2.21097e-4 0.9999999 4.79384e-4 0.001383125 0.9999991 0 0.001383066 0.9999988 6.71137e-4 7.95892e-4 0.9999992 -9.33186e-4 0 1 0 -3.90399e-5 1 -4.0261e-4 -2.58205e-4 1 0 2.21178e-4 1 0 -1.52705e-7 1 0 -0.7709448 -1.74426e-5 -0.6369019 0 1 0 0 1 0 8.56021e-5 -0.9999998 -6.71137e-4 -2.7248e-5 -0.9999999 4.65911e-4 4.06417e-4 -1 3.36635e-5 2.7583e-4 -1 3.26287e-4 7.77494e-4 -0.9999997 3.25795e-4 1 -3.81584e-4 0 1 2.89554e-4 0 -1.67115e-4 -1 2.38431e-4 -2.18854e-4 -1 5.23837e-7 3.56407e-4 -1 0 2.35838e-7 1 0 2.35838e-7 0.9999991 -0.001342236 2.07452e-7 0.9999991 0.001342236 -1.38251e-4 1 -4.39305e-4 -1.98978e-4 0.9999998 -7.69856e-4 -7.92245e-6 0.9999998 6.55548e-4 0 1 0 -3.31557e-4 -0.9999998 5.83474e-4 0 -1 4.79384e-4 1.09705e-4 -1 -4.66681e-4 -4.80747e-4 -0.9999999 1.565e-4 -5.07012e-4 -0.9999999 0 -2.76282e-5 -1 0</float_array>
          <technique_common>
            <accessor source="#Plane_133-mesh-normals-array" count="174" stride="3">
              <param name="X" type="float"/>
              <param name="Y" type="float"/>
              <param name="Z" type="float"/>
            </accessor>
          </technique_common>
        </source>
        <source id="Plane_133-mesh-map-0">
          <float_array id="Plane_133-mesh-map-0-array" count="1200">0.2382681 0.5587287 0.7750971 0.5696674 0.7615067 0.5587286 0.7750971 0.5587286 0.2382683 0.5696674 0.7615067 0.5696674 0.2353301 0.5696674 0.7751025 0.558727 0.7602345 0.5696674 0.7167799 0.5696674 0.2204735 0.5587295 0.7750937 0.5587295 0.7167798 0.5587295 0.2204735 0.5696674 0.2414451 0.5587295 0.7602345 0.5696674 0.2204647 0.558727 0.2353301 0.5696674 0.7167799 0.5696674 0.2204735 0.5587295 0.2414451 0.5696674 0.2204735 0.5696674 0.7167798 0.5587295 0.2414451 0.5587295 0.8932828 0.8055043 0.9098793 0.7811627 0.9098793 0.8055043 0.7610765 0.5587786 0.2204684 0.5696674 0.2345116 0.5587281 0.6625738 0.9577049 0.6698106 0.9455264 0.6698106 0.9577049 0.8460618 0.9999493 0.8769054 0.9547121 0.8769054 0.9999493 0.7013 0.8055043 0.7178966 0.7811627 0.7178966 0.8055043 0.6220188 0.6760947 0.7389168 0.7030802 0.6220188 0.7030802 0.3817244 0.7040784 0.4350922 0.7159696 0.3817244 0.7159696 0.2353301 0.5696674 0.2204647 0.558727 0.7751025 0.558727 0.7167799 0.5696674 0.2414451 0.5696674 0.2204735 0.5587295 0.7167798 0.5587295 0.7750937 0.5696674 0.2204735 0.5696674 0.7602345 0.5696674 0.7751025 0.558727 0.2204647 0.558727 0.7167799 0.5696674 0.7750937 0.5587295 0.2204735 0.5587295 0.2204735 0.5696674 0.7750937 0.5696674 0.7167798 0.5587295 0.7097225 0.6407552 0.6220188 0.6760947 0.7389168 0.6760947 0.7389168 0.6760947 0.6512131 0.6407552 0.7097225 0.6407552 0.5813615 0.8055043 0.5979581 0.7811627 0.5813615 0.7811635 0.922392 0.9981477 0.939765 0.9726674 0.939765 0.9981477 0.6625738 0.9577049 0.6698106 0.9455264 0.6698106 0.9577049 0.5813615 0.8055043 0.5979581 0.7811627 0.5813615 0.7811635 0.6399283 0.7159696 0.6053446 0.7040784 0.6399283 0.7040784 0.922392 0.9981477 0.939765 0.9726674 0.922392 0.9726682 0.7013 0.8055043 0.7178966 0.7811627 0.7013 0.7811635 0.2382683 0.5696674 0.7750971 0.5587286 0.7615067 0.5696674 0.9790233 0.9653841 0.9963964 0.9399037 0.9963964 0.9653841 0.604917 0.9577049 0.6201248 0.9455264 0.6201248 0.9577049 0.7013 0.8055043 0.7178966 0.7811627 0.7178966 0.8055043 0.9105403 0.8840407 0.9976282 0.8254272 0.9976282 0.8840407 0.314035 0.7040784 0.3817244 0.7159696 0.314035 0.7159696 0.5981896 0.8055043 0.6131865 0.7811627 0.5981896 0.7811635 0.8932828 0.8055043 0.9098793 0.7811627 0.8932828 0.7811635 0.469676 0.7159696 0.6053446 0.7040784 0.6053446 0.7159696 0.9032979 0.9981477 0.920671 0.9726674 0.9032979 0.9726682 0.9105403 0.8840407 0.9976282 0.8254272 0.9976282 0.8840407 0.8754401 0.8055043 0.8920367 0.7811627 0.8920367 0.8055043 0.6504606 0.8055043 0.6617195 0.7811627 0.6504606 0.7811635 0.7013 0.8055043 0.7178966 0.7811627 0.7013 0.7811635 0.8407947 0.8055043 0.8573912 0.7811627 0.8407947 0.7811635 0.5806607 0.8055043 0.5972573 0.7811627 0.5806607 0.7811635 0.9790233 0.9653841 0.9963964 0.9399037 0.9963964 0.9653841 0.8754401 0.8055043 0.8920367 0.7811627 0.8920367 0.8055043 0.6309161 0.9577049 0.6409682 0.9455264 0.6309161 0.9455268 0.6504606 0.8055043 0.6617195 0.7811627 0.6617195 0.8055043 0.5806607 0.8055043 0.5972573 0.7811627 0.5972573 0.8055043 0.5439914 0.8055043 0.560588 0.7811627 0.560588 0.8055043 0.8460618 0.9999493 0.8769054 0.9547121 0.8769054 0.9999493 0.693296 0.7159697 0.6399283 0.7040784 0.693296 0.7040784 0.7389168 0.7030802 0.6220188 0.6760947 0.6220188 0.7030802 0.8230253 0.8055043 0.8396219 0.7811627 0.8396219 0.8055043 0.5529329 0.9593452 0.5595813 0.9455264 0.5529329 0.9455268 0.2382681 0.5587287 0.7750971 0.5696674 0.22047 0.5696674 0.469676 0.7159696 0.4350922 0.7040784 0.469676 0.7040784 0.604917 0.9577049 0.6201248 0.9455264 0.6201248 0.9577049 0.5981896 0.8055043 0.6131865 0.7811627 0.6131865 0.8055043 0.525026 0.2773862 -0.004113376 0.1921026 0.525026 0.1921026 0.5529329 0.9593452 0.5595813 0.9455264 0.5529329 0.9455268 0.2345116 0.5587281 0.7750988 0.5696674 0.7610765 0.5587786 0.8407947 0.8055043 0.8573912 0.7811627 0.8573912 0.8055043 0.6309161 0.9577049 0.6409682 0.9455264 0.6309161 0.9455268 0.9032979 0.9981477 0.920671 0.9726674 0.920671 0.9981477 0.5439914 0.8055043 0.560588 0.7811627 0.560588 0.8055043 -0.004113376 0.1921026 0.525026 0.2773862 0.525026 0.1921026 0.8230253 0.8055043 0.8396219 0.7811627 0.8230253 0.7811635 0.2382681 0.5587287 0.22047 0.5696674 0.7750971 0.5696674 0.7750971 0.5587286 0.22047 0.5587286 0.2382683 0.5696674 0.8932828 0.8055043 0.8932828 0.7811635 0.9098793 0.7811627 0.7610765 0.5587786 0.7750988 0.5696674 0.2204684 0.5696674 0.6625738 0.9577049 0.6625738 0.9455268 0.6698106 0.9455264 0.8460618 0.9999493 0.8460618 0.9547137 0.8769054 0.9547121 0.7013 0.8055043 0.7013 0.7811635 0.7178966 0.7811627 0.6220188 0.6760947 0.7389168 0.6760947 0.7389168 0.7030802 0.3817244 0.7040784 0.4350922 0.7040784 0.4350922 0.7159696 0.7097225 0.6407552 0.6512131 0.6407552 0.6220188 0.6760947 0.7389168 0.6760947 0.6220188 0.6760947 0.6512131 0.6407552 0.5813615 0.8055043 0.5979581 0.8055043 0.5979581 0.7811627 0.922392 0.9981477 0.922392 0.9726682 0.939765 0.9726674 0.6625738 0.9577049 0.6625738 0.9455268 0.6698106 0.9455264 0.5813615 0.8055043 0.5979581 0.8055043 0.5979581 0.7811627 0.6399283 0.7159696 0.6053446 0.7159696 0.6053446 0.7040784 0.922392 0.9981477 0.939765 0.9981477 0.939765 0.9726674 0.7013 0.8055043 0.7178966 0.8055043 0.7178966 0.7811627 0.2382683 0.5696674 0.22047 0.5587286 0.7750971 0.5587286 0.9790233 0.9653841 0.9790233 0.9399046 0.9963964 0.9399037 0.604917 0.9577049 0.604917 0.9455268 0.6201248 0.9455264 0.7013 0.8055043 0.7013 0.7811635 0.7178966 0.7811627 0.9105403 0.8840407 0.9105403 0.8254291 0.9976282 0.8254272 0.314035 0.7040784 0.3817244 0.7040784 0.3817244 0.7159696 0.5981896 0.8055043 0.6131865 0.8055043 0.6131865 0.7811627 0.8932828 0.8055043 0.9098793 0.8055043 0.9098793 0.7811627 0.469676 0.7159696 0.469676 0.7040784 0.6053446 0.7040784 0.9032979 0.9981477 0.920671 0.9981477 0.920671 0.9726674 0.9105403 0.8840407 0.9105403 0.8254291 0.9976282 0.8254272 0.8754401 0.8055043 0.8754401 0.7811635 0.8920367 0.7811627 0.6504606 0.8055043 0.6617195 0.8055043 0.6617195 0.7811627 0.7013 0.8055043 0.7178966 0.8055043 0.7178966 0.7811627 0.8407947 0.8055043 0.8573912 0.8055043 0.8573912 0.7811627 0.5806607 0.8055043 0.5972573 0.8055043 0.5972573 0.7811627 0.9790233 0.9653841 0.9790233 0.9399046 0.9963964 0.9399037 0.8754401 0.8055043 0.8754401 0.7811635 0.8920367 0.7811627 0.6309161 0.9577049 0.6409682 0.9577049 0.6409682 0.9455264 0.6504606 0.8055043 0.6504606 0.7811635 0.6617195 0.7811627 0.5806607 0.8055043 0.5806607 0.7811635 0.5972573 0.7811627 0.5439914 0.8055043 0.5439914 0.7811635 0.560588 0.7811627 0.8460618 0.9999493 0.8460618 0.9547137 0.8769054 0.9547121 0.693296 0.7159697 0.6399283 0.7159696 0.6399283 0.7040784 0.7389168 0.7030802 0.7389168 0.6760947 0.6220188 0.6760947 0.8230253 0.8055043 0.8230253 0.7811635 0.8396219 0.7811627 0.5529329 0.9593452 0.5595813 0.9593452 0.5595813 0.9455264 0.2382681 0.5587287 0.7615067 0.5587286 0.7750971 0.5696674 0.469676 0.7159696 0.4350922 0.7159696 0.4350922 0.7040784 0.604917 0.9577049 0.604917 0.9455268 0.6201248 0.9455264 0.5981896 0.8055043 0.5981896 0.7811635 0.6131865 0.7811627 0.525026 0.2773862 -0.004113495 0.2773862 -0.004113376 0.1921026 0.5529329 0.9593452 0.5595813 0.9593452 0.5595813 0.9455264 0.2345116 0.5587281 0.2204684 0.5696674 0.7750988 0.5696674 0.8407947 0.8055043 0.8407947 0.7811635 0.8573912 0.7811627 0.6309161 0.9577049 0.6409682 0.9577049 0.6409682 0.9455264 0.9032979 0.9981477 0.9032979 0.9726682 0.920671 0.9726674 0.5439914 0.8055043 0.5439914 0.7811635 0.560588 0.7811627 -0.004113376 0.1921026 -0.004113495 0.2773862 0.525026 0.2773862 0.8230253 0.8055043 0.8396219 0.8055043 0.8396219 0.7811627 0.8407947 0.8055043 0.8407947 0.7811627 0.8564453 0.7811627 0.8564453 0.8055043 0.5815174 0.8055043 0.5815174 0.7811627 0.596649 0.7811627 0.596649 0.8055043 0.8227283 0.8055043 0.8227283 0.7811627 0.8403014 0.7811627 0.8403014 0.8055043 0.8920898 0.8055043 0.8920898 0.7811627 0.9099121 0.7811627 0.9099121 0.8055043 0.6523181 0.8055043 0.6523181 0.7811627 0.6606139 0.7811627 0.6606139 0.8055043 0.5439197 0.8055043 0.5439197 0.7811627 0.5624693 0.7811627 0.5624693 0.8055043 0.8354492 0.980957 0.8354492 0.9702148 0.8432617 0.9702148 0.8432617 0.980957 0.7655994 0.8055043 0.7655994 0.7811627 0.7836607 0.7811627 0.7836607 0.8055043 0.5439197 0.8055043 0.5439197 0.7811627 0.5624693 0.7811627 0.5624693 0.8055043 0.7655994 0.8055043 0.7655994 0.7811627 0.7836607 0.7811627 0.7836607 0.8055043 0.7172595 0.8055043 0.7172595 0.7811627 0.7411803 0.7811627 0.7411803 0.8055043 0.7851306 0.8055043 0.7851306 0.7811627 0.8027344 0.7811627 0.8027344 0.8055043 0.7016345 0.8055043 0.7016345 0.7811627 0.7162779 0.7811627 0.7162779 0.8055043 0.5815174 0.8055043 0.5815174 0.7811627 0.596649 0.7811627 0.596649 0.8055043 0.8564453 0.8055043 0.8564453 0.7811627 0.8742676 0.7811627 0.8742676 0.8055043 0.7655994 0.8055043 0.7655994 0.7811627 0.7836607 0.7811627 0.7836607 0.8055043 0.8407947 0.8055043 0.8407947 0.7811627 0.8564453 0.7811627 0.8564453 0.8055043 0.5815174 0.8055043 0.5815174 0.7811627 0.596649 0.7811627 0.596649 0.8055043 0.8227283 0.8055043 0.8227283 0.7811627 0.8403014 0.7811627 0.8403014 0.8055043 0.8920898 0.8055043 0.8920898 0.7811627 0.9099121 0.7811627 0.9099121 0.8055043 0.6523181 0.8055043 0.6523181 0.7811627 0.6606139 0.7811627 0.6606139 0.8055043 0.5439197 0.8055043 0.5439197 0.7811627 0.5624693 0.7811627 0.5624693 0.8055043 0.8354492 0.980957 0.8354492 0.9702148 0.8432617 0.9702148 0.8432617 0.980957 0.7655994 0.8055043 0.7655994 0.7811627 0.7836607 0.7811627 0.7836607 0.8055043 0.5439197 0.8055043 0.5439197 0.7811627 0.5624693 0.7811627 0.5624693 0.8055043 0.7655994 0.8055043 0.7655994 0.7811627 0.7836607 0.7811627 0.7836607 0.8055043 0.7172595 0.8055043 0.7172595 0.7811627 0.7411803 0.7811627 0.7411803 0.8055043 0.7851306 0.8055043 0.7851306 0.7811627 0.8027344 0.7811627 0.8027344 0.8055043 0.7016345 0.8055043 0.7016345 0.7811627 0.7162779 0.7811627 0.7162779 0.8055043 0.5815174 0.8055043 0.5815174 0.7811627 0.596649 0.7811627 0.596649 0.8055043 0.8564453 0.8055043 0.8564453 0.7811627 0.8742676 0.7811627 0.8742676 0.8055043 0.7655994 0.8055043 0.7655994 0.7811627 0.7836607 0.7811627 0.7836607 0.8055043 0.7172852 0.9785156 0.7172852 0.9648438 0.7299805 0.9648438 0.7299805 0.9785156 0.8457031 1 0.8457031 0.9550781 0.8764648 0.9550781 0.8764648 1 0.7172852 0.9785156 0.7172852 0.9648438 0.7299805 0.9648438 0.7299805 0.9785156 0.8457031 1 0.8457031 0.9550781 0.8764648 0.9550781 0.8764648 1 0.5043509 0.9577049 0.5043509 0.9455264 0.5130554 0.9455264 0.5130554 0.9577049 0.6420462 0.9577049 0.6420462 0.9455264 0.651239 0.9455264 0.651239 0.9577049 0.5043509 0.9577049 0.5043509 0.9455264 0.5130554 0.9455264 0.5130554 0.9577049 0.662554 0.9577049 0.662554 0.9455264 0.6694336 0.9455264 0.6694336 0.9577049 0.6777344 0.9577049 0.6777344 0.9455264 0.6844421 0.9455264 0.6844421 0.9577049 0.5805227 0.9577049 0.5805227 0.9455264 0.5833679 0.9455264 0.5833679 0.9577049 0.662554 0.9577049 0.662554 0.9455264 0.6694336 0.9455264 0.6694336 0.9577049 0.5331595 0.9577049 0.5331595 0.9455264 0.5423523 0.9455264 0.5423523 0.9577049 0.5434134 0.9577049 0.5434134 0.9455264 0.5524902 0.9455264 0.5524902 0.9577049 0.5043509 0.9577049 0.5043509 0.9455264 0.5130554 0.9455264 0.5130554 0.9577049 0.6420462 0.9577049 0.6420462 0.9455264 0.651239 0.9455264 0.651239 0.9577049 0.5043509 0.9577049 0.5043509 0.9455264 0.5130554 0.9455264 0.5130554 0.9577049 0.662554 0.9577049 0.662554 0.9455264 0.6694336 0.9455264 0.6694336 0.9577049 0.6777344 0.9577049 0.6777344 0.9455264 0.6844421 0.9455264 0.6844421 0.9577049 0.5805227 0.9577049 0.5805227 0.9455264 0.5833679 0.9455264 0.5833679 0.9577049 0.662554 0.9577049 0.662554 0.9455264 0.6694336 0.9455264 0.6694336 0.9577049 0.5331595 0.9577049 0.5331595 0.9455264 0.5423523 0.9455264 0.5423523 0.9577049 0.5434134 0.9577049 0.5434134 0.9455264 0.5524902 0.9455264 0.5524902 0.9577049</float_array>
          <technique_common>
            <accessor source="#Plane_133-mesh-map-0-array" count="600" stride="2">
              <param name="S" type="float"/>
              <param name="T" type="float"/>
            </accessor>
          </technique_common>
        </source>
        <source id="Plane_133-mesh-colors-Col" name="Col">
          <float_array id="Plane_133-mesh-colors-Col-array" count="1536">0.9960784 0.2627451 0.2745098 1 1 0.2392157 0.2509804 1 1 0.2392157 0.2509804 1 0.9686275 0.3411765 0.3529412 1 0.9686275 0.345098 0.3529412 1 0.9686275 0.3333333 0.345098 1 0.9764706 0.3411765 0.3490196 1 0.9803922 0.345098 0.3529412 1 0.9764706 0.3529412 0.3647059 1 0.9764706 0.3411765 0.3490196 1 0.9607843 0.3764706 0.3843137 1 0.9803922 0.3294118 0.3411765 1 0.9764706 0.3529412 0.3647059 1 0.9647059 0.3647059 0.372549 1 0.9647059 0.372549 0.3803921 1 1 0.2392157 0.2509804 1 0.9882353 0.2823529 0.2941176 1 0.9882353 0.2862745 0.2941176 1 0.9882353 0.2862745 0.2941176 1 0.9686275 0.3411765 0.3529412 1 0.9686275 0.3333333 0.345098 1 1 0.2392157 0.2509804 1 1 0.2392157 0.2509804 1 1 0.2392157 0.2509804 1 1 0.2509804 0.2235294 1 1 0.2509804 0.2235294 1 1 0.2509804 0.2235294 1 0.9529412 0.3803921 0.3921568 1 0.9490196 0.4 0.4078431 1 0.9372549 0.4117647 0.4196078 1 0.9294118 0.4470588 0.4352941 1 0.9294118 0.4470588 0.4313725 1 0.9294118 0.4470588 0.4313725 1 0.9843137 0.9843137 0.9843137 1 0.9843137 0.9843137 0.9843137 1 0.9921569 0.9921569 0.9921569 1 0.9921569 0.2745098 0.2509804 1 0.9882353 0.2823529 0.254902 1 0.9960784 0.2666667 0.2392157 1 0.9647059 0.9647059 0.9647059 1 0.9764706 0.9764706 0.9764706 1 0.9764706 0.9764706 0.9764706 1 1 1 1 1 1 1 1 1 1 1 1 1 0.9764706 0.3411765 0.3490196 1 0.9803922 0.3294118 0.3411765 1 0.9803922 0.345098 0.3529412 1 0.9764706 0.3411765 0.3490196 1 0.9568628 0.3843137 0.3882353 1 0.9607843 0.3764706 0.3843137 1 0.9764706 0.3529412 0.3647059 1 0.9803922 0.345098 0.3529412 1 0.9647059 0.3647059 0.372549 1 1 0.2392157 0.2509804 1 1 0.2392157 0.2509804 1 0.9882353 0.2823529 0.2941176 1 0.9882353 0.2862745 0.2941176 1 0.9882353 0.2823529 0.2941176 1 0.9686275 0.3411765 0.3529412 1 1 0.2392157 0.2509804 1 1 0.2392157 0.2509804 1 1 0.2392157 0.2509804 1 0.9686275 0.9686275 0.9686275 1 1 1 1 1 0.9686275 0.9686275 0.9686275 1 0.9568628 0.9568628 0.9568628 1 0.9529412 0.9529412 0.9529412 1 0.9372549 0.9372549 0.9372549 1 0.9960784 0.254902 0.227451 1 0.9960784 0.2666667 0.2392157 1 0.9960784 0.2705882 0.2431373 1 0.9921569 0.9921569 0.9921569 1 0.9921569 0.9921569 0.9921569 1 0.9960784 0.9960784 0.9960784 1 0.9843137 0.3137255 0.2901961 1 0.9843137 0.3137255 0.2901961 1 0.9843137 0.3098039 0.2862745 1 0.9294118 0.4470588 0.427451 1 0.9294118 0.4509804 0.4392157 1 0.9294118 0.4588235 0.4392157 1 0.9647059 0.9647059 0.9647059 1 0.9882353 0.9882353 0.9882353 1 0.972549 0.972549 0.972549 1 0.9254902 0.9254902 0.9254902 1 0.9333333 0.9333333 0.9333333 1 0.9254902 0.9254902 0.9254902 1 0.9411765 0.427451 0.4078431 1 0.9254902 0.4470588 0.4313725 1 0.9372549 0.4392157 0.4235294 1 0.9372549 0.4117647 0.4196078 1 0.9607843 0.3764706 0.3843137 1 0.9568628 0.3843137 0.3882353 1 0.9960784 0.9960784 0.9960784 1 0.9960784 0.9960784 0.9960784 1 0.9960784 0.9960784 0.9960784 1 0.9843137 0.3058823 0.2784314 1 0.9843137 0.2980392 0.2705882 1 0.9843137 0.2941176 0.2666667 1 0.9411765 0.4313725 0.4196078 1 0.9215686 0.4549019 0.4392157 1 0.9333333 0.4352941 0.4156863 1 0.5450981 0.6980392 0.9294118 1 0.4627451 0.6470589 0.9607843 1 0.4941176 0.6627451 0.9490196 1 1 1 1 1 1 1 1 1 1 1 1 1 0.9490196 0.4039216 0.3843137 1 0.9411765 0.4196078 0.4039216 1 0.9490196 0.4 0.3843137 1 0.9411765 0.4313725 0.4078431 1 0.9333333 0.4470588 0.427451 1 0.9294118 0.4509804 0.4352941 1 0.972549 0.972549 0.972549 1 0.9882353 0.9882353 0.9882353 1 0.9803922 0.9803922 0.9803922 1 0.9176471 0.9176471 0.9176471 1 0.9254902 0.9254902 0.9254902 1 0.9294118 0.9294118 0.9294118 1 0.5215687 0.682353 0.9411765 1 0.4862745 0.6705883 0.9490196 1 0.4980392 0.6745098 0.9490196 1 0.9450981 0.4117647 0.4 1 0.9372549 0.4392157 0.4235294 1 0.9411765 0.427451 0.4078431 1 0.9529412 0.4 0.3882353 1 0.9411765 0.4352941 0.4117647 1 0.9294118 0.4470588 0.427451 1 0.9882353 0.2784314 0.254902 1 0.9882353 0.2901961 0.2666667 1 0.9843137 0.3019608 0.2823529 1 0.9294118 0.4470588 0.4235294 1 0.9294118 0.4588235 0.4392157 1 0.9294118 0.4627451 0.4431372 1 0.9607843 0.3960784 0.3764706 1 0.9529412 0.3921568 0.3764706 1 0.9490196 0.4039216 0.3843137 1 0.9254902 0.9254902 0.9254902 1 0.9372549 0.9372549 0.9372549 1 0.9294118 0.9294118 0.9294118 1 0.9882353 0.2901961 0.2666667 1 0.9843137 0.3019608 0.2823529 1 0.9882353 0.2784314 0.254902 1 0.9294118 0.4470588 0.4313725 1 0.9294118 0.4509804 0.4352941 1 0.9294118 0.4470588 0.4313725 1 1 0.2509804 0.2235294 1 1 0.2509804 0.2235294 1 1 0.2470588 0.2196078 1 1 0.2470588 0.2196078 1 1 0.2470588 0.2196078 1 1 0.2470588 0.2196078 1 1 0.2470588 0.2196078 1 1 0.2509804 0.2235294 1 1 0.2470588 0.2196078 1 0.9215686 0.9215686 0.9215686 1 0.9294118 0.9294118 0.9294118 1 0.9176471 0.9176471 0.9176471 1 0.9529412 0.9529412 0.9529412 1 0.972549 0.972549 0.972549 1 0.9529412 0.9529412 0.9529412 1 0.9882353 0.9882353 0.9882353 1 1 1 1 1 1 1 1 1 0.9960784 0.254902 0.227451 1 0.9960784 0.254902 0.227451 1 1 0.2509804 0.2235294 1 0.9843137 0.3137255 0.2901961 1 0.9803922 0.317647 0.2941176 1 0.9803922 0.3215686 0.2941176 1 0.9529412 0.3803921 0.3921568 1 0.9647059 0.3647059 0.372549 1 0.9529412 0.372549 0.3843137 1 0.9882353 0.9882353 0.9882353 1 0.9686275 0.9686275 0.9686275 1 0.9882353 0.9882353 0.9882353 1 0.9254902 0.4509804 0.4352941 1 0.9215686 0.4549019 0.4392157 1 0.9254902 0.4588235 0.4431372 1 0.9882353 0.2980392 0.2784314 1 0.9803922 0.3137255 0.2901961 1 0.9882353 0.2901961 0.2666667 1 0.6 0.4352941 0.3607843 1 0.6 0.4352941 0.3607843 1 0.6 0.4352941 0.3607843 1 0.9294118 0.4470588 0.4352941 1 0.9294118 0.4470588 0.4313725 1 0.9294118 0.4470588 0.4313725 1 0.9686275 0.345098 0.3529412 1 0.9960784 0.2627451 0.2745098 1 0.9960784 0.2627451 0.2745098 1 0.9960784 0.2666667 0.2392157 1 0.9960784 0.2705882 0.2431373 1 0.9960784 0.254902 0.227451 1 0.9843137 0.3098039 0.2862745 1 0.9843137 0.3098039 0.2862745 1 0.9843137 0.3137255 0.2901961 1 0.9921569 0.9921569 0.9921569 1 0.9921569 0.9921569 0.9921569 1 0.9921569 0.9921569 0.9921569 1 0.9568628 0.4 0.3843137 1 0.9490196 0.4039216 0.3843137 1 0.9607843 0.3960784 0.3764706 1 0.6 0.4352941 0.3607843 1 0.6 0.4352941 0.3607843 1 0.6 0.4352941 0.3607843 1 0.9411765 0.4470588 0.427451 1 0.9294118 0.4509804 0.4352941 1 0.9294118 0.4509804 0.4392157 1 0.9960784 0.2627451 0.2745098 1 0.9960784 0.2627451 0.2745098 1 1 0.2392157 0.2509804 1 0.9686275 0.3411765 0.3529412 1 0.9686275 0.345098 0.3568627 1 0.9686275 0.345098 0.3529412 1 1 0.2509804 0.2235294 1 0.9960784 0.254902 0.227451 1 1 0.2509804 0.2235294 1 0.9529412 0.3803921 0.3921568 1 0.9529412 0.372549 0.3843137 1 0.9490196 0.4 0.4078431 1 0.9294118 0.4470588 0.4352941 1 0.9294118 0.4470588 0.4313725 1 0.9294118 0.4470588 0.4313725 1 0.9843137 0.9843137 0.9843137 1 0.9843137 0.9843137 0.9843137 1 0.9843137 0.9843137 0.9843137 1 0.9921569 0.2745098 0.2509804 1 0.9843137 0.2941176 0.2666667 1 0.9882353 0.2823529 0.254902 1 0.9647059 0.9647059 0.9647059 1 0.9568628 0.9568628 0.9568628 1 0.9764706 0.9764706 0.9764706 1 1 1 1 1 1 1 1 1 1 1 1 1 0.9686275 0.9686275 0.9686275 1 0.9960784 0.9960784 0.9960784 1 1 1 1 1 0.9568628 0.9568628 0.9568628 1 0.9647059 0.9647059 0.9647059 1 0.9529412 0.9529412 0.9529412 1 0.9960784 0.254902 0.227451 1 0.9960784 0.254902 0.227451 1 0.9960784 0.2666667 0.2392157 1 0.9921569 0.9921569 0.9921569 1 0.9921569 0.9921569 0.9921569 1 0.9921569 0.9921569 0.9921569 1 0.9843137 0.3137255 0.2901961 1 0.9803922 0.317647 0.2941176 1 0.9843137 0.3137255 0.2901961 1 0.9294118 0.4470588 0.427451 1 0.9411765 0.4392157 0.4196078 1 0.9294118 0.4509804 0.4392157 1 0.9647059 0.9647059 0.9647059 1 0.9803922 0.9803922 0.9803922 1 0.9882353 0.9882353 0.9882353 1 0.9254902 0.9254902 0.9254902 1 0.9254902 0.9254902 0.9254902 1 0.9333333 0.9333333 0.9333333 1 0.9411765 0.427451 0.4078431 1 0.9411765 0.4313725 0.4196078 1 0.9254902 0.4470588 0.4313725 1 0.9372549 0.4117647 0.4196078 1 0.9490196 0.4 0.4078431 1 0.9607843 0.3764706 0.3843137 1 0.9960784 0.9960784 0.9960784 1 0.9921569 0.9921569 0.9921569 1 0.9960784 0.9960784 0.9960784 1 0.9843137 0.3058823 0.2784314 1 0.9843137 0.3098039 0.2862745 1 0.9843137 0.2980392 0.2705882 1 0.9411765 0.4313725 0.4196078 1 0.9254902 0.4470588 0.4313725 1 0.9215686 0.4549019 0.4392157 1 0.5450981 0.6980392 0.9294118 1 0.5686275 0.7176471 0.9254902 1 0.4627451 0.6470589 0.9607843 1 1 1 1 1 1 1 1 1 1 1 1 1 0.9490196 0.4039216 0.3843137 1 0.9450981 0.4117647 0.4 1 0.9411765 0.4196078 0.4039216 1 0.9411765 0.4313725 0.4078431 1 0.9529412 0.4 0.3882353 1 0.9333333 0.4470588 0.427451 1 0.972549 0.972549 0.972549 1 0.9686275 0.9686275 0.9686275 1 0.9882353 0.9882353 0.9882353 1 0.9176471 0.9176471 0.9176471 1 0.9254902 0.9254902 0.9254902 1 0.9254902 0.9254902 0.9254902 1 0.5215687 0.682353 0.9411765 1 0.4705882 0.6470589 0.9529412 1 0.4862745 0.6705883 0.9490196 1 0.9450981 0.4117647 0.4 1 0.9411765 0.4196078 0.4039216 1 0.9372549 0.4392157 0.4235294 1 0.9529412 0.4 0.3882353 1 0.9568628 0.4 0.3843137 1 0.9411765 0.4352941 0.4117647 1 0.9882353 0.2784314 0.254902 1 0.9921569 0.2745098 0.2509804 1 0.9882353 0.2901961 0.2666667 1 0.9294118 0.4470588 0.4235294 1 0.9294118 0.4470588 0.427451 1 0.9294118 0.4588235 0.4392157 1 0.9607843 0.3960784 0.3764706 1 0.9607843 0.372549 0.3529412 1 0.9529412 0.3921568 0.3764706 1 0.9254902 0.9254902 0.9254902 1 0.9333333 0.9333333 0.9333333 1 0.9372549 0.9372549 0.9372549 1 0.9882353 0.2901961 0.2666667 1 0.9803922 0.3137255 0.2901961 1 0.9843137 0.3019608 0.2823529 1 0.9294118 0.4470588 0.4313725 1 0.9254902 0.4509804 0.4352941 1 0.9294118 0.4509804 0.4352941 1 1 0.2509804 0.2235294 1 0.9960784 0.254902 0.227451 1 1 0.2509804 0.2235294 1 1 0.2470588 0.2196078 1 1 0.2509804 0.2235294 1 1 0.2470588 0.2196078 1 1 0.2470588 0.2196078 1 1 0.2509804 0.2235294 1 1 0.2509804 0.2235294 1 0.9215686 0.9215686 0.9215686 1 0.9333333 0.9333333 0.9333333 1 0.9294118 0.9294118 0.9294118 1 0.9529412 0.9529412 0.9529412 1 0.9647059 0.9647059 0.9647059 1 0.972549 0.972549 0.972549 1 0.9882353 0.9882353 0.9882353 1 0.9686275 0.9686275 0.9686275 1 1 1 1 1 0.9960784 0.254902 0.227451 1 0.9960784 0.2666667 0.2392157 1 0.9960784 0.254902 0.227451 1 0.9843137 0.3137255 0.2901961 1 0.9843137 0.3137255 0.2862745 1 0.9803922 0.317647 0.2941176 1 0.9529412 0.3803921 0.3921568 1 0.9647059 0.372549 0.3803921 1 0.9647059 0.3647059 0.372549 1 0.9882353 0.9882353 0.9882353 1 0.9686275 0.9686275 0.9686275 1 0.9686275 0.9686275 0.9686275 1 0.9254902 0.4509804 0.4352941 1 0.9294118 0.4509804 0.4352941 1 0.9215686 0.4549019 0.4392157 1 0.9882353 0.2980392 0.2784314 1 0.9803922 0.3254902 0.3019608 1 0.9803922 0.3137255 0.2901961 1 0.6 0.4352941 0.3607843 1 0.6 0.4352941 0.3607843 1 0.6 0.4352941 0.3607843 1 0.9294118 0.4470588 0.4352941 1 0.9294118 0.4470588 0.4313725 1 0.9294118 0.4470588 0.4313725 1 0.9686275 0.345098 0.3529412 1 0.9686275 0.345098 0.3568627 1 0.9960784 0.2627451 0.2745098 1 0.9960784 0.2666667 0.2392157 1 0.9921569 0.2784314 0.2509804 1 0.9960784 0.2705882 0.2431373 1 0.9843137 0.3098039 0.2862745 1 0.9843137 0.3058823 0.2784314 1 0.9843137 0.3098039 0.2862745 1 0.9921569 0.9921569 0.9921569 1 0.9843137 0.9843137 0.9843137 1 0.9921569 0.9921569 0.9921569 1 0.9568628 0.4 0.3843137 1 0.9411765 0.4352941 0.4117647 1 0.9490196 0.4039216 0.3843137 1 0.6 0.4352941 0.3607843 1 0.6 0.4352941 0.3607843 1 0.6 0.4352941 0.3607843 1 0.9411765 0.4470588 0.427451 1 0.9411765 0.4313725 0.4078431 1 0.9294118 0.4509804 0.4352941 1</float_array>
          <technique_common>
            <accessor source="#Plane_133-mesh-colors-Col-array" count="384" stride="4">
              <param name="R" type="float"/>
              <param name="G" type="float"/>
              <param name="B" type="float"/>
              <param name="A" type="float"/>
            </accessor>
          </technique_common>
        </source>
        <vertices id="Plane_133-mesh-vertices">
          <input semantic="POSITION" source="#Plane_133-mesh-positions"/>
        </vertices>
        <triangles material="architraves-material" count="24">
          <input semantic="VERTEX" source="#Plane_133-mesh-vertices" offset="0"/>
          <input semantic="NORMAL" source="#Plane_133-mesh-normals" offset="1"/>
          <input semantic="TEXCOORD" source="#Plane_133-mesh-map-0" offset="2" set="0"/>
          <input semantic="COLOR" source="#Plane_133-mesh-colors-Col" offset="3" set="0"/>
          <p>187 0 0 0 195 1 1 1 189 2 2 2 192 3 3 3 186 3 4 4 188 3 5 5 172 4 6 6 184 5 7 7 173 6 8 8 172 7 9 9 180 8 10 10 185 7 11 11 173 9 12 12 183 10 13 13 171 11 14 14 191 12 15 15 197 12 16 16 190 12 17 17 190 13 18 18 192 13 19 19 188 13 20 20 195 14 21 21 191 15 22 22 189 16 23 23 169 18 27 27 181 19 28 28 168 20 29 29 172 27 45 45 185 27 46 46 184 27 47 47 172 28 48 48 170 29 49 49 180 30 50 50 173 31 51 51 184 32 52 52 183 33 53 53 191 34 54 54 196 34 55 55 197 34 56 56 190 35 57 57 197 35 58 58 192 35 59 59 195 36 60 60 196 37 61 61 191 37 62 62 168 50 90 90 180 50 91 91 170 50 92 92 169 80 171 171 183 81 172 172 182 82 173 173 186 89 189 189 194 90 190 190 187 90 191 191 187 98 210 210 194 99 211 211 195 100 212 212 192 101 213 213 193 101 214 214 186 101 215 215 169 102 219 219 182 103 220 220 181 104 221 221 168 121 264 264 181 121 265 265 180 121 266 266 169 153 345 345 171 154 346 346 183 155 347 347 186 164 363 363 193 165 364 364 194 166 365 365</p>
        </triangles>
        <triangles material="industrial-material" count="12">
          <input semantic="VERTEX" source="#Plane_133-mesh-vertices" offset="0"/>
          <input semantic="NORMAL" source="#Plane_133-mesh-normals" offset="1"/>
          <input semantic="TEXCOORD" source="#Plane_133-mesh-map-0" offset="2" set="0"/>
          <input semantic="COLOR" source="#Plane_133-mesh-colors-Col" offset="3" set="0"/>
          <p>175 26 42 42 180 26 43 43 181 26 44 44 183 48 81 81 178 48 82 82 177 48 83 83 176 55 105 105 181 55 106 106 182 55 107 107 185 59 114 114 178 59 115 115 184 59 116 116 182 76 159 159 177 76 160 160 176 76 161 161 185 83 174 174 174 83 175 175 179 83 176 176 175 111 234 234 174 111 235 235 180 111 236 236 183 120 255 255 184 120 256 256 178 120 257 257 176 126 279 279 175 126 280 280 181 126 281 281 185 130 288 288 179 130 289 289 178 130 290 290 182 148 333 333 183 148 334 334 177 148 335 335 185 156 348 348 180 157 349 349 174 156 350 350</p>
        </triangles>
        <triangles material="construction-material" count="4">
          <input semantic="VERTEX" source="#Plane_133-mesh-vertices" offset="0"/>
          <input semantic="NORMAL" source="#Plane_133-mesh-normals" offset="1"/>
          <input semantic="TEXCOORD" source="#Plane_133-mesh-map-0" offset="2" set="0"/>
          <input semantic="COLOR" source="#Plane_133-mesh-colors-Col" offset="3" set="0"/>
          <p>1 86 183 183 2 86 184 184 3 86 185 185 6 97 204 204 5 97 205 205 7 97 206 206 1 86 357 357 0 86 358 358 2 86 359 359 6 97 378 378 4 97 379 379 5 97 380 380</p>
        </triangles>
        <triangles material="clutter_commercial-material" count="132">
          <input semantic="VERTEX" source="#Plane_133-mesh-vertices" offset="0"/>
          <input semantic="NORMAL" source="#Plane_133-mesh-normals" offset="1"/>
          <input semantic="TEXCOORD" source="#Plane_133-mesh-map-0" offset="2" set="0"/>
          <input semantic="COLOR" source="#Plane_133-mesh-colors-Col" offset="3" set="0"/>
          <p>171 25 39 39 172 25 40 40 173 25 41 41 186 38 63 63 189 38 64 64 188 38 65 65 170 39 66 66 169 39 67 67 168 39 68 68 142 41 72 72 141 41 73 73 143 41 74 74 62 49 84 84 61 49 85 85 60 49 86 86 146 51 93 93 145 51 94 94 147 51 95 95 166 54 102 102 165 54 103 103 167 54 104 104 58 17 117 117 57 17 118 118 56 17 119 119 86 60 120 120 85 60 121 121 87 60 122 122 66 69 138 138 65 69 139 139 67 69 140 140 190 77 162 162 189 77 163 163 191 77 164 164 138 94 198 198 137 94 199 199 139 94 200 200 171 110 231 231 170 110 232 232 172 110 233 233 186 112 237 237 187 112 238 238 189 112 239 239 170 113 240 240 171 113 241 241 169 113 242 242 142 49 246 246 140 49 247 247 141 49 248 248 62 41 258 258 63 41 259 259 61 41 260 260 146 122 267 267 144 122 268 268 145 122 269 269 166 125 276 276 164 125 277 277 165 125 278 278 58 17 291 291 59 17 292 292 57 17 293 293 86 131 294 294 84 131 295 295 85 131 296 296 66 69 312 312 64 69 313 313 65 69 314 314 190 149 336 336 188 149 337 337 189 149 338 338 138 94 372 372 136 94 373 373 137 94 374 374 198 17 384 108 200 17 386 108 199 17 385 108 198 17 384 108 201 17 387 108 200 17 386 108 202 17 388 108 204 17 390 108 203 17 389 108 202 17 388 108 205 17 391 108 204 17 390 108 206 17 392 108 208 17 394 108 207 17 393 108 206 17 392 108 209 17 395 108 208 17 394 108 210 17 396 108 212 17 398 108 211 17 397 108 210 17 396 108 213 17 399 108 212 17 398 108 214 17 400 108 216 17 402 108 215 17 401 108 214 17 400 108 217 17 403 108 216 17 402 108 218 17 404 108 220 17 406 108 219 17 405 108 218 17 404 108 221 17 407 108 220 17 406 108 222 17 408 108 224 17 410 108 223 17 409 108 222 17 408 108 225 17 411 108 224 17 410 108 226 17 412 108 228 17 414 108 227 17 413 108 226 17 412 108 229 17 415 108 228 17 414 108 230 17 416 108 232 17 418 108 231 17 417 108 230 17 416 108 233 17 419 108 232 17 418 108 234 17 420 108 236 17 422 108 235 17 421 108 234 17 420 108 237 17 423 108 236 17 422 108 238 17 424 108 240 17 426 108 239 17 425 108 238 17 424 108 241 17 427 108 240 17 426 108 242 17 428 108 244 17 430 108 243 17 429 108 242 17 428 108 245 17 431 108 244 17 430 108 246 17 432 108 248 17 434 108 247 17 433 108 246 17 432 108 249 17 435 108 248 17 434 108 250 17 436 108 252 17 438 108 251 17 437 108 250 17 436 108 253 17 439 108 252 17 438 108 254 17 440 108 256 17 442 108 255 17 441 108 254 17 440 108 257 17 443 108 256 17 442 108 258 17 444 108 260 17 446 108 259 17 445 108 258 17 444 108 261 17 447 108 260 17 446 108 262 17 448 180 263 17 449 180 264 17 450 180 262 17 448 180 264 17 450 180 265 17 451 180 266 17 452 180 267 17 453 180 268 17 454 180 266 17 452 180 268 17 454 180 269 17 455 180 270 17 456 180 271 17 457 180 272 17 458 180 270 17 456 180 272 17 458 180 273 17 459 180 274 17 460 180 275 17 461 180 276 17 462 180 274 17 460 180 276 17 462 180 277 17 463 180 278 17 464 180 279 17 465 180 280 17 466 180 278 17 464 180 280 17 466 180 281 17 467 180 282 17 468 180 283 17 469 180 284 17 470 180 282 17 468 180 284 17 470 180 285 17 471 180 286 17 472 180 287 17 473 180 288 17 474 180 286 17 472 180 288 17 474 180 289 17 475 180 290 17 476 180 291 17 477 180 292 17 478 180 290 17 476 180 292 17 478 180 293 17 479 180 294 17 480 180 295 17 481 180 296 17 482 180 294 17 480 180 296 17 482 180 297 17 483 180 298 17 484 180 299 17 485 180 300 17 486 180 298 17 484 180 300 17 486 180 301 17 487 180 302 17 488 180 303 17 489 180 304 17 490 180 302 17 488 180 304 17 490 180 305 17 491 180 306 17 492 180 307 17 493 180 308 17 494 180 306 17 492 180 308 17 494 180 309 17 495 180 310 17 496 180 311 17 497 180 312 17 498 180 310 17 496 180 312 17 498 180 313 17 499 180 314 17 500 180 315 17 501 180 316 17 502 180 314 17 500 180 316 17 502 180 317 17 503 180 318 17 504 180 319 17 505 180 320 17 506 180 318 17 504 180 320 17 506 180 321 17 507 180 322 17 508 180 323 17 509 180 324 17 510 180 322 17 508 180 324 17 510 180 325 17 511 180 326 22 512 33 327 22 513 33 328 22 514 33 326 22 512 33 328 22 514 33 329 22 515 33 330 22 516 33 331 22 517 33 332 22 518 33 330 22 516 33 332 22 518 33 333 22 519 33 334 69 520 156 335 69 521 156 336 69 522 156 334 69 520 156 336 69 522 156 337 69 523 156 338 69 524 156 339 69 525 156 340 69 526 156 338 69 524 156 340 69 526 156 341 69 527 156 342 87 528 186 344 87 530 186 343 87 529 186 342 87 528 186 345 87 531 186 344 87 530 186 346 87 532 186 348 87 534 186 347 87 533 186 346 87 532 186 349 87 535 186 348 87 534 186 350 87 536 186 352 87 538 186 351 87 537 186 350 87 536 186 353 87 539 186 352 87 538 186 354 87 540 186 356 87 542 186 355 87 541 186 354 87 540 186 357 87 543 186 356 87 542 186 358 87 544 186 360 87 546 186 359 87 545 186 358 87 544 186 361 87 547 186 360 87 546 186 362 87 548 186 364 87 550 186 363 87 549 186 362 87 548 186 365 87 551 186 364 87 550 186 366 87 552 186 368 87 554 186 367 87 553 186 366 87 552 186 369 87 555 186 368 87 554 186 370 87 556 186 372 87 558 186 371 87 557 186 370 87 556 186 373 87 559 186 372 87 558 186 374 87 560 186 376 87 562 186 375 87 561 186 374 87 560 186 377 87 563 186 376 87 562 186 378 78 564 168 380 78 566 168 379 78 565 168 378 78 564 168 381 78 567 168 380 78 566 168 382 78 568 168 384 78 570 168 383 78 569 168 382 78 568 168 385 78 571 168 384 78 570 168 386 78 572 168 388 78 574 168 387 78 573 168 386 78 572 168 389 78 575 168 388 78 574 168 390 78 576 168 392 78 578 168 391 78 577 168 390 78 576 168 393 78 579 168 392 78 578 168 394 78 580 168 396 78 582 168 395 78 581 168 394 78 580 168 397 78 583 168 396 78 582 168 398 78 584 168 400 78 586 168 399 78 585 168 398 78 584 168 401 78 587 168 400 78 586 168 402 78 588 168 404 78 590 168 403 78 589 168 402 78 588 168 405 78 591 168 404 78 590 168 406 78 592 168 408 78 594 168 407 78 593 168 406 78 592 168 409 78 595 168 408 78 594 168 410 78 596 168 412 78 598 168 411 78 597 168 410 78 596 168 413 78 599 168 412 78 598 168</p>
        </triangles>
      </mesh>
    </geometry>
    <geometry id="Plane_026-mesh" name="Plane.026">
      <mesh>
        <source id="Plane_026-mesh-positions">
          <float_array id="Plane_026-mesh-positions-array" count="60">1.372264 0.2939949 6.105491 0.6846213 0.2939517 5.273185 -0.6847077 0.2939517 5.273185 -1.372307 0.2939516 6.105491 -1.372307 0.2939516 6.80519 1.372264 0.2939949 6.80519 1.372188 -0.2064588 6.105491 0.6845889 -0.2064588 5.273185 -0.6846968 -0.2064157 5.273185 -1.372296 -0.2064157 6.105491 -1.372296 -0.2064157 6.80519 1.372188 -0.2064588 6.80519 0.4391365 0.07522505 5.273185 -0.4391796 0.07526814 5.273185 0.4390933 -0.2064696 5.273185 -0.4391796 -0.2063834 5.273185 0.4390933 -0.2064696 0 -0.4391796 -0.2063834 0 0.4391365 0.07522505 0 -0.4391796 0.07526814 0</float_array>
          <technique_common>
            <accessor source="#Plane_026-mesh-positions-array" count="20" stride="3">
              <param name="X" type="float"/>
              <param name="Y" type="float"/>
              <param name="Z" type="float"/>
            </accessor>
          </technique_common>
        </source>
        <source id="Plane_026-mesh-normals">
          <float_array id="Plane_026-mesh-normals-array" count="90">-1.57668e-5 1 -2.10793e-5 -0.7709426 -1.69923e-5 -0.6369047 0 0 1 1 -1.50813e-4 0 1 3.28571e-4 0 0.7709431 -4.9869e-5 -0.6369041 3.7742e-7 0 -1 -3.14829e-5 -1 -1.41073e-5 -1 -2.21321e-5 0 -1 0 0 4.91154e-5 1 0 1 -1.53122e-4 0 -9.82357e-5 -1 0 -6.27994e-5 1 0 0 1 0 0 1 0 -0.7709428 -1.65509e-5 -0.6369045 0 0 1 1 -1.51153e-4 0 1 1.27729e-4 3.89914e-4 0.770923 -1.16495e-4 -0.6369284 -6.95882e-7 0 -1 0 -1 0 0 -0.9999997 9.58767e-4 -2.03134e-4 -0.9999995 -9.36987e-4 -8.24263e-4 -0.9999997 -5.08144e-4 -1.57021e-5 -1 7.08809e-6 0 -1 0 -1 -2.14511e-5 0 -9.82357e-5 -1 0</float_array>
          <technique_common>
            <accessor source="#Plane_026-mesh-normals-array" count="30" stride="3">
              <param name="X" type="float"/>
              <param name="Y" type="float"/>
              <param name="Z" type="float"/>
            </accessor>
          </technique_common>
        </source>
        <source id="Plane_026-mesh-map-0">
          <float_array id="Plane_026-mesh-map-0-array" count="168">0.9128307 0.4793922 0.9128307 0.5423763 0.8776554 0.5266078 0.0574584 0.9966756 0.04615539 0.9774641 0.05764102 0.9773386 0.4620976 0.9791358 0.4506085 0.9161188 0.4620976 0.9161188 0.9773682 0.1968045 0.9890241 0.2127434 0.977537 0.212868 0.9773682 0.2317517 0.9890241 0.2127434 0.9888539 0.2316271 0.9813489 0.9013494 0.9928373 0.8699074 0.9928373 0.9013484 0.4263934 0.8939571 0.3912165 0.8467402 0.4263934 0.8625261 0.05764102 0.9773386 0.04597413 0.9614009 0.05745977 0.9612753 0.6295323 0.7313725 0.6230674 0.8332465 0.6230674 0.7313703 0.9191245 0.5423892 0.8989681 0.6442636 0.8989681 0.5423823 0.6295331 0.6294921 0.6230667 0.73137 0.6230667 0.6294941 0.2134344 0.8112925 0.1932744 0.9131799 0.1932744 0.8112936 0.9128307 0.5423763 0.8967655 0.5423817 0.8776554 0.5266078 0.8776554 0.5266078 0.8776555 0.495183 0.9128307 0.4793922 0.8776555 0.495183 0.8967655 0.4793975 0.9128307 0.4793922 0.0574584 0.9966756 0.04597413 0.9968012 0.04615539 0.9774641 0.4620976 0.9791358 0.4506064 0.9791372 0.4506085 0.9161188 0.9773682 0.1968045 0.9888553 0.19668 0.9890241 0.2127434 0.9773682 0.2317517 0.977537 0.212868 0.9890241 0.2127434 0.9813489 0.9013494 0.9813475 0.869907 0.9928373 0.8699074 0.4263934 0.8939571 0.4072825 0.9097393 0.3912165 0.9097384 0.3912165 0.9097384 0.3912165 0.8467402 0.4263934 0.8939571 0.3912165 0.8467402 0.4072825 0.8467411 0.4263934 0.8625261 0.05764102 0.9773386 0.04615539 0.9774641 0.04597413 0.9614009 0.6295323 0.7313725 0.6295323 0.8332488 0.6230674 0.8332465 0.9191245 0.5423892 0.9191245 0.6442705 0.8989681 0.6442636 0.6295331 0.6294921 0.6295331 0.731368 0.6230667 0.73137 0.2134344 0.8112925 0.2134344 0.9131789 0.1932744 0.9131799</float_array>
          <technique_common>
            <accessor source="#Plane_026-mesh-map-0-array" count="84" stride="2">
              <param name="S" type="float"/>
              <param name="T" type="float"/>
            </accessor>
          </technique_common>
        </source>
        <source id="Plane_026-mesh-colors-Attribute" name="Attribute">
          <float_array id="Plane_026-mesh-colors-Attribute-array" count="336">1 1 1 1 1 1 1 1 1 1 1 1 1 1 1 1 1 1 1 1 1 1 1 1 1 1 1 1 1 1 1 1 1 1 1 1 1 1 1 1 1 1 1 1 1 1 1 1 1 1 1 1 1 1 1 1 1 1 1 1 1 1 1 1 1 1 1 1 1 1 1 1 1 1 1 1 1 1 1 1 1 1 1 1 1 1 1 1 1 1 1 1 1 1 1 1 1 1 1 1 1 1 1 1 1 1 1 1 1 1 1 1 1 1 1 1 1 1 1 1 1 1 1 1 1 1 1 1 1 1 1 1 1 1 1 1 1 1 1 1 1 1 1 1 1 1 1 1 1 1 1 1 1 1 1 1 1 1 1 1 1 1 1 1 1 1 1 1 1 1 1 1 1 1 1 1 1 1 1 1 1 1 1 1 1 1 1 1 1 1 1 1 1 1 1 1 1 1 1 1 1 1 1 1 1 1 1 1 1 1 1 1 1 1 1 1 1 1 1 1 1 1 1 1 1 1 1 1 1 1 1 1 1 1 1 1 1 1 1 1 1 1 1 1 1 1 1 1 1 1 1 1 1 1 1 1 1 1 1 1 1 1 1 1 1 1 1 1 1 1 1 1 1 1 1 1 1 1 1 1 1 1 1 1 1 1 1 1 1 1 1 1 1 1 1 1 1 1 1 1 1 1 1 1 1 1 1 1 1 1 1 1 1 1 1 1 1 1 1 1 1 1 1 1 1 1 1 1 1 1 1 1 1 1 1 1</float_array>
          <technique_common>
            <accessor source="#Plane_026-mesh-colors-Attribute-array" count="84" stride="4">
              <param name="R" type="float"/>
              <param name="G" type="float"/>
              <param name="B" type="float"/>
              <param name="A" type="float"/>
            </accessor>
          </technique_common>
        </source>
        <vertices id="Plane_026-mesh-vertices">
          <input semantic="POSITION" source="#Plane_026-mesh-positions"/>
        </vertices>
        <triangles material="industrial-material" count="28">
          <input semantic="VERTEX" source="#Plane_026-mesh-vertices" offset="0"/>
          <input semantic="NORMAL" source="#Plane_026-mesh-normals" offset="1"/>
          <input semantic="TEXCOORD" source="#Plane_026-mesh-map-0" offset="2" set="0"/>
          <input semantic="COLOR" source="#Plane_026-mesh-colors-Attribute" offset="3" set="0"/>
          <p>4 0 0 0 5 0 1 1 1 0 2 2 2 1 3 3 9 1 4 4 3 1 5 5 11 2 6 6 4 2 7 7 10 2 8 8 5 3 9 9 6 4 10 10 0 3 11 11 1 5 12 12 6 5 13 13 7 5 14 14 2 6 15 15 7 6 16 16 8 6 17 17 7 7 18 18 10 7 19 19 8 7 20 20 3 8 21 21 10 8 22 22 4 8 23 23 13 9 24 24 17 9 25 25 15 9 26 26 12 10 27 27 19 10 28 28 13 10 29 29 14 11 30 30 18 11 31 31 12 11 32 32 15 12 33 33 16 12 34 34 14 12 35 35 5 13 36 36 0 13 37 37 1 13 38 38 1 14 39 39 2 14 40 40 4 14 41 41 2 15 42 42 3 15 43 43 4 15 44 44 2 16 45 45 8 16 46 46 9 16 47 47 11 17 48 48 5 17 49 49 4 17 50 50 5 18 51 51 11 18 52 52 6 19 53 53 1 20 54 54 0 20 55 55 6 20 56 56 2 21 57 57 1 21 58 58 7 21 59 59 7 22 60 60 6 23 61 61 11 24 62 62 11 25 63 63 10 26 64 64 7 26 65 65 10 27 66 66 9 27 67 67 8 27 68 68 3 28 69 69 9 28 70 70 10 28 71 71 13 9 72 72 19 9 73 73 17 9 74 74 12 10 75 75 18 10 76 76 19 10 77 77 14 11 78 78 16 11 79 79 18 11 80 80 15 29 81 81 17 29 82 82 16 29 83 83</p>
        </triangles>
      </mesh>
    </geometry>
  </library_geometries>
  <library_visual_scenes>
    <visual_scene id="Scene" name="Scene">
      <node id="base00" name="base00" type="NODE">
        <matrix sid="transform">1 0 0 0 0 1 0 0 0 0 1 0 0 0 0 1</matrix>
        <node id="start01" name="start01" type="NODE">
          <matrix sid="transform">1 0 0 0 0 1 0 0 0 0 1 0 0 0 0 1</matrix>
          <node id="nulldetail10" name="nulldetail10" type="NODE">
            <matrix sid="transform">1 0 0 0 0 1 0 0 0 0 1 0 0 0 0 1</matrix>
          </node>
          <node id="Colmesh_s_full_service_sign_001-1" name="Colmesh_s_full_service_sign_001-1" type="NODE">
            <matrix sid="transform">1 0 0 0 0 1 0 0 0 0 1 0 0 0 0 1</matrix>
            <instance_geometry url="#Plane_026-mesh" name="Colmesh_s_full_service_sign_001-1">
              <bind_material>
                <technique_common>
                  <instance_material symbol="industrial-material" target="#industrial-material">
                    <bind_vertex_input semantic="UVMap" input_semantic="TEXCOORD" input_set="0"/>
                  </instance_material>
                </technique_common>
              </bind_material>
            </instance_geometry>
          </node>
          <node id="s_full_service_sign_001_L45" name="s_full_service_sign_001_L45" type="NODE">
            <matrix sid="transform">1 0 0 0 0 1 0 0 0 0 1 0 0 0 0 1</matrix>
            <instance_geometry url="#Plane_133-mesh" name="s_full_service_sign_001_L45">
              <bind_material>
                <technique_common>
                  <instance_material symbol="architraves-material" target="#architraves-material">
                    <bind_vertex_input semantic="UVMap" input_semantic="TEXCOORD" input_set="0"/>
                  </instance_material>
                  <instance_material symbol="industrial-material" target="#industrial-material">
                    <bind_vertex_input semantic="UVMap" input_semantic="TEXCOORD" input_set="0"/>
                  </instance_material>
                  <instance_material symbol="windows_doors_reflective-material" target="#windows_doors_reflective-material">
                    <bind_vertex_input semantic="UVMap" input_semantic="TEXCOORD" input_set="0"/>
                  </instance_material>
                  <instance_material symbol="corrugation-material" target="#corrugation-material">
                    <bind_vertex_input semantic="UVMap" input_semantic="TEXCOORD" input_set="0"/>
                  </instance_material>
                  <instance_material symbol="slabs_large-material" target="#slabs_large-material">
                    <bind_vertex_input semantic="UVMap" input_semantic="TEXCOORD" input_set="0"/>
                  </instance_material>
                  <instance_material symbol="metal_plates-material" target="#metal_plates-material">
                    <bind_vertex_input semantic="UVMap" input_semantic="TEXCOORD" input_set="0"/>
                  </instance_material>
                  <instance_material symbol="balustrades-material" target="#balustrades-material">
                    <bind_vertex_input semantic="UVMap" input_semantic="TEXCOORD" input_set="0"/>
                  </instance_material>
                  <instance_material symbol="brick_painted-material" target="#brick_painted-material">
                    <bind_vertex_input semantic="UVMap" input_semantic="TEXCOORD" input_set="0"/>
                  </instance_material>
                  <instance_material symbol="stucco1_white-material" target="#stucco1_white-material">
                    <bind_vertex_input semantic="UVMap" input_semantic="TEXCOORD" input_set="0"/>
                  </instance_material>
                  <instance_material symbol="columns-material" target="#columns-material">
                    <bind_vertex_input semantic="UVMap" input_semantic="TEXCOORD" input_set="0"/>
                  </instance_material>
                  <instance_material symbol="construction-material" target="#construction-material">
                    <bind_vertex_input semantic="UVMap" input_semantic="TEXCOORD" input_set="0"/>
                  </instance_material>
                  <instance_material symbol="clutter_commercial-material" target="#clutter_commercial-material">
                    <bind_vertex_input semantic="UVMap" input_semantic="TEXCOORD" input_set="0"/>
                  </instance_material>
                  <instance_material symbol="brick_plain-material" target="#brick_plain-material">
                    <bind_vertex_input semantic="UVMap" input_semantic="TEXCOORD" input_set="0"/>
                  </instance_material>
                  <instance_material symbol="stone_brick_regular-material" target="#stone_brick_regular-material">
                    <bind_vertex_input semantic="UVMap" input_semantic="TEXCOORD" input_set="0"/>
                  </instance_material>
                  <instance_material symbol="curbs-material" target="#curbs-material">
                    <bind_vertex_input semantic="UVMap" input_semantic="TEXCOORD" input_set="0"/>
                  </instance_material>
                  <instance_material symbol="wirefence-material" target="#wirefence-material">
                    <bind_vertex_input semantic="UVMap" input_semantic="TEXCOORD" input_set="0"/>
                  </instance_material>
                  <instance_material symbol="groundmesh_grass2-material" target="#groundmesh_grass2-material">
                    <bind_vertex_input semantic="UVMap" input_semantic="TEXCOORD" input_set="0"/>
                  </instance_material>
                  <instance_material symbol="billboards-material" target="#billboards-material">
                    <bind_vertex_input semantic="UVMap" input_semantic="TEXCOORD" input_set="0"/>
                  </instance_material>
                  <instance_material symbol="road_asphalt-material" target="#road_asphalt-material">
                    <bind_vertex_input semantic="UVMap" input_semantic="TEXCOORD" input_set="0"/>
                  </instance_material>
                </technique_common>
              </bind_material>
            </instance_geometry>
          </node>
        </node>
      </node>
    </visual_scene>
  </library_visual_scenes>
  <scene>
    <instance_visual_scene url="#Scene"/>
  </scene>
</COLLADA>