<?xml version="1.0" encoding="utf-8"?>
<COLLADA xmlns="http://www.collada.org/2005/11/COLLADASchema" version="1.4.1" xmlns:xsi="http://www.w3.org/2001/XMLSchema-instance">
  <asset>
    <contributor>
      <author>Blender User</author>
      <authoring_tool>Blender 4.5.5 LTS commit date:2025-11-17, commit time:16:03, hash:836beaaf597a</authoring_tool>
    </contributor>
    <created>2026-05-13T15:48:47</created>
    <modified>2026-05-13T15:48:47</modified>
    <unit name="meter" meter="1"/>
    <up_axis>Z_UP</up_axis>
  </asset>
  <library_effects>
    <effect id="architraves-effect">
      <profile_COMMON>
        <technique sid="common">
          <lambert>
            <emission>
              <color sid="emission">0 0 0 1</color>
            </emission>
            <diffuse>
              <color sid="diffuse">0.8 0.8 0.8 1</color>
            </diffuse>
            <index_of_refraction>
              <float sid="ior">1.45</float>
            </index_of_refraction>
          </lambert>
        </technique>
      </profile_COMMON>
    </effect>
    <effect id="industrial-effect">
      <profile_COMMON>
        <technique sid="common">
          <lambert>
            <emission>
              <color sid="emission">0 0 0 1</color>
            </emission>
            <diffuse>
              <color sid="diffuse">0 0 0 1</color>
            </diffuse>
            <reflectivity>
              <float sid="specular">1</float>
            </reflectivity>
            <index_of_refraction>
              <float sid="ior">1.45</float>
            </index_of_refraction>
          </lambert>
        </technique>
      </profile_COMMON>
    </effect>
    <effect id="windows_doors_reflective-effect">
      <profile_COMMON>
        <technique sid="common">
          <lambert>
            <emission>
              <color sid="emission">0 0 0 1</color>
            </emission>
            <diffuse>
              <color sid="diffuse">0.8 0.8 0.8 1</color>
            </diffuse>
            <index_of_refraction>
              <float sid="ior">1.45</float>
            </index_of_refraction>
          </lambert>
        </technique>
      </profile_COMMON>
    </effect>
    <effect id="corrugation-effect">
      <profile_COMMON>
        <technique sid="common">
          <lambert>
            <emission>
              <color sid="emission">0 0 0 1</color>
            </emission>
            <diffuse>
              <color sid="diffuse">0.8 0.8 0.8 1</color>
            </diffuse>
            <index_of_refraction>
              <float sid="ior">1.45</float>
            </index_of_refraction>
          </lambert>
        </technique>
      </profile_COMMON>
    </effect>
    <effect id="slabs_large-effect">
      <profile_COMMON>
        <technique sid="common">
          <lambert>
            <emission>
              <color sid="emission">0 0 0 1</color>
            </emission>
            <diffuse>
              <color sid="diffuse">0.8 0.8 0.8 1</color>
            </diffuse>
            <index_of_refraction>
              <float sid="ior">1.45</float>
            </index_of_refraction>
          </lambert>
        </technique>
      </profile_COMMON>
    </effect>
    <effect id="metal_plates-effect">
      <profile_COMMON>
        <technique sid="common">
          <lambert>
            <emission>
              <color sid="emission">0 0 0 1</color>
            </emission>
            <diffuse>
              <color sid="diffuse">0.8 0.8 0.8 1</color>
            </diffuse>
            <index_of_refraction>
              <float sid="ior">1.45</float>
            </index_of_refraction>
          </lambert>
        </technique>
      </profile_COMMON>
    </effect>
    <effect id="balustrades-effect">
      <profile_COMMON>
        <technique sid="common">
          <lambert>
            <emission>
              <color sid="emission">0 0 0 1</color>
            </emission>
            <diffuse>
              <color sid="diffuse">0 0 0 1</color>
            </diffuse>
            <index_of_refraction>
              <float sid="ior">1.45</float>
            </index_of_refraction>
          </lambert>
        </technique>
      </profile_COMMON>
    </effect>
    <effect id="brick_painted-effect">
      <profile_COMMON>
        <technique sid="common">
          <lambert>
            <emission>
              <color sid="emission">0 0 0 1</color>
            </emission>
            <diffuse>
              <color sid="diffuse">0.8 0.8 0.8 1</color>
            </diffuse>
            <index_of_refraction>
              <float sid="ior">1.45</float>
            </index_of_refraction>
          </lambert>
        </technique>
      </profile_COMMON>
    </effect>
    <effect id="stucco1_white-effect">
      <profile_COMMON>
        <technique sid="common">
          <lambert>
            <emission>
              <color sid="emission">0 0 0 1</color>
            </emission>
            <diffuse>
              <color sid="diffuse">0.8 0.8 0.8 1</color>
            </diffuse>
            <index_of_refraction>
              <float sid="ior">1.45</float>
            </index_of_refraction>
          </lambert>
        </technique>
      </profile_COMMON>
    </effect>
    <effect id="columns-effect">
      <profile_COMMON>
        <technique sid="common">
          <lambert>
            <emission>
              <color sid="emission">0 0 0 1</color>
            </emission>
            <diffuse>
              <color sid="diffuse">0 0 0 1</color>
            </diffuse>
            <index_of_refraction>
              <float sid="ior">1.45</float>
            </index_of_refraction>
          </lambert>
        </technique>
      </profile_COMMON>
    </effect>
    <effect id="construction-effect">
      <profile_COMMON>
        <technique sid="common">
          <lambert>
            <emission>
              <color sid="emission">0 0 0 1</color>
            </emission>
            <diffuse>
              <color sid="diffuse">0.8 0.8 0.8 1</color>
            </diffuse>
            <index_of_refraction>
              <float sid="ior">1.45</float>
            </index_of_refraction>
          </lambert>
        </technique>
      </profile_COMMON>
    </effect>
    <effect id="clutter_commercial-effect">
      <profile_COMMON>
        <technique sid="common">
          <lambert>
            <emission>
              <color sid="emission">0 0 0 1</color>
            </emission>
            <diffuse>
              <color sid="diffuse">0.8 0.8 0.8 1</color>
            </diffuse>
            <reflectivity>
              <float sid="specular">0.5</float>
            </reflectivity>
          </lambert>
        </technique>
      </profile_COMMON>
    </effect>
    <effect id="brick_plain-effect">
      <profile_COMMON>
        <technique sid="common">
          <lambert>
            <emission>
              <color sid="emission">0 0 0 1</color>
            </emission>
            <diffuse>
              <color sid="diffuse">0 0 0 1</color>
            </diffuse>
            <index_of_refraction>
              <float sid="ior">1.45</float>
            </index_of_refraction>
          </lambert>
        </technique>
      </profile_COMMON>
    </effect>
    <effect id="stone_brick_regular-effect">
      <profile_COMMON>
        <technique sid="common">
          <lambert>
            <emission>
              <color sid="emission">0 0 0 1</color>
            </emission>
            <diffuse>
              <color sid="diffuse">0 0 0 1</color>
            </diffuse>
            <index_of_refraction>
              <float sid="ior">1.45</float>
            </index_of_refraction>
          </lambert>
        </technique>
      </profile_COMMON>
    </effect>
    <effect id="curbs-effect">
      <profile_COMMON>
        <technique sid="common">
          <lambert>
            <emission>
              <color sid="emission">0 0 0 1</color>
            </emission>
            <diffuse>
              <color sid="diffuse">0 0 0 1</color>
            </diffuse>
            <index_of_refraction>
              <float sid="ior">1.45</float>
            </index_of_refraction>
          </lambert>
        </technique>
      </profile_COMMON>
    </effect>
    <effect id="wirefence-effect">
      <profile_COMMON>
        <technique sid="common">
          <lambert>
            <emission>
              <color sid="emission">0 0 0 1</color>
            </emission>
            <diffuse>
              <color sid="diffuse">0.8 0.8 0.8 1</color>
            </diffuse>
            <index_of_refraction>
              <float sid="ior">1.45</float>
            </index_of_refraction>
          </lambert>
        </technique>
      </profile_COMMON>
    </effect>
    <effect id="groundmesh_grass2-effect">
      <profile_COMMON>
        <newparam sid="groundmesh_grass_b_color_png-surface">
          <surface type="2D">
            <init_from>groundmesh_grass_b_color_png</init_from>
          </surface>
        </newparam>
        <newparam sid="groundmesh_grass_b_color_png-sampler">
          <sampler2D>
            <source>groundmesh_grass_b_color_png-surface</source>
          </sampler2D>
        </newparam>
        <technique sid="common">
          <lambert>
            <emission>
              <color sid="emission">0 0 0 1</color>
            </emission>
            <diffuse>
              <texture texture="groundmesh_grass_b_color_png-sampler" texcoord="UVMap"/>
            </diffuse>
            <index_of_refraction>
              <float sid="ior">1.45</float>
            </index_of_refraction>
          </lambert>
        </technique>
      </profile_COMMON>
    </effect>
    <effect id="billboards-effect">
      <profile_COMMON>
        <technique sid="common">
          <lambert>
            <emission>
              <color sid="emission">0 0 0 1</color>
            </emission>
            <diffuse>
              <color sid="diffuse">0 0 0 1</color>
            </diffuse>
            <index_of_refraction>
              <float sid="ior">1.45</float>
            </index_of_refraction>
          </lambert>
        </technique>
      </profile_COMMON>
    </effect>
    <effect id="road_asphalt-effect">
      <profile_COMMON>
        <technique sid="common">
          <lambert>
            <emission>
              <color sid="emission">0 0 0 1</color>
            </emission>
            <diffuse>
              <color sid="diffuse">0 0 0 1</color>
            </diffuse>
            <index_of_refraction>
              <float sid="ior">1.45</float>
            </index_of_refraction>
          </lambert>
        </technique>
      </profile_COMMON>
    </effect>
  </library_effects>
  <library_images>
    <image id="groundmesh_grass_b_color_png" name="groundmesh_grass_b_color_png">
      <init_from>groundmesh_grass_b.color.png</init_from>
    </image>
  </library_images>
  <library_materials>
    <material id="architraves-material" name="architraves">
      <instance_effect url="#architraves-effect"/>
    </material>
    <material id="industrial-material" name="industrial">
      <instance_effect url="#industrial-effect"/>
    </material>
    <material id="windows_doors_reflective-material" name="windows_doors_reflective">
      <instance_effect url="#windows_doors_reflective-effect"/>
    </material>
    <material id="corrugation-material" name="corrugation">
      <instance_effect url="#corrugation-effect"/>
    </material>
    <material id="slabs_large-material" name="slabs_large">
      <instance_effect url="#slabs_large-effect"/>
    </material>
    <material id="metal_plates-material" name="metal_plates">
      <instance_effect url="#metal_plates-effect"/>
    </material>
    <material id="balustrades-material" name="balustrades">
      <instance_effect url="#balustrades-effect"/>
    </material>
    <material id="brick_painted-material" name="brick_painted">
      <instance_effect url="#brick_painted-effect"/>
    </material>
    <material id="stucco1_white-material" name="stucco1_white">
      <instance_effect url="#stucco1_white-effect"/>
    </material>
    <material id="columns-material" name="columns">
      <instance_effect url="#columns-effect"/>
    </material>
    <material id="construction-material" name="construction">
      <instance_effect url="#construction-effect"/>
    </material>
    <material id="clutter_commercial-material" name="clutter_commercial">
      <instance_effect url="#clutter_commercial-effect"/>
    </material>
    <material id="brick_plain-material" name="brick_plain">
      <instance_effect url="#brick_plain-effect"/>
    </material>
    <material id="stone_brick_regular-material" name="stone_brick_regular">
      <instance_effect url="#stone_brick_regular-effect"/>
    </material>
    <material id="curbs-material" name="curbs">
      <instance_effect url="#curbs-effect"/>
    </material>
    <material id="wirefence-material" name="wirefence">
      <instance_effect url="#wirefence-effect"/>
    </material>
    <material id="groundmesh_grass2-material" name="groundmesh_grass2">
      <instance_effect url="#groundmesh_grass2-effect"/>
    </material>
    <material id="billboards-material" name="billboards">
      <instance_effect url="#billboards-effect"/>
    </material>
    <material id="road_asphalt-material" name="road_asphalt">
      <instance_effect url="#road_asphalt-effect"/>
    </material>
  </library_materials>
  <library_geometries>
    <geometry id="Plane_138-mesh" name="Plane.138">
      <mesh>
        <source id="Plane_138-mesh-positions">
          <float_array id="Plane_138-mesh-positions-array" count="648">0.4641845 0.1035531 0 0.4641845 0.1035531 4.79322 -0.4642276 0.1083761 0 -0.4642276 0.1083761 4.79322 0.4642762 0.06064826 0 0.4642762 0.06064826 4.79322 -0.4642762 0.06535255 0 -0.4642762 0.06535255 4.79322 0.9032131 0.2314529 3.713722 0.5912104 0.2314205 3.713722 0.9032131 0.2314529 4.233429 0.5912104 0.2314205 4.233429 0.5668044 0.2314853 3.713722 0.4350688 0.2314152 3.713722 0.5668044 0.2314853 4.233429 0.4350688 0.2314152 4.233429 0.4061527 0.2315015 3.713722 0.09411221 0.2314206 3.713722 0.4061527 0.2315015 4.233429 0.09411221 0.2314206 4.233429 0.06596755 0.231426 3.713722 -0.2459487 0.2314799 3.713722 0.06596755 0.231426 4.233429 -0.2459487 0.2314799 4.233429 1.634969 0.2314906 4.344116 1.247083 0.2313827 4.344116 1.634969 0.2314906 4.863823 1.247083 0.2313827 4.863823 0.8380601 0.2313504 4.344116 0.4502767 0.2314853 4.344116 0.8380601 0.2313504 4.863823 0.4502767 0.2314853 4.863823 0.4370541 0.2314152 4.344116 0.1249597 0.2313019 4.344116 0.4370541 0.2314152 4.863823 0.1249597 0.2313019 4.863823 0.8449493 0.2314529 4.863823 1.232619 0.2313449 4.863823 0.8449493 0.2314529 4.344116 1.232619 0.2313449 4.344116 0.1081009 0.2314152 4.344116 -0.2796986 0.2313936 4.344116 0.1081009 0.2314152 4.863823 -0.2796986 0.2313936 4.863823 1.552126 0.2313827 3.769623 1.00203 0.2315554 3.769623 1.552126 0.2313827 4.200623 1.00203 0.2315554 4.200623 -0.4328623 0.2303956 3.650429 1.700942 0.2304279 3.650429 -0.4328623 0.2303956 5.090317 1.700942 0.2304279 5.090317 -0.499925 0.12189 5.157425 -0.499925 0.12189 3.583321 1.768048 0.12189 3.583321 1.768048 0.12189 5.157425 -0.4998711 0.2304226 5.157425 -0.4998711 0.2304226 3.583321 1.768145 0.2304656 3.583321 1.768145 0.2304656 5.157425 0.3132003 -0.2442872 3.713722 0.6252084 -0.2442602 3.713722 0.3132003 -0.2442872 4.233429 0.6252084 -0.2442602 4.233429 0.6496145 -0.2443249 3.713722 0.7813446 -0.2442495 3.713722 0.6496145 -0.2443249 4.233429 0.7813446 -0.2442495 4.233429 0.8103686 -0.2443574 3.713722 1.122377 -0.2443304 3.713722 0.8103686 -0.2443574 4.233429 1.122377 -0.2443304 4.233429 1.150446 -0.2442603 3.713722 1.462497 -0.2441901 3.713722 1.150446 -0.2442603 4.233429 1.462497 -0.2441901 4.233429 -0.4185499 -0.2443303 4.344116 -0.03079348 -0.2443519 4.344116 -0.4185499 -0.2443303 4.863823 -0.03079348 -0.2443519 4.863823 0.3784288 -0.2442602 4.344116 0.7660989 -0.2443681 4.344116 0.3784288 -0.2442602 4.863823 0.7660989 -0.2443681 4.863823 0.7794348 -0.2443249 4.344116 1.09141 -0.2441793 4.344116 0.7794348 -0.2443249 4.863823 1.09141 -0.2441793 4.863823 0.3714695 -0.2442926 4.863823 -0.01637321 -0.2443573 4.863823 0.3714695 -0.2442926 4.344116 -0.01637321 -0.2443573 4.344116 1.108269 -0.2442926 4.344116 1.495983 -0.2443573 4.344116 1.108269 -0.2442926 4.863823 1.495983 -0.2443573 4.863823 -0.3357506 -0.2442656 3.769623 0.2144324 -0.2443519 3.769623 -0.3357506 -0.2442656 4.200623 0.2144324 -0.2443519 4.200623 1.649146 -0.2433593 3.650429 -0.4845229 -0.2432675 3.650429 1.649146 -0.2433593 5.090317 -0.4845229 -0.2432675 5.090317 1.716344 -0.1347297 5.157425 1.716344 -0.1347297 3.583321 -0.5516288 -0.1347296 3.583321 -0.5516288 -0.1347296 5.157425 1.716355 -0.243327 5.157425 1.716355 -0.243327 3.583321 -0.5516881 -0.2432567 3.583321 -0.5516881 -0.2432567 5.157425 1.634969 0.2316935 4.8638 1.634969 0.2316935 4.344083 1.241838 0.2315841 4.344093 1.241838 0.2315841 4.86381 1.228057 0.2315803 4.86381 1.228057 0.2315803 4.344093 0.8222096 0.2314674 4.344103 0.8222096 0.2314674 4.86382 0.808429 0.2314635 4.86382 0.808429 0.2314635 4.344104 0.2881359 0.2313188 4.344117 0.2881359 0.2313188 4.863834 0.04985181 0.2312525 4.86384 0.04985181 0.2312525 4.344123 -0.2796985 0.2311609 4.344131 -0.2796985 0.2311609 4.863848 -0.4185499 -0.244259 4.8638 -0.4185499 -0.244259 4.344083 -0.02545434 -0.2442809 4.344093 -0.02545434 -0.2442809 4.86381 -0.0116357 -0.2442816 4.86381 -0.0116357 -0.2442816 4.344093 0.3941749 -0.2443042 4.344103 0.3941749 -0.2443042 4.86382 0.4079935 -0.244305 4.86382 0.4079935 -0.244305 4.344104 0.9282393 -0.244334 4.344117 0.9282393 -0.244334 4.863834 1.166463 -0.2443472 4.86384 1.166463 -0.2443472 4.344123 1.495983 -0.2443656 4.344131 1.495983 -0.2443656 4.863848 1.552126 0.2315778 4.217637 1.552126 0.2315778 3.729431 1.472016 0.2315695 3.729433 1.472016 0.2315695 4.21764 1.453255 0.2315676 4.21764 1.453255 0.2315676 3.729434 1.238695 0.2315453 3.729441 1.238695 0.2315453 4.217647 1.219934 0.2315433 4.217648 1.219934 0.2315433 3.729441 1.005374 0.2315211 3.729448 1.005374 0.2315211 4.217654 0.9866134 0.2315191 4.217655 0.9866134 0.2315191 3.729449 0.772053 0.2314968 3.729455 0.772053 0.2314968 4.217662 0.7532926 0.2314949 4.217662 0.7532926 0.2314949 3.729456 0.5670374 0.2314755 3.729462 0.5670374 0.2314755 4.217668 0.548277 0.2314736 4.217669 0.548277 0.2314736 3.729462 0.3620218 0.2314542 3.729468 0.3620218 0.2314542 4.217674 0.3432614 0.2314523 4.217675 0.3432614 0.2314523 3.729469 0.2631509 0.231444 3.729471 0.2631509 0.231444 4.217677 0.2443905 0.231442 4.217678 0.2443905 0.231442 3.729472 0.05813532 0.2314227 3.729478 0.05813532 0.2314227 4.217684 0.03937492 0.2314207 4.217684 0.03937492 0.2314207 3.729478 -0.2459487 0.2313911 3.729487 -0.2459487 0.2313911 4.217693 -0.3357506 -0.2443727 4.217645 -0.3357506 -0.2443727 3.729423 -0.2556361 -0.2443658 3.729425 -0.2556361 -0.2443658 4.217648 -0.2368645 -0.2443642 4.217648 -0.2368645 -0.2443642 3.729426 -0.02229319 -0.2443456 3.729433 -0.02229319 -0.2443456 4.217655 -0.003521563 -0.244344 4.217656 -0.003521563 -0.244344 3.729433 0.2110497 -0.2443254 3.72944 0.2110497 -0.2443254 4.217662 0.2298213 -0.2443238 4.217663 0.2298213 -0.2443238 3.729441 0.4443926 -0.2443052 3.729447 0.4443926 -0.2443052 4.21767 0.4631642 -0.2443036 4.21767 0.4631642 -0.2443036 3.729448 0.6494288 -0.2442875 3.729454 0.6494288 -0.2442875 4.217676 0.6682005 -0.2442859 4.217677 0.6682005 -0.2442859 3.729454 0.854465 -0.2442697 3.72946 0.854465 -0.2442697 4.217682 0.8732367 -0.2442681 4.217683 0.8732367 -0.2442681 3.729461 0.9533512 -0.2442612 3.729463 0.9533512 -0.2442612 4.217686 0.9721228 -0.2442596 4.217686 0.9721228 -0.2442596 3.729464 1.158387 -0.2442434 3.72947 1.158387 -0.2442434 4.217692 1.177159 -0.2442418 4.217693 1.177159 -0.2442418 3.72947 1.462497 -0.2442171 3.729479 1.462497 -0.2442171 4.217701</float_array>
          <technique_common>
            <accessor source="#Plane_138-mesh-positions-array" count="216" stride="3">
              <param name="X" type="float"/>
              <param name="Y" type="float"/>
              <param name="Z" type="float"/>
            </accessor>
          </technique_common>
        </source>
        <source id="Plane_138-mesh-normals">
          <float_array id="Plane_138-mesh-normals-array" count="330">4.02946e-4 1 0 -1.51349e-5 0.9999995 -0.001020431 -1.51199e-5 0.9999995 -0.001020431 -1.5159e-5 0.9999995 -0.001020431 -5.61429e-4 1 0 -1.89878e-5 1 -5.42778e-4 0 0 1 0.001343548 -0.9999992 0 0.001535296 -0.9999988 0 0.00139147 -0.9999991 0 -4.30132e-5 -0.9999999 -5.24894e-4 3.56045e-5 -1 -5.20005e-5 -1.60847e-4 -1 0 -4.30131e-5 -1 1.18195e-4 4.02946e-4 1 0 -0.001083135 0.9999995 0 -0.001083135 0.9999995 0 -1.89876e-5 1 5.42778e-4 -5.61427e-4 1 0 -5.43858e-5 0.9999995 0.001019895 -5.42956e-5 0.9999995 0.001019895 -5.43526e-5 0.9999995 0.001019895 -0.001340925 -0.9999992 0 -0.001340925 -0.9999991 0 -0.001388907 -0.9999991 0 -3.09846e-5 -1 -1.29231e-4 -1.60847e-4 -1 0 -3.09842e-5 -0.9999999 5.11442e-4 -1 6.8207e-5 2.2022e-5 -1 5.47084e-4 0 8.64435e-5 -1 0 -4.30134e-5 -1 0 -1.66878e-4 -1 0 2.59304e-4 -1 0 5.56839e-5 1 0 -0.005194783 -0.9999865 0 2.78328e-4 1 0 3.79934e-4 0.9999998 -4.68492e-4 0.9999998 5.79803e-4 0 1 1.0042e-4 0 2.24722e-4 -1 0 0 0 -1 0 0 -1 -0.005066156 -0.9999873 0 -0.9999999 -4.61253e-4 1.82197e-7 -0.9999999 4.97515e-4 0 4.66843e-4 -0.9999999 0 -1.56925e-4 -1 0 0 1 0 -1.72938e-4 -1 0 -1.03639e-4 1 0 -3.13953e-4 -1 0 8.64436e-5 -1 0 0 -1 0 -5.51206e-5 1 4.26806e-4 -5.73061e-4 0.9999998 0 -5.73028e-4 0.9999996 -6.71137e-4 2.78443e-4 1 0 -3.47836e-4 -1 0 0.9999997 -8.928e-4 0 -1.51539e-5 1 0 3.62962e-4 -1 0 6.59126e-4 -0.9999997 4.93165e-4 1.66899e-4 -1 0 -1.19826e-4 -1 3.84184e-4 -3.12484e-4 -1 0 5.55624e-5 -1 0 -5.32202e-4 0.9999999 0 -2.78134e-4 1 0 -1.91784e-7 0 1 0 0 1 -1 1.25825e-4 -2.3008e-4 -1 6.7003e-5 0 -1 5.46387e-4 0 8.64436e-5 -1 0 -4.30133e-5 -1 0 -1.66878e-4 -1 0 2.59304e-4 -1 0 2.78328e-4 1 0 2.78029e-4 1 4.79384e-4 -2.11236e-7 1 -3.9016e-4 0.9999999 1.30614e-4 -4.78248e-4 0.9999998 5.77014e-4 0 1 9.76305e-5 0 2.24722e-4 -1 0 0 0 -1 2.42004e-7 0 -1 -0.9999995 4.30704e-4 -9.56485e-4 -1 -4.6195e-4 0 -1 4.96817e-4 0 4.66844e-4 -1 0 -1.56925e-4 -1 0 -1.72938e-4 -1 0 -1.03639e-4 1 0 -3.13953e-4 -1 0 8.64436e-5 -1 0 -6.28602e-4 0.9999997 6.68835e-4 -5.73059e-4 0.9999998 0 2.78443e-4 1 0 -3.47837e-4 -1 0 0.9999997 -8.9559e-4 0 1 -4.16206e-4 0 -1.51539e-5 1 0 3.62963e-4 -1 0 3.62963e-4 -0.9999998 -5.7526e-4 3.6296e-4 -0.9999998 5.7526e-4 1.66899e-4 -1 0 -3.12484e-4 -1 0 -5.32203e-4 0.9999999 0 -2.78134e-4 1 0</float_array>
          <technique_common>
            <accessor source="#Plane_138-mesh-normals-array" count="110" stride="3">
              <param name="X" type="float"/>
              <param name="Y" type="float"/>
              <param name="Z" type="float"/>
            </accessor>
          </technique_common>
        </source>
        <source id="Plane_138-mesh-map-0">
          <float_array id="Plane_138-mesh-map-0-array" count="712">0.5817049 0.5683712 0.7533061 0.5582684 0.7389194 0.5683713 0.7700832 0.5583247 0.4116259 0.5678141 0.425138 0.5583253 0.7389194 0.5582684 0.5673182 0.5683713 0.5817049 0.5582684 0.7700842 0.5678135 0.4116259 0.5583247 0.7835962 0.5583247 0.512609 0.570361 0.7577195 0.5559636 0.7577195 0.5703608 0.5817049 0.5683712 0.7533061 0.5582684 0.7389194 0.5683713 0.7700832 0.5583247 0.4116259 0.5678141 0.425138 0.5583253 0.7389194 0.5582684 0.5673182 0.5683713 0.5817049 0.5582684 0.4251389 0.5678141 0.7835962 0.5583247 0.7700842 0.5678135 0.7577195 0.5559636 0.512609 0.570361 0.512609 0.5559637 0.5817049 0.5683712 0.5673182 0.5582684 0.7533061 0.5582684 0.7700832 0.5583247 0.7835962 0.5678141 0.4116259 0.5678141 0.7389194 0.5582684 0.7533061 0.5683713 0.5673182 0.5683713 0.7700842 0.5678135 0.4251389 0.5678141 0.4116259 0.5583247 0.5817049 0.5683712 0.5673182 0.5582684 0.7533061 0.5582684 0.7700832 0.5583247 0.7835962 0.5678141 0.4116259 0.5678141 0.7389194 0.5582684 0.7533061 0.5683713 0.5673182 0.5683713 0.4251389 0.5678141 0.4116259 0.5583247 0.7835962 0.5583247 0.3974943 0.5559638 0.512609 0.570361 0.3974943 0.5703608 0.6946483 0.8376652 0.7096138 0.8083374 0.7096138 0.8376652 0.7347722 0.694041 0.6241809 0.6466982 0.7347721 0.6466982 0.5537518 0.8376652 0.5689975 0.8083374 0.5689975 0.8376652 0.6946483 0.8376652 0.7096138 0.8083374 0.6946483 0.8083385 0.7744594 0.8376652 0.7892862 0.8083374 0.7744594 0.8083385 0.525026 0.2773862 -0.004113376 0.1921026 -0.004113495 0.2773862 0.8043615 0.8376652 0.8196072 0.8083374 0.8043615 0.8083385 0.7577195 0.5559636 0.8728342 0.570361 0.7577195 0.5703608 0.7897773 0.8376652 0.8039338 0.8083374 0.8039338 0.8376652 0.3974943 0.5703608 0.1523837 0.5559636 0.3974943 0.5559638 0.3974943 0.5703608 0.1523837 0.5559636 0.3974943 0.5559638 -0.004113376 0.1921026 0.525026 0.2773862 0.525026 0.1921026 0.7577195 0.5559636 0.8728342 0.570361 0.7577195 0.5703608 0.6946483 0.8376652 0.7096138 0.8083374 0.7096138 0.8376652 0.8195508 0.956074 0.8558193 0.9285128 0.8558193 0.956074 0.6198486 0.6982062 0.7391045 0.6421987 0.7391045 0.6982063 0.7897773 0.8376652 0.8039338 0.8083374 0.7897773 0.8083385 0.7897773 0.8376652 0.8039338 0.8083374 0.8039338 0.8376652 0.8195508 0.956074 0.8558193 0.9285128 0.8195508 0.9285138 0.7897773 0.8376652 0.8039338 0.8083374 0.8039338 0.8376652 0.6198486 0.6982062 0.7391045 0.6421987 0.7391045 0.6982063 0.6273877 0.8376652 0.6332353 0.8083374 0.6273877 0.8083385 0.7101051 0.8376652 0.7260549 0.8083374 0.7260549 0.8376652 0.8043615 0.8376652 0.8196072 0.8083374 0.8043615 0.8083385 0.3974943 0.5559638 0.512609 0.570361 0.3974943 0.5703608 0.7347722 0.694041 0.6241809 0.6466982 0.7347721 0.6466982 0.6946483 0.8376652 0.7096138 0.8083374 0.6946483 0.8083385 0.7101051 0.8376652 0.7260549 0.8083374 0.7260549 0.8376652 0.5537518 0.8376652 0.5689975 0.8083374 0.5537518 0.8083385 0.6273877 0.8376652 0.6332353 0.8083374 0.6332353 0.8376652 0.7744594 0.8376652 0.7892862 0.8083374 0.7892862 0.8376652 0.512609 0.570361 0.512609 0.5559637 0.7577195 0.5559636 0.7577195 0.5559636 0.7577195 0.5703608 0.512609 0.570361 0.3974943 0.5559638 0.512609 0.5559637 0.512609 0.570361 0.6946483 0.8376652 0.6946483 0.8083385 0.7096138 0.8083374 0.7347722 0.694041 0.6241809 0.6940411 0.6241809 0.6466982 0.5537518 0.8376652 0.5537518 0.8083385 0.5689975 0.8083374 0.6946483 0.8376652 0.7096138 0.8376652 0.7096138 0.8083374 0.7744594 0.8376652 0.7892862 0.8376652 0.7892862 0.8083374 0.525026 0.2773862 0.525026 0.1921026 -0.004113376 0.1921026 0.8043615 0.8376652 0.8196072 0.8376652 0.8196072 0.8083374 0.7577195 0.5559636 0.8728342 0.5559637 0.8728342 0.570361 0.7897773 0.8376652 0.7897773 0.8083385 0.8039338 0.8083374 0.3974943 0.5703608 0.1523837 0.570361 0.1523837 0.5559636 0.3974943 0.5703608 0.1523837 0.570361 0.1523837 0.5559636 -0.004113376 0.1921026 -0.004113495 0.2773862 0.525026 0.2773862 0.7577195 0.5559636 0.8728342 0.5559637 0.8728342 0.570361 0.6946483 0.8376652 0.6946483 0.8083385 0.7096138 0.8083374 0.8195508 0.956074 0.8195508 0.9285138 0.8558193 0.9285128 0.6198486 0.6982062 0.6198486 0.6421987 0.7391045 0.6421987 0.7897773 0.8376652 0.8039338 0.8376652 0.8039338 0.8083374 0.7897773 0.8376652 0.7897773 0.8083385 0.8039338 0.8083374 0.8195508 0.956074 0.8558193 0.956074 0.8558193 0.9285128 0.7897773 0.8376652 0.7897773 0.8083385 0.8039338 0.8083374 0.6198486 0.6982062 0.6198486 0.6421987 0.7391045 0.6421987 0.6273877 0.8376652 0.6332353 0.8376652 0.6332353 0.8083374 0.7101051 0.8376652 0.7101051 0.8083385 0.7260549 0.8083374 0.8043615 0.8376652 0.8196072 0.8376652 0.8196072 0.8083374 0.3974943 0.5559638 0.512609 0.5559637 0.512609 0.570361 0.7347722 0.694041 0.6241809 0.6940411 0.6241809 0.6466982 0.6946483 0.8376652 0.7096138 0.8376652 0.7096138 0.8083374 0.7101051 0.8376652 0.7101051 0.8083385 0.7260549 0.8083374 0.5537518 0.8376652 0.5689975 0.8376652 0.5689975 0.8083374 0.6273877 0.8376652 0.6273877 0.8083385 0.6332353 0.8083374 0.7744594 0.8376652 0.7744594 0.8083385 0.7892862 0.8083374 0.7742381 0.8376652 0.7742381 0.8083374 0.7893338 0.8083374 0.7893338 0.8376652 0.7102733 0.8376652 0.7102733 0.8083374 0.7258572 0.8083374 0.7258572 0.8376652 0.6741405 0.8376652 0.6741405 0.8083374 0.6941189 0.8083374 0.6941189 0.8376652 0.56916 0.8376652 0.56916 0.8083374 0.5818142 0.8083374 0.5818142 0.8376652 0.7742381 0.8376652 0.7742381 0.8083374 0.7893338 0.8083374 0.7893338 0.8376652 0.7102733 0.8376652 0.7102733 0.8083374 0.7258572 0.8083374 0.7258572 0.8376652 0.6741405 0.8376652 0.6741405 0.8083374 0.6941189 0.8083374 0.6941189 0.8376652 0.56916 0.8376652 0.56916 0.8083374 0.5818142 0.8083374 0.5818142 0.8376652 0.6272226 0.8376652 0.6272226 0.8083374 0.6327504 0.8083374 0.6327504 0.8376652 0.6946054 0.8376652 0.6946054 0.8083374 0.7094105 0.8083374 0.7094105 0.8376652 0.7741952 0.8376652 0.7741952 0.8083374 0.7890004 0.8083374 0.7890004 0.8376652 0.8044687 0.8376652 0.8044687 0.8083374 0.8192738 0.8083374 0.8192738 0.8376652 0.660914 0.8376652 0.660914 0.8083374 0.673766 0.8083374 0.673766 0.8376652 0.5823007 0.8376652 0.5823007 0.8083374 0.5951527 0.8083374 0.5951527 0.8376652 0.6272226 0.8376652 0.6272226 0.8083374 0.6327504 0.8083374 0.6327504 0.8376652 0.660914 0.8376652 0.660914 0.8083374 0.673766 0.8083374 0.673766 0.8376652 0.6740976 0.8376652 0.6740976 0.8083374 0.6937855 0.8083374 0.6937855 0.8376652 0.6272226 0.8376652 0.6272226 0.8083374 0.6327504 0.8083374 0.6327504 0.8376652 0.6946054 0.8376652 0.6946054 0.8083374 0.7094105 0.8083374 0.7094105 0.8376652 0.7741952 0.8376652 0.7741952 0.8083374 0.7890004 0.8083374 0.7890004 0.8376652 0.8044687 0.8376652 0.8044687 0.8083374 0.8192738 0.8083374 0.8192738 0.8376652 0.660914 0.8376652 0.660914 0.8083374 0.673766 0.8083374 0.673766 0.8376652 0.5823007 0.8376652 0.5823007 0.8083374 0.5951527 0.8083374 0.5951527 0.8376652 0.6272226 0.8376652 0.6272226 0.8083374 0.6327504 0.8083374 0.6327504 0.8376652 0.660914 0.8376652 0.660914 0.8083374 0.673766 0.8083374 0.673766 0.8376652 0.6740976 0.8376652 0.6740976 0.8083374 0.6937855 0.8083374 0.6937855 0.8376652</float_array>
          <technique_common>
            <accessor source="#Plane_138-mesh-map-0-array" count="356" stride="2">
              <param name="S" type="float"/>
              <param name="T" type="float"/>
            </accessor>
          </technique_common>
        </source>
        <source id="Plane_138-mesh-colors-Col" name="Col">
          <float_array id="Plane_138-mesh-colors-Col-array" count="1008">0.2980392 0.4901961 0.6509804 1 0.2980392 0.4901961 0.6509804 1 0.2980392 0.4901961 0.6509804 1 0.2980392 0.4901961 0.6509804 1 0.2980392 0.4901961 0.6509804 1 0.2980392 0.4901961 0.6509804 1 0.2941176 0.4901961 0.6509804 1 0.2980392 0.4901961 0.6509804 1 0.2980392 0.4901961 0.6509804 1 0.2941176 0.4901961 0.6509804 1 0.2980392 0.4901961 0.6509804 1 0.2980392 0.4901961 0.6509804 1 0.3490196 0.3490196 0.3490196 1 0.3490196 0.3490196 0.3490196 1 0.3490196 0.3490196 0.3490196 1 0.2980392 0.4901961 0.6509804 1 0.2980392 0.4901961 0.6509804 1 0.2980392 0.4901961 0.6509804 1 0.2980392 0.4901961 0.6509804 1 0.2980392 0.4901961 0.6509804 1 0.2980392 0.4901961 0.6509804 1 0.2941176 0.4901961 0.6509804 1 0.2980392 0.4901961 0.6509804 1 0.2980392 0.4901961 0.6509804 1 0.2980392 0.4901961 0.6509804 1 0.2980392 0.4901961 0.6509804 1 0.2941176 0.4901961 0.6509804 1 0.3490196 0.3490196 0.3490196 1 0.3490196 0.3490196 0.3490196 1 0.3490196 0.3490196 0.3490196 1 0.2980392 0.4901961 0.6509804 1 0.2980392 0.4901961 0.6509804 1 0.2980392 0.4901961 0.6509804 1 0.2980392 0.4901961 0.6509804 1 0.2980392 0.4901961 0.6509804 1 0.2980392 0.4901961 0.6509804 1 0.2941176 0.4901961 0.6509804 1 0.2980392 0.4901961 0.6509804 1 0.2980392 0.4901961 0.6509804 1 0.2941176 0.4901961 0.6509804 1 0.2980392 0.4901961 0.6509804 1 0.2980392 0.4901961 0.6509804 1 0.2980392 0.4901961 0.6509804 1 0.2980392 0.4901961 0.6509804 1 0.2980392 0.4901961 0.6509804 1 0.2980392 0.4901961 0.6509804 1 0.2980392 0.4901961 0.6509804 1 0.2980392 0.4901961 0.6509804 1 0.2941176 0.4901961 0.6509804 1 0.2980392 0.4901961 0.6509804 1 0.2980392 0.4901961 0.6509804 1 0.2980392 0.4901961 0.6509804 1 0.2980392 0.4901961 0.6509804 1 0.2980392 0.4901961 0.6509804 1 0.3490196 0.3490196 0.3490196 1 0.3490196 0.3490196 0.3490196 1 0.3490196 0.3490196 0.3490196 1 0.5725491 0.7686275 1 1 0.5725491 0.7686275 1 1 0.5725491 0.7686275 1 1 0.4392157 0.4392157 0.4392157 1 0.4392157 0.4392157 0.4392157 1 0.4392157 0.4392157 0.4392157 1 0.2627451 0.7803922 0 1 0.2627451 0.7803922 0 1 0.2627451 0.7803922 0 1 0.5725491 0.7686275 1 1 0.5725491 0.7686275 1 1 0.5725491 0.7686275 1 1 0.2627451 0.7803922 0 1 0.2627451 0.7803922 0 1 0.2627451 0.7803922 0 1 0.6 0.4352941 0.3607843 1 0.6 0.4352941 0.3607843 1 0.6 0.4352941 0.3607843 1 0.2627451 0.7803922 0 1 0.2627451 0.7803922 0 1 0.2627451 0.7803922 0 1 0.3490196 0.3490196 0.3490196 1 0.3490196 0.3490196 0.3490196 1 0.3490196 0.3490196 0.3490196 1 0.5725491 0.7686275 1 1 0.5725491 0.7686275 1 1 0.5725491 0.7686275 1 1 0.3490196 0.3490196 0.3490196 1 0.3490196 0.3490196 0.3490196 1 0.3490196 0.3490196 0.3490196 1 0.3490196 0.3490196 0.3490196 1 0.3490196 0.3490196 0.3490196 1 0.3490196 0.3490196 0.3490196 1 0.6 0.4352941 0.3607843 1 0.6 0.4352941 0.3607843 1 0.6 0.4352941 0.3607843 1 0.3490196 0.3490196 0.3490196 1 0.3490196 0.3490196 0.3490196 1 0.3490196 0.3490196 0.3490196 1 0.2627451 0.7803922 0 1 0.2627451 0.7803922 0 1 0.2627451 0.7803922 0 1 1 1 1 1 1 1 1 1 1 1 1 1 0.2980392 0.4901961 0.6509804 1 0.2980392 0.4901961 0.6509804 1 0.2980392 0.4901961 0.6509804 1 0.5725491 0.7686275 1 1 0.5725491 0.7686275 1 1 0.5725491 0.7686275 1 1 0.5725491 0.7686275 1 1 0.5725491 0.7686275 1 1 0.5725491 0.7686275 1 1 1 1 1 1 1 1 1 1 1 1 1 1 0.5725491 0.7686275 1 1 0.5725491 0.7686275 1 1 0.5725491 0.7686275 1 1 0.2980392 0.4901961 0.6509804 1 0.2980392 0.4901961 0.6509804 1 0.2980392 0.4901961 0.6509804 1 0.5725491 0.7686275 1 1 0.5725491 0.7686275 1 1 0.5725491 0.7686275 1 1 0.2627451 0.7803922 0 1 0.2627451 0.7803922 0 1 0.2627451 0.7803922 0 1 0.2627451 0.7803922 0 1 0.2627451 0.7803922 0 1 0.2627451 0.7803922 0 1 0.3490196 0.3490196 0.3490196 1 0.3490196 0.3490196 0.3490196 1 0.3490196 0.3490196 0.3490196 1 0.4392157 0.4392157 0.4392157 1 0.4392157 0.4392157 0.4392157 1 0.4392157 0.4392157 0.4392157 1 0.2627451 0.7803922 0 1 0.2627451 0.7803922 0 1 0.2627451 0.7803922 0 1 0.2627451 0.7803922 0 1 0.2627451 0.7803922 0 1 0.2627451 0.7803922 0 1 0.2627451 0.7803922 0 1 0.2627451 0.7803922 0 1 0.2627451 0.7803922 0 1 0.5725491 0.7686275 1 1 0.5725491 0.7686275 1 1 0.5725491 0.7686275 1 1 0.2627451 0.7803922 0 1 0.2627451 0.7803922 0 1 0.2627451 0.7803922 0 1 0.3490196 0.3490196 0.3490196 1 0.3490196 0.3490196 0.3490196 1 0.3490196 0.3490196 0.3490196 1 0.3490196 0.3490196 0.3490196 1 0.3490196 0.3490196 0.3490196 1 0.3490196 0.3490196 0.3490196 1 0.3490196 0.3490196 0.3490196 1 0.3490196 0.3490196 0.3490196 1 0.3490196 0.3490196 0.3490196 1 0.5725491 0.7686275 1 1 0.5725491 0.7686275 1 1 0.5725491 0.7686275 1 1 0.4392157 0.4392157 0.4392157 1 0.4392157 0.4392157 0.4392157 1 0.4392157 0.4392157 0.4392157 1 0.2627451 0.7803922 0 1 0.2627451 0.7803922 0 1 0.2627451 0.7803922 0 1 0.5725491 0.7686275 1 1 0.5725491 0.7686275 1 1 0.5725491 0.7686275 1 1 0.2627451 0.7803922 0 1 0.2627451 0.7803922 0 1 0.2627451 0.7803922 0 1 0.6 0.4352941 0.3607843 1 0.6 0.4352941 0.3607843 1 0.6 0.4352941 0.3607843 1 0.2627451 0.7803922 0 1 0.2627451 0.7803922 0 1 0.2627451 0.7803922 0 1 0.3490196 0.3490196 0.3490196 1 0.3490196 0.3490196 0.3490196 1 0.3490196 0.3490196 0.3490196 1 0.5725491 0.7686275 1 1 0.5725491 0.7686275 1 1 0.5725491 0.7686275 1 1 0.3490196 0.3490196 0.3490196 1 0.3490196 0.3490196 0.3490196 1 0.3490196 0.3490196 0.3490196 1 0.3490196 0.3490196 0.3490196 1 0.3490196 0.3490196 0.3490196 1 0.3490196 0.3490196 0.3490196 1 0.6 0.4352941 0.3607843 1 0.6 0.4352941 0.3607843 1 0.6 0.4352941 0.3607843 1 0.3490196 0.3490196 0.3490196 1 0.3490196 0.3490196 0.3490196 1 0.3490196 0.3490196 0.3490196 1 0.2627451 0.7803922 0 1 0.2627451 0.7803922 0 1 0.2627451 0.7803922 0 1 1 1 1 1 1 1 1 1 1 1 1 1 0.2980392 0.4901961 0.6509804 1 0.2980392 0.4901961 0.6509804 1 0.2980392 0.4901961 0.6509804 1 0.5725491 0.7686275 1 1 0.5725491 0.7686275 1 1 0.5725491 0.7686275 1 1 0.5725491 0.7686275 1 1 0.5725491 0.7686275 1 1 0.5725491 0.7686275 1 1 1 1 1 1 1 1 1 1 1 1 1 1 0.5725491 0.7686275 1 1 0.5725491 0.7686275 1 1 0.5725491 0.7686275 1 1 0.2980392 0.4901961 0.6509804 1 0.2980392 0.4901961 0.6509804 1 0.2980392 0.4901961 0.6509804 1 0.5725491 0.7686275 1 1 0.5725491 0.7686275 1 1 0.5725491 0.7686275 1 1 0.2627451 0.7803922 0 1 0.2627451 0.7803922 0 1 0.2627451 0.7803922 0 1 0.2627451 0.7803922 0 1 0.2627451 0.7803922 0 1 0.2627451 0.7803922 0 1 0.3490196 0.3490196 0.3490196 1 0.3490196 0.3490196 0.3490196 1 0.3490196 0.3490196 0.3490196 1 0.4392157 0.4392157 0.4392157 1 0.4392157 0.4392157 0.4392157 1 0.4392157 0.4392157 0.4392157 1 0.2627451 0.7803922 0 1 0.2627451 0.7803922 0 1 0.2627451 0.7803922 0 1 0.2627451 0.7803922 0 1 0.2627451 0.7803922 0 1 0.2627451 0.7803922 0 1 0.2627451 0.7803922 0 1 0.2627451 0.7803922 0 1 0.2627451 0.7803922 0 1 0.5725491 0.7686275 1 1 0.5725491 0.7686275 1 1 0.5725491 0.7686275 1 1 0.2627451 0.7803922 0 1 0.2627451 0.7803922 0 1 0.2627451 0.7803922 0 1</float_array>
          <technique_common>
            <accessor source="#Plane_138-mesh-colors-Col-array" count="252" stride="4">
              <param name="R" type="float"/>
              <param name="G" type="float"/>
              <param name="B" type="float"/>
              <param name="A" type="float"/>
            </accessor>
          </technique_common>
        </source>
        <vertices id="Plane_138-mesh-vertices">
          <input semantic="POSITION" source="#Plane_138-mesh-positions"/>
        </vertices>
        <triangles material="architraves-material" count="32">
          <input semantic="VERTEX" source="#Plane_138-mesh-vertices" offset="0"/>
          <input semantic="NORMAL" source="#Plane_138-mesh-normals" offset="1"/>
          <input semantic="TEXCOORD" source="#Plane_138-mesh-map-0" offset="2" set="0"/>
          <input semantic="COLOR" source="#Plane_138-mesh-colors-Col" offset="3" set="0"/>
          <p>48 0 0 0 56 0 1 1 50 0 2 2 49 1 3 3 57 2 4 4 48 3 5 5 51 4 6 6 58 4 7 7 49 4 8 8 51 5 9 9 56 5 10 10 59 5 11 11 107 6 12 12 108 6 13 13 104 6 14 14 100 7 15 15 108 8 16 16 102 9 17 17 101 10 18 18 109 10 19 19 100 11 20 20 103 12 21 21 110 12 22 22 101 12 23 23 102 13 24 24 111 13 25 25 103 13 26 26 56 6 27 27 55 6 28 28 59 6 29 29 48 14 30 30 57 15 31 31 56 16 32 32 49 17 33 33 58 17 34 34 57 17 35 35 51 18 36 36 59 18 37 37 58 18 38 38 51 19 39 39 50 20 40 40 56 21 41 41 100 22 42 42 109 23 43 43 108 24 44 44 101 25 45 45 110 25 46 46 109 25 47 47 103 26 48 48 111 26 49 49 110 26 50 50 102 27 51 51 108 27 52 52 111 27 53 53 110 28 54 54 107 29 55 55 106 29 56 56 108 38 78 78 105 39 79 79 104 39 80 80 54 41 84 84 57 41 85 85 58 41 86 86 106 42 87 87 109 42 88 88 110 42 89 89 56 44 93 93 53 45 94 94 52 45 95 95 58 59 129 129 55 59 130 130 54 59 131 131 107 69 150 150 111 69 151 151 108 69 152 152 56 70 153 153 52 70 154 154 55 70 155 155 110 71 156 156 111 72 157 157 107 73 158 158 108 81 180 180 109 82 181 181 105 83 182 182 54 85 186 186 53 85 187 187 57 85 188 188 106 86 189 189 105 86 190 190 109 86 191 191 56 87 195 195 57 88 196 196 53 89 197 197 58 100 231 231 59 101 232 232 55 100 233 233</p>
        </triangles>
        <triangles material="construction-material" count="4">
          <input semantic="VERTEX" source="#Plane_138-mesh-vertices" offset="0"/>
          <input semantic="NORMAL" source="#Plane_138-mesh-normals" offset="1"/>
          <input semantic="TEXCOORD" source="#Plane_138-mesh-map-0" offset="2" set="0"/>
          <input semantic="COLOR" source="#Plane_138-mesh-colors-Col" offset="3" set="0"/>
          <p>1 35 72 72 2 35 73 73 0 35 74 74 6 43 90 90 5 43 91 91 7 43 92 92 1 35 174 174 3 35 175 175 2 35 176 176 6 43 192 192 4 43 193 193 5 43 194 194</p>
        </triangles>
        <triangles material="clutter_commercial-material" count="60">
          <input semantic="VERTEX" source="#Plane_138-mesh-vertices" offset="0"/>
          <input semantic="NORMAL" source="#Plane_138-mesh-normals" offset="1"/>
          <input semantic="TEXCOORD" source="#Plane_138-mesh-map-0" offset="2" set="0"/>
          <input semantic="COLOR" source="#Plane_138-mesh-colors-Col" offset="3" set="0"/>
          <p>101 31 60 60 102 31 61 61 103 31 62 62 104 48 102 102 106 48 103 103 107 48 104 104 52 53 117 117 54 53 118 118 55 53 119 119 49 60 132 132 50 60 133 133 51 60 134 134 101 75 162 162 100 75 163 163 102 75 164 164 104 48 204 204 105 48 205 205 106 48 206 206 52 53 219 219 53 53 220 220 54 53 221 221 49 102 234 234 48 102 235 235 50 102 236 236 112 68 252 147 113 68 253 147 114 68 254 147 112 68 252 147 114 68 254 147 115 68 255 147 116 68 256 147 117 68 257 147 118 68 258 147 116 68 256 147 118 68 258 147 119 68 259 147 120 68 260 147 121 68 261 147 122 68 262 147 120 68 260 147 122 68 262 147 123 68 263 147 124 68 264 147 125 68 265 147 126 68 266 147 124 68 264 147 126 68 266 147 127 68 267 147 128 34 268 69 130 34 270 69 129 34 269 69 128 34 268 69 131 34 271 69 130 34 270 69 132 34 272 69 134 34 274 69 133 34 273 69 132 34 272 69 135 34 275 69 134 34 274 69 136 34 276 69 138 34 278 69 137 34 277 69 136 34 276 69 139 34 279 69 138 34 278 69 140 34 280 69 142 34 282 69 141 34 281 69 140 34 280 69 143 34 283 69 142 34 282 69 144 50 284 108 145 50 285 108 146 50 286 108 144 50 284 108 146 50 286 108 147 50 287 108 148 50 288 108 149 50 289 108 150 50 290 108 148 50 288 108 150 50 290 108 151 50 291 108 152 50 292 108 153 50 293 108 154 50 294 108 152 50 292 108 154 50 294 108 155 50 295 108 156 50 296 108 157 50 297 108 158 50 298 108 156 50 296 108 158 50 298 108 159 50 299 108 160 50 300 108 161 50 301 108 162 50 302 108 160 50 300 108 162 50 302 108 163 50 303 108 164 50 304 108 165 50 305 108 166 50 306 108 164 50 304 108 166 50 306 108 167 50 307 108 168 50 308 108 169 50 309 108 170 50 310 108 168 50 308 108 170 50 310 108 171 50 311 108 172 50 312 108 173 50 313 108 174 50 314 108 172 50 312 108 174 50 314 108 175 50 315 108 176 50 316 108 177 50 317 108 178 50 318 108 176 50 316 108 178 50 318 108 179 50 319 108 180 52 320 114 181 52 321 114 182 52 322 114 180 52 320 114 182 52 322 114 183 52 323 114 184 52 324 114 185 52 325 114 186 52 326 114 184 52 324 114 186 52 326 114 187 52 327 114 188 52 328 114 189 52 329 114 190 52 330 114 188 52 328 114 190 52 330 114 191 52 331 114 192 52 332 114 193 52 333 114 194 52 334 114 192 52 332 114 194 52 334 114 195 52 335 114 196 52 336 114 197 52 337 114 198 52 338 114 196 52 336 114 198 52 338 114 199 52 339 114 200 52 340 114 201 52 341 114 202 52 342 114 200 52 340 114 202 52 342 114 203 52 343 114 204 52 344 114 205 52 345 114 206 52 346 114 204 52 344 114 206 52 346 114 207 52 347 114 208 52 348 114 209 52 349 114 210 52 350 114 208 52 348 114 210 52 350 114 211 52 351 114 212 52 352 114 213 52 353 114 214 52 354 114 212 52 352 114 214 52 354 114 215 52 355 114</p>
        </triangles>
      </mesh>
    </geometry>
    <geometry id="Plane_035-mesh" name="Plane.035">
      <mesh>
        <source id="Plane_035-mesh-positions">
          <float_array id="Plane_035-mesh-positions-array" count="48">-0.4642114 0.2218556 3.583321 -0.4642223 -0.1650052 3.583321 0.4642331 -0.1652103 3.583321 0.4642115 0.2217692 3.583321 0.4642115 0.2217692 0 -0.4642114 0.2218556 0 -0.4642223 -0.1650052 0 0.4642331 -0.1652103 0 -0.5516287 0.2218341 5.157425 -0.5516396 -0.2782744 5.157425 1.768177 -0.278501 5.157425 1.768177 0.2217044 5.157425 1.768177 0.2217044 3.583321 -0.5516287 0.2218341 3.583321 -0.5516396 -0.2782744 3.583321 1.768177 -0.278501 3.583321</float_array>
          <technique_common>
            <accessor source="#Plane_035-mesh-positions-array" count="16" stride="3">
              <param name="X" type="float"/>
              <param name="Y" type="float"/>
              <param name="Z" type="float"/>
            </accessor>
          </technique_common>
        </source>
        <source id="Plane_035-mesh-normals">
          <float_array id="Plane_035-mesh-normals-array" count="48">-1 2.78622e-5 0 -2.20856e-4 -1 0 9.30256e-5 1 0 1 5.57072e-5 0 0 0 1 -1 2.16545e-5 0 -9.77003e-5 -1 0 5.58648e-5 1 0 0 0 -1 1 0 0 -1 2.80341e-5 0 9.30256e-5 1 0 4.11012e-7 0 1 -1 2.18059e-5 0 5.58648e-5 1 0 0 0 -1</float_array>
          <technique_common>
            <accessor source="#Plane_035-mesh-normals-array" count="16" stride="3">
              <param name="X" type="float"/>
              <param name="Y" type="float"/>
              <param name="Z" type="float"/>
            </accessor>
          </technique_common>
        </source>
        <source id="Plane_035-mesh-map-0">
          <float_array id="Plane_035-mesh-map-0-array" count="120">0.9374415 0.316709 0.928564 0.2344321 0.9374415 0.2344351 0.6878349 0.9399138 0.6665223 0.8576362 0.6878349 0.8576439 0.9400196 0.3990028 0.9187076 0.3167405 0.9400196 0.3167333 0.3642063 0.6713904 0.3553239 0.589113 0.3642063 0.5891125 0.9754385 0.7456029 0.9869235 0.6923388 0.9869235 0.7456039 0.2714727 0.9973828 0.2599948 0.961237 0.2714727 0.9612409 0.4276705 0.91612 0.4638105 0.8628573 0.4638105 0.9161069 0.666522 0.8576487 0.630382 0.9108874 0.630382 0.8576364 0.9754381 0.6390729 0.9869217 0.6923366 0.9754381 0.6923359 0.8776556 0.9970349 0.8661735 0.9608921 0.8776556 0.9608914 0.9374415 0.316709 0.928564 0.316706 0.928564 0.2344321 0.6878349 0.9399138 0.6665223 0.9399061 0.6665223 0.8576362 0.9400196 0.3990028 0.9187076 0.39901 0.9187076 0.3167405 0.3642063 0.6713904 0.3553239 0.671391 0.3553239 0.589113 0.9754385 0.7456029 0.9754406 0.6923372 0.9869235 0.6923388 0.2714727 0.9973828 0.2599948 0.997379 0.2599948 0.961237 0.4276705 0.91612 0.4276705 0.8628703 0.4638105 0.8628573 0.666522 0.8576487 0.666522 0.9108997 0.630382 0.9108874 0.9754381 0.6390729 0.9869238 0.6390722 0.9869217 0.6923366 0.8776556 0.9970349 0.8661735 0.9970356 0.8661735 0.9608921</float_array>
          <technique_common>
            <accessor source="#Plane_035-mesh-map-0-array" count="60" stride="2">
              <param name="S" type="float"/>
              <param name="T" type="float"/>
            </accessor>
          </technique_common>
        </source>
        <source id="Plane_035-mesh-colors-Attribute" name="Attribute">
          <float_array id="Plane_035-mesh-colors-Attribute-array" count="240">1 1 1 1 1 1 1 1 1 1 1 1 1 1 1 1 1 1 1 1 1 1 1 1 1 1 1 1 1 1 1 1 1 1 1 1 1 1 1 1 1 1 1 1 1 1 1 1 1 1 1 1 1 1 1 1 1 1 1 1 1 1 1 1 1 1 1 1 1 1 1 1 1 1 1 1 1 1 1 1 1 1 1 1 1 1 1 1 1 1 1 1 1 1 1 1 1 1 1 1 1 1 1 1 1 1 1 1 1 1 1 1 1 1 1 1 1 1 1 1 1 1 1 1 1 1 1 1 1 1 1 1 1 1 1 1 1 1 1 1 1 1 1 1 1 1 1 1 1 1 1 1 1 1 1 1 1 1 1 1 1 1 1 1 1 1 1 1 1 1 1 1 1 1 1 1 1 1 1 1 1 1 1 1 1 1 1 1 1 1 1 1 1 1 1 1 1 1 1 1 1 1 1 1 1 1 1 1 1 1 1 1 1 1 1 1 1 1 1 1 1 1 1 1 1 1 1 1 1 1 1 1 1 1 1 1 1 1 1 1</float_array>
          <technique_common>
            <accessor source="#Plane_035-mesh-colors-Attribute-array" count="60" stride="4">
              <param name="R" type="float"/>
              <param name="G" type="float"/>
              <param name="B" type="float"/>
              <param name="A" type="float"/>
            </accessor>
          </technique_common>
        </source>
        <vertices id="Plane_035-mesh-vertices">
          <input semantic="POSITION" source="#Plane_035-mesh-positions"/>
        </vertices>
        <triangles material="industrial-material" count="20">
          <input semantic="VERTEX" source="#Plane_035-mesh-vertices" offset="0"/>
          <input semantic="NORMAL" source="#Plane_035-mesh-normals" offset="1"/>
          <input semantic="TEXCOORD" source="#Plane_035-mesh-map-0" offset="2" set="0"/>
          <input semantic="COLOR" source="#Plane_035-mesh-colors-Attribute" offset="3" set="0"/>
          <p>5 0 0 0 1 0 1 1 0 0 2 2 6 1 3 3 2 1 4 4 1 1 5 5 4 2 6 6 0 2 7 7 3 2 8 8 7 3 9 9 3 3 10 10 2 3 11 11 11 4 12 12 9 4 13 13 10 4 14 14 13 5 15 15 9 5 16 16 8 5 17 17 14 6 18 18 10 6 19 19 9 6 20 20 12 7 21 21 8 7 22 22 11 7 23 23 12 8 24 24 14 8 25 25 13 8 26 26 15 9 27 27 11 9 28 28 10 9 29 29 5 10 30 30 6 10 31 31 1 10 32 32 6 1 33 33 7 1 34 34 2 1 35 35 4 11 36 36 5 11 37 37 0 11 38 38 7 3 39 39 4 3 40 40 3 3 41 41 11 12 42 42 8 12 43 43 9 12 44 44 13 13 45 45 14 13 46 46 9 13 47 47 14 6 48 48 15 6 49 49 10 6 50 50 12 14 51 51 13 14 52 52 8 14 53 53 12 15 54 54 15 15 55 55 14 15 56 56 15 9 57 57 12 9 58 58 11 9 59 59</p>
        </triangles>
      </mesh>
    </geometry>
  </library_geometries>
  <library_visual_scenes>
    <visual_scene id="Scene" name="Scene">
      <node id="base00" name="base00" type="NODE">
        <matrix sid="transform">1 0 0 0 0 1 0 0 0 0 1 0 0 0 0 1</matrix>
        <node id="start01" name="start01" type="NODE">
          <matrix sid="transform">1 0 0 0 0 1 0 0 0 0 1 0 0 0 0 1</matrix>
          <node id="nulldetail10" name="nulldetail10" type="NODE">
            <matrix sid="transform">1 0 0 0 0 1 0 0 0 0 1 0 0 0 0 1</matrix>
          </node>
          <node id="Colmesh_s_sound_sign_001-1" name="Colmesh_s_sound_sign_001-1" type="NODE">
            <matrix sid="transform">1 0 0 0 0 1 0 0 0 0 1 0 0 0 0 1</matrix>
            <instance_geometry url="#Plane_035-mesh" name="Colmesh_s_sound_sign_001-1">
              <bind_material>
                <technique_common>
                  <instance_material symbol="industrial-material" target="#industrial-material">
                    <bind_vertex_input semantic="UVMap" input_semantic="TEXCOORD" input_set="0"/>
                  </instance_material>
                </technique_common>
              </bind_material>
            </instance_geometry>
          </node>
          <node id="s_sound_sign_001_L45" name="s_sound_sign_001_L45" type="NODE">
            <matrix sid="transform">1 0 0 0 0 1 0 0 0 0 1 0 0 0 0 1</matrix>
            <instance_geometry url="#Plane_138-mesh" name="s_sound_sign_001_L45">
              <bind_material>
                <technique_common>
                  <instance_material symbol="architraves-material" target="#architraves-material">
                    <bind_vertex_input semantic="UVMap" input_semantic="TEXCOORD" input_set="0"/>
                  </instance_material>
                  <instance_material symbol="industrial-material" target="#industrial-material">
                    <bind_vertex_input semantic="UVMap" input_semantic="TEXCOORD" input_set="0"/>
                  </instance_material>
                  <instance_material symbol="windows_doors_reflective-material" target="#windows_doors_reflective-material">
                    <bind_vertex_input semantic="UVMap" input_semantic="TEXCOORD" input_set="0"/>
                  </instance_material>
                  <instance_material symbol="corrugation-material" target="#corrugation-material">
                    <bind_vertex_input semantic="UVMap" input_semantic="TEXCOORD" input_set="0"/>
                  </instance_material>
                  <instance_material symbol="slabs_large-material" target="#slabs_large-material">
                    <bind_vertex_input semantic="UVMap" input_semantic="TEXCOORD" input_set="0"/>
                  </instance_material>
                  <instance_material symbol="metal_plates-material" target="#metal_plates-material">
                    <bind_vertex_input semantic="UVMap" input_semantic="TEXCOORD" input_set="0"/>
                  </instance_material>
                  <instance_material symbol="balustrades-material" target="#balustrades-material">
                    <bind_vertex_input semantic="UVMap" input_semantic="TEXCOORD" input_set="0"/>
                  </instance_material>
                  <instance_material symbol="brick_painted-material" target="#brick_painted-material">
                    <bind_vertex_input semantic="UVMap" input_semantic="TEXCOORD" input_set="0"/>
                  </instance_material>
                  <instance_material symbol="stucco1_white-material" target="#stucco1_white-material">
                    <bind_vertex_input semantic="UVMap" input_semantic="TEXCOORD" input_set="0"/>
                  </instance_material>
                  <instance_material symbol="columns-material" target="#columns-material">
                    <bind_vertex_input semantic="UVMap" input_semantic="TEXCOORD" input_set="0"/>
                  </instance_material>
                  <instance_material symbol="construction-material" target="#construction-material">
                    <bind_vertex_input semantic="UVMap" input_semantic="TEXCOORD" input_set="0"/>
                  </instance_material>
                  <instance_material symbol="clutter_commercial-material" target="#clutter_commercial-material">
                    <bind_vertex_input semantic="UVMap" input_semantic="TEXCOORD" input_set="0"/>
                  </instance_material>
                  <instance_material symbol="brick_plain-material" target="#brick_plain-material">
                    <bind_vertex_input semantic="UVMap" input_semantic="TEXCOORD" input_set="0"/>
                  </instance_material>
                  <instance_material symbol="stone_brick_regular-material" target="#stone_brick_regular-material">
                    <bind_vertex_input semantic="UVMap" input_semantic="TEXCOORD" input_set="0"/>
                  </instance_material>
                  <instance_material symbol="curbs-material" target="#curbs-material">
                    <bind_vertex_input semantic="UVMap" input_semantic="TEXCOORD" input_set="0"/>
                  </instance_material>
                  <instance_material symbol="wirefence-material" target="#wirefence-material">
                    <bind_vertex_input semantic="UVMap" input_semantic="TEXCOORD" input_set="0"/>
                  </instance_material>
                  <instance_material symbol="groundmesh_grass2-material" target="#groundmesh_grass2-material">
                    <bind_vertex_input semantic="UVMap" input_semantic="TEXCOORD" input_set="0"/>
                  </instance_material>
                  <instance_material symbol="billboards-material" target="#billboards-material">
                    <bind_vertex_input semantic="UVMap" input_semantic="TEXCOORD" input_set="0"/>
                  </instance_material>
                  <instance_material symbol="road_asphalt-material" target="#road_asphalt-material">
                    <bind_vertex_input semantic="UVMap" input_semantic="TEXCOORD" input_set="0"/>
                  </instance_material>
                </technique_common>
              </bind_material>
            </instance_geometry>
          </node>
        </node>
      </node>
    </visual_scene>
  </library_visual_scenes>
  <scene>
    <instance_visual_scene url="#Scene"/>
  </scene>
</COLLADA>