<svg xmlns="http://www.w3.org/2000/svg" width="860" height="455" viewBox="0 0 860 455" font-family="Segoe UI, Arial, sans-serif"><rect width="100%" height="100%" fill="#ffffff"/><defs><marker id="ah" markerWidth="10" markerHeight="10" refX="9" refY="5" orient="auto"><path d="M0,0 L10,5 L0,10 z" fill="#1c2026"/></marker></defs><rect x="40" y="20" width="330" height="70" rx="8" fill="#eef3fb" stroke="#1d63c4" stroke-width="2"/><text x="205.0" y="51.0" text-anchor="middle" font-size="17" font-weight="700" fill="#1c2026">R-19 40 (placa)</text><text x="205.0" y="73.0" text-anchor="middle" font-size="13" fill="#4c5560">mesh + material próprios</text><line x1="205" y1="90" x2="205" y2="118" stroke="#1c2026" stroke-width="2" marker-end="url(#ah)"/><rect x="40" y="120" width="330" height="70" rx="8" fill="#eef3fb" stroke="#1d63c4" stroke-width="2"/><text x="205.0" y="151.0" text-anchor="middle" font-size="17" font-weight="700" fill="#1c2026">DecalRoad.speedLimit</text><text x="205.0" y="173.0" text-anchor="middle" font-size="13" fill="#4c5560">"11.1111" (m/s, texto)</text><line x1="205" y1="190" x2="205" y2="218" stroke="#1c2026" stroke-width="2" marker-end="url(#ah)"/><rect x="40" y="220" width="330" height="70" rx="8" fill="#eef3fb" stroke="#1d63c4" stroke-width="2"/><text x="205.0" y="251.0" text-anchor="middle" font-size="17" font-weight="700" fill="#1c2026">navgraph</text><text x="205.0" y="273.0" text-anchor="middle" font-size="13" fill="#4c5560">map.getMap(): links[].speedLimit</text><line x1="205" y1="290" x2="205" y2="318" stroke="#1c2026" stroke-width="2" marker-end="url(#ah)"/><rect x="40" y="320" width="330" height="70" rx="8" fill="#eef3fb" stroke="#1d63c4" stroke-width="2"/><text x="205.0" y="351.0" text-anchor="middle" font-size="17" font-weight="700" fill="#1c2026">IA · tráfego · polícia</text><text x="205.0" y="373.0" text-anchor="middle" font-size="13" fill="#4c5560">set_ai speedMode legal; infrações</text><rect x="470" y="120" width="350" height="70" rx="8" fill="#fff7e8" stroke="#e67814" stroke-width="2"/><text x="645.0" y="151.0" text-anchor="middle" font-size="17" font-weight="700" fill="#1c2026">slotTraffic.json</text><text x="645.0" y="173.0" text-anchor="middle" font-size="13" fill="#4c5560">cópia derivada (faixas + ligações, m/s)</text><line x1="370" y1="155" x2="468" y2="155" stroke="#1c2026" stroke-width="2" marker-end="url(#ah)"/><rect x="470" y="240" width="350" height="70" rx="8" fill="#f3f4f6" stroke="#8a9099" stroke-width="2"/><text x="645.0" y="271.0" text-anchor="middle" font-size="17" font-weight="700" fill="#1c2026">Radares · zonas · missões</text><text x="645.0" y="293.0" text-anchor="middle" font-size="13" fill="#4c5560">valores próprios (m/s) — fora da Fase 5</text><rect x="470" y="340" width="350" height="70" rx="8" fill="#f3f4f6" stroke="#8a9099" stroke-width="2"/><text x="645.0" y="371.0" text-anchor="middle" font-size="17" font-weight="700" fill="#1c2026">ADAS (mods de pesquisa)</text><text x="645.0" y="393.0" text-anchor="middle" font-size="13" fill="#4c5560">limiar fixo em km/h, não lê o mapa</text><line x1="370" y1="255" x2="468" y2="275" stroke="#1c2026" stroke-width="2" stroke-dasharray="6,5" marker-end="url(#ah)"/><line x1="370" y1="355" x2="468" y2="375" stroke="#1c2026" stroke-width="2" stroke-dasharray="6,5" marker-end="url(#ah)"/><text x="40" y="440" font-size="13" fill="#4c5560">Linha cheia: alterado e verificado na Fase 5 (navgraph 13/13, IA 40,4 km/h máx.). Tracejado: deve convergir, ainda não alterado.</text></svg>
